<?xml version="1.0" encoding="UTF-8"?>
<svg xmlns="http://www.w3.org/2000/svg" xmlns:xlink="http://www.w3.org/1999/xlink" id="Layer_2" viewBox="0 0 372.45 300.74">
  <defs>
    <style>.cls-1{fill:none;stroke:#ec1d2b;stroke-miterlimit:10;stroke-width:3px;}.cls-2{fill:url(#linear-gradient);}.cls-2,.cls-3,.cls-4{stroke-width:0px;}.cls-5{letter-spacing:-.05em;}.cls-6{font-family:Helvetica, Helvetica;font-size:22px;}.cls-3{fill-rule:evenodd;}.cls-3,.cls-4{fill:#231f20;}</style>
    <linearGradient id="linear-gradient" x1="310.11" y1="-5139.42" x2="310.23" y2="-5139.42" gradientTransform="translate(0 -4965.81) scale(1 -1)" gradientUnits="userSpaceOnUse">
      <stop offset="0" stop-color="#ed1c24"></stop>
      <stop offset=".24" stop-color="#e91c24"></stop>
      <stop offset=".4" stop-color="#e11b22"></stop>
      <stop offset=".55" stop-color="#d41920"></stop>
      <stop offset=".68" stop-color="#c3161d"></stop>
      <stop offset=".81" stop-color="#ad1116"></stop>
      <stop offset=".93" stop-color="#92080b"></stop>
      <stop offset="1" stop-color="#810101"></stop>
    </linearGradient>
  </defs>
  <text class="cls-6" transform="translate(56.71 245.18)">
    <tspan x="0" y="0">Agrégalo mientras cocinas</tspan>
    <tspan x="26.28" y="26.4">para realzar el sabo</tspan>
    <tspan class="cls-5" x="220.73" y="26.4">r</tspan>
    <tspan x="226.85" y="26.4">.</tspan>
  </text>
  <line class="cls-1" x1="2.04" y1="204.02" x2="370.63" y2="204.02"></line>
  <rect class="cls-1" x="2.26" y="1.99" width="368.37" height="296.82" rx="51.44" ry="51.44"></rect>
  <path class="cls-3" d="m322.67,144.46c-.05-.99-.02-1.76,0-1.99l-2.59-.21c-.03.36-.06,1.27,0,2.39.03.57.21,1.09.6,1.52.33.37.74.58.98.7.04.02.08.04.12.06.46.23.81.41,1.19.89.26.32.41.82.43,1.43.03.6-.07,1.16-.16,1.46l-.05.18v2.84c0,1.73,0,3.47,0,5.22-.02,19.25-.05,39.39,0,43.56l2.6-.03c-.05-4.15-.03-24.28,0-43.55,0-1.74,0-3.48,0-5.19v-2.48c.14-.54.24-1.3.21-2.1-.04-.9-.27-2.01-1-2.93-.75-.94-1.56-1.34-2.05-1.59-.04-.02-.08-.04-.12-.06-.07-.04-.13-.07-.16-.09Zm-42.59-.89c.07-.41.07-.85.05-1.12l2.59-.18c.03.43.03,1.08-.08,1.73-.1.57-.33,1.5-1.03,2.09-.14.12-.3.23-.43.32h-.02c-.14.11-.27.2-.4.31-.27.21-.51.43-.71.7-.35.48-.7,1.28-.4,2.8l.02.12v.13c0,.42-.03,3.09-.06,7.26-.1,9.93-.27,28.31-.37,44.76l-2.6-.02c.1-16.49.28-34.88.37-44.78.04-3.85.06-6.42.06-7.1-.38-2.1.07-3.61.88-4.71.39-.53.83-.92,1.2-1.21.17-.14.34-.25.47-.35,0,0,.01,0,.02-.01.12-.09.2-.15.26-.19,0-.01.02-.04.04-.08.05-.11.09-.26.12-.47Z"></path>
  <path class="cls-3" d="m324.71,154.8h-46.76v-2.6h46.76v2.6Z"></path>
  <path class="cls-4" d="m317.29,142.36h-31.92c-2.87,0-5.2-2.33-5.2-5.2v-7.36c0-2.14.89-2.44,1.38-2.59.38-.12,13.16-.34,19.5-.44,5.11.1,17.07.44,19.44.44,1.44,0,1.99,1.03,1.99,1.85v8.1c0,2.87-2.33,5.2-5.2,5.2Z"></path>
  <path class="cls-3" d="m301.06,125.48h.02c2.15.04,5.49.13,8.81.21,4.63.12,9.23.23,10.6.23,1.06,0,1.93.4,2.51,1.06.56.63.78,1.41.78,2.09v8.1c0,3.59-2.91,6.49-6.49,6.49h-31.92c-3.59,0-6.49-2.91-6.49-6.49v-7.36c0-1.23.26-2.17.78-2.84.54-.69,1.21-.89,1.5-.98,0,0,0,0,0,0,.14-.04.28-.06.31-.06,0,0,0,0,0,0,.06,0,.12-.01.19-.02.13,0,.31-.02.51-.03.41-.02.97-.04,1.65-.06,1.36-.04,3.19-.08,5.21-.12,4.04-.08,8.82-.17,11.99-.21h.02Zm-19.29,3.02s0,0,0,0c-.02,0-.03,0,0,0Zm.07,0s.01,0,.02,0c.1,0,.25-.02.44-.02.39-.02.94-.04,1.61-.06,1.35-.04,3.17-.08,5.19-.12,4.02-.08,8.79-.16,11.96-.21,2.1.04,5.38.12,8.68.21,4.67.12,9.37.24,10.76.24.2,0,.33.04.41.07.07.03.12.07.16.11.08.09.13.23.13.37v8.1c0,2.15-1.74,3.9-3.9,3.9h-31.92c-2.15,0-3.9-1.74-3.9-3.9v-7.36c0-.91.19-1.19.23-1.24,0,0,0,0,0,0,.02-.02.03-.04.13-.07Z"></path>
  <path class="cls-4" d="m307.96,173.27c2.54.52,5,1.3,7.32,2.31l-.08-3.87,2.92-2.62c-1.11-.49-2.25-.93-3.42-1.32l-1.65,4.85c-1.5-.51-3.03-.92-4.6-1.25l-.49,1.89Z"></path>
  <path class="cls-4" d="m292.82,171.39c-1.57.33-3.11.75-4.6,1.26l-1.65-4.85c-1.16.4-2.3.84-3.42,1.33l2.91,2.61-.07,3.87c2.33-1.02,4.78-1.8,7.32-2.32l-.49-1.89Z"></path>
  <path class="cls-3" d="m288.5,172.09l-2.01-5.9c4.45-1.47,9.22-2.27,14.16-2.27s9.69.79,14.13,2.25l-2.01,5.9c-3.82-1.25-7.89-1.92-12.12-1.92s-8.33.68-12.16,1.94Zm16.55-5.12l2.19.23c-.03.23-.06.42-.09.61-.04.18-.09.35-.17.5-.1.21-.23.4-.38.56-.15.16-.32.28-.52.37-.19.09-.4.16-.62.2-.23.03-.46.04-.7.02-.33-.03-.62-.12-.88-.26-.26-.14-.47-.32-.65-.53-.17-.22-.3-.47-.38-.76-.08-.29-.1-.6-.07-.93.03-.33.12-.62.26-.89.13-.27.32-.48.53-.66s.47-.3.76-.38c.29-.08.61-.1.95-.07.44.05.82.18,1.13.41.32.22.55.55.7.97l-1.09.32c-.07-.24-.18-.42-.32-.54-.14-.12-.32-.19-.51-.21-.17-.02-.32,0-.46.04-.14.05-.27.12-.37.22-.11.11-.2.23-.27.39-.07.16-.12.33-.14.53-.02.18-.02.35.02.51.03.16.08.3.17.42s.19.22.32.3c.13.08.29.12.47.14.11,0,.22,0,.32,0,.1-.02.2-.04.28-.09.08-.04.16-.11.23-.19.06-.08.11-.18.14-.31l-.91-.1.08-.84Zm7.31,1.37l-2.14-.51-.24.83.89.21c-.04.12-.1.21-.17.28-.07.07-.15.12-.24.16-.09.03-.18.05-.29.05s-.21-.02-.32-.04c-.17-.04-.32-.11-.45-.2-.12-.1-.22-.21-.28-.34-.07-.13-.11-.28-.12-.44,0-.17,0-.33.05-.51.05-.19.12-.37.21-.51.09-.14.2-.26.32-.35.12-.08.25-.15.4-.17.15-.02.31-.02.47.02.19.05.36.14.48.27.13.14.21.33.26.58l1.12-.18c-.09-.44-.28-.79-.56-1.06-.28-.27-.64-.45-1.07-.55-.33-.08-.65-.1-.95-.06-.29.04-.56.14-.8.28-.23.14-.44.34-.61.58-.17.24-.29.52-.37.85-.07.33-.09.64-.05.93.04.29.14.56.28.8.15.24.34.45.58.61.24.17.52.29.85.37.23.06.47.08.69.07.22,0,.44-.05.65-.12.21-.07.39-.17.56-.31.17-.13.33-.3.45-.5.09-.14.17-.3.23-.47.06-.17.12-.37.17-.59Zm-19.5.25c-.03-.12-.08-.24-.12-.34-.06-.1-.12-.19-.22-.26-.09-.08-.19-.12-.32-.16-.12-.03-.27-.05-.42-.04.13-.13.22-.27.26-.43.04-.16.04-.34,0-.55-.08-.34-.24-.59-.48-.72-.24-.14-.55-.17-.93-.07l-1.7.39-.12.93.41-.1.76,3.3,1.74-.4c.22-.05.42-.12.57-.22.16-.09.3-.21.4-.33.1-.13.17-.28.2-.45.02-.17.02-.35-.02-.54Zm-2.58-1.64l.2-.05c.34-.08.54.02.6.28.06.26-.08.44-.42.51l-.2.05-.18-.8Zm1.37,2.2c-.1.1-.29.17-.56.24l-.23.06-.21-.88.23-.06c.28-.07.47-.07.61-.03.13.04.21.14.26.29.03.16,0,.28-.1.38Zm4.31-1.5l1.55,1.57-1.37.17-1.25-1.5.2,1.63-1.1.13-.42-3.36-.42.06.21-.91,1.8-.22c.24-.03.45-.02.63.02.19.05.34.12.47.23.12.11.23.23.31.38.07.15.12.31.15.49.04.32,0,.6-.13.82-.13.21-.35.38-.64.49Zm-.96-.5c.22-.03.37-.09.48-.2.11-.1.15-.24.13-.41-.02-.17-.1-.29-.22-.37-.12-.07-.3-.1-.52-.07l-.21.02.12,1.05.21-.02Zm5.7-2.29l-1.61.02-.32.88h.42l-1.25,3.41,1.18-.02.24-.74,1.58-.02.27.74,1.18-.02-1.68-4.25Zm-1.06,2.69l.48-1.42.52,1.41h-1Zm13.89,0c.26,0,.47-.2.47-.46s-.2-.46-.47-.46-.47.21-.47.46.21.46.47.46Zm0-.09c-.21,0-.36-.17-.36-.37s.15-.37.36-.36c.2,0,.35.17.35.37s-.15.36-.35.36Zm-.18-.13h.11v-.18h.05c.06,0,.08.03.09.08,0,.05.02.09.03.11h.12s-.02-.05-.03-.12c-.02-.06-.04-.09-.08-.11h0c.05-.02.09-.07.09-.12,0-.04-.02-.08-.04-.1-.03-.02-.07-.03-.16-.03-.07,0-.13,0-.17.02v.46Zm.16-.26h-.05v-.12s.03,0,.06,0c.07,0,.1.03.1.07,0,.05-.05.07-.11.07Z"></path>
  <path class="cls-2" d="m310.11,173.6s.08.02.12.03v-.02s-.08-.02-.12-.02Z"></path>
  <path class="cls-3" d="m46.89,153.02h212.92v49.46h-2.6v-46.87H49.48v46.87h-2.6v-49.46Z"></path>
  <path class="cls-3" d="m81.9,190.25c6.55,0,11.85-5.31,11.85-11.85s-5.31-11.85-11.85-11.85-11.85,5.31-11.85,11.85,5.31,11.85,11.85,11.85Zm0,2.6c7.98,0,14.45-6.47,14.45-14.45s-6.47-14.45-14.45-14.45-14.45,6.47-14.45,14.45,6.47,14.45,14.45,14.45Z"></path>
  <path class="cls-3" d="m81.9,185.44c3.89,0,7.04-3.15,7.04-7.04s-3.15-7.03-7.04-7.03-7.04,3.15-7.04,7.03,3.15,7.04,7.04,7.04Zm0,2.6c5.32,0,9.63-4.31,9.63-9.63s-4.31-9.63-9.63-9.63-9.63,4.31-9.63,9.63,4.31,9.63,9.63,9.63Z"></path>
  <path class="cls-3" d="m154.15,185.44c3.89,0,7.04-3.15,7.04-7.04s-3.15-7.03-7.04-7.03-7.04,3.15-7.04,7.03,3.15,7.04,7.04,7.04Zm0,2.6c5.32,0,9.63-4.31,9.63-9.63s-4.31-9.63-9.63-9.63-9.63,4.31-9.63,9.63,4.31,9.63,9.63,9.63Z"></path>
  <path class="cls-3" d="m226.39,185.44c3.89,0,7.04-3.15,7.04-7.04s-3.15-7.03-7.04-7.03-7.03,3.15-7.03,7.03,3.15,7.04,7.03,7.04Zm0,2.6c5.32,0,9.63-4.31,9.63-9.63s-4.31-9.63-9.63-9.63-9.63,4.31-9.63,9.63,4.31,9.63,9.63,9.63Z"></path>
  <path class="cls-3" d="m154.15,190.25c6.55,0,11.85-5.31,11.85-11.85s-5.31-11.85-11.85-11.85-11.85,5.31-11.85,11.85,5.31,11.85,11.85,11.85Zm0,2.6c7.98,0,14.45-6.47,14.45-14.45s-6.47-14.45-14.45-14.45-14.45,6.47-14.45,14.45,6.47,14.45,14.45,14.45Z"></path>
  <path class="cls-3" d="m226.39,190.25c6.54,0,11.85-5.31,11.85-11.85s-5.31-11.85-11.85-11.85-11.85,5.31-11.85,11.85,5.31,11.85,11.85,11.85Zm0,2.6c7.98,0,14.45-6.47,14.45-14.45s-6.47-14.45-14.45-14.45-14.45,6.47-14.45,14.45,6.47,14.45,14.45,14.45Z"></path>
  <path class="cls-4" d="m195.89,177.6c0,3.1-2.51,5.62-5.62,5.62s-5.62-2.51-5.62-5.62,2.51-5.62,5.62-5.62,5.62,2.52,5.62,5.62Z"></path>
  <path class="cls-3" d="m190.27,180.62c1.67,0,3.02-1.35,3.02-3.02s-1.35-3.02-3.02-3.02-3.02,1.35-3.02,3.02,1.35,3.02,3.02,3.02Zm0,2.6c3.1,0,5.62-2.51,5.62-5.62s-2.51-5.62-5.62-5.62-5.62,2.52-5.62,5.62,2.51,5.62,5.62,5.62Z"></path>
  <path class="cls-4" d="m123.64,177.6c0,3.1-2.52,5.62-5.62,5.62s-5.62-2.51-5.62-5.62,2.52-5.62,5.62-5.62,5.62,2.52,5.62,5.62Z"></path>
  <path class="cls-3" d="m118.02,180.62c1.67,0,3.02-1.35,3.02-3.02s-1.35-3.02-3.02-3.02-3.02,1.35-3.02,3.02,1.35,3.02,3.02,3.02Zm0,2.6c3.1,0,5.62-2.51,5.62-5.62s-2.52-5.62-5.62-5.62-5.62,2.52-5.62,5.62,2.52,5.62,5.62,5.62Z"></path>
  <path class="cls-3" d="m199.72,145.33h-93.52v7.79h93.52v-7.79Zm-96.11-2.6v12.99h98.71v-12.99h-98.71Z"></path>
  <path class="cls-3" d="m225.4,55.6H86.1v3.12h139.3v-3.12Zm-141.9-2.6v8.32h144.49v-8.32H83.51Z"></path>
  <path class="cls-3" d="m225.4,61.42H86.1v63.13c0,10.04,8.14,18.18,18.18,18.18h102.93c10.04,0,18.18-8.14,18.18-18.18v-63.13Zm-141.9-2.6v65.73c0,11.48,9.3,20.78,20.78,20.78h102.93c11.48,0,20.78-9.3,20.78-20.78V58.82H83.51Z"></path>
  <path class="cls-3" d="m64.08,61.73h21.6v24.07l-21.6-6.64v-17.43Zm2.6,2.6v12.92l16.41,5.04v-17.96h-16.41Z"></path>
  <path class="cls-3" d="m247.2,61.73h-21.6v24.07l21.6-6.64v-17.43Zm-2.6,2.6v12.92l-16.41,5.04v-17.96h16.41Z"></path>
  <path class="cls-3" d="m138,16.63c.31.65.03,1.42-.62,1.73-.77.36-1.71.82-2.48,1.62-.73.76-1.36,1.88-1.36,3.69,0,1.09.28,1.77.66,2.3.39.55.9.98,1.58,1.55.06.05.12.1.17.15.72.61,1.59,1.37,2.24,2.46.67,1.12,1.08,2.5,1.08,4.33,0,5.79-3.48,8.33-5.59,8.82-.7.16-1.4-.27-1.56-.97-.16-.7.27-1.4.97-1.56.95-.22,3.58-1.72,3.58-6.29,0-1.41-.31-2.32-.71-2.99-.42-.7-.99-1.22-1.7-1.82-.07-.06-.13-.11-.2-.17-.63-.53-1.4-1.18-1.99-2.01-.7-.98-1.13-2.19-1.13-3.8,0-2.51.9-4.27,2.08-5.49,1.12-1.16,2.45-1.79,3.21-2.15.01,0,.02-.01.04-.02.65-.31,1.42-.03,1.73.62Z"></path>
  <path class="cls-3" d="m157.37,16.43c.41.59.27,1.4-.31,1.81-.49.35-1.08.77-1.57,1.53-.49.75-.94,1.94-.94,3.89,0,1.18.21,1.94.47,2.5.26.55.59.97,1.04,1.54.04.05.08.1.12.15.49.63,1.07,1.39,1.5,2.46.43,1.08.69,2.39.69,4.14,0,5.44-2.15,8.16-3.92,8.78-.68.24-1.42-.12-1.66-.79s.12-1.42.79-1.66c.27-.1,2.19-1.41,2.19-6.33,0-1.49-.22-2.47-.5-3.18-.29-.71-.67-1.24-1.13-1.82-.04-.05-.09-.11-.13-.17-.43-.54-.94-1.19-1.33-2.02-.45-.95-.72-2.09-.72-3.61,0-2.38.56-4.07,1.35-5.29.77-1.2,1.71-1.86,2.24-2.24,0,0,.01,0,.02-.01.59-.41,1.4-.27,1.81.31Z"></path>
  <path class="cls-3" d="m178.12,16.63c.31.65.03,1.42-.62,1.73-.77.36-1.71.82-2.48,1.62-.73.76-1.36,1.88-1.36,3.69,0,1.09.28,1.77.66,2.3.39.55.9.98,1.58,1.55.06.05.11.1.17.15.72.61,1.59,1.37,2.24,2.46.67,1.12,1.08,2.5,1.08,4.33,0,5.79-3.48,8.33-5.59,8.82-.7.16-1.4-.27-1.56-.97-.16-.7.27-1.4.97-1.56.95-.22,3.58-1.72,3.58-6.29,0-1.41-.31-2.32-.71-2.99-.42-.7-.99-1.22-1.7-1.82-.07-.06-.13-.11-.2-.17-.63-.53-1.4-1.18-1.99-2.01-.7-.98-1.13-2.19-1.13-3.8,0-2.51.9-4.27,2.08-5.49,1.12-1.16,2.45-1.79,3.21-2.15.01,0,.02-.01.03-.02.65-.31,1.42-.03,1.73.62Z"></path>
  <path class="cls-4" d="m98.91,66.83c.79,0,1.42-.65,1.42-1.44s-.64-1.44-1.42-1.44-1.42.65-1.42,1.44.64,1.44,1.42,1.44Z"></path>
  <path class="cls-4" d="m106.04,66.83c.79,0,1.42-.65,1.42-1.44s-.64-1.44-1.42-1.44-1.42.65-1.42,1.44.64,1.44,1.42,1.44Z"></path>
  <path class="cls-4" d="m113.16,66.83c.79,0,1.42-.65,1.42-1.44s-.64-1.44-1.42-1.44-1.42.65-1.42,1.44.64,1.44,1.42,1.44Z"></path>
  <path class="cls-4" d="m120.28,66.83c.79,0,1.42-.65,1.42-1.44s-.64-1.44-1.42-1.44-1.42.65-1.42,1.44.64,1.44,1.42,1.44Z"></path>
  <path class="cls-4" d="m127.4,66.83c.79,0,1.42-.65,1.42-1.44s-.64-1.44-1.42-1.44-1.42.65-1.42,1.44.64,1.44,1.42,1.44Z"></path>
  <path class="cls-4" d="m134.52,66.83c.79,0,1.42-.65,1.42-1.44s-.64-1.44-1.42-1.44-1.42.65-1.42,1.44.64,1.44,1.42,1.44Z"></path>
  <path class="cls-4" d="m141.65,66.83c.79,0,1.42-.65,1.42-1.44s-.64-1.44-1.42-1.44-1.42.65-1.42,1.44.64,1.44,1.42,1.44Z"></path>
  <path class="cls-4" d="m148.77,66.83c.79,0,1.42-.65,1.42-1.44s-.64-1.44-1.42-1.44-1.42.65-1.42,1.44.64,1.44,1.42,1.44Z"></path>
  <path class="cls-4" d="m155.89,66.83c.79,0,1.42-.65,1.42-1.44s-.64-1.44-1.42-1.44-1.42.65-1.42,1.44.64,1.44,1.42,1.44Z"></path>
  <path class="cls-4" d="m163.01,66.83c.79,0,1.42-.65,1.42-1.44s-.64-1.44-1.42-1.44-1.42.65-1.42,1.44.64,1.44,1.42,1.44Z"></path>
  <path class="cls-4" d="m170.14,66.83c.79,0,1.42-.65,1.42-1.44s-.64-1.44-1.42-1.44-1.43.65-1.43,1.44.64,1.44,1.43,1.44Z"></path>
  <path class="cls-4" d="m177.26,66.83c.79,0,1.43-.65,1.43-1.44s-.64-1.44-1.43-1.44-1.42.65-1.42,1.44.64,1.44,1.42,1.44Z"></path>
  <path class="cls-4" d="m184.38,66.83c.79,0,1.42-.65,1.42-1.44s-.64-1.44-1.42-1.44-1.43.65-1.43,1.44.64,1.44,1.43,1.44Z"></path>
  <path class="cls-4" d="m191.5,66.83c.79,0,1.43-.65,1.43-1.44s-.64-1.44-1.43-1.44-1.42.65-1.42,1.44.64,1.44,1.42,1.44Z"></path>
  <path class="cls-4" d="m198.62,66.83c.79,0,1.42-.65,1.42-1.44s-.64-1.44-1.42-1.44-1.43.65-1.43,1.44.64,1.44,1.43,1.44Z"></path>
  <path class="cls-4" d="m205.75,66.83c.79,0,1.42-.65,1.42-1.44s-.64-1.44-1.42-1.44-1.43.65-1.43,1.44.64,1.44,1.43,1.44Z"></path>
  <path class="cls-4" d="m205.9,66.83c.79,0,1.42-.65,1.42-1.44s-.64-1.44-1.42-1.44-1.43.65-1.43,1.44.64,1.44,1.43,1.44Z"></path>
  <path class="cls-4" d="m213.02,66.83c.79,0,1.42-.65,1.42-1.44s-.64-1.44-1.42-1.44-1.43.65-1.43,1.44.64,1.44,1.43,1.44Z"></path>
  <path class="cls-4" d="m220.15,66.83c.79,0,1.42-.65,1.42-1.44s-.64-1.44-1.42-1.44-1.43.65-1.43,1.44.64,1.44,1.43,1.44Z"></path>
  <path class="cls-4" d="m91.86,66.83c.79,0,1.42-.65,1.42-1.44s-.64-1.44-1.42-1.44-1.42.65-1.42,1.44.64,1.44,1.42,1.44Z"></path>
  <path class="cls-4" d="m98.99,66.83c.79,0,1.42-.65,1.42-1.44s-.64-1.44-1.42-1.44-1.42.65-1.42,1.44.64,1.44,1.42,1.44Z"></path>
  <path class="cls-4" d="m106.11,66.83c.79,0,1.42-.65,1.42-1.44s-.64-1.44-1.42-1.44-1.42.65-1.42,1.44.64,1.44,1.42,1.44Z"></path>
  <path class="cls-4" d="m95.31,72.6c.79,0,1.42-.65,1.42-1.44s-.64-1.44-1.42-1.44-1.42.65-1.42,1.44.64,1.44,1.42,1.44Z"></path>
  <path class="cls-4" d="m102.43,72.6c.79,0,1.42-.65,1.42-1.44s-.64-1.44-1.42-1.44-1.42.65-1.42,1.44.64,1.44,1.42,1.44Z"></path>
  <path class="cls-4" d="m109.55,72.6c.79,0,1.42-.65,1.42-1.44s-.64-1.44-1.42-1.44-1.42.65-1.42,1.44.64,1.44,1.42,1.44Z"></path>
  <path class="cls-4" d="m116.67,72.6c.79,0,1.42-.65,1.42-1.44s-.64-1.44-1.42-1.44-1.42.65-1.42,1.44.64,1.44,1.42,1.44Z"></path>
  <path class="cls-4" d="m123.8,72.6c.79,0,1.42-.65,1.42-1.44s-.64-1.44-1.42-1.44-1.42.65-1.42,1.44.64,1.44,1.42,1.44Z"></path>
  <path class="cls-4" d="m130.92,72.6c.79,0,1.42-.65,1.42-1.44s-.64-1.44-1.42-1.44-1.42.65-1.42,1.44.64,1.44,1.42,1.44Z"></path>
  <path class="cls-4" d="m138.04,72.6c.79,0,1.42-.65,1.42-1.44s-.64-1.44-1.42-1.44-1.42.65-1.42,1.44.64,1.44,1.42,1.44Z"></path>
  <path class="cls-4" d="m145.16,72.6c.79,0,1.42-.65,1.42-1.44s-.64-1.44-1.42-1.44-1.42.65-1.42,1.44.64,1.44,1.42,1.44Z"></path>
  <path class="cls-4" d="m152.28,72.6c.79,0,1.42-.65,1.42-1.44s-.64-1.44-1.42-1.44-1.42.65-1.42,1.44.64,1.44,1.42,1.44Z"></path>
  <path class="cls-4" d="m159.41,72.6c.79,0,1.42-.65,1.42-1.44s-.64-1.44-1.42-1.44-1.42.65-1.42,1.44.64,1.44,1.42,1.44Z"></path>
  <path class="cls-4" d="m166.53,72.6c.79,0,1.42-.65,1.42-1.44s-.64-1.44-1.42-1.44-1.42.65-1.42,1.44.64,1.44,1.42,1.44Z"></path>
  <path class="cls-4" d="m173.65,72.6c.79,0,1.43-.65,1.43-1.44s-.64-1.44-1.43-1.44-1.43.65-1.43,1.44.64,1.44,1.43,1.44Z"></path>
  <path class="cls-4" d="m180.77,72.6c.79,0,1.42-.65,1.42-1.44s-.64-1.44-1.42-1.44-1.43.65-1.43,1.44.64,1.44,1.43,1.44Z"></path>
  <path class="cls-4" d="m187.89,72.6c.79,0,1.43-.65,1.43-1.44s-.64-1.44-1.43-1.44-1.42.65-1.42,1.44.64,1.44,1.42,1.44Z"></path>
  <path class="cls-4" d="m195.01,72.6c.79,0,1.43-.65,1.43-1.44s-.64-1.44-1.43-1.44-1.42.65-1.42,1.44.64,1.44,1.42,1.44Z"></path>
  <path class="cls-4" d="m202.14,72.6c.79,0,1.43-.65,1.43-1.44s-.64-1.44-1.43-1.44-1.42.65-1.42,1.44.64,1.44,1.42,1.44Z"></path>
  <path class="cls-4" d="m194.97,72.6c.79,0,1.43-.65,1.43-1.44s-.64-1.44-1.43-1.44-1.42.65-1.42,1.44.64,1.44,1.42,1.44Z"></path>
  <path class="cls-4" d="m202.09,72.6c.79,0,1.43-.65,1.43-1.44s-.64-1.44-1.43-1.44-1.42.65-1.42,1.44.64,1.44,1.42,1.44Z"></path>
  <path class="cls-4" d="m209.21,72.6c.79,0,1.43-.65,1.43-1.44s-.64-1.44-1.43-1.44-1.42.65-1.42,1.44.64,1.44,1.42,1.44Z"></path>
  <path class="cls-4" d="m216.34,72.6c.79,0,1.42-.65,1.42-1.44s-.64-1.44-1.42-1.44-1.43.65-1.43,1.44.64,1.44,1.43,1.44Z"></path>
  <path class="cls-4" d="m223.46,72.6c.79,0,1.43-.65,1.43-1.44s-.64-1.44-1.43-1.44-1.42.65-1.42,1.44.64,1.44,1.42,1.44Z"></path>
  <path class="cls-4" d="m88.34,72.6c.79,0,1.42-.65,1.42-1.44s-.64-1.44-1.42-1.44-1.42.65-1.42,1.44.64,1.44,1.42,1.44Z"></path>
  <path class="cls-4" d="m95.46,72.6c.79,0,1.42-.65,1.42-1.44s-.64-1.44-1.42-1.44-1.42.65-1.42,1.44.64,1.44,1.42,1.44Z"></path>
  <path class="cls-4" d="m102.58,72.6c.79,0,1.42-.65,1.42-1.44s-.64-1.44-1.42-1.44-1.42.65-1.42,1.44.64,1.44,1.42,1.44Z"></path>
  <path class="cls-4" d="m98.91,78.95c.79,0,1.42-.65,1.42-1.44s-.64-1.44-1.42-1.44-1.42.65-1.42,1.44.64,1.44,1.42,1.44Z"></path>
  <path class="cls-4" d="m106.04,78.95c.79,0,1.42-.65,1.42-1.44s-.64-1.44-1.42-1.44-1.42.65-1.42,1.44.64,1.44,1.42,1.44Z"></path>
  <path class="cls-4" d="m113.16,78.95c.79,0,1.42-.65,1.42-1.44s-.64-1.44-1.42-1.44-1.42.65-1.42,1.44.64,1.44,1.42,1.44Z"></path>
  <path class="cls-4" d="m120.28,78.95c.79,0,1.42-.65,1.42-1.44s-.64-1.44-1.42-1.44-1.42.65-1.42,1.44.64,1.44,1.42,1.44Z"></path>
  <path class="cls-4" d="m127.4,78.95c.79,0,1.42-.65,1.42-1.44s-.64-1.44-1.42-1.44-1.42.65-1.42,1.44.64,1.44,1.42,1.44Z"></path>
  <path class="cls-4" d="m134.52,78.95c.79,0,1.42-.65,1.42-1.44s-.64-1.44-1.42-1.44-1.42.65-1.42,1.44.64,1.44,1.42,1.44Z"></path>
  <path class="cls-4" d="m141.65,78.95c.79,0,1.42-.65,1.42-1.44s-.64-1.44-1.42-1.44-1.42.65-1.42,1.44.64,1.44,1.42,1.44Z"></path>
  <path class="cls-4" d="m148.77,78.95c.79,0,1.42-.65,1.42-1.44s-.64-1.44-1.42-1.44-1.42.65-1.42,1.44.64,1.44,1.42,1.44Z"></path>
  <path class="cls-4" d="m155.89,78.95c.79,0,1.42-.65,1.42-1.44s-.64-1.44-1.42-1.44-1.42.65-1.42,1.44.64,1.44,1.42,1.44Z"></path>
  <path class="cls-4" d="m163.01,78.95c.79,0,1.42-.65,1.42-1.44s-.64-1.44-1.42-1.44-1.42.65-1.42,1.44.64,1.44,1.42,1.44Z"></path>
  <path class="cls-4" d="m170.14,78.95c.79,0,1.42-.65,1.42-1.44s-.64-1.44-1.42-1.44-1.43.65-1.43,1.44.64,1.44,1.43,1.44Z"></path>
  <path class="cls-4" d="m177.26,78.95c.79,0,1.43-.65,1.43-1.44s-.64-1.44-1.43-1.44-1.42.65-1.42,1.44.64,1.44,1.42,1.44Z"></path>
  <path class="cls-4" d="m184.38,78.95c.79,0,1.42-.65,1.42-1.44s-.64-1.44-1.42-1.44-1.43.65-1.43,1.44.64,1.44,1.43,1.44Z"></path>
  <path class="cls-4" d="m191.5,78.95c.79,0,1.43-.65,1.43-1.44s-.64-1.44-1.43-1.44-1.42.65-1.42,1.44.64,1.44,1.42,1.44Z"></path>
  <path class="cls-4" d="m198.62,78.95c.79,0,1.42-.65,1.42-1.44s-.64-1.44-1.42-1.44-1.43.65-1.43,1.44.64,1.44,1.43,1.44Z"></path>
  <path class="cls-4" d="m205.75,78.95c.79,0,1.42-.65,1.42-1.44s-.64-1.44-1.42-1.44-1.43.65-1.43,1.44.64,1.44,1.43,1.44Z"></path>
  <path class="cls-4" d="m205.9,78.95c.79,0,1.42-.65,1.42-1.44s-.64-1.44-1.42-1.44-1.43.65-1.43,1.44.64,1.44,1.43,1.44Z"></path>
  <path class="cls-4" d="m213.02,78.95c.79,0,1.42-.65,1.42-1.44s-.64-1.44-1.42-1.44-1.43.65-1.43,1.44.64,1.44,1.43,1.44Z"></path>
  <path class="cls-4" d="m220.15,78.95c.79,0,1.42-.65,1.42-1.44s-.64-1.44-1.42-1.44-1.43.65-1.43,1.44.64,1.44,1.43,1.44Z"></path>
  <path class="cls-4" d="m91.86,78.95c.79,0,1.42-.65,1.42-1.44s-.64-1.44-1.42-1.44-1.42.65-1.42,1.44.64,1.44,1.42,1.44Z"></path>
  <path class="cls-4" d="m98.99,78.95c.79,0,1.42-.65,1.42-1.44s-.64-1.44-1.42-1.44-1.42.65-1.42,1.44.64,1.44,1.42,1.44Z"></path>
  <path class="cls-4" d="m106.11,78.95c.79,0,1.42-.65,1.42-1.44s-.64-1.44-1.42-1.44-1.42.65-1.42,1.44.64,1.44,1.42,1.44Z"></path>
  <path class="cls-4" d="m95.31,84.72c.79,0,1.42-.65,1.42-1.44s-.64-1.44-1.42-1.44-1.42.65-1.42,1.44.64,1.44,1.42,1.44Z"></path>
  <path class="cls-4" d="m102.43,84.72c.79,0,1.42-.65,1.42-1.44s-.64-1.44-1.42-1.44-1.42.65-1.42,1.44.64,1.44,1.42,1.44Z"></path>
  <path class="cls-4" d="m109.55,84.72c.79,0,1.42-.65,1.42-1.44s-.64-1.44-1.42-1.44-1.42.65-1.42,1.44.64,1.44,1.42,1.44Z"></path>
  <path class="cls-4" d="m116.67,84.72c.79,0,1.42-.65,1.42-1.44s-.64-1.44-1.42-1.44-1.42.65-1.42,1.44.64,1.44,1.42,1.44Z"></path>
  <path class="cls-4" d="m123.8,84.72c.79,0,1.42-.65,1.42-1.44s-.64-1.44-1.42-1.44-1.42.65-1.42,1.44.64,1.44,1.42,1.44Z"></path>
  <path class="cls-4" d="m130.92,84.72c.79,0,1.42-.65,1.42-1.44s-.64-1.44-1.42-1.44-1.42.65-1.42,1.44.64,1.44,1.42,1.44Z"></path>
  <path class="cls-4" d="m138.04,84.72c.79,0,1.42-.65,1.42-1.44s-.64-1.44-1.42-1.44-1.42.65-1.42,1.44.64,1.44,1.42,1.44Z"></path>
  <path class="cls-4" d="m145.16,84.72c.79,0,1.42-.65,1.42-1.44s-.64-1.44-1.42-1.44-1.42.65-1.42,1.44.64,1.44,1.42,1.44Z"></path>
  <path class="cls-4" d="m152.28,84.72c.79,0,1.42-.65,1.42-1.44s-.64-1.44-1.42-1.44-1.42.65-1.42,1.44.64,1.44,1.42,1.44Z"></path>
  <path class="cls-4" d="m159.41,84.72c.79,0,1.42-.65,1.42-1.44s-.64-1.44-1.42-1.44-1.42.65-1.42,1.44.64,1.44,1.42,1.44Z"></path>
  <path class="cls-4" d="m166.53,84.72c.79,0,1.42-.65,1.42-1.44s-.64-1.44-1.42-1.44-1.42.65-1.42,1.44.64,1.44,1.42,1.44Z"></path>
  <path class="cls-4" d="m173.65,84.72c.79,0,1.43-.65,1.43-1.44s-.64-1.44-1.43-1.44-1.43.65-1.43,1.44.64,1.44,1.43,1.44Z"></path>
  <path class="cls-4" d="m180.77,84.72c.79,0,1.42-.65,1.42-1.44s-.64-1.44-1.42-1.44-1.43.65-1.43,1.44.64,1.44,1.43,1.44Z"></path>
  <path class="cls-4" d="m187.89,84.72c.79,0,1.43-.65,1.43-1.44s-.64-1.44-1.43-1.44-1.42.65-1.42,1.44.64,1.44,1.42,1.44Z"></path>
  <path class="cls-4" d="m195.01,84.72c.79,0,1.43-.65,1.43-1.44s-.64-1.44-1.43-1.44-1.42.65-1.42,1.44.64,1.44,1.42,1.44Z"></path>
  <path class="cls-4" d="m202.14,84.72c.79,0,1.43-.65,1.43-1.44s-.64-1.44-1.43-1.44-1.42.65-1.42,1.44.64,1.44,1.42,1.44Z"></path>
  <path class="cls-4" d="m194.97,84.72c.79,0,1.43-.65,1.43-1.44s-.64-1.44-1.43-1.44-1.42.65-1.42,1.44.64,1.44,1.42,1.44Z"></path>
  <path class="cls-4" d="m202.09,84.72c.79,0,1.43-.65,1.43-1.44s-.64-1.44-1.43-1.44-1.42.65-1.42,1.44.64,1.44,1.42,1.44Z"></path>
  <path class="cls-4" d="m209.21,84.72c.79,0,1.43-.65,1.43-1.44s-.64-1.44-1.43-1.44-1.42.65-1.42,1.44.64,1.44,1.42,1.44Z"></path>
  <path class="cls-4" d="m216.34,84.72c.79,0,1.42-.65,1.42-1.44s-.64-1.44-1.42-1.44-1.43.65-1.43,1.44.64,1.44,1.43,1.44Z"></path>
  <path class="cls-4" d="m223.46,84.72c.79,0,1.43-.65,1.43-1.44s-.64-1.44-1.43-1.44-1.42.65-1.42,1.44.64,1.44,1.42,1.44Z"></path>
  <path class="cls-4" d="m88.34,84.72c.79,0,1.42-.65,1.42-1.44s-.64-1.44-1.42-1.44-1.42.65-1.42,1.44.64,1.44,1.42,1.44Z"></path>
  <path class="cls-4" d="m95.46,84.72c.79,0,1.42-.65,1.42-1.44s-.64-1.44-1.42-1.44-1.42.65-1.42,1.44.64,1.44,1.42,1.44Z"></path>
  <path class="cls-4" d="m102.58,84.72c.79,0,1.42-.65,1.42-1.44s-.64-1.44-1.42-1.44-1.42.65-1.42,1.44.64,1.44,1.42,1.44Z"></path>
  <path class="cls-4" d="m98.91,91.07c.79,0,1.42-.65,1.42-1.44s-.64-1.44-1.42-1.44-1.42.65-1.42,1.44.64,1.44,1.42,1.44Z"></path>
  <path class="cls-4" d="m106.04,91.07c.79,0,1.42-.65,1.42-1.44s-.64-1.44-1.42-1.44-1.42.65-1.42,1.44.64,1.44,1.42,1.44Z"></path>
  <path class="cls-4" d="m113.16,91.07c.79,0,1.42-.65,1.42-1.44s-.64-1.44-1.42-1.44-1.42.65-1.42,1.44.64,1.44,1.42,1.44Z"></path>
  <path class="cls-4" d="m120.28,91.07c.79,0,1.42-.65,1.42-1.44s-.64-1.44-1.42-1.44-1.42.65-1.42,1.44.64,1.44,1.42,1.44Z"></path>
  <path class="cls-4" d="m127.4,91.07c.79,0,1.42-.65,1.42-1.44s-.64-1.44-1.42-1.44-1.42.65-1.42,1.44.64,1.44,1.42,1.44Z"></path>
  <path class="cls-4" d="m134.52,91.07c.79,0,1.42-.65,1.42-1.44s-.64-1.44-1.42-1.44-1.42.65-1.42,1.44.64,1.44,1.42,1.44Z"></path>
  <path class="cls-4" d="m141.65,91.07c.79,0,1.42-.65,1.42-1.44s-.64-1.44-1.42-1.44-1.42.65-1.42,1.44.64,1.44,1.42,1.44Z"></path>
  <path class="cls-4" d="m148.77,91.07c.79,0,1.42-.65,1.42-1.44s-.64-1.44-1.42-1.44-1.42.65-1.42,1.44.64,1.44,1.42,1.44Z"></path>
  <path class="cls-4" d="m155.89,91.07c.79,0,1.42-.65,1.42-1.44s-.64-1.44-1.42-1.44-1.42.65-1.42,1.44.64,1.44,1.42,1.44Z"></path>
  <path class="cls-4" d="m163.01,91.07c.79,0,1.42-.65,1.42-1.44s-.64-1.44-1.42-1.44-1.42.65-1.42,1.44.64,1.44,1.42,1.44Z"></path>
  <path class="cls-4" d="m170.14,91.07c.79,0,1.42-.65,1.42-1.44s-.64-1.44-1.42-1.44-1.43.65-1.43,1.44.64,1.44,1.43,1.44Z"></path>
  <path class="cls-4" d="m177.26,91.07c.79,0,1.43-.65,1.43-1.44s-.64-1.44-1.43-1.44-1.42.65-1.42,1.44.64,1.44,1.42,1.44Z"></path>
  <path class="cls-4" d="m184.38,91.07c.79,0,1.42-.65,1.42-1.44s-.64-1.44-1.42-1.44-1.43.65-1.43,1.44.64,1.44,1.43,1.44Z"></path>
  <path class="cls-4" d="m191.5,91.07c.79,0,1.43-.65,1.43-1.44s-.64-1.44-1.43-1.44-1.42.65-1.42,1.44.64,1.44,1.42,1.44Z"></path>
  <path class="cls-4" d="m198.62,91.07c.79,0,1.42-.65,1.42-1.44s-.64-1.44-1.42-1.44-1.43.65-1.43,1.44.64,1.44,1.43,1.44Z"></path>
  <path class="cls-4" d="m205.75,91.07c.79,0,1.42-.65,1.42-1.44s-.64-1.44-1.42-1.44-1.43.65-1.43,1.44.64,1.44,1.43,1.44Z"></path>
  <path class="cls-4" d="m205.9,91.07c.79,0,1.42-.65,1.42-1.44s-.64-1.44-1.42-1.44-1.43.65-1.43,1.44.64,1.44,1.43,1.44Z"></path>
  <path class="cls-4" d="m213.02,91.07c.79,0,1.42-.65,1.42-1.44s-.64-1.44-1.42-1.44-1.43.65-1.43,1.44.64,1.44,1.43,1.44Z"></path>
  <path class="cls-4" d="m220.15,91.07c.79,0,1.42-.65,1.42-1.44s-.64-1.44-1.42-1.44-1.43.65-1.43,1.44.64,1.44,1.43,1.44Z"></path>
  <path class="cls-4" d="m91.86,91.07c.79,0,1.42-.65,1.42-1.44s-.64-1.44-1.42-1.44-1.42.65-1.42,1.44.64,1.44,1.42,1.44Z"></path>
  <path class="cls-4" d="m98.99,91.07c.79,0,1.42-.65,1.42-1.44s-.64-1.44-1.42-1.44-1.42.65-1.42,1.44.64,1.44,1.42,1.44Z"></path>
  <path class="cls-4" d="m106.11,91.07c.79,0,1.42-.65,1.42-1.44s-.64-1.44-1.42-1.44-1.42.65-1.42,1.44.64,1.44,1.42,1.44Z"></path>
  <path class="cls-4" d="m95.31,96.84c.79,0,1.42-.65,1.42-1.44s-.64-1.44-1.42-1.44-1.42.65-1.42,1.44.64,1.44,1.42,1.44Z"></path>
  <path class="cls-4" d="m102.43,96.84c.79,0,1.42-.65,1.42-1.44s-.64-1.44-1.42-1.44-1.42.65-1.42,1.44.64,1.44,1.42,1.44Z"></path>
  <path class="cls-4" d="m109.55,96.84c.79,0,1.42-.65,1.42-1.44s-.64-1.44-1.42-1.44-1.42.65-1.42,1.44.64,1.44,1.42,1.44Z"></path>
  <path class="cls-4" d="m116.67,96.84c.79,0,1.42-.65,1.42-1.44s-.64-1.44-1.42-1.44-1.42.65-1.42,1.44.64,1.44,1.42,1.44Z"></path>
  <path class="cls-4" d="m123.8,96.84c.79,0,1.42-.65,1.42-1.44s-.64-1.44-1.42-1.44-1.42.65-1.42,1.44.64,1.44,1.42,1.44Z"></path>
  <path class="cls-4" d="m130.92,96.84c.79,0,1.42-.65,1.42-1.44s-.64-1.44-1.42-1.44-1.42.65-1.42,1.44.64,1.44,1.42,1.44Z"></path>
  <path class="cls-4" d="m138.04,96.84c.79,0,1.42-.65,1.42-1.44s-.64-1.44-1.42-1.44-1.42.65-1.42,1.44.64,1.44,1.42,1.44Z"></path>
  <path class="cls-4" d="m145.16,96.84c.79,0,1.42-.65,1.42-1.44s-.64-1.44-1.42-1.44-1.42.65-1.42,1.44.64,1.44,1.42,1.44Z"></path>
  <path class="cls-4" d="m152.28,96.84c.79,0,1.42-.65,1.42-1.44s-.64-1.44-1.42-1.44-1.42.65-1.42,1.44.64,1.44,1.42,1.44Z"></path>
  <path class="cls-4" d="m159.41,96.84c.79,0,1.42-.65,1.42-1.44s-.64-1.44-1.42-1.44-1.42.65-1.42,1.44.64,1.44,1.42,1.44Z"></path>
  <path class="cls-4" d="m166.53,96.84c.79,0,1.42-.65,1.42-1.44s-.64-1.44-1.42-1.44-1.42.65-1.42,1.44.64,1.44,1.42,1.44Z"></path>
  <path class="cls-4" d="m173.65,96.84c.79,0,1.43-.65,1.43-1.44s-.64-1.44-1.43-1.44-1.43.65-1.43,1.44.64,1.44,1.43,1.44Z"></path>
  <path class="cls-4" d="m180.77,96.84c.79,0,1.42-.65,1.42-1.44s-.64-1.44-1.42-1.44-1.43.65-1.43,1.44.64,1.44,1.43,1.44Z"></path>
  <path class="cls-4" d="m187.89,96.84c.79,0,1.43-.65,1.43-1.44s-.64-1.44-1.43-1.44-1.42.65-1.42,1.44.64,1.44,1.42,1.44Z"></path>
  <path class="cls-4" d="m195.01,96.84c.79,0,1.43-.65,1.43-1.44s-.64-1.44-1.43-1.44-1.42.65-1.42,1.44.64,1.44,1.42,1.44Z"></path>
  <path class="cls-4" d="m202.14,96.84c.79,0,1.43-.65,1.43-1.44s-.64-1.44-1.43-1.44-1.42.65-1.42,1.44.64,1.44,1.42,1.44Z"></path>
  <path class="cls-4" d="m194.97,96.84c.79,0,1.43-.65,1.43-1.44s-.64-1.44-1.43-1.44-1.42.65-1.42,1.44.64,1.44,1.42,1.44Z"></path>
  <path class="cls-4" d="m202.09,96.84c.79,0,1.43-.65,1.43-1.44s-.64-1.44-1.43-1.44-1.42.65-1.42,1.44.64,1.44,1.42,1.44Z"></path>
  <path class="cls-4" d="m209.21,96.84c.79,0,1.43-.65,1.43-1.44s-.64-1.44-1.43-1.44-1.42.65-1.42,1.44.64,1.44,1.42,1.44Z"></path>
  <path class="cls-4" d="m216.34,96.84c.79,0,1.42-.65,1.42-1.44s-.64-1.44-1.42-1.44-1.43.65-1.43,1.44.64,1.44,1.43,1.44Z"></path>
  <path class="cls-4" d="m223.46,96.84c.79,0,1.43-.65,1.43-1.44s-.64-1.44-1.43-1.44-1.42.65-1.42,1.44.64,1.44,1.42,1.44Z"></path>
  <path class="cls-4" d="m88.34,96.84c.79,0,1.42-.65,1.42-1.44s-.64-1.44-1.42-1.44-1.42.65-1.42,1.44.64,1.44,1.42,1.44Z"></path>
  <path class="cls-4" d="m95.46,96.84c.79,0,1.42-.65,1.42-1.44s-.64-1.44-1.42-1.44-1.42.65-1.42,1.44.64,1.44,1.42,1.44Z"></path>
  <path class="cls-4" d="m102.58,96.84c.79,0,1.42-.65,1.42-1.44s-.64-1.44-1.42-1.44-1.42.65-1.42,1.44.64,1.44,1.42,1.44Z"></path>
  <path class="cls-4" d="m98.91,103.19c.79,0,1.42-.65,1.42-1.44s-.64-1.44-1.42-1.44-1.42.65-1.42,1.44.64,1.44,1.42,1.44Z"></path>
  <path class="cls-4" d="m106.04,103.19c.79,0,1.42-.65,1.42-1.44s-.64-1.44-1.42-1.44-1.42.65-1.42,1.44.64,1.44,1.42,1.44Z"></path>
  <path class="cls-4" d="m113.16,103.19c.79,0,1.42-.65,1.42-1.44s-.64-1.44-1.42-1.44-1.42.65-1.42,1.44.64,1.44,1.42,1.44Z"></path>
  <path class="cls-4" d="m120.28,103.19c.79,0,1.42-.65,1.42-1.44s-.64-1.44-1.42-1.44-1.42.65-1.42,1.44.64,1.44,1.42,1.44Z"></path>
  <path class="cls-4" d="m127.4,103.19c.79,0,1.42-.65,1.42-1.44s-.64-1.44-1.42-1.44-1.42.65-1.42,1.44.64,1.44,1.42,1.44Z"></path>
  <path class="cls-4" d="m134.52,103.19c.79,0,1.42-.65,1.42-1.44s-.64-1.44-1.42-1.44-1.42.65-1.42,1.44.64,1.44,1.42,1.44Z"></path>
  <path class="cls-4" d="m141.65,103.19c.79,0,1.42-.65,1.42-1.44s-.64-1.44-1.42-1.44-1.42.65-1.42,1.44.64,1.44,1.42,1.44Z"></path>
  <path class="cls-4" d="m148.77,103.19c.79,0,1.42-.65,1.42-1.44s-.64-1.44-1.42-1.44-1.42.65-1.42,1.44.64,1.44,1.42,1.44Z"></path>
  <path class="cls-4" d="m155.89,103.19c.79,0,1.42-.65,1.42-1.44s-.64-1.44-1.42-1.44-1.42.65-1.42,1.44.64,1.44,1.42,1.44Z"></path>
  <path class="cls-4" d="m163.01,103.19c.79,0,1.42-.65,1.42-1.44s-.64-1.44-1.42-1.44-1.42.65-1.42,1.44.64,1.44,1.42,1.44Z"></path>
  <path class="cls-4" d="m170.14,103.19c.79,0,1.42-.65,1.42-1.44s-.64-1.44-1.42-1.44-1.43.65-1.43,1.44.64,1.44,1.43,1.44Z"></path>
  <path class="cls-4" d="m177.26,103.19c.79,0,1.43-.65,1.43-1.44s-.64-1.44-1.43-1.44-1.42.65-1.42,1.44.64,1.44,1.42,1.44Z"></path>
  <path class="cls-4" d="m184.38,103.19c.79,0,1.42-.65,1.42-1.44s-.64-1.44-1.42-1.44-1.43.65-1.43,1.44.64,1.44,1.43,1.44Z"></path>
  <path class="cls-4" d="m191.5,103.19c.79,0,1.43-.65,1.43-1.44s-.64-1.44-1.43-1.44-1.42.65-1.42,1.44.64,1.44,1.42,1.44Z"></path>
  <path class="cls-4" d="m198.62,103.19c.79,0,1.42-.65,1.42-1.44s-.64-1.44-1.42-1.44-1.43.65-1.43,1.44.64,1.44,1.43,1.44Z"></path>
  <path class="cls-4" d="m205.75,103.19c.79,0,1.42-.65,1.42-1.44s-.64-1.44-1.42-1.44-1.43.65-1.43,1.44.64,1.44,1.43,1.44Z"></path>
  <path class="cls-4" d="m205.9,103.19c.79,0,1.42-.65,1.42-1.44s-.64-1.44-1.42-1.44-1.43.65-1.43,1.44.64,1.44,1.43,1.44Z"></path>
  <path class="cls-4" d="m213.02,103.19c.79,0,1.42-.65,1.42-1.44s-.64-1.44-1.42-1.44-1.43.65-1.43,1.44.64,1.44,1.43,1.44Z"></path>
  <path class="cls-4" d="m220.15,103.19c.79,0,1.42-.65,1.42-1.44s-.64-1.44-1.42-1.44-1.43.65-1.43,1.44.64,1.44,1.43,1.44Z"></path>
  <path class="cls-4" d="m91.86,103.19c.79,0,1.42-.65,1.42-1.44s-.64-1.44-1.42-1.44-1.42.65-1.42,1.44.64,1.44,1.42,1.44Z"></path>
  <path class="cls-4" d="m98.99,103.19c.79,0,1.42-.65,1.42-1.44s-.64-1.44-1.42-1.44-1.42.65-1.42,1.44.64,1.44,1.42,1.44Z"></path>
  <path class="cls-4" d="m106.11,103.19c.79,0,1.42-.65,1.42-1.44s-.64-1.44-1.42-1.44-1.42.65-1.42,1.44.64,1.44,1.42,1.44Z"></path>
  <path class="cls-4" d="m95.31,108.97c.79,0,1.42-.65,1.42-1.44s-.64-1.44-1.42-1.44-1.42.65-1.42,1.44.64,1.44,1.42,1.44Z"></path>
  <path class="cls-4" d="m102.43,108.97c.79,0,1.42-.65,1.42-1.44s-.64-1.44-1.42-1.44-1.42.65-1.42,1.44.64,1.44,1.42,1.44Z"></path>
  <path class="cls-4" d="m109.55,108.97c.79,0,1.42-.65,1.42-1.44s-.64-1.44-1.42-1.44-1.42.65-1.42,1.44.64,1.44,1.42,1.44Z"></path>
  <path class="cls-4" d="m116.67,108.97c.79,0,1.42-.65,1.42-1.44s-.64-1.44-1.42-1.44-1.42.65-1.42,1.44.64,1.44,1.42,1.44Z"></path>
  <path class="cls-4" d="m123.8,108.97c.79,0,1.42-.65,1.42-1.44s-.64-1.44-1.42-1.44-1.42.65-1.42,1.44.64,1.44,1.42,1.44Z"></path>
  <path class="cls-4" d="m130.92,108.97c.79,0,1.42-.65,1.42-1.44s-.64-1.44-1.42-1.44-1.42.65-1.42,1.44.64,1.44,1.42,1.44Z"></path>
  <path class="cls-4" d="m138.04,108.97c.79,0,1.42-.65,1.42-1.44s-.64-1.44-1.42-1.44-1.42.65-1.42,1.44.64,1.44,1.42,1.44Z"></path>
  <path class="cls-4" d="m145.16,108.97c.79,0,1.42-.65,1.42-1.44s-.64-1.44-1.42-1.44-1.42.65-1.42,1.44.64,1.44,1.42,1.44Z"></path>
  <path class="cls-4" d="m152.28,108.97c.79,0,1.42-.65,1.42-1.44s-.64-1.44-1.42-1.44-1.42.65-1.42,1.44.64,1.44,1.42,1.44Z"></path>
  <path class="cls-4" d="m159.41,108.97c.79,0,1.42-.65,1.42-1.44s-.64-1.44-1.42-1.44-1.42.65-1.42,1.44.64,1.44,1.42,1.44Z"></path>
  <path class="cls-4" d="m166.53,108.97c.79,0,1.42-.65,1.42-1.44s-.64-1.44-1.42-1.44-1.42.65-1.42,1.44.64,1.44,1.42,1.44Z"></path>
  <path class="cls-4" d="m173.65,108.97c.79,0,1.43-.65,1.43-1.44s-.64-1.44-1.43-1.44-1.43.65-1.43,1.44.64,1.44,1.43,1.44Z"></path>
  <path class="cls-4" d="m180.77,108.97c.79,0,1.42-.65,1.42-1.44s-.64-1.44-1.42-1.44-1.43.65-1.43,1.44.64,1.44,1.43,1.44Z"></path>
  <path class="cls-4" d="m187.89,108.97c.79,0,1.43-.65,1.43-1.44s-.64-1.44-1.43-1.44-1.42.65-1.42,1.44.64,1.44,1.42,1.44Z"></path>
  <path class="cls-4" d="m195.01,108.97c.79,0,1.43-.65,1.43-1.44s-.64-1.44-1.43-1.44-1.42.65-1.42,1.44.64,1.44,1.42,1.44Z"></path>
  <path class="cls-4" d="m202.14,108.97c.79,0,1.43-.65,1.43-1.44s-.64-1.44-1.43-1.44-1.42.65-1.42,1.44.64,1.44,1.42,1.44Z"></path>
  <path class="cls-4" d="m194.97,108.97c.79,0,1.43-.65,1.43-1.44s-.64-1.44-1.43-1.44-1.42.65-1.42,1.44.64,1.44,1.42,1.44Z"></path>
  <path class="cls-4" d="m202.09,108.97c.79,0,1.43-.65,1.43-1.44s-.64-1.44-1.43-1.44-1.42.65-1.42,1.44.64,1.44,1.42,1.44Z"></path>
  <path class="cls-4" d="m209.21,108.97c.79,0,1.43-.65,1.43-1.44s-.64-1.44-1.43-1.44-1.42.65-1.42,1.44.64,1.44,1.42,1.44Z"></path>
  <path class="cls-4" d="m216.34,108.97c.79,0,1.42-.65,1.42-1.44s-.64-1.44-1.42-1.44-1.43.65-1.43,1.44.64,1.44,1.43,1.44Z"></path>
  <path class="cls-4" d="m223.46,108.97c.79,0,1.43-.65,1.43-1.44s-.64-1.44-1.43-1.44-1.42.65-1.42,1.44.64,1.44,1.42,1.44Z"></path>
  <path class="cls-4" d="m88.34,108.97c.79,0,1.42-.65,1.42-1.44s-.64-1.44-1.42-1.44-1.42.65-1.42,1.44.64,1.44,1.42,1.44Z"></path>
  <path class="cls-4" d="m95.46,108.97c.79,0,1.42-.65,1.42-1.44s-.64-1.44-1.42-1.44-1.42.65-1.42,1.44.64,1.44,1.42,1.44Z"></path>
  <path class="cls-4" d="m102.58,108.97c.79,0,1.42-.65,1.42-1.44s-.64-1.44-1.42-1.44-1.42.65-1.42,1.44.64,1.44,1.42,1.44Z"></path>
  <path class="cls-4" d="m98.91,115.32c.79,0,1.42-.65,1.42-1.44s-.64-1.44-1.42-1.44-1.42.65-1.42,1.44.64,1.44,1.42,1.44Z"></path>
  <path class="cls-4" d="m106.04,115.32c.79,0,1.42-.65,1.42-1.44s-.64-1.44-1.42-1.44-1.42.65-1.42,1.44.64,1.44,1.42,1.44Z"></path>
  <path class="cls-4" d="m113.16,115.32c.79,0,1.42-.65,1.42-1.44s-.64-1.44-1.42-1.44-1.42.65-1.42,1.44.64,1.44,1.42,1.44Z"></path>
  <path class="cls-4" d="m120.28,115.32c.79,0,1.42-.65,1.42-1.44s-.64-1.44-1.42-1.44-1.42.65-1.42,1.44.64,1.44,1.42,1.44Z"></path>
  <path class="cls-4" d="m127.4,115.32c.79,0,1.42-.65,1.42-1.44s-.64-1.44-1.42-1.44-1.42.65-1.42,1.44.64,1.44,1.42,1.44Z"></path>
  <path class="cls-4" d="m134.52,115.32c.79,0,1.42-.65,1.42-1.44s-.64-1.44-1.42-1.44-1.42.65-1.42,1.44.64,1.44,1.42,1.44Z"></path>
  <path class="cls-4" d="m141.65,115.32c.79,0,1.42-.65,1.42-1.44s-.64-1.44-1.42-1.44-1.42.65-1.42,1.44.64,1.44,1.42,1.44Z"></path>
  <path class="cls-4" d="m148.77,115.32c.79,0,1.42-.65,1.42-1.44s-.64-1.44-1.42-1.44-1.42.65-1.42,1.44.64,1.44,1.42,1.44Z"></path>
  <path class="cls-4" d="m155.89,115.32c.79,0,1.42-.65,1.42-1.44s-.64-1.44-1.42-1.44-1.42.65-1.42,1.44.64,1.44,1.42,1.44Z"></path>
  <path class="cls-4" d="m163.01,115.32c.79,0,1.42-.65,1.42-1.44s-.64-1.44-1.42-1.44-1.42.65-1.42,1.44.64,1.44,1.42,1.44Z"></path>
  <path class="cls-4" d="m170.14,115.32c.79,0,1.42-.65,1.42-1.44s-.64-1.44-1.42-1.44-1.43.65-1.43,1.44.64,1.44,1.43,1.44Z"></path>
  <path class="cls-4" d="m177.26,115.32c.79,0,1.43-.65,1.43-1.44s-.64-1.44-1.43-1.44-1.42.65-1.42,1.44.64,1.44,1.42,1.44Z"></path>
  <path class="cls-4" d="m184.38,115.32c.79,0,1.42-.65,1.42-1.44s-.64-1.44-1.42-1.44-1.43.65-1.43,1.44.64,1.44,1.43,1.44Z"></path>
  <path class="cls-4" d="m191.5,115.32c.79,0,1.43-.65,1.43-1.44s-.64-1.44-1.43-1.44-1.42.65-1.42,1.44.64,1.44,1.42,1.44Z"></path>
  <path class="cls-4" d="m198.62,115.32c.79,0,1.42-.65,1.42-1.44s-.64-1.44-1.42-1.44-1.43.65-1.43,1.44.64,1.44,1.43,1.44Z"></path>
  <path class="cls-4" d="m205.75,115.32c.79,0,1.42-.65,1.42-1.44s-.64-1.44-1.42-1.44-1.43.65-1.43,1.44.64,1.44,1.43,1.44Z"></path>
  <path class="cls-4" d="m205.9,115.32c.79,0,1.42-.65,1.42-1.44s-.64-1.44-1.42-1.44-1.43.65-1.43,1.44.64,1.44,1.43,1.44Z"></path>
  <path class="cls-4" d="m213.02,115.32c.79,0,1.42-.65,1.42-1.44s-.64-1.44-1.42-1.44-1.43.65-1.43,1.44.64,1.44,1.43,1.44Z"></path>
  <path class="cls-4" d="m220.15,115.32c.79,0,1.42-.65,1.42-1.44s-.64-1.44-1.42-1.44-1.43.65-1.43,1.44.64,1.44,1.43,1.44Z"></path>
  <path class="cls-4" d="m91.86,115.32c.79,0,1.42-.65,1.42-1.44s-.64-1.44-1.42-1.44-1.42.65-1.42,1.44.64,1.44,1.42,1.44Z"></path>
  <path class="cls-4" d="m98.99,115.32c.79,0,1.42-.65,1.42-1.44s-.64-1.44-1.42-1.44-1.42.65-1.42,1.44.64,1.44,1.42,1.44Z"></path>
  <path class="cls-4" d="m106.11,115.32c.79,0,1.42-.65,1.42-1.44s-.64-1.44-1.42-1.44-1.42.65-1.42,1.44.64,1.44,1.42,1.44Z"></path>
  <path class="cls-4" d="m95.31,121.09c.79,0,1.42-.65,1.42-1.44s-.64-1.44-1.42-1.44-1.42.65-1.42,1.44.64,1.44,1.42,1.44Z"></path>
  <path class="cls-4" d="m102.43,121.09c.79,0,1.42-.65,1.42-1.44s-.64-1.44-1.42-1.44-1.42.65-1.42,1.44.64,1.44,1.42,1.44Z"></path>
  <path class="cls-4" d="m109.55,121.09c.79,0,1.42-.65,1.42-1.44s-.64-1.44-1.42-1.44-1.42.65-1.42,1.44.64,1.44,1.42,1.44Z"></path>
  <path class="cls-4" d="m116.67,121.09c.79,0,1.42-.65,1.42-1.44s-.64-1.44-1.42-1.44-1.42.65-1.42,1.44.64,1.44,1.42,1.44Z"></path>
  <path class="cls-4" d="m123.8,121.09c.79,0,1.42-.65,1.42-1.44s-.64-1.44-1.42-1.44-1.42.65-1.42,1.44.64,1.44,1.42,1.44Z"></path>
  <path class="cls-4" d="m130.92,121.09c.79,0,1.42-.65,1.42-1.44s-.64-1.44-1.42-1.44-1.42.65-1.42,1.44.64,1.44,1.42,1.44Z"></path>
  <path class="cls-4" d="m138.04,121.09c.79,0,1.42-.65,1.42-1.44s-.64-1.44-1.42-1.44-1.42.65-1.42,1.44.64,1.44,1.42,1.44Z"></path>
  <path class="cls-4" d="m145.16,121.09c.79,0,1.42-.65,1.42-1.44s-.64-1.44-1.42-1.44-1.42.65-1.42,1.44.64,1.44,1.42,1.44Z"></path>
  <path class="cls-4" d="m152.28,121.09c.79,0,1.42-.65,1.42-1.44s-.64-1.44-1.42-1.44-1.42.65-1.42,1.44.64,1.44,1.42,1.44Z"></path>
  <path class="cls-4" d="m159.41,121.09c.79,0,1.42-.65,1.42-1.44s-.64-1.44-1.42-1.44-1.42.65-1.42,1.44.64,1.44,1.42,1.44Z"></path>
  <path class="cls-4" d="m166.53,121.09c.79,0,1.42-.65,1.42-1.44s-.64-1.44-1.42-1.44-1.42.65-1.42,1.44.64,1.44,1.42,1.44Z"></path>
  <path class="cls-4" d="m173.65,121.09c.79,0,1.43-.65,1.43-1.44s-.64-1.44-1.43-1.44-1.43.65-1.43,1.44.64,1.44,1.43,1.44Z"></path>
  <path class="cls-4" d="m180.77,121.09c.79,0,1.42-.65,1.42-1.44s-.64-1.44-1.42-1.44-1.43.65-1.43,1.44.64,1.44,1.43,1.44Z"></path>
  <path class="cls-4" d="m187.89,121.09c.79,0,1.43-.65,1.43-1.44s-.64-1.44-1.43-1.44-1.42.65-1.42,1.44.64,1.44,1.42,1.44Z"></path>
  <path class="cls-4" d="m195.01,121.09c.79,0,1.43-.65,1.43-1.44s-.64-1.44-1.43-1.44-1.42.65-1.42,1.44.64,1.44,1.42,1.44Z"></path>
  <path class="cls-4" d="m202.14,121.09c.79,0,1.43-.65,1.43-1.44s-.64-1.44-1.43-1.44-1.42.65-1.42,1.44.64,1.44,1.42,1.44Z"></path>
  <path class="cls-4" d="m194.97,121.09c.79,0,1.43-.65,1.43-1.44s-.64-1.44-1.43-1.44-1.42.65-1.42,1.44.64,1.44,1.42,1.44Z"></path>
  <path class="cls-4" d="m202.09,121.09c.79,0,1.43-.65,1.43-1.44s-.64-1.44-1.43-1.44-1.42.65-1.42,1.44.64,1.44,1.42,1.44Z"></path>
  <path class="cls-4" d="m209.21,121.09c.79,0,1.43-.65,1.43-1.44s-.64-1.44-1.43-1.44-1.42.65-1.42,1.44.64,1.44,1.42,1.44Z"></path>
  <path class="cls-4" d="m216.34,121.09c.79,0,1.42-.65,1.42-1.44s-.64-1.44-1.42-1.44-1.43.65-1.43,1.44.64,1.44,1.43,1.44Z"></path>
  <path class="cls-4" d="m223.46,121.09c.79,0,1.43-.65,1.43-1.44s-.64-1.44-1.43-1.44-1.42.65-1.42,1.44.64,1.44,1.42,1.44Z"></path>
  <path class="cls-4" d="m88.34,121.09c.79,0,1.42-.65,1.42-1.44s-.64-1.44-1.42-1.44-1.42.65-1.42,1.44.64,1.44,1.42,1.44Z"></path>
  <path class="cls-4" d="m95.46,121.09c.79,0,1.42-.65,1.42-1.44s-.64-1.44-1.42-1.44-1.42.65-1.42,1.44.64,1.44,1.42,1.44Z"></path>
  <path class="cls-4" d="m102.58,121.09c.79,0,1.42-.65,1.42-1.44s-.64-1.44-1.42-1.44-1.42.65-1.42,1.44.64,1.44,1.42,1.44Z"></path>
  <path class="cls-4" d="m98.91,127.44c.79,0,1.42-.65,1.42-1.44s-.64-1.44-1.42-1.44-1.42.65-1.42,1.44.64,1.44,1.42,1.44Z"></path>
  <path class="cls-4" d="m106.04,127.44c.79,0,1.42-.65,1.42-1.44s-.64-1.44-1.42-1.44-1.42.65-1.42,1.44.64,1.44,1.42,1.44Z"></path>
  <path class="cls-4" d="m113.16,127.44c.79,0,1.42-.65,1.42-1.44s-.64-1.44-1.42-1.44-1.42.65-1.42,1.44.64,1.44,1.42,1.44Z"></path>
  <path class="cls-4" d="m120.28,127.44c.79,0,1.42-.65,1.42-1.44s-.64-1.44-1.42-1.44-1.42.65-1.42,1.44.64,1.44,1.42,1.44Z"></path>
  <path class="cls-4" d="m127.4,127.44c.79,0,1.42-.65,1.42-1.44s-.64-1.44-1.42-1.44-1.42.65-1.42,1.44.64,1.44,1.42,1.44Z"></path>
  <path class="cls-4" d="m134.52,127.44c.79,0,1.42-.65,1.42-1.44s-.64-1.44-1.42-1.44-1.42.65-1.42,1.44.64,1.44,1.42,1.44Z"></path>
  <path class="cls-4" d="m141.65,127.44c.79,0,1.42-.65,1.42-1.44s-.64-1.44-1.42-1.44-1.42.65-1.42,1.44.64,1.44,1.42,1.44Z"></path>
  <path class="cls-4" d="m148.77,127.44c.79,0,1.42-.65,1.42-1.44s-.64-1.44-1.42-1.44-1.42.65-1.42,1.44.64,1.44,1.42,1.44Z"></path>
  <path class="cls-4" d="m155.89,127.44c.79,0,1.42-.65,1.42-1.44s-.64-1.44-1.42-1.44-1.42.65-1.42,1.44.64,1.44,1.42,1.44Z"></path>
  <path class="cls-4" d="m163.01,127.44c.79,0,1.42-.65,1.42-1.44s-.64-1.44-1.42-1.44-1.42.65-1.42,1.44.64,1.44,1.42,1.44Z"></path>
  <path class="cls-4" d="m170.14,127.44c.79,0,1.42-.65,1.42-1.44s-.64-1.44-1.42-1.44-1.43.65-1.43,1.44.64,1.44,1.43,1.44Z"></path>
  <path class="cls-4" d="m177.26,127.44c.79,0,1.43-.65,1.43-1.44s-.64-1.44-1.43-1.44-1.42.65-1.42,1.44.64,1.44,1.42,1.44Z"></path>
  <path class="cls-4" d="m184.38,127.44c.79,0,1.42-.65,1.42-1.44s-.64-1.44-1.42-1.44-1.43.65-1.43,1.44.64,1.44,1.43,1.44Z"></path>
  <path class="cls-4" d="m191.5,127.44c.79,0,1.43-.65,1.43-1.44s-.64-1.44-1.43-1.44-1.42.65-1.42,1.44.64,1.44,1.42,1.44Z"></path>
  <path class="cls-4" d="m198.62,127.44c.79,0,1.42-.65,1.42-1.44s-.64-1.44-1.42-1.44-1.43.65-1.43,1.44.64,1.44,1.43,1.44Z"></path>
  <path class="cls-4" d="m205.75,127.44c.79,0,1.42-.65,1.42-1.44s-.64-1.44-1.42-1.44-1.43.65-1.43,1.44.64,1.44,1.43,1.44Z"></path>
  <path class="cls-4" d="m205.9,127.44c.79,0,1.42-.65,1.42-1.44s-.64-1.44-1.42-1.44-1.43.65-1.43,1.44.64,1.44,1.43,1.44Z"></path>
  <path class="cls-4" d="m213.02,127.44c.79,0,1.42-.65,1.42-1.44s-.64-1.44-1.42-1.44-1.43.65-1.43,1.44.64,1.44,1.43,1.44Z"></path>
  <path class="cls-4" d="m220.15,127.44c.79,0,1.42-.65,1.42-1.44s-.64-1.44-1.42-1.44-1.43.65-1.43,1.44.64,1.44,1.43,1.44Z"></path>
  <path class="cls-4" d="m91.86,127.44c.79,0,1.42-.65,1.42-1.44s-.64-1.44-1.42-1.44-1.42.65-1.42,1.44.64,1.44,1.42,1.44Z"></path>
  <path class="cls-4" d="m98.99,127.44c.79,0,1.42-.65,1.42-1.44s-.64-1.44-1.42-1.44-1.42.65-1.42,1.44.64,1.44,1.42,1.44Z"></path>
  <path class="cls-4" d="m106.11,127.44c.79,0,1.42-.65,1.42-1.44s-.64-1.44-1.42-1.44-1.42.65-1.42,1.44.64,1.44,1.42,1.44Z"></path>
  <path class="cls-4" d="m95.31,133.21c.79,0,1.42-.65,1.42-1.44s-.64-1.44-1.42-1.44-1.42.65-1.42,1.44.64,1.44,1.42,1.44Z"></path>
  <path class="cls-4" d="m102.43,133.21c.79,0,1.42-.65,1.42-1.44s-.64-1.44-1.42-1.44-1.42.65-1.42,1.44.64,1.44,1.42,1.44Z"></path>
  <path class="cls-4" d="m109.55,133.21c.79,0,1.42-.65,1.42-1.44s-.64-1.44-1.42-1.44-1.42.65-1.42,1.44.64,1.44,1.42,1.44Z"></path>
  <path class="cls-4" d="m116.67,133.21c.79,0,1.42-.65,1.42-1.44s-.64-1.44-1.42-1.44-1.42.65-1.42,1.44.64,1.44,1.42,1.44Z"></path>
  <path class="cls-4" d="m123.8,133.21c.79,0,1.42-.65,1.42-1.44s-.64-1.44-1.42-1.44-1.42.65-1.42,1.44.64,1.44,1.42,1.44Z"></path>
  <path class="cls-4" d="m130.92,133.21c.79,0,1.42-.65,1.42-1.44s-.64-1.44-1.42-1.44-1.42.65-1.42,1.44.64,1.44,1.42,1.44Z"></path>
  <path class="cls-4" d="m138.04,133.21c.79,0,1.42-.65,1.42-1.44s-.64-1.44-1.42-1.44-1.42.65-1.42,1.44.64,1.44,1.42,1.44Z"></path>
  <path class="cls-4" d="m145.16,133.21c.79,0,1.42-.65,1.42-1.44s-.64-1.44-1.42-1.44-1.42.65-1.42,1.44.64,1.44,1.42,1.44Z"></path>
  <path class="cls-4" d="m152.28,133.21c.79,0,1.42-.65,1.42-1.44s-.64-1.44-1.42-1.44-1.42.65-1.42,1.44.64,1.44,1.42,1.44Z"></path>
  <path class="cls-4" d="m159.41,133.21c.79,0,1.42-.65,1.42-1.44s-.64-1.44-1.42-1.44-1.42.65-1.42,1.44.64,1.44,1.42,1.44Z"></path>
  <path class="cls-4" d="m166.53,133.21c.79,0,1.42-.65,1.42-1.44s-.64-1.44-1.42-1.44-1.42.65-1.42,1.44.64,1.44,1.42,1.44Z"></path>
  <path class="cls-4" d="m173.65,133.21c.79,0,1.43-.65,1.43-1.44s-.64-1.44-1.43-1.44-1.43.65-1.43,1.44.64,1.44,1.43,1.44Z"></path>
  <path class="cls-4" d="m180.77,133.21c.79,0,1.42-.65,1.42-1.44s-.64-1.44-1.42-1.44-1.43.65-1.43,1.44.64,1.44,1.43,1.44Z"></path>
  <path class="cls-4" d="m187.89,133.21c.79,0,1.43-.65,1.43-1.44s-.64-1.44-1.43-1.44-1.42.65-1.42,1.44.64,1.44,1.42,1.44Z"></path>
  <path class="cls-4" d="m195.01,133.21c.79,0,1.43-.65,1.43-1.44s-.64-1.44-1.43-1.44-1.42.65-1.42,1.44.64,1.44,1.42,1.44Z"></path>
  <path class="cls-4" d="m202.14,133.21c.79,0,1.43-.65,1.43-1.44s-.64-1.44-1.43-1.44-1.42.65-1.42,1.44.64,1.44,1.42,1.44Z"></path>
  <path class="cls-4" d="m194.97,133.21c.79,0,1.42-.65,1.42-1.44s-.64-1.44-1.42-1.44-1.43.65-1.43,1.44.64,1.44,1.43,1.44Z"></path>
  <path class="cls-4" d="m202.09,133.21c.79,0,1.43-.65,1.43-1.44s-.64-1.44-1.43-1.44-1.42.65-1.42,1.44.64,1.44,1.42,1.44Z"></path>
  <path class="cls-4" d="m209.21,133.21c.79,0,1.42-.65,1.42-1.44s-.64-1.44-1.42-1.44-1.43.65-1.43,1.44.64,1.44,1.43,1.44Z"></path>
  <path class="cls-4" d="m216.34,133.21c.79,0,1.42-.65,1.42-1.44s-.64-1.44-1.42-1.44-1.43.65-1.43,1.44.64,1.44,1.43,1.44Z"></path>
  <path class="cls-4" d="m95.46,133.21c.79,0,1.42-.65,1.42-1.44s-.64-1.44-1.42-1.44-1.42.65-1.42,1.44.64,1.44,1.42,1.44Z"></path>
  <path class="cls-4" d="m102.58,133.21c.79,0,1.42-.65,1.42-1.44s-.64-1.44-1.42-1.44-1.42.65-1.42,1.44.64,1.44,1.42,1.44Z"></path>
  <path class="cls-4" d="m98.91,139.56c.79,0,1.42-.65,1.42-1.44s-.64-1.44-1.42-1.44-1.42.65-1.42,1.44.64,1.44,1.42,1.44Z"></path>
  <path class="cls-4" d="m106.04,139.56c.79,0,1.42-.65,1.42-1.44s-.64-1.44-1.42-1.44-1.42.65-1.42,1.44.64,1.44,1.42,1.44Z"></path>
  <path class="cls-4" d="m113.16,139.56c.79,0,1.42-.65,1.42-1.44s-.64-1.44-1.42-1.44-1.42.65-1.42,1.44.64,1.44,1.42,1.44Z"></path>
  <path class="cls-4" d="m120.28,139.56c.79,0,1.42-.65,1.42-1.44s-.64-1.44-1.42-1.44-1.42.65-1.42,1.44.64,1.44,1.42,1.44Z"></path>
  <path class="cls-4" d="m127.4,139.56c.79,0,1.42-.65,1.42-1.44s-.64-1.44-1.42-1.44-1.42.65-1.42,1.44.64,1.44,1.42,1.44Z"></path>
  <path class="cls-4" d="m134.52,139.56c.79,0,1.42-.65,1.42-1.44s-.64-1.44-1.42-1.44-1.42.65-1.42,1.44.64,1.44,1.42,1.44Z"></path>
  <path class="cls-4" d="m141.65,139.56c.79,0,1.42-.65,1.42-1.44s-.64-1.44-1.42-1.44-1.42.65-1.42,1.44.64,1.44,1.42,1.44Z"></path>
  <path class="cls-4" d="m148.77,139.56c.79,0,1.42-.65,1.42-1.44s-.64-1.44-1.42-1.44-1.42.65-1.42,1.44.64,1.44,1.42,1.44Z"></path>
  <path class="cls-4" d="m155.89,139.56c.79,0,1.42-.65,1.42-1.44s-.64-1.44-1.42-1.44-1.42.65-1.42,1.44.64,1.44,1.42,1.44Z"></path>
  <path class="cls-4" d="m163.01,139.56c.79,0,1.42-.65,1.42-1.44s-.64-1.44-1.42-1.44-1.42.65-1.42,1.44.64,1.44,1.42,1.44Z"></path>
  <path class="cls-4" d="m170.14,139.56c.79,0,1.42-.65,1.42-1.44s-.64-1.44-1.42-1.44-1.43.65-1.43,1.44.64,1.44,1.43,1.44Z"></path>
  <path class="cls-4" d="m177.26,139.56c.79,0,1.43-.65,1.43-1.44s-.64-1.44-1.43-1.44-1.42.65-1.42,1.44.64,1.44,1.42,1.44Z"></path>
  <path class="cls-4" d="m184.38,139.56c.79,0,1.42-.65,1.42-1.44s-.64-1.44-1.42-1.44-1.43.65-1.43,1.44.64,1.44,1.43,1.44Z"></path>
  <path class="cls-4" d="m191.5,139.56c.79,0,1.43-.65,1.43-1.44s-.64-1.44-1.43-1.44-1.42.65-1.42,1.44.64,1.44,1.42,1.44Z"></path>
  <path class="cls-4" d="m198.62,139.56c.79,0,1.42-.65,1.42-1.44s-.64-1.44-1.42-1.44-1.43.65-1.43,1.44.64,1.44,1.43,1.44Z"></path>
  <path class="cls-4" d="m205.75,139.56c.79,0,1.42-.65,1.42-1.44s-.64-1.44-1.42-1.44-1.43.65-1.43,1.44.64,1.44,1.43,1.44Z"></path>
  <path class="cls-4" d="m205.9,139.56c.79,0,1.42-.65,1.42-1.44s-.64-1.44-1.42-1.44-1.43.65-1.43,1.44.64,1.44,1.43,1.44Z"></path>
  <path class="cls-4" d="m213.02,139.56c.79,0,1.42-.65,1.42-1.44s-.64-1.44-1.42-1.44-1.43.65-1.43,1.44.64,1.44,1.43,1.44Z"></path>
  <path class="cls-4" d="m98.99,139.56c.79,0,1.42-.65,1.42-1.44s-.64-1.44-1.42-1.44-1.42.65-1.42,1.44.64,1.44,1.42,1.44Z"></path>
  <path class="cls-4" d="m106.11,139.56c.79,0,1.42-.65,1.42-1.44s-.64-1.44-1.42-1.44-1.42.65-1.42,1.44.64,1.44,1.42,1.44Z"></path>
</svg>
