<?xml version="1.0" encoding="UTF-8"?>
<!-- Generator: Adobe Illustrator 27.0.0, SVG Export Plug-In . SVG Version: 6.00 Build 0)  -->
<svg xmlns="http://www.w3.org/2000/svg" xmlns:xlink="http://www.w3.org/1999/xlink" version="1.1" id="Layer_2" x="0px" y="0px" viewBox="0 0 372.45 300.74" style="enable-background:new 0 0 372.45 300.74;" xml:space="preserve">
<style type="text/css">
	.st0{clip-path:url(#SVGID_00000039847782080402529980000014370121238239694480_);}
	.st1{fill-rule:evenodd;clip-rule:evenodd;fill:#231F20;}
	.st2{fill:#231F20;}
	.st3{fill:none;stroke:#231F20;stroke-width:1.5;}
	.st4{fill:#FFFFFF;}
	.st5{fill:url(#SVGID_00000044864174475698998260000017532654944564125875_);}
	.st6{fill:#2E2A2B;}
	.st7{clip-path:url(#SVGID_00000032614202225529159360000001671224431053431444_);}
	.st8{clip-path:url(#SVGID_00000085208255976734099010000006319291693037807022_);}
	.st9{fill:url(#SVGID_00000083772989882777128070000007993369891062114233_);}
	.st10{fill:url(#SVGID_00000067217281124764674340000016099537822426377903_);}
	.st11{fill:none;stroke:#EC1D2B;stroke-width:3;stroke-miterlimit:10;}
	.st12{clip-path:url(#SVGID_00000095331690758597329550000018111792191747346595_);}
	.st13{fill:url(#SVGID_00000043447613434186051620000003813352679020538241_);}
	.st14{fill:#231F20;stroke:#231F20;stroke-width:1.5;}
	.st15{fill:url(#SVGID_00000121251514829010851770000017191906120117977517_);}
	.st16{clip-path:url(#SVGID_00000139989094254427031850000015153058371108347824_);}
	.st17{fill:url(#SVGID_00000113346295290355922470000008681149225151004346_);}
	.st18{clip-path:url(#SVGID_00000152962186087908781060000002628039383932137091_);}
	.st19{clip-path:url(#SVGID_00000050645595786761086650000012684536533049848244_);}
	.st20{fill:url(#SVGID_00000129890013766389537400000013803677559431830413_);}
	.st21{fill:url(#SVGID_00000174568115834187834760000007641964812231623603_);}
	.st22{fill-rule:evenodd;clip-rule:evenodd;}
	.st23{clip-path:url(#SVGID_00000066488844205749296950000005428318403644543402_);}
	.st24{fill:url(#SVGID_00000082333105222519917600000013431492190492959884_);}
	.st25{clip-path:url(#SVGID_00000130606636448425316960000008645496326438953371_);}
	.st26{clip-path:url(#SVGID_00000138543243062694057390000018205613957573519006_);}
	.st27{fill:url(#SVGID_00000072968239238258629530000000483781540188477318_);}
	.st28{fill:url(#SVGID_00000112633718139109528280000006615777207096862099_);}
	.st29{clip-path:url(#SVGID_00000158722216216232594240000015220988205205416366_);}
	.st30{fill:none;}
	.st31{font-family:'Helvetica';}
	.st32{font-size:22px;}
	.st33{fill:#272324;}
	.st34{fill:#2D292A;}
	.st35{fill:#2C2829;}
	.st36{clip-path:url(#SVGID_00000132052078756500821700000009698495036088169373_);}
	.st37{fill:none;stroke:#231F20;stroke-width:1.25;}
	.st38{clip-path:url(#SVGID_00000089574893182407333020000014938895554033740707_);}
</style>
<g>
	<defs>
		<rect id="SVGID_1_" x="2.18" y="1.99" width="368.09" height="200.63"></rect>
	</defs>
	<clipPath id="SVGID_00000114763482691896952600000012603382083675621309_">
		<use xlink:href="#SVGID_1_" style="overflow:visible;"></use>
	</clipPath>
	<g style="clip-path:url(#SVGID_00000114763482691896952600000012603382083675621309_);">
		<path class="st1" d="M145.04,91.16h0.03v2.45H-87.36v-2.45h229.95l0.01-0.61c0.08-4.89,1.01-9.58,2.67-13.92l0.21-0.56    l-43.97-18.22l0.94-2.26l44,18.23l0.26-0.53c1.9-3.91,4.4-7.48,7.39-10.61l0.42-0.44l-33.88-33.88l1.73-1.73l33.92,33.92    l0.44-0.39c3.13-2.76,6.68-5.06,10.54-6.82l0.55-0.25L149.09,8.66l2.25-0.95l18.74,44.46l0.55-0.2c3.74-1.33,7.73-2.17,11.88-2.42    l0.58-0.04V1.99h2.45v47.48l0.61,0.01c4.74,0.1,9.29,0.96,13.52,2.46l0.56,0.2l18.63-44.51l2.26,0.94l-18.62,44.48l0.55,0.25    c3.9,1.76,7.48,4.09,10.63,6.86l0.44,0.39l33.92-33.92l1.73,1.73L215.9,62.24l0.42,0.44c2.91,3.04,5.35,6.5,7.23,10.28l0.26,0.52    l43.85-18.61l0.96,2.25l-43.81,18.6l0.22,0.56c1.73,4.44,2.72,9.24,2.8,14.26l0.01,0.61h230.18v2.45H225.58v-3.02h-0.21    c-0.34-21.39-18.17-38.67-40.16-38.67c-21.98,0-39.79,17.25-40.16,38.61L145.04,91.16z"></path>
		<path class="st2" d="M161.16,97.02l-1.23-0.16l-0.08,0.66l0.5,0.44L161.16,97.02z M161.7,81.17h1.24v-0.06l-0.01-0.06L161.7,81.17    z M209.51,81.17l-1.24-0.12l0,0.06v0.06H209.51z M210.04,97.02l0.82,0.94l0.5-0.44l-0.08-0.66L210.04,97.02z M207.1,97.64V96.4    h-1.43l0.2,1.42L207.1,97.64z M206.13,106.37l-0.05-1.24l-1.08,0.05l-0.1,1.08L206.13,106.37z M208.17,116.52l1.05-0.66l0,0    L208.17,116.52z M209.29,118.25l-1.04,0.68l0,0L209.29,118.25z M215.21,128.98l1.15-0.48l0,0L215.21,128.98z M217.7,145.27    l-1.24,0.01v0L217.7,145.27z M215.84,224.67l1.1,0.58l0,0L215.84,224.67z M215.56,225.22l1.14,0.5l0,0L215.56,225.22z     M215.29,226.06l1.2,0.33l0,0L215.29,226.06z M208.62,231.63l-0.27-1.21l0,0L208.62,231.63z M185.83,233.49l-0.04-1.24l-1.21,0.03    v1.21H185.83z M185.83,233.5l-0.03,1.24l1.28,0.03v-1.28H185.83z M185.6,233.5l0.03-1.24l-0.03,0l-0.03,0L185.6,233.5z     M185.38,233.5h-1.24v1.28l1.28-0.03L185.38,233.5z M185.38,233.49h1.24v-1.21l-1.21-0.03L185.38,233.49z M162.59,231.63    l0.27-1.21l0,0L162.59,231.63z M155.92,226.06l-1.2,0.33l0,0L155.92,226.06z M155.64,225.22l1.14-0.5l0,0L155.64,225.22z     M155.37,224.67l1.1-0.58l0,0L155.37,224.67z M153.51,145.27l1.24,0.01v0L153.51,145.27z M156,128.98l-1.15-0.48l0,0L156,128.98z     M161.92,118.25l1.04,0.68l0,0L161.92,118.25z M163.03,116.52l1.05,0.66l0,0L163.03,116.52z M165.08,106.37l1.24-0.12l-0.1-1.08    l-1.08-0.05L165.08,106.37z M164.1,97.64l1.23,0.17l0.2-1.42h-1.43V97.64z M160.46,89.72c0,2.41-0.35,5.76-0.52,7.14l2.47,0.31    c0.18-1.41,0.54-4.89,0.54-7.46H160.46z M160.46,81.17v8.55h2.49v-8.55H160.46z M163.21,78.06c-1.15,0-1.95,0.57-2.37,1.34    c-0.37,0.67-0.42,1.41-0.38,1.89l2.48-0.24c-0.01-0.05-0.01-0.14,0.01-0.24c0.02-0.1,0.04-0.17,0.07-0.21    c0.01-0.02,0.02-0.03,0.02-0.03c0,0,0,0,0,0c0,0,0.01-0.01,0.03-0.01c0.02-0.01,0.07-0.01,0.14-0.01V78.06z M185.38,78.06h-22.17    v2.49h22.17V78.06z M185.38,80.54h0.44v-2.49h-0.44V80.54z M185.83,80.54H208v-2.49h-22.17V80.54z M208,80.54    c0.07,0,0.12,0.01,0.14,0.01c0.02,0.01,0.03,0.01,0.03,0.01c0,0,0,0,0,0c0,0,0.01,0.01,0.02,0.03c0.02,0.04,0.05,0.11,0.06,0.21    c0.01,0.1,0.01,0.18,0.01,0.24l2.48,0.24c0.04-0.48,0-1.22-0.38-1.89c-0.42-0.77-1.22-1.34-2.37-1.34V80.54z M208.27,81.17v8.55    h2.49v-8.55H208.27z M208.27,89.72c0,2.57,0.36,6.05,0.54,7.46l2.47-0.31c-0.18-1.38-0.52-4.73-0.52-7.14H208.27z M209.22,96.08    c0.04-0.03,0.01,0-0.17,0.06c-0.16,0.05-0.37,0.1-0.62,0.14c-0.49,0.08-1.01,0.11-1.33,0.11v2.49c0.42,0,1.09-0.03,1.73-0.14    c0.33-0.05,0.68-0.13,1-0.24c0.31-0.1,0.7-0.27,1.02-0.55L209.22,96.08z M205.87,97.82c0.18,1.24,0.4,3.06,0.57,4.63    c0.09,0.78,0.17,1.49,0.22,2.04c0.03,0.27,0.05,0.5,0.06,0.67c0.02,0.19,0.02,0.26,0.02,0.24h2.49c0-0.19-0.04-0.65-0.09-1.16    c-0.06-0.56-0.14-1.28-0.23-2.07c-0.18-1.57-0.4-3.41-0.58-4.69L205.87,97.82z M206.75,105.39c0-0.24,0.08-0.41,0.13-0.49    c0.02-0.04,0.05-0.07,0.06-0.09c0.01-0.02,0.02-0.02,0.02-0.03c0,0-0.01,0.01-0.05,0.04c-0.04,0.02-0.09,0.05-0.15,0.08    c-0.12,0.06-0.27,0.12-0.41,0.16c-0.15,0.04-0.25,0.06-0.29,0.06l0.11,2.48c0.56-0.02,1.2-0.23,1.68-0.47    c0.25-0.12,0.53-0.29,0.77-0.5c0.18-0.17,0.61-0.59,0.61-1.25H206.75z M204.89,106.25c-0.37,4.03,0.27,7.79,2.23,10.92l2.11-1.32    c-1.6-2.56-2.2-5.75-1.87-9.38L204.89,106.25z M207.12,117.18c0.34,0.55,0.72,1.14,1.13,1.76l2.09-1.36    c-0.4-0.62-0.77-1.19-1.1-1.72L207.12,117.18z M208.25,118.93c1.73,2.65,3.91,6.02,5.81,10.53l2.29-0.97    c-1.99-4.73-4.29-8.26-6.02-10.92L208.25,118.93z M214.06,129.46c0.89,2.12,1.49,5.17,1.87,8.2c0.37,3.01,0.51,5.9,0.53,7.62    l2.49-0.02c-0.01-1.81-0.16-4.79-0.55-7.9c-0.38-3.09-1.01-6.42-2.05-8.86L214.06,129.46z M216.46,145.28    c0.15,16.8,0.44,53,0.44,63.47h2.49c0-10.48-0.3-46.7-0.44-63.49L216.46,145.28z M216.9,208.75c0,5.72-0.38,9.23-0.83,11.47    c-0.45,2.2-0.97,3.19-1.33,3.87l2.2,1.16c0.43-0.82,1.06-2.03,1.57-4.53c0.5-2.46,0.88-6.16,0.88-11.97H216.9z M214.74,224.09    c-0.1,0.19-0.22,0.41-0.31,0.63l2.28,1c0.05-0.12,0.12-0.26,0.24-0.47L214.74,224.09z M214.42,224.73c-0.14,0.33-0.25,0.7-0.33,1    l2.4,0.67c0.1-0.35,0.15-0.54,0.21-0.67L214.42,224.73z M214.1,225.73c-0.23,0.83-0.48,1.67-1.2,2.47c-0.71,0.79-2,1.66-4.55,2.22    l0.53,2.43c2.91-0.64,4.72-1.71,5.86-2.99c1.14-1.27,1.51-2.62,1.74-3.47L214.1,225.73z M208.35,230.42    c-4.93,1.08-16.76,1.66-22.56,1.83l0.07,2.49c5.74-0.17,17.82-0.74,23.02-1.89L208.35,230.42z M187.07,233.5v-0.01h-2.49v0.01    H187.07z M185.57,234.74c0.07,0,0.15,0,0.22,0.01l0.07-2.49c-0.07,0-0.15,0-0.22,0L185.57,234.74z M185.57,232.25    c-0.07,0-0.15,0-0.22,0l0.06,2.49c0.07,0,0.15,0,0.22-0.01L185.57,232.25z M186.63,233.5v-0.01h-2.49v0.01H186.63z M162.32,232.85    c5.2,1.14,17.28,1.72,23.02,1.89l0.07-2.49c-5.8-0.17-17.63-0.75-22.56-1.83L162.32,232.85z M154.72,226.39    c0.24,0.85,0.6,2.2,1.74,3.47c1.15,1.28,2.96,2.35,5.86,2.99l0.53-2.43c-2.54-0.56-3.84-1.43-4.55-2.22    c-0.72-0.8-0.96-1.64-1.2-2.47L154.72,226.39z M154.51,225.72c0.06,0.13,0.11,0.32,0.21,0.67l2.4-0.67c-0.08-0.3-0.19-0.67-0.33-1    L154.51,225.72z M154.27,225.25c0.11,0.21,0.18,0.35,0.24,0.47l2.28-1c-0.1-0.22-0.21-0.44-0.31-0.63L154.27,225.25z     M151.82,208.75c0,5.81,0.38,9.51,0.88,11.97c0.51,2.5,1.14,3.71,1.57,4.53l2.2-1.16c-0.36-0.68-0.88-1.67-1.33-3.87    c-0.46-2.24-0.83-5.76-0.83-11.47H151.82z M152.26,145.26c-0.15,16.79-0.45,53.01-0.45,63.49h2.49c0-10.46,0.3-46.67,0.45-63.47    L152.26,145.26z M154.86,128.5c-1.03,2.44-1.66,5.77-2.04,8.86c-0.39,3.11-0.53,6.09-0.55,7.9l2.49,0.02    c0.01-1.72,0.15-4.61,0.53-7.62c0.38-3.04,0.98-6.09,1.87-8.2L154.86,128.5z M160.88,117.58c-1.73,2.66-4.03,6.19-6.02,10.92    l2.29,0.97c1.9-4.51,4.09-7.88,5.81-10.53L160.88,117.58z M161.98,115.86c-0.33,0.53-0.7,1.1-1.1,1.72l2.09,1.36    c0.4-0.62,0.78-1.21,1.13-1.76L161.98,115.86z M163.84,106.48c0.34,3.63-0.26,6.81-1.86,9.38l2.11,1.32    c1.96-3.13,2.61-6.9,2.23-10.92L163.84,106.48z M161.97,105.39c0,0.66,0.42,1.09,0.61,1.25c0.24,0.21,0.52,0.38,0.77,0.5    c0.49,0.24,1.12,0.44,1.69,0.47l0.11-2.48c-0.04,0-0.14-0.02-0.29-0.06c-0.14-0.04-0.28-0.1-0.41-0.16    c-0.06-0.03-0.11-0.06-0.15-0.08c-0.04-0.02-0.05-0.04-0.05-0.04c0,0,0.01,0.01,0.02,0.03c0.01,0.02,0.04,0.04,0.06,0.09    c0.05,0.08,0.13,0.25,0.13,0.49H161.97z M162.87,97.47c-0.18,1.28-0.4,3.12-0.58,4.69c-0.09,0.79-0.17,1.51-0.22,2.07    c-0.05,0.51-0.1,0.97-0.1,1.16h2.49c0,0.01,0-0.05,0.02-0.24c0.01-0.17,0.04-0.39,0.06-0.67c0.06-0.54,0.13-1.26,0.22-2.04    c0.18-1.56,0.4-3.38,0.57-4.63L162.87,97.47z M160.35,97.95c0.32,0.28,0.71,0.45,1.02,0.55c0.33,0.11,0.68,0.19,1,0.24    c0.65,0.11,1.31,0.14,1.73,0.14V96.4c-0.32,0-0.84-0.03-1.33-0.11c-0.25-0.04-0.46-0.09-0.62-0.14c-0.18-0.06-0.21-0.1-0.17-0.06    L160.35,97.95z"></path>
		<path class="st3" d="M153.28,141.99c13.59,1.27,45.49,3.04,64.37,0"></path>
		<path class="st1" d="M164.1,97.64L164.1,97.64c10.78,0.42,34.27,0.99,43,0.01l0-0.01c0.74,0,2.37-0.12,2.94-0.62    c-0.18-1.39-0.53-4.81-0.53-7.3v-8.55c0.06-0.62-0.16-1.87-1.51-1.87h-22.17h-0.44h-22.17c-1.35,0-1.57,1.25-1.51,1.87v8.55    c0,2.49-0.36,5.91-0.53,7.3C161.73,97.52,163.36,97.64,164.1,97.64z M164.18,96.09V80.98h-1.66v15.11H164.18z M186.57,96.09V80.98    h-1.66v15.11H186.57z M208.96,80.98v15.11h-1.66V80.98H208.96z M197.77,96.09V80.98h-1.66v15.11H197.77z M174.82,80.98v15.11    h-1.66V80.98H174.82z M180.97,96.09V80.98h-1.66v15.11H180.97z M169.22,80.98v15.11h-1.66V80.98H169.22z M192.17,96.09V80.98    h-1.66v15.11H192.17z M203.36,80.98v15.11h-1.66V80.98H203.36z M189.37,96.09V80.98h-1.66v15.11H189.37z M194.97,80.98v15.11    h-1.66V80.98H194.97z M200.57,96.09V80.98h-1.66v15.11H200.57z M206.16,80.98v15.11h-1.66V80.98H206.16z M183.77,96.09V80.98    h-1.66v15.11H183.77z M177.62,80.98v15.11h-1.66V80.98H177.62z M172.02,96.09V80.98h-1.66v15.11H172.02z M166.42,80.98v15.11    h-1.66V80.98H166.42z"></path>
		<g>
			<path class="st1" d="M166.7,160.43l-3.16-9.28c7-2.31,14.5-3.57,22.28-3.57c7.76,0,15.24,1.24,22.22,3.54l-3.16,9.28     c-6-1.96-12.41-3.02-19.07-3.02C179.15,157.38,172.72,158.45,166.7,160.43z"></path>
			<path class="st2" d="M197.32,162.28c4,0.81,7.86,2.04,11.52,3.63l-0.13-6.08l4.59-4.12c-1.75-0.77-3.54-1.46-5.37-2.08     l-2.59,7.62c-2.35-0.8-4.77-1.45-7.24-1.96L197.32,162.28z"></path>
			<path class="st2" d="M173.51,159.32c-2.47,0.51-4.89,1.18-7.24,1.97l-2.59-7.63c-1.83,0.63-3.62,1.32-5.37,2.09l4.58,4.11     l-0.12,6.08c3.66-1.61,7.52-2.84,11.52-3.65L173.51,159.32z"></path>
			<path class="st4" d="M192.73,152.39l3.44,0.37c-0.04,0.35-0.09,0.67-0.14,0.95c-0.06,0.29-0.14,0.55-0.26,0.78     c-0.16,0.34-0.36,0.63-0.6,0.88s-0.51,0.44-0.82,0.59c-0.3,0.14-0.63,0.25-0.98,0.31c-0.35,0.05-0.72,0.07-1.1,0.03     c-0.52-0.05-0.98-0.2-1.38-0.41c-0.41-0.22-0.75-0.5-1.02-0.84c-0.28-0.34-0.47-0.73-0.6-1.19c-0.13-0.46-0.16-0.94-0.1-1.46     c0.05-0.52,0.2-0.98,0.4-1.4c0.21-0.42,0.5-0.76,0.84-1.03c0.34-0.27,0.74-0.47,1.19-0.6c0.46-0.13,0.96-0.16,1.49-0.1     c0.69,0.08,1.29,0.29,1.78,0.64c0.5,0.35,0.86,0.86,1.1,1.53l-1.71,0.51c-0.12-0.38-0.29-0.67-0.51-0.85s-0.5-0.3-0.81-0.33     c-0.26-0.03-0.5,0-0.72,0.07c-0.22,0.08-0.42,0.2-0.59,0.35c-0.17,0.17-0.31,0.37-0.42,0.61c-0.12,0.25-0.18,0.52-0.22,0.84     c-0.03,0.29-0.03,0.55,0.02,0.8c0.05,0.25,0.13,0.47,0.26,0.67c0.13,0.2,0.3,0.35,0.51,0.47c0.21,0.12,0.46,0.2,0.74,0.22     c0.17,0.01,0.34,0.01,0.5,0c0.16-0.03,0.31-0.07,0.44-0.14c0.13-0.07,0.25-0.17,0.35-0.3c0.09-0.13,0.17-0.29,0.22-0.48     l-1.43-0.16L192.73,152.39z"></path>
			<path class="st4" d="M200.87,153.74l3.36,0.8c-0.08,0.34-0.17,0.65-0.26,0.93c-0.09,0.27-0.22,0.52-0.37,0.75     c-0.2,0.31-0.43,0.58-0.71,0.78c-0.28,0.21-0.56,0.38-0.89,0.48c-0.33,0.1-0.67,0.17-1.02,0.18c-0.35,0.01-0.72-0.03-1.09-0.12     c-0.51-0.12-0.95-0.31-1.33-0.58c-0.38-0.26-0.68-0.59-0.92-0.97c-0.22-0.38-0.38-0.8-0.44-1.26c-0.06-0.46-0.04-0.95,0.08-1.46     c0.12-0.51,0.32-0.95,0.58-1.33c0.26-0.38,0.59-0.69,0.96-0.92c0.38-0.22,0.8-0.38,1.26-0.44c0.47-0.07,0.97-0.04,1.49,0.09     c0.68,0.16,1.24,0.44,1.69,0.86c0.44,0.42,0.74,0.97,0.89,1.66l-1.76,0.29c-0.07-0.39-0.2-0.69-0.41-0.92     c-0.2-0.21-0.46-0.35-0.76-0.43c-0.25-0.07-0.5-0.07-0.73-0.03c-0.24,0.04-0.44,0.14-0.63,0.27c-0.18,0.14-0.35,0.33-0.5,0.55     c-0.14,0.22-0.25,0.5-0.33,0.8c-0.06,0.27-0.09,0.54-0.08,0.8c0.01,0.25,0.08,0.48,0.18,0.69c0.1,0.21,0.25,0.38,0.44,0.54     c0.2,0.14,0.43,0.25,0.71,0.31c0.17,0.04,0.33,0.07,0.5,0.07c0.17,0,0.31-0.03,0.46-0.08c0.14-0.05,0.27-0.14,0.38-0.25     c0.12-0.12,0.21-0.26,0.28-0.44l-1.4-0.33L200.87,153.74z"></path>
			<path class="st4" d="M173.56,154.93c-0.04-0.2-0.12-0.38-0.2-0.54c-0.09-0.16-0.2-0.3-0.34-0.42s-0.3-0.2-0.5-0.25     c-0.2-0.05-0.42-0.08-0.67-0.07c0.21-0.21,0.34-0.43,0.42-0.68c0.06-0.25,0.06-0.54-0.01-0.86c-0.13-0.54-0.38-0.93-0.76-1.14     c-0.38-0.22-0.86-0.26-1.47-0.12l-2.67,0.61l-0.2,1.46l0.64-0.16l1.2,5.19l2.73-0.63c0.34-0.08,0.65-0.2,0.9-0.34     c0.26-0.14,0.47-0.33,0.63-0.52c0.16-0.21,0.26-0.44,0.31-0.71C173.64,155.52,173.64,155.23,173.56,154.93z M169.5,152.36     l0.31-0.08c0.54-0.12,0.85,0.03,0.94,0.44c0.09,0.42-0.12,0.69-0.65,0.81l-0.31,0.08L169.5,152.36z M171.66,155.81     c-0.16,0.16-0.46,0.27-0.88,0.38l-0.37,0.09l-0.33-1.39l0.37-0.09c0.43-0.1,0.74-0.12,0.95-0.05c0.21,0.07,0.34,0.22,0.41,0.46     C171.87,155.46,171.82,155.65,171.66,155.81z"></path>
			<path class="st4" d="M180.88,155.93l-2.43-2.47c0.46-0.17,0.8-0.43,1.01-0.77c0.21-0.34,0.28-0.77,0.21-1.28     c-0.04-0.29-0.12-0.54-0.24-0.77s-0.29-0.43-0.48-0.6c-0.21-0.17-0.44-0.29-0.75-0.37c-0.29-0.08-0.61-0.09-0.99-0.04l-2.84,0.35     l-0.34,1.44l0.67-0.09l0.65,5.28l1.73-0.21l-0.31-2.56l1.96,2.35L180.88,155.93z M177.7,152.36c-0.17,0.17-0.42,0.26-0.76,0.31     l-0.33,0.04l-0.2-1.65l0.33-0.04c0.34-0.04,0.62,0,0.81,0.12c0.2,0.12,0.31,0.31,0.35,0.58     C177.94,151.98,177.87,152.2,177.7,152.36z"></path>
			<path class="st4" d="M185.91,149.07l-2.54,0.03l-0.51,1.39h0.65l-1.96,5.36l1.86-0.03l0.38-1.16l2.48-0.04l0.42,1.16l1.86-0.03     L185.91,149.07z M184.24,153.31l0.76-2.24l0.81,2.22L184.24,153.31z"></path>
			<path class="st4" d="M206.82,152.59c0,0.41-0.31,0.72-0.73,0.72c-0.41,0-0.73-0.31-0.73-0.72c0-0.39,0.33-0.72,0.73-0.72     C206.5,151.88,206.82,152.19,206.82,152.59z M205.54,152.59c0,0.31,0.23,0.58,0.56,0.58c0.31,0,0.55-0.25,0.55-0.56     c0-0.31-0.24-0.58-0.55-0.58C205.77,152.02,205.54,152.28,205.54,152.59z M205.98,152.96h-0.17v-0.72     c0.07-0.01,0.16-0.03,0.28-0.03c0.13,0,0.2,0.03,0.25,0.05c0.04,0.03,0.07,0.09,0.07,0.16c0,0.08-0.07,0.14-0.14,0.17v0.01     c0.07,0.03,0.1,0.08,0.13,0.17c0.03,0.1,0.04,0.16,0.05,0.18h-0.18c-0.03-0.03-0.04-0.09-0.05-0.17s-0.05-0.12-0.14-0.12h-0.08     V152.96L205.98,152.96z M205.98,152.55h0.08c0.09,0,0.17-0.03,0.17-0.1c0-0.07-0.05-0.1-0.16-0.1c-0.04,0-0.08,0-0.09,0.01     V152.55L205.98,152.55z"></path>
			
				<linearGradient id="SVGID_00000151512916741487261130000001450964866400222118_" gradientUnits="userSpaceOnUse" x1="200.6914" y1="-4345.3926" x2="200.8887" y2="-4345.3926" gradientTransform="matrix(1 0 0 -1 0 -4182.5732)">
				<stop offset="0" style="stop-color:#ED1C24"></stop>
				<stop offset="0.2361" style="stop-color:#E91C24"></stop>
				<stop offset="0.4038" style="stop-color:#E11B22"></stop>
				<stop offset="0.5501" style="stop-color:#D41920"></stop>
				<stop offset="0.6844" style="stop-color:#C3161D"></stop>
				<stop offset="0.8103" style="stop-color:#AD1116"></stop>
				<stop offset="0.9285" style="stop-color:#92080B"></stop>
				<stop offset="1" style="stop-color:#810101"></stop>
			</linearGradient>
			<path style="fill:url(#SVGID_00000151512916741487261130000001450964866400222118_);" d="M200.7,162.79     c0.06,0.01,0.13,0.03,0.2,0.05v-0.03C200.83,162.81,200.76,162.79,200.7,162.79z"></path>
		</g>
	</g>
</g>
<path class="st11" d="M319.19,298.82H53.7c-28.41,0-51.44-23.03-51.44-51.44V53.43c0-28.41,23.03-51.44,51.44-51.44h265.5  c28.41,0,51.44,23.03,51.44,51.44v193.95C370.63,275.79,347.6,298.82,319.19,298.82z"></path>
<rect x="74.5" y="229.36" class="st30" width="223.67" height="46.82"></rect>
<text transform="matrix(1 0 0 1 78.6984 245.1785)"><tspan x="0" y="0" class="st31 st32">Puedes beber 1 al día </tspan><tspan x="-1.83" y="26.4" class="st31 st32">o cuando lo necesites. </tspan></text>
<line class="st11" x1="2.04" y1="204.02" x2="370.63" y2="204.02"></line>
</svg>
