<?xml version="1.0" encoding="UTF-8"?>
<!-- Generator: Adobe Illustrator 27.0.0, SVG Export Plug-In . SVG Version: 6.00 Build 0)  -->
<svg xmlns="http://www.w3.org/2000/svg" xmlns:xlink="http://www.w3.org/1999/xlink" version="1.1" id="Layer_2" x="0px" y="0px" viewBox="0 0 372.45 300.74" style="enable-background:new 0 0 372.45 300.74;" xml:space="preserve">
<style type="text/css">
	.st0{clip-path:url(#SVGID_00000161606916894129272460000004005032123104092339_);}
	.st1{fill-rule:evenodd;clip-rule:evenodd;fill:#231F20;}
	.st2{fill:#231F20;}
	.st3{fill:none;stroke:#231F20;stroke-width:1.5;}
	.st4{fill:#FFFFFF;}
	.st5{fill:url(#SVGID_00000137825099653459650300000012232696230363540370_);}
	.st6{fill:#2E2A2B;}
	.st7{clip-path:url(#SVGID_00000019658762867621085200000000275627771455354519_);}
	.st8{clip-path:url(#SVGID_00000088092952332281101920000000443687267877357966_);}
	.st9{fill:url(#SVGID_00000011715486721310131630000006010490646706764703_);}
	.st10{fill:url(#SVGID_00000176022521602859885750000004020512031643251595_);}
	.st11{fill:none;stroke:#EC1D2B;stroke-width:3;stroke-miterlimit:10;}
	.st12{clip-path:url(#SVGID_00000018214521723268902190000001424956720795011772_);}
	.st13{fill:url(#SVGID_00000133501852372069629370000001803130179021269910_);}
	.st14{fill:#231F20;stroke:#231F20;stroke-width:1.5;}
	.st15{fill:url(#SVGID_00000127741803489814971190000004570571593197759139_);}
	.st16{clip-path:url(#SVGID_00000112621954589867017610000007389947374215875475_);}
	.st17{fill:url(#SVGID_00000173841644464981565240000000615133495696115646_);}
	.st18{clip-path:url(#SVGID_00000021104249018028152650000007975002286969728171_);}
	.st19{clip-path:url(#SVGID_00000140015393121236028830000015784021689076148107_);}
	.st20{fill:url(#SVGID_00000114051311972158051960000013497405381486411161_);}
	.st21{fill:url(#SVGID_00000160897046600976055480000015723943678690673305_);}
	.st22{fill-rule:evenodd;clip-rule:evenodd;}
	.st23{clip-path:url(#SVGID_00000156579474197967425760000007194981526822845320_);}
	.st24{fill:url(#SVGID_00000149355853940065020610000008998415638530705076_);}
	.st25{clip-path:url(#SVGID_00000168804525137310616390000013586015090454576291_);}
	.st26{clip-path:url(#SVGID_00000062902741624854721930000000460551184916267956_);}
	.st27{fill:url(#SVGID_00000011752492222880722550000005611963791742414011_);}
	.st28{fill:url(#SVGID_00000045617602234414540730000000472244374839313049_);}
	.st29{clip-path:url(#SVGID_00000107586599015134364790000004147260752338413470_);}
	.st30{fill:none;}
	.st31{font-family:'Helvetica';}
	.st32{font-size:22px;}
	.st33{fill:#272324;}
	.st34{fill:#2D292A;}
	.st35{fill:#2C2829;}
	.st36{clip-path:url(#SVGID_00000070090819937293705600000008421777277235649701_);}
	.st37{fill:none;stroke:#231F20;stroke-width:1.25;}
	.st38{clip-path:url(#SVGID_00000058586424851878396350000002579802931359842182_);}
</style>
<g>
	<defs>
		<rect id="SVGID_1_" x="-410.79" y="1.99" width="368.09" height="200.63"></rect>
	</defs>
	<clipPath id="SVGID_00000150791342026403191570000000802108528547369125_">
		<use xlink:href="#SVGID_1_" style="overflow:visible;"></use>
	</clipPath>
	<g style="clip-path:url(#SVGID_00000150791342026403191570000000802108528547369125_);">
		<path class="st1" d="M-267.93,91.16h0.03v2.45h-232.43v-2.45h229.95l0.01-0.61c0.08-4.89,1.01-9.58,2.67-13.92l0.21-0.56    l-43.97-18.22l0.94-2.26l44,18.23l0.26-0.53c1.9-3.91,4.4-7.48,7.39-10.61l0.42-0.44l-33.88-33.88l1.73-1.73l33.92,33.92    l0.44-0.39c3.13-2.76,6.68-5.06,10.54-6.82l0.55-0.25l-18.73-44.43l2.25-0.95l18.74,44.46l0.55-0.2    c3.74-1.33,7.73-2.17,11.88-2.42l0.58-0.04V1.99h2.45v47.48l0.61,0.01c4.74,0.1,9.29,0.96,13.52,2.46l0.56,0.2l18.63-44.51    l2.26,0.94l-18.62,44.48l0.55,0.25c3.9,1.76,7.48,4.09,10.63,6.86l0.44,0.39l33.92-33.92l1.73,1.73l-33.88,33.88l0.42,0.44    c2.91,3.04,5.35,6.5,7.23,10.28l0.26,0.52l43.85-18.61l0.96,2.25l-43.81,18.6l0.22,0.56c1.73,4.44,2.72,9.24,2.8,14.26l0.01,0.61    H45.04v2.45h-232.42v-3.02h-0.21c-0.34-21.39-18.17-38.67-40.16-38.67c-21.98,0-39.79,17.25-40.16,38.61L-267.93,91.16z"></path>
	</g>
</g>
<path class="st11" d="M319.19,298.82H53.7c-28.41,0-51.44-23.03-51.44-51.44V53.43c0-28.41,23.03-51.44,51.44-51.44h265.5  c28.41,0,51.44,23.03,51.44,51.44v193.95C370.63,275.79,347.6,298.82,319.19,298.82z"></path>
<rect x="41.77" y="244.8" class="st30" width="288.9" height="15.95"></rect>
<text transform="matrix(1 0 0 1 41.9142 260.6128)" class="st31 st32">Tómalo todo en una sola vez. </text>
<line class="st11" x1="2.04" y1="204.02" x2="370.63" y2="204.02"></line>
<g>
	<defs>
		<rect id="SVGID_00000151529729396655305670000013866908440237138360_" x="2.58" y="2.21" width="367.29" height="200.19"></rect>
	</defs>
	<clipPath id="SVGID_00000159460327949947416860000002487972687926730625_">
		<use xlink:href="#SVGID_00000151529729396655305670000013866908440237138360_" style="overflow:visible;"></use>
	</clipPath>
	<g style="clip-path:url(#SVGID_00000159460327949947416860000002487972687926730625_);">
		<path class="st3" d="M242.97,135.7c2.8,0.04,8.37,1.81,8.27,8.53c-0.11,6.72-8.71,12.52-13,14.58c-1.61,2.66-5.91,8.31-10.23,9.59    c-5.4,1.59-18.85,2.05-22.58,3.67c-3.72,1.62-16.23,6.47-20.62,7.4c-4.38,0.94-8.23,10.62-20.76,16.14    c-12.52,5.51-23.34,9.71-31.83,14.96c-8.48,5.24-28.65,26.77-39.79,51.13C83.52,281.18,77.1,296.52,75,301.75"></path>
		<path class="st2" d="M56.69,184.17l1.06,0.65L56.69,184.17z M113.6,70.81l-0.69,1.03L113.6,70.81z M103.98,62.89    c-0.57-0.38-1.34-0.23-1.72,0.34c-0.38,0.57-0.23,1.34,0.34,1.72L103.98,62.89z M26.1,244.67c4.05-8.12,28.93-55.38,31.66-59.86    l-2.12-1.29c-2.79,4.58-27.71,51.93-31.76,60.04L26.1,244.67z M57.75,184.82c1.74-2.86,3.34-5.52,5.12-7.77    c1.77-2.24,3.67-3.97,5.96-5l-1.01-2.26c-2.79,1.25-4.98,3.31-6.89,5.72c-1.9,2.4-3.59,5.22-5.3,8.02L57.75,184.82z M68.84,172.04    c2.8-1.25,4.43-2.98,5.31-5.33c0.83-2.24,0.95-4.97,1-8.13l-2.48-0.04c-0.05,3.23-0.18,5.53-0.84,7.3c-0.62,1.65-1.72,2.91-4,3.93    L68.84,172.04z M75.14,158.58c0.1-6.45-0.31-22.07,3.57-36.95l-2.4-0.63c-3.98,15.24-3.55,31.22-3.65,37.54L75.14,158.58z     M78.72,121.63c3.94-15.07,5.39-21.47,6.5-27.55l-2.44-0.45c-1.1,5.99-2.53,12.31-6.46,27.37L78.72,121.63z M85.22,94.09    c0.53-2.89,1.81-6.64,3.39-10.73c1.59-4.12,3.38-8.35,4.98-12.43l-2.31-0.91c-1.55,3.94-3.42,8.38-4.99,12.45    c-1.58,4.09-2.94,8.03-3.51,11.17L85.22,94.09z M93.59,70.92c0.81-2.07,1.56-4.57,2.3-7.18c0.75-2.64,1.5-5.4,2.34-8.08    c0.83-2.67,1.74-5.21,2.77-7.36c1.04-2.17,2.18-3.86,3.44-4.94l-1.61-1.89c-1.64,1.4-2.96,3.45-4.06,5.75    c-1.11,2.32-2.06,4.98-2.91,7.7c-0.85,2.72-1.61,5.54-2.35,8.14c-0.75,2.62-1.46,5.01-2.23,6.95L93.59,70.92z M104.44,43.36    c2.72-2.33,5.58-3.47,8.32-3.46c2.73,0.01,5.53,1.15,8.15,3.7l1.73-1.78c-3-2.92-6.39-4.39-9.87-4.4    c-3.47-0.01-6.88,1.44-9.94,4.06L104.44,43.36z M120.91,43.59c2.68,2.61,3.35,4.01,4.28,5.6c1.02,1.74,2.26,3.55,6.01,6.71    l1.6-1.9c-3.55-3-4.6-4.59-5.47-6.07c-0.95-1.62-1.75-3.27-4.69-6.13L120.91,43.59z M131.2,55.91c3.5,2.96,8.03,8.7,11.38,14.52    c1.67,2.9,3.02,5.77,3.79,8.26c0.8,2.56,0.92,4.48,0.47,5.65l2.31,0.89c0.77-2,0.42-4.62-0.41-7.29    c-0.85-2.73-2.29-5.77-4.01-8.76c-3.44-5.97-8.14-11.97-11.93-15.17L131.2,55.91z M146.84,84.34c-1.03,2.66-3.26,4.11-6.2,4.13    c-3,0.03-6.81-1.45-10.63-4.9l-1.66,1.84c4.13,3.73,8.51,5.58,12.31,5.54c3.87-0.03,7.07-2.03,8.49-5.72L146.84,84.34z     M130.01,83.57c-7.84-7.08-10.97-10.64-15.72-13.8l-1.37,2.07c4.56,3.03,7.37,6.29,15.43,13.58L130.01,83.57z M114.29,69.77    c-3.72-2.48-8.42-5.62-10.31-6.88l-1.38,2.06c1.88,1.26,6.59,4.41,10.31,6.89L114.29,69.77z"></path>
		<path class="st2" d="M137.96,39.26l-0.9-0.85l0,0L137.96,39.26z M154.52,33.48l0.22-1.22L154.52,33.48z M167.98,53.52l-1.11,0.56    l0.02,0.04l0.02,0.04L167.98,53.52z M178.11,71.83l-1.12,0.54l0,0L178.11,71.83z M143.51,57.12c-0.29-0.62-1.02-0.89-1.65-0.61    c-0.62,0.29-0.89,1.02-0.61,1.65L143.51,57.12z M130.8,53.45c0.8-1.64,2.17-4.3,3.68-6.9c1.53-2.63,3.13-5.1,4.39-6.44l-1.81-1.7    c-1.47,1.57-3.2,4.26-4.73,6.89c-1.54,2.66-2.94,5.37-3.77,7.06L130.8,53.45z M138.87,40.11c1.79-1.91,3.15-3.6,5.32-4.69    c2.1-1.06,5.09-1.61,10.12-0.72l0.43-2.44c-5.37-0.95-8.95-0.43-11.67,0.95c-2.66,1.35-4.38,3.47-6.01,5.21L138.87,40.11z     M154.3,34.7c1.22,0.22,2.13,0.66,2.95,1.37c0.84,0.73,1.62,1.8,2.49,3.34c0.87,1.55,1.78,3.49,2.93,5.93    c1.14,2.43,2.49,5.33,4.21,8.74l2.21-1.12c-1.7-3.37-3.03-6.24-4.17-8.67c-1.13-2.42-2.09-4.46-3.01-6.1    c-0.93-1.65-1.87-2.99-3.02-3.99c-1.18-1.03-2.51-1.65-4.14-1.94L154.3,34.7z M166.92,54.15c2.29,3.85,7.5,12.85,10.08,18.21    l2.24-1.07c-2.63-5.47-7.89-14.56-10.18-18.41L166.92,54.15z M176.99,72.36c0.83,1.73,2.09,3.82,3.2,5.84    c1.14,2.08,2.17,4.18,2.7,6.14c0.54,1.96,0.53,3.62-0.17,4.95c-0.69,1.32-2.21,2.61-5.31,3.51l0.69,2.38    c3.48-1.01,5.7-2.61,6.82-4.74c1.11-2.12,0.98-4.5,0.36-6.76c-0.62-2.26-1.77-4.57-2.92-6.68c-1.19-2.17-2.34-4.07-3.14-5.73    L176.99,72.36z M177.41,92.81c-6.27,1.82-10.48,0.76-13.54-1.36c-3.15-2.18-5.24-5.59-7.04-8.82l-2.17,1.21    c1.8,3.22,4.12,7.1,7.79,9.65c3.75,2.6,8.75,3.71,15.65,1.71L177.41,92.81z M156.83,82.63c-3.6-6.46-7.56-13.03-13.33-25.51    l-2.25,1.04c5.81,12.59,9.82,19.26,13.41,25.68L156.83,82.63z"></path>
		<path class="st37" d="M136.59,83.28c3.48,0,8.41-0.33,10.78-1.52c0.07-4.7-3.16-11.03-8.3-9.23    C133.94,74.33,134.51,80,136.59,83.28z"></path>
		<path class="st37" d="M165.48,84.06c7.25,0.65,14.92-1.11,17.84-2.07c-1.61-4.28-8.22-11.22-13.26-11.3    C163.21,70.58,164.2,80.12,165.48,84.06z"></path>
		<path class="st3" d="M163.44,43.03c1.38-2.22,5.28-6.64,9.85-6.57c5.71,0.09,11.4,1.86,16.36,6.98    c4.96,5.12,11.95,9.26,15.52,17.72c3.56,8.46,9.05,22.66-5.09,24.12c-14.14,1.46-18.55-5.67-21.8-13.11"></path>
		<path class="st37" d="M195.73,63.03c-7.27,0.42-7.17,7.06-6.21,10.32c4.98,0,13.91-1.46,18.17-1.39    C206.72,68.8,202.99,62.61,195.73,63.03z"></path>
		<path class="st3" d="M200.91,53.7c1.03-1.55,4.11-4.91,8.16-5.92c5.06-1.26,16.46,0.6,20.36,8.72c0.96,3.15,0.31,9.89-9.93,11.61    c-10.24,1.72-13.18-4.6-16.09-10.44"></path>
		<path class="st37" d="M227.79,54.13c-5.34-2.24-13.43-1.11-16.8-0.27c0.47-1.67,2.97-4.99,9.15-4.9"></path>
		<path class="st2" d="M208.83,164.72c0.54,0.42,1.32,0.32,1.74-0.22c0.42-0.54,0.32-1.32-0.22-1.74L208.83,164.72z M205.58,151.87    c-0.46,1.38-0.85,3.62-0.53,5.98c0.31,2.38,1.35,4.97,3.79,6.87l1.52-1.96c-1.8-1.4-2.6-3.31-2.85-5.23    c-0.25-1.94,0.07-3.79,0.43-4.86L205.58,151.87z"></path>
		<path class="st2" d="M96.58,104.98c-0.64-0.25-1.36,0.07-1.6,0.71c-0.25,0.64,0.07,1.36,0.71,1.6L96.58,104.98z M144.29,105.68    c-5.11,0.97-13.66,2.1-22.66,2.33c-9.03,0.23-18.34-0.46-25.05-3.04l-0.89,2.32c7.18,2.75,16.89,3.43,26,3.2    c9.14-0.23,17.83-1.38,23.06-2.37L144.29,105.68z"></path>
		<path class="st2" d="M106.14,80.2c-0.68-0.05-1.28,0.46-1.33,1.14s0.46,1.28,1.14,1.33L106.14,80.2z M121.12,77.35    c-1.41,1.09-6.64,3.51-14.99,2.85l-0.19,2.47c8.83,0.69,14.71-1.82,16.7-3.37L121.12,77.35z"></path>
		<path class="st2" d="M309.39,94.33l-0.5-1.14L309.39,94.33z M302.21,98.14l-0.52,1.12l0.6,0.28l0.57-0.34L302.21,98.14z     M312.95,92.76l-0.39-1.18l-0.06,0.02l-0.05,0.02L312.95,92.76z M304.81,69.14l1.13-0.5l-0.5-1.14l-1.13,0.5L304.81,69.14z     M304.81,69.14l-1.13,0.5l0.5,1.14l1.14-0.5L304.81,69.14z M295.65,48.34l1.13-0.5l0,0L295.65,48.34z M293.08,47.64l0.5,1.14    l0.05-0.02l0.05-0.03L293.08,47.64z M289.51,49.21l-0.5-1.14l0,0L289.51,49.21z M281.86,51.93l-0.35-1.19l-0.63,0.19l-0.2,0.63    L281.86,51.93z M281.73,52.32l1.16,0.45l0-0.01l0-0.01L281.73,52.32z M281.73,52.32l-1.16-0.45l-0.01,0.01l0,0.01L281.73,52.32z     M281.79,53.48l0.34,1.19l1.37-0.39l-0.58-1.31L281.79,53.48z M273.53,56.04l-0.5-1.14l0,0L273.53,56.04z M273.37,58.38l0.6,1.08    l0.95-0.53l-0.39-1.01L273.37,58.38z M262.16,60.83l-0.18,1.23l0,0L262.16,60.83z M259.89,60.48l0.2-1.22l-0.02,0L259.89,60.48z     M259.89,60.48l-0.2,1.22l0.02,0L259.89,60.48z M246.36,59.26l-0.02-1.24l0,0L246.36,59.26z M228.7,64.02l0.49,1.14v0L228.7,64.02    z M209.26,72.38l-0.49-1.14l-0.81,0.35l0.07,0.88L209.26,72.38z M209.39,77.49h1.24l0,0H209.39z M192.02,84.94l0.3-1.2l0,0    L192.02,84.94z M185.27,82.73l0.44-1.16l-0.47-0.18l-0.46,0.2L185.27,82.73z M184.67,82.99l-0.49-1.14l-0.7,0.3l-0.05,0.76    L184.67,82.99z M184.57,86.59h-1.24l0,0H184.57z M166.37,94.03l0.55-1.11l0,0L166.37,94.03z M164.72,93.21l-0.55,1.11l0,0    L164.72,93.21z M163.06,92.38l0.55-1.11l-0.53-0.26l-0.54,0.24L163.06,92.38z M148.93,101.4l0.96,0.78l0.01-0.01L148.93,101.4z     M148.93,101.4l-0.96-0.78l-0.01,0.01L148.93,101.4z M148.49,101.92l0.91,0.84l0,0L148.49,101.92z M147.77,102.57l-0.79-0.96l0,0    L147.77,102.57z M145.09,111.83l1.22-0.25l0,0L145.09,111.83z M153.39,135.8l0.5,1.14l1.1-0.49l-0.45-1.12L153.39,135.8z     M153.38,135.81l-0.5-1.14l-1.17,0.51l0.54,1.15L153.38,135.81z M153.46,135.96l1.15-0.47l-0.01-0.03l-0.01-0.03L153.46,135.96z     M153.58,136.26l-1.15,0.47l0.48,1.18l1.17-0.51L153.58,136.26z M153.6,136.25l1.12-0.53l-0.52-1.09l-1.1,0.49L153.6,136.25z     M165.67,158.56l-1,0.73l0,0L165.67,158.56z M174.31,162.85l-0.18-1.23l0,0L174.31,162.85z M175.28,162.75l0,1.24l0,0    L175.28,162.75z M175.96,162.78l-0.09,1.24l0,0L175.96,162.78z M257.4,129.18l-0.51-1.13v0L257.4,129.18z M272.83,119.37l0.9,0.85    l0,0L272.83,119.37z M281.07,108.57l1.04,0.68l0,0L281.07,108.57z M282.34,106.66l1.03,0.7L282.34,106.66z M291.72,100.04    l1.11-0.55l-0.48-0.97l-1.03,0.34L291.72,100.04z M301.02,97.14l1.13-0.5l-0.58-1.31l-1.21,0.75L301.02,97.14z M301.83,97.97    l0.48-1.14l0,0L301.83,97.97z M308.89,93.19c-2.6,1.15-5.96,3.07-7.31,3.88l1.28,2.13c1.32-0.8,4.57-2.65,7.03-3.73L308.89,93.19z     M312.45,91.63l-3.56,1.57l1,2.27l3.56-1.57L312.45,91.63z M313.04,90.89c0.07,0.16,0.06,0.24,0.06,0.26    c0,0.02-0.01,0.06-0.05,0.11c-0.04,0.06-0.12,0.13-0.22,0.19c-0.1,0.07-0.2,0.11-0.27,0.13l0.78,2.36    c0.49-0.16,1.19-0.53,1.68-1.18c0.56-0.74,0.78-1.75,0.28-2.87L313.04,90.89z M303.68,69.64l9.36,21.25l2.27-1l-9.36-21.25    L303.68,69.64z M305.31,70.27L305.31,70.27l-1-2.27l0,0L305.31,70.27z M305.95,68.64l-9.16-20.8l-2.27,1l9.16,20.8L305.95,68.64z     M296.79,47.84c-0.49-1.12-1.39-1.64-2.31-1.73c-0.81-0.08-1.56,0.19-2.01,0.44l1.21,2.17c0.06-0.03,0.16-0.08,0.28-0.11    c0.12-0.03,0.22-0.04,0.29-0.03c0.06,0.01,0.1,0.02,0.11,0.04c0.02,0.01,0.08,0.06,0.15,0.22L296.79,47.84z M292.58,46.5    l-3.56,1.57l1,2.27l3.56-1.57L292.58,46.5z M289.01,48.07c-2.46,1.08-6.02,2.23-7.5,2.67l0.7,2.38c1.51-0.45,5.2-1.63,7.8-2.77    L289.01,48.07z M280.68,51.55c-0.04,0.13-0.08,0.24-0.12,0.35l2.33,0.84c0.04-0.11,0.09-0.26,0.15-0.44L280.68,51.55z     M280.57,51.87L280.57,51.87l2.31,0.9l0,0L280.57,51.87z M280.56,51.9c-0.06,0.16-0.21,0.53-0.2,0.96    c0.01,0.43,0.16,0.81,0.29,1.12l2.27-1c-0.06-0.13-0.08-0.2-0.09-0.23c-0.01-0.02,0,0.01,0,0.07c0,0.06-0.01,0.11-0.01,0.1    c0-0.01,0-0.02,0.02-0.05c0.01-0.03,0.02-0.07,0.04-0.13L280.56,51.9z M281.46,52.29c-1.38,0.39-3.35,0.98-5.02,1.5    c-0.84,0.26-1.61,0.5-2.2,0.7c-0.55,0.18-1.03,0.34-1.21,0.42l1,2.27c0,0,0.07-0.03,0.27-0.09c0.18-0.06,0.42-0.14,0.71-0.23    c0.58-0.19,1.34-0.43,2.17-0.69c1.67-0.52,3.61-1.11,4.96-1.49L281.46,52.29z M273.03,54.9c-0.61,0.27-0.84,0.84-0.92,1.1    c-0.1,0.32-0.15,0.66-0.16,0.96c-0.02,0.59,0.05,1.31,0.27,1.86l2.31-0.9c-0.02-0.06-0.06-0.18-0.08-0.35    c-0.02-0.17-0.03-0.35-0.02-0.51c0.01-0.17,0.03-0.27,0.04-0.29c0-0.01-0.01,0.03-0.06,0.1c-0.05,0.07-0.16,0.21-0.38,0.3    L273.03,54.9z M272.77,57.29c-3.55,1.98-7.08,2.8-10.44,2.31l-0.36,2.46c4.02,0.58,8.1-0.43,12-2.6L272.77,57.29z M262.33,59.61    c-0.68-0.1-1.43-0.22-2.24-0.35l-0.4,2.45c0.81,0.13,1.57,0.26,2.28,0.36L262.33,59.61z M260.07,59.25L260.07,59.25l-0.36,2.46    l0,0L260.07,59.25z M260.09,59.25c-3.48-0.57-8.07-1.32-13.75-1.23l0.04,2.48c5.44-0.08,9.85,0.63,13.32,1.2L260.09,59.25z     M246.34,58.02c-2.92,0.05-6.57,0.89-9.87,1.88c-3.33,1-6.41,2.18-8.25,2.97l0.98,2.28c1.76-0.76,4.76-1.91,7.98-2.88    c3.25-0.98,6.63-1.74,9.2-1.77L246.34,58.02z M228.21,62.88c-5.12,2.2-12.02,5.17-19.45,8.37l0.98,2.28    c7.43-3.2,14.32-6.16,19.45-8.37L228.21,62.88z M208.02,72.48c0.07,0.96,0.13,2.53,0.13,5.01h2.48c0-2.5-0.05-4.15-0.13-5.2    L208.02,72.48z M208.15,77.49c0,2.15-0.74,3.56-1.84,4.54c-1.14,1.02-2.75,1.65-4.59,1.99c-3.7,0.68-7.86,0.09-9.4-0.29l-0.6,2.41    c1.77,0.44,6.3,1.09,10.45,0.33c2.09-0.38,4.2-1.15,5.8-2.58c1.65-1.48,2.66-3.58,2.66-6.39H208.15z M192.32,83.73    c-2.4-0.6-5.29-1.66-6.6-2.16l-0.89,2.32c1.33,0.51,4.33,1.61,6.89,2.25L192.32,83.73z M184.78,81.59l-0.6,0.26l0.98,2.28    l0.6-0.26L184.78,81.59z M183.43,82.91c-0.07,1.06-0.1,2.28-0.1,3.68h2.48c0-1.36,0.04-2.53,0.1-3.53L183.43,82.91z M183.33,86.59    c0,1.87-0.76,3.23-1.98,4.26c-1.26,1.06-3.04,1.79-5.02,2.22c-1.97,0.43-4.04,0.55-5.8,0.47c-1.81-0.08-3.1-0.37-3.6-0.61    l-1.11,2.22c0.99,0.5,2.72,0.79,4.6,0.87c1.94,0.09,4.23-0.04,6.44-0.52c2.2-0.48,4.41-1.33,6.09-2.74    c1.73-1.45,2.87-3.49,2.87-6.16H183.33z M166.93,92.93l-1.65-0.83l-1.11,2.22l1.65,0.83L166.93,92.93z M165.27,92.1l-1.65-0.83    l-1.11,2.22l1.65,0.83L165.27,92.1z M162.55,91.25c-5.46,2.46-8.79,4.39-10.92,5.92c-2.16,1.55-3.06,2.68-3.67,3.45l1.94,1.55    c0.52-0.66,1.27-1.6,3.18-2.98c1.95-1.4,5.11-3.26,10.49-5.68L162.55,91.25z M147.96,100.62L147.96,100.62l1.93,1.56v0    L147.96,100.62z M147.96,100.62c-0.17,0.21-0.27,0.34-0.38,0.46l1.83,1.68c0.17-0.19,0.34-0.4,0.49-0.59L147.96,100.62z     M147.58,101.08c-0.12,0.13-0.29,0.28-0.6,0.53l1.57,1.92c0.27-0.22,0.6-0.49,0.86-0.77L147.58,101.08z M146.98,101.61    c-0.75,0.62-1.94,1.57-2.7,3.27c-0.77,1.7-1.05,3.99-0.4,7.2l2.43-0.49c-0.58-2.85-0.27-4.58,0.23-5.69    c0.51-1.12,1.27-1.76,2.01-2.37L146.98,101.61z M143.87,112.08c1.16,5.78,5.97,18.29,8.37,24.19l2.3-0.93    c-2.42-5.96-7.13-18.25-8.24-23.75L143.87,112.08z M153.88,136.94L153.88,136.94l-0.99-2.28l-0.01,0L153.88,136.94z     M154.58,135.43c-0.02-0.05-0.05-0.1-0.07-0.15l-2.24,1.06c0.02,0.05,0.05,0.1,0.07,0.15L154.58,135.43z M152.31,136.43    c0.04,0.1,0.08,0.21,0.12,0.3l2.3-0.94c-0.04-0.1-0.08-0.2-0.12-0.3L152.31,136.43z M154.08,137.4l0.02-0.01l-1-2.27l-0.02,0.01    L154.08,137.4z M166.67,157.83c-3.31-4.53-9.19-16.29-11.95-22.11l-2.24,1.07c2.73,5.75,8.72,17.75,12.19,22.51L166.67,157.83z     M174.13,161.62c-0.95,0.14-1.94,0.27-3.11-0.11c-1.16-0.38-2.64-1.32-4.36-3.67l-2,1.46c1.93,2.65,3.81,3.99,5.59,4.57    c1.76,0.58,3.27,0.35,4.23,0.21L174.13,161.62z M175.28,161.51c-0.38,0-0.8,0.06-1.14,0.11l0.35,2.46c0.4-0.06,0.63-0.09,0.8-0.09    L175.28,161.51z M176.04,161.54c-0.24-0.02-0.51-0.04-0.77-0.04l0,2.48c0.15,0,0.33,0.01,0.59,0.03L176.04,161.54z M192.66,156.87    c-5.81,2.56-9.56,3.75-12.05,4.29c-2.45,0.53-3.7,0.44-4.56,0.38l-0.17,2.48c1.01,0.07,2.51,0.17,5.26-0.43    c2.71-0.59,6.62-1.85,12.52-4.44L192.66,156.87z M256.89,128.05c-16.99,7.66-53.61,24.14-64.23,28.82l1,2.27    c10.63-4.68,47.27-21.17,64.25-28.83L256.89,128.05z M271.92,118.52c-1.76,1.87-4.6,3.85-7.52,5.59c-2.9,1.73-5.77,3.16-7.51,3.95    l1.02,2.26c1.82-0.82,4.78-2.3,7.77-4.08c2.96-1.77,6.05-3.89,8.05-6.01L271.92,118.52z M280.03,107.89    c-1.92,2.94-4.37,6.67-8.11,10.63l1.8,1.7c3.9-4.13,6.45-8.03,8.38-10.97L280.03,107.89z M281.31,105.96    c-0.41,0.59-0.83,1.24-1.28,1.93l2.07,1.36c0.45-0.69,0.86-1.32,1.25-1.89L281.31,105.96z M291.33,98.86    c-4.23,1.41-7.74,3.74-10.02,7.09l2.05,1.4c1.91-2.8,4.9-4.85,8.76-6.14L291.33,98.86z M293.05,100.37    c0.21-0.09,0.39-0.09,0.48-0.07c0.08,0.01,0.12,0.03,0.11,0.03c-0.02-0.01-0.11-0.06-0.24-0.17c-0.12-0.1-0.25-0.23-0.36-0.36    c-0.11-0.14-0.18-0.24-0.21-0.3l-2.23,1.1c0.26,0.54,0.74,1.08,1.19,1.46c0.23,0.19,0.51,0.39,0.82,0.53    c0.24,0.11,0.82,0.33,1.43,0.06L293.05,100.37z M300.37,96.08c-1.19,0.74-2.93,1.77-4.44,2.65c-0.75,0.44-1.44,0.84-1.97,1.14    c-0.26,0.15-0.48,0.27-0.65,0.36c-0.19,0.1-0.26,0.14-0.25,0.13l1,2.27c0.18-0.08,0.62-0.33,1.12-0.61c0.54-0.31,1.24-0.71,2-1.15    c1.52-0.88,3.29-1.93,4.5-2.69L300.37,96.08z M302.31,96.82c-0.06-0.02-0.09-0.04-0.13-0.05c-0.03-0.01-0.05-0.02-0.05-0.02    c0,0,0.04,0.02,0.08,0.06c0.04,0.04,0.06,0.07,0.05,0.05c-0.02-0.03-0.05-0.09-0.11-0.22l-2.27,1c0.14,0.32,0.32,0.68,0.63,0.98    c0.31,0.3,0.68,0.43,0.84,0.5L302.31,96.82z M302.74,97.01c-0.18-0.08-0.32-0.14-0.43-0.19l-0.96,2.29    c0.11,0.04,0.21,0.09,0.34,0.15L302.74,97.01z"></path>
		<path class="st3" d="M231.94,62.32c4.79,14.36,17.24,47.54,28.77,65.34"></path>
		<path class="st3" d="M158.64,94.59c1.79,5.61,6.86,20.21,12.78,33.66c5.92,13.45,12.98,27.25,15.76,32.46"></path>
		<g>
			<path class="st2" d="M226.61,85.48l-0.26-0.33l-1.26,0.95l0.26,0.33c0.29,0.38,0.55,0.63,0.78,0.72     c0.23,0.09,0.45,0.05,0.68-0.11c0.21-0.17,0.31-0.37,0.28-0.62S226.91,85.88,226.61,85.48z"></path>
			<path class="st2" d="M232.33,91.74c0.23,0.1,0.49,0.07,0.74-0.07c0.25-0.16,0.39-0.36,0.43-0.62c0.03-0.25-0.05-0.55-0.24-0.88     l-0.19-0.31l-1.58,0.94l0.19,0.31C231.87,91.44,232.08,91.65,232.33,91.74z"></path>
			<path class="st2" d="M244.99,120.74c0.07-0.03,0.08-0.1,0.04-0.21c-0.02-0.04-0.03-0.08-0.05-0.09l-0.2,0.09l0.03,0.08     C244.85,120.71,244.91,120.78,244.99,120.74z"></path>
			<polygon class="st2" points="235,100.39 236.89,98.57 234.28,98.8    "></polygon>
			<path class="st2" d="M244.2,120.93c0.14,0.32,0.5,0.45,0.82,0.31c0.32-0.14,0.48-0.5,0.34-0.81c-0.13-0.34-0.5-0.46-0.82-0.32     C244.21,120.24,244.05,120.6,244.2,120.93z M245.01,120.22c0.04,0.06,0.1,0.15,0.15,0.27c0.06,0.13,0.06,0.21,0.06,0.28     c-0.01,0.05-0.06,0.11-0.13,0.14c-0.08,0.03-0.18,0-0.24-0.07l-0.01,0.01c0,0.08-0.03,0.14-0.11,0.21     c-0.09,0.07-0.14,0.11-0.16,0.14l-0.08-0.19c0.01-0.04,0.08-0.08,0.15-0.13c0.07-0.05,0.1-0.11,0.06-0.2l-0.04-0.08l-0.29,0.13     l-0.08-0.17L245.01,120.22z"></path>
			<path class="st2" d="M228.85,84.86c0.38-0.28,0.39-0.66,0.03-1.15l-0.22-0.28l-1.14,0.85l0.22,0.28     C228.1,85.05,228.47,85.14,228.85,84.86z"></path>
			<path class="st2" d="M247.14,122c-0.79-8.12-2.87-16.26-6.34-24.14c-3.48-7.9-8.1-14.95-13.57-21.02l-8.01,7.35     c4.7,5.22,8.66,11.27,11.64,18.05c2.98,6.76,4.76,13.74,5.45,20.71L247.14,122z M245.51,120.34c0.19,0.42,0.01,0.88-0.4,1.06     c-0.41,0.18-0.87,0-1.06-0.42c-0.18-0.41-0.01-0.88,0.4-1.06C244.85,119.74,245.33,119.93,245.51,120.34z M244.12,113.67     c0.28,0.45,0.47,0.96,0.57,1.55c0.14,0.76,0.1,1.46-0.12,2.1c-0.23,0.64-0.65,1.19-1.29,1.64l-1.08-1.66     c0.37-0.24,0.62-0.51,0.75-0.82c0.12-0.29,0.15-0.62,0.1-0.96c-0.04-0.28-0.16-0.53-0.3-0.76c-0.14-0.22-0.34-0.39-0.56-0.51     c-0.23-0.12-0.49-0.21-0.78-0.26c-0.29-0.05-0.62-0.03-0.96,0.02c-0.31,0.06-0.58,0.15-0.84,0.28c-0.25,0.12-0.46,0.3-0.62,0.5     c-0.17,0.2-0.27,0.42-0.35,0.69c-0.06,0.26-0.06,0.55,0,0.86c0.03,0.19,0.08,0.36,0.16,0.53c0.08,0.17,0.17,0.31,0.28,0.43     c0.12,0.12,0.27,0.21,0.42,0.27c0.17,0.07,0.36,0.1,0.57,0.08l-0.29-1.57l1.5-0.2l0.69,3.77c-0.38,0.07-0.74,0.12-1.06,0.15     c-0.32,0.03-0.63,0.01-0.92-0.04c-0.41-0.06-0.78-0.18-1.11-0.37c-0.33-0.19-0.64-0.4-0.89-0.69c-0.25-0.28-0.47-0.6-0.64-0.95     c-0.17-0.35-0.3-0.74-0.37-1.15c-0.11-0.57-0.11-1.11-0.01-1.61c0.1-0.5,0.29-0.95,0.57-1.36c0.28-0.4,0.64-0.74,1.08-1.01     c0.44-0.27,0.95-0.47,1.52-0.58c0.57-0.11,1.11-0.11,1.61-0.01c0.5,0.1,0.97,0.29,1.35,0.56     C243.5,112.88,243.85,113.23,244.12,113.67z M226.16,89.1c-0.27-0.07-0.55-0.2-0.81-0.4c-0.26-0.19-0.52-0.45-0.75-0.76     l-1.86-2.49l4.73-3.54l-0.45-0.58l1.57-0.46l1.82,2.43c0.41,0.55,0.59,1.05,0.53,1.54c-0.04,0.48-0.33,0.91-0.82,1.28     c-0.3,0.23-0.59,0.35-0.87,0.4c-0.29,0.03-0.57,0-0.88-0.12c0.12,0.25,0.2,0.48,0.23,0.71s0.02,0.42-0.03,0.62     c-0.06,0.2-0.16,0.37-0.27,0.53c-0.12,0.15-0.27,0.31-0.46,0.44c-0.27,0.21-0.56,0.34-0.85,0.42     C226.73,89.17,226.44,89.17,226.16,89.1z M228.89,94.49l1.51-3.04l-2.46,1.46l-0.98-1.66l5.07-3.02l-0.39-0.64l1.61-0.3     l1.63,2.72c0.22,0.36,0.36,0.7,0.41,1.03c0.05,0.34,0.04,0.63-0.04,0.92c-0.08,0.28-0.21,0.54-0.39,0.76     c-0.19,0.22-0.4,0.42-0.68,0.58c-0.49,0.29-0.95,0.42-1.39,0.36c-0.44-0.06-0.86-0.29-1.23-0.68l-1.42,3.57L228.89,94.49z      M232.87,102.4l0.99-0.94l-1.15-2.5l-1.35,0.14l-0.86-1.87l6.32-0.41l-0.29-0.66l1.63-0.1l1.16,2.56l-5.6,5.67L232.87,102.4z      M235.36,109.39c-0.21-0.33-0.39-0.7-0.52-1.1c-0.18-0.55-0.24-1.08-0.21-1.59c0.04-0.51,0.17-0.98,0.39-1.41     c0.22-0.43,0.53-0.81,0.94-1.14c0.41-0.34,0.89-0.58,1.44-0.76s1.08-0.24,1.6-0.21c0.52,0.03,0.99,0.17,1.42,0.39     c0.43,0.22,0.81,0.55,1.14,0.94c0.34,0.41,0.59,0.9,0.77,1.47c0.23,0.74,0.29,1.44,0.14,2.09c-0.14,0.66-0.49,1.26-1.06,1.8     l-1.28-1.51c0.33-0.29,0.55-0.59,0.64-0.9c0.09-0.31,0.08-0.64-0.03-0.97c-0.09-0.28-0.22-0.5-0.39-0.7     c-0.18-0.19-0.39-0.34-0.62-0.44c-0.25-0.1-0.51-0.15-0.81-0.15c-0.3-0.01-0.61,0.05-0.95,0.15c-0.3,0.1-0.57,0.22-0.8,0.38     c-0.23,0.16-0.42,0.34-0.56,0.56c-0.14,0.22-0.22,0.46-0.25,0.73c-0.03,0.26,0.01,0.55,0.11,0.86c0.06,0.18,0.14,0.35,0.22,0.5     c0.1,0.15,0.21,0.29,0.34,0.39c0.13,0.1,0.28,0.18,0.46,0.22c0.17,0.03,0.37,0.04,0.59,0.01l-0.48-1.52l1.4-0.46l1.16,3.65     c-0.38,0.12-0.72,0.21-1.03,0.28c-0.32,0.06-0.62,0.1-0.91,0.09c-0.42-0.01-0.8-0.09-1.16-0.22s-0.68-0.32-0.97-0.57     C235.84,110,235.58,109.72,235.36,109.39z"></path>
			<path class="st2" d="M235.64,123.77c-0.24-2.75-0.66-5.49-1.25-8.23l-3.37,0.55c0.97,4.42,1.44,8.89,1.46,13.32l6.11-2.85     l6.23,2.82c0-2.12-0.1-4.25-0.29-6.38L235.64,123.77z M232.05,119.97c0-0.08-0.02-0.15-0.03-0.22c0.03,0.07,0.04,0.14,0.06,0.21     L232.05,119.97z"></path>
			<path class="st2" d="M224.75,78.08c-1.45-1.58-2.96-3.09-4.52-4.52l-2.12,6.48l-6.22,2.6c3.27,3,6.24,6.36,8.85,10.06l2.67-2.11     c-1.62-2.28-3.38-4.44-5.24-6.47L224.75,78.08z"></path>
		</g>
		<path class="st3" d="M291.43,48.75c3.24,10.44,14.38,35.73,19.64,44.6"></path>
		<path class="st3" d="M281.88,53.63c3.48,9.96,14.26,34.44,19.01,43.18"></path>
		<path class="st3" d="M314.24,92.13c-6.25-1.33-23.26-3.86-41.29-3.34c-8.3,0.24-19.85,0.38-31.16-0.26"></path>
		<path class="st1" d="M316.32,94.99c0.89-1.9,3.45-2.29,4.85-0.71c1.43,1.62,3.19,3.76,4.66,5.91c1.42,2.08,2.75,4.41,3.05,6.34    c0.43,2.75-0.47,5.07-1.85,6.73c-1.35,1.62-3.22,2.69-4.92,2.95c-1.69,0.26-3.84-0.18-5.65-1.29c-1.87-1.15-3.49-3.08-3.92-5.85    c-0.32-2.07,0.26-4.71,1.02-7.13C314.34,99.46,315.41,96.94,316.32,94.99z M319.07,96.89c-0.81,1.78-1.71,3.93-2.36,6.02    c-0.75,2.37-1.11,4.39-0.91,5.66c0.26,1.7,1.23,2.86,2.41,3.59c1.23,0.76,2.58,0.97,3.39,0.84c0.8-0.12,1.98-0.72,2.87-1.8    c0.86-1.03,1.4-2.43,1.13-4.16c-0.18-1.14-1.1-2.93-2.52-5.01C321.84,100.21,320.36,98.38,319.07,96.89z"></path>
		<path class="st2" d="M150.51,154.24c0.57-0.38,0.72-1.15,0.34-1.72c-0.38-0.57-1.15-0.72-1.72-0.34L150.51,154.24z M149.14,152.17    c-1.14,0.76-3.08,1.53-5.67,2.63c-2.52,1.07-5.5,2.39-8.49,4.19c-5.99,3.62-12.03,9.21-14.48,18.72l2.4,0.62    c2.24-8.69,7.73-13.82,13.36-17.22c2.83-1.71,5.68-2.97,8.18-4.03c2.43-1.03,4.68-1.92,6.07-2.85L149.14,152.17z"></path>
	</g>
</g>
</svg>
