<?xml version="1.0" encoding="UTF-8"?>
<!-- Generator: Adobe Illustrator 25.2.1, SVG Export Plug-In . SVG Version: 6.00 Build 0)  -->
<svg xmlns="http://www.w3.org/2000/svg" xmlns:xlink="http://www.w3.org/1999/xlink" version="1.1" id="Layer_2_1_" x="0px" y="0px" viewBox="0 0 372.5 300.7" style="enable-background:new 0 0 372.5 300.7;" xml:space="preserve">
<style type="text/css">
	.st0{clip-path:url(#SVGID_2_);}
	.st1{fill-rule:evenodd;clip-rule:evenodd;fill:#231F20;}
	.st2{fill:none;stroke:#EC1D2B;stroke-width:3;stroke-miterlimit:10;}
	.st3{fill:none;}
	.st4{font-family:'Helvetica';}
	.st5{font-size:22px;}
	.st6{clip-path:url(#SVGID_4_);}
	.st7{fill:#231F20;}
	.st8{fill:none;stroke:#231F20;stroke-width:1.5;}
</style>
<g>
	<g>
		<defs>
			<rect id="SVGID_1_" x="409.4" y="2" width="368.1" height="200.6"></rect>
		</defs>
		<clipPath id="SVGID_2_">
			<use xlink:href="#SVGID_1_" style="overflow:visible;"></use>
		</clipPath>
		<g class="st0">
			<path class="st1" d="M552.3,91.2L552.3,91.2l0,2.4H319.9v-2.4h229.9l0-0.6c0.1-4.9,1-9.6,2.7-13.9l0.2-0.6l-44-18.2l0.9-2.3     l44,18.2l0.3-0.5c1.9-3.9,4.4-7.5,7.4-10.6l0.4-0.4l-33.9-33.9l1.7-1.7l33.9,33.9l0.4-0.4c3.1-2.8,6.7-5.1,10.5-6.8l0.5-0.2     L556.3,8.7l2.2-0.9l18.7,44.5l0.5-0.2c3.7-1.3,7.7-2.2,11.9-2.4l0.6,0V2h2.5v47.5l0.6,0c4.7,0.1,9.3,1,13.5,2.5l0.6,0.2     l18.6-44.5l2.3,0.9L609.8,53l0.5,0.2c3.9,1.8,7.5,4.1,10.6,6.9l0.4,0.4l33.9-33.9l1.7,1.7l-33.9,33.9l0.4,0.4     c2.9,3,5.3,6.5,7.2,10.3l0.3,0.5l43.8-18.6l1,2.2l-43.8,18.6l0.2,0.6c1.7,4.4,2.7,9.2,2.8,14.3l0,0.6h230.2v2.4H632.8v-3h-0.2     c-0.3-21.4-18.2-38.7-40.2-38.7c-22,0-39.8,17.2-40.2,38.6L552.3,91.2z"></path>
		</g>
	</g>
</g>
<path class="st2" d="M319.2,298.8H53.7c-28.4,0-51.4-23-51.4-51.4v-194C2.3,25,25.3,2,53.7,2h265.5c28.4,0,51.4,23,51.4,51.4v194  C370.6,275.8,347.6,298.8,319.2,298.8z"></path>
<rect x="75.2" y="244.8" class="st3" width="222" height="15.9"></rect>
<text transform="matrix(1 0 0 1 79.8446 260.6128)" class="st4 st5">Agita, bebe y disfruta. </text>
<line class="st2" x1="2" y1="204" x2="370.6" y2="204"></line>
<g>
	<g>
		<g>
			<defs>
				<rect id="SVGID_3_" x="8.2" y="10" width="356" height="194"></rect>
			</defs>
			<clipPath id="SVGID_4_">
				<use xlink:href="#SVGID_3_" style="overflow:visible;"></use>
			</clipPath>
			<g class="st6">
				<path class="st1" d="M249.9,103.4c0.5-0.4,1.3-0.2,1.7,0.3l30.9,43.9c0.4,0.5,0.2,1.3-0.3,1.7c-0.5,0.4-1.3,0.2-1.7-0.3      l-30.9-43.9C249.3,104.5,249.4,103.8,249.9,103.4z"></path>
				<path class="st1" d="M265.4,101.9c0.5-0.4,1.3-0.2,1.7,0.3l18.6,27.5c0.4,0.6,0.2,1.3-0.3,1.7c-0.5,0.4-1.3,0.2-1.7-0.3      l-18.6-27.5C264.7,103,264.9,102.3,265.4,101.9z"></path>
				<path class="st1" d="M121.2,104.2c-0.5,0.4-1.3,0.2-1.7-0.3L88.6,60c-0.4-0.5-0.2-1.3,0.3-1.7c0.5-0.4,1.3-0.2,1.7,0.3      l30.9,43.9C121.9,103,121.7,103.8,121.2,104.2z"></path>
				<path class="st1" d="M105.7,105.6c-0.6,0.4-1.3,0.2-1.7-0.3L85.4,77.8c-0.4-0.6-0.2-1.3,0.3-1.7c0.6-0.4,1.3-0.2,1.7,0.3      l18.6,27.5C106.4,104.5,106.3,105.2,105.7,105.6z"></path>
				<path class="st7" d="M170.7,34.5l1.2,0.3l0.2-0.6l-0.4-0.5L170.7,34.5z M159.9,19.6l-1.1,0.6l0,0l0,0L159.9,19.6z M135.5,33.5      l-0.7-1l-1,0.7l0.7,1L135.5,33.5z M135.5,33.5l0.7,1l1-0.7l-0.7-1L135.5,33.5z M114,50.6l1-0.7l0,0l0,0L114,50.6z M123.7,66.2      l-1.1,0.5l0.3,0.6l0.6,0.1L123.7,66.2z M126.9,64.9l1.1-0.5l-0.6-1.2l-1.2,0.8L126.9,64.9z M133.5,72.7l0.9-0.8l-0.7-0.8      l-0.9,0.6L133.5,72.7z M138.1,83.7l-1.2,0l0,0L138.1,83.7z M138.2,86.1l-1.2,0l0,0L138.2,86.1z M139.4,100.3l1.2-0.2l0,0      L139.4,100.3z M147.6,117.6l1-0.7l0,0L147.6,117.6z M200.8,192.7l0.6-1.1l0,0L200.8,192.7z M201.4,193.1l-0.6,1l0,0L201.4,193.1      z M202.2,193.7l0.8-0.9l0,0L202.2,193.7z M212.3,194.8l0.4,1.1l0,0L212.3,194.8z M235.4,181.8l1-0.7l-0.6-1l-1,0.6L235.4,181.8z       M235.4,181.8l-1,0.7l0.7,1l1-0.7L235.4,181.8z M235.6,181.6l-0.6-1l0,0l0,0L235.6,181.6z M235.8,181.5l0.6,1l1-0.7l-0.7-1      L235.8,181.5z M235.8,181.5l-0.7-1l-0.9,0.7l0.6,1L235.8,181.5z M256.5,164.9l0.9,0.8l0,0L256.5,164.9z M259.4,155.3l-1.1,0.4      l0,0L259.4,155.3z M259.1,154.3l1.2-0.2l0,0L259.1,154.3z M259,153.6l1.2-0.1l0,0L259,153.6z M209.3,76l-1,0.7l0,0L209.3,76z       M196.4,61.9l0.7-1l0,0L196.4,61.9z M183.8,55.5l0.5-1.1l0,0L183.8,55.5z M181.6,54.5l-0.5,1.1l0,0L181.6,54.5z M173,46.1      l-0.7-1l-0.8,0.6l0.5,0.9L173,46.1z M168.3,37l-0.7-1l-1.1,0.8l0.9,1L168.3,37z M164.5,28.5c1.7,2.5,4.2,5.6,5.3,6.8l1.8-1.6      c-1.1-1.2-3.6-4.2-5.1-6.6L164.5,28.5z M158.9,20.3l5.5,8.2l2-1.3l-5.5-8.2L158.9,20.3z M157.9,19.8c0.2-0.1,0.3-0.1,0.3-0.1      s0.1,0,0.2,0c0.1,0,0.2,0.1,0.3,0.2c0.1,0.1,0.2,0.2,0.2,0.3l2.1-1.1c-0.2-0.5-0.8-1.1-1.5-1.5c-0.8-0.4-1.9-0.5-2.9,0.2      L157.9,19.8z M136.2,34.5l21.8-14.6l-1.3-2l-21.8,14.6L136.2,34.5z M136.5,32.8L136.5,32.8l-2,1.3l0,0L136.5,32.8z M134.9,32.5      l-21.3,14.4l1.3,2l21.3-14.4L134.9,32.5z M113.5,46.8c-1,0.7-1.4,1.7-1.3,2.6c0.1,0.8,0.5,1.5,0.8,1.9l1.9-1.5      c-0.1-0.1-0.1-0.2-0.2-0.3c-0.1-0.1-0.1-0.2-0.1-0.3c0-0.1,0-0.1,0-0.2c0,0,0.1-0.1,0.2-0.2L113.5,46.8z M113,51.3l5.5,8.2      l2-1.3l-5.5-8.2L113,51.3z M118.5,59.5c1.6,2.3,3.4,5.8,4.1,7.2l2.2-1.1c-0.7-1.5-2.6-5-4.3-7.5L118.5,59.5z M123.6,67.4      c0.4,0.1,0.9,0,1.2-0.1c0.4-0.1,0.7-0.2,1.1-0.4c0.7-0.3,1.3-0.7,1.7-1l-1.3-2c-0.3,0.2-0.8,0.5-1.4,0.8      c-0.3,0.1-0.5,0.2-0.7,0.3c-0.2,0.1-0.3,0.1-0.3,0.1L123.6,67.4z M125.9,65.4c0.7,1.3,1.6,3.3,2.5,4.9c0.4,0.8,0.8,1.6,1.1,2.1      c0.3,0.5,0.5,1,0.6,1.2l2-1.3c0,0,0-0.1-0.1-0.3c-0.1-0.2-0.2-0.4-0.4-0.7c-0.3-0.6-0.7-1.3-1.1-2.1c-0.8-1.6-1.8-3.5-2.4-4.8      L125.9,65.4z M130.1,73.6c0.4,0.6,1,0.7,1.2,0.7c0.3,0.1,0.7,0,1,0c0.6-0.1,1.3-0.3,1.8-0.6l-1.3-2.1c-0.1,0-0.2,0.1-0.4,0.2      c-0.2,0.1-0.4,0.1-0.5,0.1c-0.2,0-0.3,0-0.3,0c0,0,0,0,0.1,0c0.1,0,0.2,0.1,0.3,0.3L130.1,73.6z M132.6,73.4      c2.7,3.3,4.2,6.8,4.3,10.4l2.4-0.1c-0.1-4.2-1.9-8.2-4.9-11.8L132.6,73.4z M136.9,83.8c0,0.7,0,1.5,0.1,2.4l2.4,0      c0-0.9,0-1.7-0.1-2.4L136.9,83.8z M137,86.2c0.1,3.7,0.1,8.5,1.3,14.4l2.4-0.5c-1.1-5.6-1.2-10.3-1.2-13.9L137,86.2z       M138.3,100.5c0.6,3,2.1,6.6,3.8,9.8c1.6,3.2,3.4,6.2,4.6,7.9l2-1.3c-1.1-1.7-2.9-4.6-4.4-7.7c-1.6-3.2-3-6.5-3.5-9.2      L138.3,100.5z M146.6,118.2c10.7,16.3,33.9,51.3,40.7,61.4l2-1.3c-6.8-10.1-29.9-45.1-40.7-61.3L146.6,118.2z M187.3,179.6      c3.8,5.6,6.5,8.9,8.6,10.9c2.1,2.1,3.5,2.8,4.4,3.3l1.1-2.1c-0.8-0.4-2-1.1-3.8-2.9c-1.9-1.9-4.6-5-8.3-10.5L187.3,179.6z       M200.2,193.8c0.2,0.1,0.4,0.2,0.6,0.3l1.3-2c-0.2-0.1-0.5-0.3-0.7-0.4L200.2,193.8z M200.8,194.1c0.2,0.1,0.4,0.3,0.7,0.5      l1.6-1.8c-0.3-0.2-0.6-0.5-0.9-0.7L200.8,194.1z M201.5,194.6c0.8,0.7,2,1.7,3.8,2.2c1.9,0.5,4.2,0.3,7.4-0.9l-0.9-2.2      c-2.8,1.1-4.7,1.1-6,0.8c-1.3-0.3-2.1-1-2.9-1.6L201.5,194.6z M212.7,195.9c5.7-2.3,17.7-9.5,23.3-13.1l-1.3-2      c-5.7,3.6-17.5,10.7-22.9,12.9L212.7,195.9z M236.4,181.1L236.4,181.1l-2,1.3l0,0L236.4,181.1z M234.9,180.7      c-0.1,0.1-0.1,0.1-0.2,0.1l1.4,2c0.1-0.1,0.1-0.1,0.2-0.1L234.9,180.7z M236.2,182.7c0.1-0.1,0.1-0.1,0.2-0.1l-1.3-2      c-0.1,0.1-0.1,0.1-0.2,0.1L236.2,182.7z M236.8,180.8L236.8,180.8l-2,1.3l0,0L236.8,180.8z M255.7,164.1      c-4.1,4.2-15.1,12.5-20.6,16.4l1.4,1.9c5.4-3.9,16.6-12.2,20.9-16.7L255.7,164.1z M258.2,155.6c0.3,0.9,0.6,2,0.5,3.3      c-0.2,1.3-0.9,3-3,5.2l1.7,1.7c2.4-2.5,3.4-4.6,3.6-6.5c0.3-1.9-0.2-3.4-0.6-4.4L258.2,155.6z M257.9,154.5      c0.1,0.4,0.2,0.8,0.3,1.1l2.3-0.8c-0.1-0.4-0.2-0.6-0.2-0.8L257.9,154.5z M257.8,153.7c0,0.2,0.1,0.5,0.1,0.8l2.4-0.4      c0-0.2,0-0.4-0.1-0.6L257.8,153.7z M249.9,137.4c3.7,5.5,5.6,9.1,6.7,11.6c1,2.4,1.1,3.8,1.2,4.6l2.4-0.3      c-0.1-1.1-0.3-2.6-1.4-5.3c-1.1-2.7-3.1-6.5-6.9-12L249.9,137.4z M208.4,76.7c11,16.1,34.8,50.7,41.5,60.8l2-1.3      c-6.8-10.1-30.5-44.7-41.6-60.8L208.4,76.7z M195.7,63c2.3,1.5,4.8,4,7.2,6.7c2.3,2.7,4.3,5.3,5.5,7l2-1.4      c-1.2-1.7-3.2-4.5-5.6-7.2c-2.4-2.7-5.1-5.5-7.7-7.2L195.7,63z M183.3,56.6c3.4,1.4,7.7,3.3,12.4,6.4l1.3-2      c-5-3.2-9.4-5.2-12.8-6.6L183.3,56.6z M181.1,55.6c0.7,0.3,1.4,0.6,2.2,1l0.9-2.2c-0.8-0.3-1.5-0.6-2.2-0.9L181.1,55.6z       M172,46.6c2.2,4.1,5.2,7.2,9.1,9l1-2.2c-3.3-1.5-5.9-4.2-8-7.9L172,46.6z M173.2,44.6c-0.1-0.2-0.1-0.3-0.1-0.4      c0-0.1,0-0.1,0-0.1c0,0-0.1,0.2-0.1,0.3c-0.1,0.2-0.2,0.3-0.3,0.5c-0.1,0.1-0.2,0.2-0.3,0.3l1.4,1.9c0.5-0.4,0.9-0.9,1.2-1.5      c0.1-0.3,0.3-0.6,0.4-0.9c0.1-0.3,0.2-0.9-0.2-1.4L173.2,44.6z M167.4,37.8c1,1.1,2.4,2.7,3.6,4.1c0.6,0.7,1.1,1.3,1.5,1.8      c0.2,0.2,0.4,0.5,0.5,0.6c0.1,0.2,0.2,0.2,0.2,0.2l2-1.3c-0.1-0.2-0.4-0.6-0.8-1c-0.4-0.5-1-1.1-1.6-1.8c-1.2-1.4-2.6-3-3.6-4.1      L167.4,37.8z M169.6,34.2c0,0,0,0.1-0.2,0.3c-0.1,0.2-0.3,0.4-0.5,0.6c-0.4,0.4-0.9,0.8-1.2,1l1.3,2c0.4-0.3,1-0.7,1.6-1.2      c0.3-0.3,0.6-0.5,0.8-0.8c0.2-0.3,0.5-0.7,0.6-1.1L169.6,34.2z"></path>
				<path class="st8" d="M145.2,114.6C159.1,107,191,88,207.2,72.9"></path>
				<path class="st8" d="M192,184c5.4-2.9,19.5-10.8,32.3-19.4s25.6-18.4,30.5-22.2"></path>
				<path class="st1" d="M126.9,64.9L126.9,64.9c10.6-6.6,33.6-21.2,41.4-27.8l0,0c0.7-0.5,2.2-1.7,2.4-2.5      c-1.1-1.2-3.6-4.3-5.2-6.7l-5.5-8.2c-0.4-0.6-1.4-1.7-2.7-0.8l-21.8,14.7l0,0l-21.3,14.4c-1.3,0.9-0.7,2.2-0.2,2.8l5.5,8.2      c1.6,2.4,3.5,5.9,4.2,7.4C124.6,66.3,126.2,65.4,126.9,64.9z M129,40.2l9.8,14.5l-1.3,0.9l-9.8-14.5L129,40.2z M144.7,50.8      l-9.8-14.5l-1.3,0.9l9.8,14.5L144.7,50.8z M152.8,45.3L143,30.8l-1.3,0.9l9.8,14.5L152.8,45.3z M142,52.6L132.2,38l-1.3,0.9      l9.8,14.5L142,52.6z M158.2,41.7l-9.8-14.5l-1.3,0.9l9.8,14.5L158.2,41.7z M159.2,19.9l9.8,14.5l-1.3,0.9l-9.8-14.5L159.2,19.9z       M125.9,63.4l-9.8-14.5l-1.3,0.9l9.8,14.5L125.9,63.4z M147.4,48.9l-9.8-14.5l-1.3,0.9l9.8,14.5L147.4,48.9z M126.3,42l9.8,14.5      l-1.3,0.9L125,42.9L126.3,42z M120.9,45.6l9.8,14.5l-1.3,0.9l-9.8-14.5L120.9,45.6z M153.8,23.5l9.8,14.5l-1.3,0.9l-9.8-14.5      L153.8,23.5z M150.1,47.1l-9.8-14.5l-1.3,0.9l9.8,14.5L150.1,47.1z M145.7,29l9.8,14.5l-1.3,0.9l-9.8-14.5L145.7,29z       M160.9,39.9l-9.8-14.5l-1.3,0.9l9.8,14.5L160.9,39.9z M156.5,21.7l9.8,14.5l-1.3,0.9l-9.8-14.5L156.5,21.7z M133.4,58.4      l-9.8-14.5l-1.3,0.9l9.8,14.5L133.4,58.4z M118.2,47.5L128,62l-1.3,0.9l-9.8-14.5L118.2,47.5z"></path>
				<g>
					<path class="st7" d="M202.6,90c-0.3,0.2-0.4,0.6-0.2,0.9c0.2,0.3,0.6,0.4,0.9,0.2c0.3-0.2,0.4-0.6,0.2-0.9       C203.3,89.9,202.9,89.8,202.6,90z M203.3,90.8c0,0-0.1-0.1-0.2-0.1s-0.1-0.1-0.2,0l-0.1,0.1L203,91l-0.2,0.1l-0.5-0.7       c0.1-0.1,0.1-0.1,0.2-0.2c0.1-0.1,0.2-0.1,0.3-0.1c0.1,0,0.1,0.1,0.2,0.1c0.1,0.1,0,0.2,0,0.3l0,0c0.1,0,0.1,0,0.2,0.1       c0.1,0.1,0.1,0.1,0.2,0.1L203.3,90.8z"></path>
					<path class="st7" d="M202.7,90.3C202.7,90.4,202.7,90.4,202.7,90.3l0.1,0.3l0.1-0.1c0.1-0.1,0.1-0.1,0.1-0.2       C202.9,90.3,202.8,90.3,202.7,90.3z"></path>
					<path class="st7" d="M171,115.1c-0.2,0.1-0.5,0.3-0.9,0.7l-0.3,0.3l1.2,1.1l0.3-0.3c0.3-0.4,0.6-0.7,0.6-0.9s0-0.5-0.2-0.7       C171.4,115.1,171.2,115,171,115.1z"></path>
					<path class="st7" d="M174.5,107.6c-0.3,0-0.6,0.2-0.9,0.4l-0.3,0.2l1.3,1.5l0.3-0.2c0.3-0.3,0.5-0.5,0.5-0.8       c0.1-0.3,0-0.5-0.2-0.8C175,107.7,174.8,107.6,174.5,107.6z"></path>
					<path class="st7" d="M167.8,113.8l-0.2,0.3l1.1,1l0.2-0.3c0.4-0.5,0.5-0.9,0.1-1.2C168.7,113.2,168.3,113.3,167.8,113.8z"></path>
					<path class="st7" d="M203.9,87.9c-8.2,2.3-16.2,6-23.7,11c-7.5,5-13.9,11.1-19.1,17.9l9.1,6.9c4.5-5.8,10-11,16.4-15.3       c6.4-4.3,13.2-7.4,20.3-9.4L203.9,87.9z M173.6,116.5c-0.1,0.3-0.4,0.6-0.6,0.9l-2.2,2.4l-4.5-4.2l-0.5,0.6l-0.8-1.5l2.2-2.3       c0.5-0.5,1-0.8,1.5-0.8c0.5,0,1,0.2,1.5,0.6c0.3,0.3,0.5,0.5,0.6,0.8c0.1,0.3,0.1,0.6,0,0.9c0.2-0.2,0.5-0.3,0.7-0.4       s0.4-0.1,0.6-0.1c0.2,0,0.4,0.1,0.6,0.2c0.2,0.1,0.4,0.2,0.5,0.4c0.3,0.2,0.5,0.5,0.6,0.8c0.1,0.3,0.2,0.6,0.2,0.9       C173.9,115.8,173.8,116.2,173.6,116.5z M178.9,111.7l-3.4-1l2,2.3l-1.5,1.3l-4.1-4.7l-0.6,0.5l-0.6-1.6l2.5-2.2       c0.3-0.3,0.6-0.5,1-0.6c0.3-0.1,0.6-0.2,0.9-0.1c0.3,0,0.6,0.1,0.9,0.3c0.3,0.2,0.5,0.3,0.7,0.6c0.4,0.4,0.6,0.9,0.6,1.4       s-0.1,0.9-0.5,1.4l3.9,0.8L178.9,111.7z M186.3,106.2l-1.2-0.8l-2.4,1.7l0.4,1.4l-1.8,1.2l-1.6-6.4l-0.6,0.4l-0.4-1.7l2.4-1.7       l6.9,4.7L186.3,106.2z M194.2,100.3c-0.1,0.4-0.2,0.8-0.4,1.1c-0.2,0.3-0.4,0.7-0.7,0.9c-0.3,0.3-0.6,0.5-1,0.7       c-0.5,0.3-1.1,0.4-1.6,0.5c-0.5,0.1-1,0-1.5-0.1c-0.5-0.2-0.9-0.4-1.4-0.8c-0.4-0.4-0.8-0.8-1.1-1.3c-0.3-0.5-0.4-1.1-0.5-1.6       s0-1.1,0.1-1.5c0.1-0.5,0.4-0.9,0.8-1.3c0.4-0.4,0.8-0.8,1.4-1.1c0.7-0.4,1.4-0.6,2.1-0.5c0.7,0,1.4,0.3,2.1,0.8l-1.3,1.6       c-0.4-0.3-0.7-0.5-1-0.5c-0.3,0-0.7,0-1,0.2c-0.3,0.1-0.5,0.3-0.6,0.5c-0.2,0.2-0.3,0.5-0.3,0.7c-0.1,0.3-0.1,0.6,0,0.9       c0.1,0.3,0.2,0.6,0.3,0.9c0.2,0.3,0.3,0.6,0.5,0.8c0.2,0.2,0.4,0.4,0.7,0.5s0.5,0.1,0.8,0.1c0.3,0,0.6-0.1,0.9-0.3       c0.2-0.1,0.3-0.2,0.5-0.3c0.1-0.1,0.3-0.3,0.3-0.4c0.1-0.2,0.1-0.3,0.1-0.5c0-0.2,0-0.4-0.1-0.6l-1.5,0.8l-0.7-1.3l3.5-1.9       c0.2,0.4,0.3,0.7,0.5,1c0.1,0.3,0.2,0.6,0.3,0.9C194.3,99.5,194.3,99.9,194.2,100.3z M202.7,96.9c-0.1,0.4-0.3,0.7-0.5,1       c-0.2,0.3-0.5,0.6-0.9,0.8s-0.7,0.4-1.1,0.6c-0.6,0.2-1.1,0.3-1.7,0.3c-0.5,0-1-0.1-1.5-0.3c-0.5-0.2-0.9-0.5-1.2-0.9       s-0.7-0.9-0.9-1.5s-0.3-1.1-0.3-1.7c0-0.5,0.1-1.1,0.3-1.5c0.2-0.5,0.5-0.9,0.9-1.2c0.4-0.4,0.9-0.7,1.5-0.9       c0.8-0.3,1.5-0.4,2.2-0.3c0.7,0.1,1.3,0.4,1.9,1l-1.5,1.4c-0.3-0.3-0.6-0.5-1-0.6c-0.3-0.1-0.7,0-1,0.1       c-0.3,0.1-0.5,0.3-0.7,0.4c-0.2,0.2-0.3,0.4-0.4,0.7c-0.1,0.3-0.1,0.5-0.1,0.8c0,0.3,0.1,0.6,0.2,1c0.1,0.3,0.3,0.6,0.4,0.8       c0.2,0.2,0.4,0.4,0.6,0.6c0.2,0.1,0.5,0.2,0.8,0.2c0.3,0,0.6,0,0.9-0.2c0.2-0.1,0.4-0.2,0.5-0.3s0.3-0.2,0.4-0.4       s0.2-0.3,0.2-0.5c0-0.2,0-0.4,0-0.6l-1.6,0.6l-0.5-1.5l3.8-1.4c0.1,0.4,0.3,0.7,0.4,1.1c0.1,0.3,0.1,0.7,0.1,0.9       C202.9,96.1,202.8,96.5,202.7,96.9z M203.4,91.2c-0.4,0.3-0.9,0.2-1.2-0.2c-0.2-0.4-0.1-0.9,0.2-1.2c0.4-0.3,0.9-0.2,1.2,0.2       C203.9,90.5,203.8,91,203.4,91.2z"></path>
					<polygon class="st7" points="183.9,104.4 181.6,102.8 182.4,105.4      "></polygon>
					<path class="st7" d="M210.1,95.8l1.8-6.9c-2.2,0.4-4.4,0.9-6.5,1.5l2.4,9c-2.8,0.8-5.5,1.7-8.2,2.8l1.2,3.4       c4.4-1.8,8.9-3.1,13.4-4L210.1,95.8z M204.3,103.9c0.1,0,0.1-0.1,0.2-0.1l0,0C204.5,103.8,204.4,103.8,204.3,103.9z"></path>
					<path class="st7" d="M170.2,124.7l-7.4-5.7c-1.4,1.8-2.6,3.6-3.8,5.5l7.1,1l3.8,5.9c2.5-3.9,5.4-7.6,8.7-11l-2.7-2.4       C173.9,120.2,172,122.4,170.2,124.7z"></path>
				</g>
			</g>
		</g>
	</g>
</g>
</svg>
