<?xml version="1.0" encoding="UTF-8"?>
<svg xmlns="http://www.w3.org/2000/svg" xmlns:xlink="http://www.w3.org/1999/xlink" id="Layer_2" viewBox="0 0 372.45 300.74">
  <defs>
    <style>.cls-1{stroke:#ec1d2b;stroke-miterlimit:10;stroke-width:3px;}.cls-1,.cls-2{fill:none;}.cls-3{clip-path:url(#clippath);}.cls-2,.cls-4,.cls-5,.cls-6{stroke-width:0px;}.cls-4{fill:url(#linear-gradient);}.cls-7{font-family:Helvetica, Helvetica;font-size:22px;}.cls-5{fill-rule:evenodd;}.cls-5,.cls-6{fill:#231f20;}</style>
    <clipPath id="clippath">
      <rect class="cls-2" x="3.83" y="1.99" width="366.8" height="202.03"></rect>
    </clipPath>
    <linearGradient id="linear-gradient" x1="48.76" y1="-5015.73" x2="48.62" y2="-5015.88" gradientTransform="translate(0 -4965.81) scale(1 -1)" gradientUnits="userSpaceOnUse">
      <stop offset="0" stop-color="#ed1c24"></stop>
      <stop offset=".24" stop-color="#e91c24"></stop>
      <stop offset=".4" stop-color="#e11b22"></stop>
      <stop offset=".55" stop-color="#d41920"></stop>
      <stop offset=".68" stop-color="#c3161d"></stop>
      <stop offset=".81" stop-color="#ad1116"></stop>
      <stop offset=".93" stop-color="#92080b"></stop>
      <stop offset="1" stop-color="#810101"></stop>
    </linearGradient>
  </defs>
  <g class="cls-3">
    <path class="cls-5" d="m71.25,101.79c-.28-.33-1.22-1.35-2.52-2.51-.24-.22-.36-.23-.42-.23-.13,0-.32.03-.78.18-.07.02-.14.05-.22.07-.86.29-2.14.73-3.94.53-1.69-.18-3.11-1.09-4.15-2.05-.98-.89-1.72-1.9-2.14-2.64l-3.04-3.04C39.59,77.63,16.2,54.19-1.77,36.22l1.73-1.73c17.97,17.97,41.36,41.41,55.81,55.89l3.28,3.28.08.15c.29.54.91,1.41,1.74,2.17.84.76,1.79,1.31,2.76,1.42,1.26.13,2.08-.14,2.91-.42.07-.02.15-.05.22-.07.44-.14,1.03-.33,1.66-.3.71.03,1.35.32,1.94.85,1.37,1.23,2.39,2.33,2.75,2.75l-1.87,1.58Zm48.56-51.51c.45.64,1.03,1.23,1.41,1.56l-1.6,1.85c-.5-.43-1.22-1.16-1.81-2-.55-.77-1.18-1.91-1.07-3.09.03-.27.08-.57.13-.84v-.03c.05-.28.1-.56.14-.87.08-.62.12-1.27.02-1.95-.19-1.29-.9-2.89-3.27-4.47l-.1-.07-.09-.09c-1.09-1.09-24.78-25.07-48.86-49.45l1.74-1.72c23.64,23.94,46.89,47.47,48.77,49.36,2.82,1.91,3.93,4.07,4.23,6.08.14.99.08,1.89-.01,2.63-.05.35-.1.68-.15.95,0,.01,0,.03,0,.04-.05.3-.09.5-.1.67-.02.23.13.72.63,1.43Z"></path>
    <path class="cls-5" d="m54.6,91.45l56.58-56.58,1.73,1.73-56.58,56.58-1.73-1.73Z"></path>
    <path class="cls-5" d="m113.81,93.44h-.01c-2.56,2.48-6.56,6.29-10.55,10.1-5.57,5.31-11.13,10.61-12.74,12.22-1.06,1.06-2.25,1.51-3.4,1.47-1.12-.04-2.08-.54-2.72-1.19l-14.49-14.49,51.39-51.39,13.67,13.67c1.31,1.31,1.92,2.5,2.03,3.62.1,1.12-.34,1.93-.56,2.32h0c-.07.13-.16.24-.19.28,0,0,0,0,0,0-.05.06-.11.14-.18.21-.14.16-.32.36-.55.61-.45.49-1.09,1.17-1.86,1.99-1.55,1.63-3.65,3.83-5.97,6.25-4.65,4.83-10.17,10.53-13.83,14.31h-.01Zm20.5-24.91s-.06.07-.11.13c-.12.13-.29.32-.51.56-.44.48-1.07,1.15-1.84,1.96-1.54,1.63-3.64,3.82-5.96,6.23-4.64,4.82-10.15,10.51-13.81,14.29-2.52,2.43-6.49,6.21-10.46,10-5.6,5.34-11.22,10.69-12.85,12.32-.64.64-1.19.77-1.58.76-.43-.02-.82-.21-1.08-.47l-12.76-12.76,47.92-47.92,11.93,11.93c1.07,1.07,1.29,1.76,1.32,2.11.03.32-.07.55-.23.85Z"></path>
    <path class="cls-6" d="m51.72,47.78c-3.64,2.41-7.49,4.4-11.46,5.96l4.7,4.5-.36,6.59c1.91-.74,3.79-1.57,5.64-2.49l-3.81-7.72c2.38-1.18,4.71-2.51,6.96-4l-1.67-2.84Z"></path>
    <path class="cls-6" d="m71.98,32.01c1.48-2.25,2.81-4.59,3.99-6.97l7.73,3.82c.91-1.86,1.74-3.74,2.48-5.65l-6.57.36-4.51-4.69c-1.55,3.99-3.54,7.83-5.95,11.47l2.83,1.66Z"></path>
    <path class="cls-5" d="m76.28,26.02l9.41,4.63c-3.55,7.04-8.27,13.66-14.15,19.55-5.87,5.87-12.47,10.58-19.49,14.13l-4.63-9.41c6.03-3.05,11.67-7.1,16.71-12.14,5.05-5.05,9.1-10.72,12.16-16.77Zm-24.41,36.27c-.31-.31-.31-.78,0-1.1.31-.31.79-.32,1.1,0,.3.3.3.79,0,1.1-.32.32-.79.32-1.1,0Zm.97-.97c-.24-.24-.61-.26-.86,0-.24.24-.23.6,0,.84.24.24.61.26.85.02.26-.24.24-.61,0-.85Zm-.61.06l.13-.13.54.54c-.04.06-.1.14-.19.23-.1.1-.17.13-.23.15-.05,0-.12-.02-.17-.07-.06-.06-.06-.16-.02-.24h0c-.07.02-.14,0-.23-.04-.1-.06-.15-.09-.18-.1l.14-.14s.1.04.17.09c.07.05.13.05.2-.02l.06-.06-.22-.22Zm.31.31l-.06.06c-.07.07-.11.15-.05.21.05.05.12.04.2-.04.03-.03.06-.06.06-.08l-.15-.15Zm22.72-26.33c.18.12.38.2.55.26.19.05.38.08.57.06.2-.02.38-.08.56-.19.19-.11.38-.26.55-.45,0,.32.07.58.2.83.14.24.36.45.66.64.5.31.99.42,1.43.29.45-.12.85-.45,1.2-1.02l1.55-2.48-.96-1.26-.37.6-4.84-3.02-1.59,2.54c-.2.32-.35.64-.43.94-.09.31-.11.6-.08.87.04.28.14.53.3.77.17.23.39.45.67.61Zm5.01-1.12l-.18.3c-.32.49-.66.62-1.05.38-.39-.25-.44-.61-.12-1.11l.18-.3,1.17.73Zm-4.24-.98c0-.24.14-.55.38-.95l.21-.35,1.3.8-.21.35c-.25.41-.47.65-.68.76-.21.11-.43.09-.65-.04-.23-.15-.34-.34-.34-.57Zm-16.23,20.85l2.88-2.32-.9-1.1-1.2.96c-.11-.19-.17-.37-.2-.53-.02-.18,0-.35.04-.49.04-.16.13-.31.23-.45.11-.13.24-.26.38-.38.24-.2.48-.33.73-.4.25-.07.49-.08.74-.03.25.05.47.16.7.31.23.15.43.35.62.58.21.27.37.52.46.8.11.27.15.52.15.78,0,.25-.07.48-.18.71-.12.22-.28.42-.49.59-.26.22-.55.34-.86.37-.31.03-.65-.06-1.03-.26l-.91,1.68c.68.33,1.34.44,1.99.33.63-.1,1.25-.4,1.83-.86.45-.37.8-.76,1.05-1.21.24-.44.4-.89.45-1.35s0-.94-.15-1.41c-.16-.47-.4-.93-.75-1.36-.36-.44-.74-.78-1.19-1.03-.45-.25-.89-.4-1.35-.45s-.93,0-1.4.14c-.46.15-.92.39-1.35.74-.32.26-.58.54-.81.85-.22.32-.39.64-.5.98-.13.35-.19.7-.18,1.07,0,.37.07.74.21,1.12.09.27.23.52.4.79.18.26.38.53.61.83Zm-7.45,4.74l3.14-1.94-.7-1.28-1.31.81c-.09-.19-.13-.37-.13-.54,0-.16.03-.33.1-.47.07-.15.16-.28.29-.41s.27-.23.43-.33c.26-.16.51-.26.77-.3.27-.03.5,0,.74.07.24.08.46.21.66.39.21.19.39.41.54.66.17.29.3.57.36.85.06.28.07.54.04.79-.04.24-.12.47-.27.68-.15.21-.34.4-.57.53-.29.17-.59.26-.9.25-.33,0-.65-.14-1-.39l-1.12,1.55c.63.42,1.28.6,1.93.58.65-.02,1.3-.23,1.93-.62.49-.3.89-.65,1.2-1.06.3-.4.49-.83.61-1.29.11-.45.12-.93.03-1.41-.09-.48-.28-.97-.57-1.44-.3-.47-.65-.87-1.05-1.17-.4-.3-.83-.49-1.29-.61-.46-.11-.94-.13-1.42-.04-.48.09-.97.28-1.44.57-.35.21-.65.45-.91.73-.26.28-.46.58-.63.91-.17.33-.26.67-.31,1.04-.05.37-.03.74.06,1.13.06.28.15.56.29.84.14.28.31.58.5.9Zm20.33-18.69l-3.71-.03,1.43-1.83,3.26.3-2.18-1.7,1.15-1.46,4.49,3.5.44-.57.83,1.34-1.88,2.41c-.25.33-.5.56-.78.72-.29.17-.55.26-.84.29-.28.02-.55,0-.82-.09-.27-.09-.51-.22-.76-.41-.44-.34-.71-.71-.81-1.13-.1-.42-.04-.87.18-1.34Zm1.73-.54c-.22.3-.34.55-.34.81,0,.25.11.46.33.64.23.17.46.23.7.17.24-.06.47-.24.7-.52l.22-.28-1.39-1.1-.22.28Zm-4.06,9.5l1.9-1.94-.66-1.43-.49.49-2.57-5.54-1.38,1.42.59,1.17-1.85,1.91-1.2-.56-1.38,1.42,7.05,3.06Zm-1.94-4.47l1.12,2.26-2.29-1.07,1.18-1.2Z"></path>
    <path class="cls-4" d="m48.78,49.95c-.06.04-.12.08-.19.11l.02.02c.06-.04.12-.08.17-.13Z"></path>
    <path class="cls-6" d="m127.43,100.49c1.43,0,2.59-1.16,2.59-2.59s-1.16-2.59-2.59-2.59-2.59,1.16-2.59,2.59,1.16,2.59,2.59,2.59Z"></path>
    <path class="cls-6" d="m112.73,108.65c1.43,0,2.59-1.16,2.59-2.59s-1.16-2.59-2.59-2.59-2.59,1.16-2.59,2.59,1.16,2.59,2.59,2.59Z"></path>
    <path class="cls-6" d="m115.99,131.51c1.43,0,2.59-1.16,2.59-2.59s-1.16-2.59-2.59-2.59-2.59,1.16-2.59,2.59,1.16,2.59,2.59,2.59Z"></path>
    <path class="cls-6" d="m106.2,121.72c1.43,0,2.59-1.16,2.59-2.59s-1.16-2.59-2.59-2.59-2.59,1.16-2.59,2.59,1.16,2.59,2.59,2.59Z"></path>
    <path class="cls-6" d="m120.89,116.82c1.43,0,2.59-1.16,2.59-2.59s-1.16-2.59-2.59-2.59-2.59,1.16-2.59,2.59,1.16,2.59,2.59,2.59Z"></path>
    <path class="cls-6" d="m130.69,89.06c1.43,0,2.59-1.16,2.59-2.59s-1.16-2.59-2.59-2.59-2.59,1.16-2.59,2.59,1.16,2.59,2.59,2.59Z"></path>
    <path class="cls-6" d="m143.76,93.95c1.43,0,2.59-1.16,2.59-2.59s-1.16-2.59-2.59-2.59-2.59,1.16-2.59,2.59,1.16,2.59,2.59,2.59Z"></path>
    <path class="cls-5" d="m38.69,160.16l2.45-.09c.15,2.02,1.79,4.93,6.33,8.2,4.49,3.24,11.64,6.71,22.35,9.88,21.41,6.34,56.8,11.45,112.97,11.45s90.75-4.68,111.46-10.66c10.36-2.99,17.18-6.29,21.5-9.44,3.85-2.81,5.63-5.45,6.23-7.59.07-.28.13-.56.18-.83l2.41.45c-.05.33-.13.66-.22,1-2.47,10.56-10.68,28.31-22.92,41.45-3.31,3.55-6.92,6.78-10.81,9.44-12.66,8.67-29.58,13.73-48.29,16.63-18.73,2.91-39.37,3.66-59.55,3.66-16.61,0-39.85-.22-62.16-2.85-22.25-2.62-43.83-7.66-56.94-17.47-17.18-12.85-24.99-30.74-24.99-53.22Zm280.95,9.33c-.73.66-1.54,1.33-2.44,1.99-4.63,3.38-11.76,6.79-22.27,9.82-21.03,6.07-55.87,10.75-112.14,10.75s-91.94-5.11-113.66-11.55c-10.86-3.22-18.29-6.78-23.09-10.24-1.98-1.43-3.54-2.86-4.71-4.28,1.25,19.08,8.84,34.24,23.82,45.44,12.55,9.39,33.54,14.38,55.76,17,22.16,2.61,45.27,2.83,61.88,2.83,20.14,0,40.63-.76,59.17-3.64,18.56-2.88,35.06-7.86,47.28-16.23,3.71-2.54,7.19-5.64,10.4-9.09,9.35-10.04,16.29-22.86,20-32.82Z"></path>
    <path class="cls-5" d="m47.23,149.37c-4.45,4.57-6.08,8.78-6.08,11.96h-2.45c0-4.01,2.04-8.8,6.78-13.67,4.74-4.88,12.25-9.9,23.38-14.44,22.25-9.08,59.17-16.28,118.04-16.28,50.26,0,85.42,7.21,107.63,16.28,11.1,4.53,19.02,9.55,23.96,14.42,4.9,4.82,7.1,9.74,6.07,13.97l-2.38-.58c.72-2.96-.72-7.03-5.41-11.65-4.64-4.57-12.25-9.44-23.17-13.9-21.83-8.91-56.65-16.09-106.71-16.09-58.71,0-95.28,7.19-117.12,16.09-10.92,4.45-18.11,9.32-22.55,13.88Z"></path>
    <path class="cls-5" d="m323.37,160.11h146.97c6.47,0,11.72,5.25,11.72,11.72s-5.25,11.72-11.72,11.72h-155.26v-2.45h155.26c5.12,0,9.27-4.15,9.27-9.27s-4.15-9.27-9.27-9.27h-146.97v-2.45Z"></path>
    <path class="cls-5" d="m70.62,168.48c-4.4,3.24-6.62,6.22-7.38,8.42l-2.31-.8c.99-2.86,3.64-6.2,8.24-9.59,4.63-3.41,11.31-6.93,20.54-10.12,18.45-6.38,47.18-11.44,90.19-11.44s72.52,5.2,91.9,11.7c9.69,3.25,16.87,6.84,21.94,10.28,5.05,3.42,8.1,6.77,9.4,9.59l-2.22,1.03c-1.03-2.24-3.68-5.28-8.55-8.59-4.85-3.29-11.82-6.79-21.34-9.98-19.06-6.4-48.28-11.57-91.12-11.57s-71.27,5.05-89.39,11.31c-9.06,3.13-15.51,6.55-19.89,9.78Z"></path>
    <path class="cls-5" d="m202.39,166.87c1.01-1.01,1.32-1.87,1.32-2.55s-.31-1.54-1.32-2.55c-1.02-1.02-2.62-2.05-4.79-2.97-4.33-1.83-10.49-3.03-17.41-3.03s-13.08,1.19-17.41,3.03c-2.17.92-3.77,1.95-4.79,2.97-1.01,1.01-1.32,1.87-1.32,2.55s.31,1.54,1.32,2.55c1.02,1.02,2.62,2.05,4.79,2.97,4.33,1.83,10.49,3.02,17.41,3.02s13.08-1.19,17.41-3.02c2.17-.92,3.77-1.95,4.79-2.97Zm-22.2,8.44c14.35,0,25.98-4.92,25.98-10.99s-11.63-10.99-25.98-10.99-25.97,4.92-25.97,10.99,11.63,10.99,25.97,10.99Z"></path>
    <path class="cls-5" d="m139.84,156.1c-7.33-.07-13.35.69-17.1,2.35-5.04,2.24-8.22,5.3-9.38,8.19-.57,1.42-.65,2.79-.26,4.04.39,1.26,1.29,2.51,2.86,3.63,1.54,1.1,3.36,1.68,5.42,2.01,1.72.28,3.54.37,5.46.46.41.02.82.04,1.24.06,4.66.25,9.83.75,13.97,4.55,5.67,5.2,15.55,7.68,25.46,8.17,9.9.49,19.39-1.01,24.12-3.37,6.71-3.36,14.26-2.58,21.87-1.79l.21.02c7.8.8,15.82,1.61,24.02-1.29,3.76-1.33,6.85-3.24,8.91-5.31,2.08-2.09,2.97-4.19,2.75-5.94-.21-1.68-1.52-3.51-4.9-4.95-3.39-1.45-8.67-2.41-16.34-2.41-9.62,0-15.75-.87-20.34-2.08-3.2-.84-5.67-1.86-7.95-2.8-.95-.39-1.86-.77-2.77-1.11l.86-2.29c1.04.39,2.02.8,3,1.2,2.22.92,4.45,1.84,7.49,2.63,4.33,1.14,10.24,2,19.71,2,7.82,0,13.48.97,17.3,2.6,3.83,1.63,6.01,4.02,6.37,6.9.35,2.81-1.1,5.62-3.44,7.97-2.37,2.38-5.8,4.47-9.83,5.89-8.76,3.09-17.29,2.21-25.01,1.42h-.08c-7.85-.82-14.71-1.49-20.73,1.52-5.27,2.63-15.25,4.13-25.34,3.62-10.07-.5-20.67-3.02-26.99-8.81-3.44-3.15-7.77-3.65-12.45-3.91-.39-.02-.79-.04-1.18-.06-1.92-.1-3.9-.19-5.77-.49-2.27-.36-4.5-1.04-6.46-2.43-1.92-1.37-3.2-3.04-3.78-4.9-.58-1.86-.43-3.81.32-5.68,1.48-3.7,5.3-7.13,10.66-9.52,4.25-1.89,10.71-2.63,18.12-2.56,7.45.07,16.01.97,24.55,2.47l-.43,2.41c-8.44-1.49-16.86-2.37-24.15-2.44Z"></path>
  </g>
  <rect class="cls-1" x="2.26" y="1.99" width="368.37" height="296.82" rx="51.44" ry="51.44"></rect>
  <line class="cls-1" x1="2.04" y1="204.02" x2="370.63" y2="204.02"></line>
  <text class="cls-7" transform="translate(40.2 257.44)">
    <tspan x="0" y="0">Espolvorea sobre tus platillos.</tspan>
  </text>
</svg>
