<?xml version="1.0" encoding="UTF-8"?>
<!-- Generator: Adobe Illustrator 27.0.0, SVG Export Plug-In . SVG Version: 6.00 Build 0)  -->
<svg xmlns="http://www.w3.org/2000/svg" xmlns:xlink="http://www.w3.org/1999/xlink" version="1.1" id="Layer_2" x="0px" y="0px" viewBox="0 0 372.45 300.74" style="enable-background:new 0 0 372.45 300.74;" xml:space="preserve">
<style type="text/css">
	.st0{clip-path:url(#SVGID_00000106865977308129402760000011271339826350153626_);}
	.st1{fill-rule:evenodd;clip-rule:evenodd;fill:#231F20;}
	.st2{fill:#231F20;}
	.st3{fill:none;stroke:#231F20;stroke-width:1.5;}
	.st4{fill:#FFFFFF;}
	.st5{fill:url(#SVGID_00000070085471760883221050000009976021146567495301_);}
	.st6{fill:#2E2A2B;}
	.st7{clip-path:url(#SVGID_00000036973033699971556500000008034618638823812542_);}
	.st8{clip-path:url(#SVGID_00000091736474438158188670000012701080057893790650_);}
	.st9{fill:url(#SVGID_00000168807723025911327970000003056738575874016395_);}
	.st10{fill:url(#SVGID_00000037651112330060795280000014146532686669255298_);}
	.st11{fill:none;stroke:#EC1D2B;stroke-width:3;stroke-miterlimit:10;}
	.st12{clip-path:url(#SVGID_00000074402972104979191840000004582303339195236509_);}
	.st13{fill:url(#SVGID_00000136400033689883989750000001950723168484790964_);}
	.st14{fill:#231F20;stroke:#231F20;stroke-width:1.5;}
	.st15{fill:url(#SVGID_00000073707390338401868840000001232774238844512952_);}
	.st16{fill:none;}
	.st17{font-family:'Helvetica';}
	.st18{font-size:22px;}
	.st19{clip-path:url(#SVGID_00000042715542185629313850000014174855429635445910_);}
	.st20{fill:url(#SVGID_00000181079129507401090030000004922215534709695881_);}
	.st21{clip-path:url(#SVGID_00000011015871479367524190000010872794039627824798_);}
	.st22{clip-path:url(#SVGID_00000016069067460115630020000015551857791885766572_);}
	.st23{fill:url(#SVGID_00000080192202983734583000000011883035737032573081_);}
	.st24{fill:url(#SVGID_00000053543863616282717370000017269624201514557588_);}
	.st25{fill-rule:evenodd;clip-rule:evenodd;}
	.st26{clip-path:url(#SVGID_00000150781232855597781540000003667655362137964165_);}
	.st27{fill:url(#SVGID_00000011028140783068146870000004754925055930175410_);}
	.st28{clip-path:url(#SVGID_00000139252665750019898010000005600981301925677474_);}
	.st29{clip-path:url(#SVGID_00000125589262212116761000000004174387152011807151_);}
	.st30{fill:url(#SVGID_00000156551133925034554140000011202862115370320259_);}
	.st31{fill:url(#SVGID_00000090258515182179417770000012327721758115274427_);}
	.st32{clip-path:url(#SVGID_00000108274871811120891700000016507660577254729878_);}
	.st33{fill:#272324;}
	.st34{fill:#2D292A;}
	.st35{fill:#2C2829;}
	.st36{clip-path:url(#SVGID_00000144327709565498149260000017938903715911825838_);}
	.st37{fill:none;stroke:#231F20;stroke-width:1.25;}
	.st38{clip-path:url(#SVGID_00000155847068354649185910000001199262486536152973_);}
</style>
<g>
	<path class="st1" d="M259.61,137.41c0.57-0.4,1.36-0.27,1.76,0.3l32.41,45.98c0.4,0.57,0.27,1.35-0.3,1.76   c-0.57,0.4-1.35,0.27-1.76-0.3l-32.41-45.98C258.91,138.6,259.04,137.81,259.61,137.41z"></path>
	<path class="st1" d="M275.85,135.88c0.58-0.39,1.36-0.24,1.75,0.34l19.51,28.84c0.39,0.58,0.24,1.36-0.34,1.75   c-0.58,0.39-1.36,0.24-1.75-0.34l-19.51-28.84C275.12,137.06,275.27,136.27,275.85,135.88z"></path>
	<path class="st1" d="M97.59,160.88c-0.57,0.4-1.36,0.27-1.76-0.3L63.42,114.6c-0.4-0.57-0.27-1.36,0.3-1.76   c0.57-0.4,1.36-0.27,1.76,0.3l32.42,45.98C98.29,159.69,98.16,160.47,97.59,160.88z"></path>
	<path class="st1" d="M81.36,162.41c-0.58,0.39-1.36,0.24-1.75-0.34l-19.51-28.84c-0.39-0.58-0.24-1.36,0.34-1.75   c0.58-0.39,1.36-0.24,1.75,0.34l19.51,28.84C82.09,161.23,81.93,162.02,81.36,162.41z"></path>
	<path class="st14" d="M101.81,20.41c-2.76,1.61-9.89,6.69-13.11,9.03c-2.88,2.25-8.26,6.8-11.16,8.9c-2.9,2.1-2.54,4.12-2,4.86   l5.28,6.99l31.95-23.3c-2.39-3.3-5.15-6.11-5.71-6.87C106.36,19.06,105.26,18.39,101.81,20.41z"></path>
	<path class="st1" d="M145.6,104.42c-24.81,18-35.44,26.95-37.62,29.12l-1.78-1.78c2.34-2.33,13.13-11.39,37.92-29.37   c24.78-17.98,36.22-25.05,38.91-26.36l1.1,2.27C181.68,79.49,170.42,86.42,145.6,104.42z"></path>
	<path class="st1" d="M116.32,31.04L83.71,54.69l-1.48-2.04L114.84,29L116.32,31.04z"></path>
	<g>
		<g>
			<path class="st2" d="M176.88,123.34c4.43-2.02,9.02-3.54,13.67-4.56l-4.39-5.78l1.55-7.19c-2.23,0.48-4.45,1.07-6.65,1.76     l2.84,9.17c-2.83,0.88-5.63,1.94-8.37,3.18L176.88,123.34z"></path>
		</g>
		<g>
			<path class="st2" d="M151.81,137.15c-2.03,2.22-3.9,4.56-5.61,6.98l-7.85-5.56c-1.33,1.89-2.57,3.81-3.72,5.78l7.29,0.76     l4.15,5.95c2.41-4.12,5.27-8.01,8.57-11.59L151.81,137.15z"></path>
		</g>
		<g>
			<path class="st1" d="M146.02,143l-9.55-6.75c5.14-7.14,11.5-13.6,19.01-19.05c7.5-5.44,15.58-9.47,23.94-12.15l3.45,11.17     c-7.17,2.31-14.1,5.77-20.53,10.44C155.9,131.33,150.44,136.87,146.02,143z M148.79,132.89c-0.18-0.16-0.38-0.28-0.56-0.38     c-0.2-0.09-0.4-0.15-0.62-0.17c-0.22-0.01-0.43,0.02-0.65,0.11s-0.46,0.22-0.69,0.4c0.06-0.35,0.03-0.65-0.07-0.95     c-0.11-0.29-0.31-0.56-0.62-0.82c-0.5-0.43-1.02-0.63-1.53-0.57c-0.52,0.05-1.02,0.35-1.5,0.91l-2.14,2.46l0.84,1.55l0.51-0.6     l4.8,4.17l2.2-2.52c0.27-0.31,0.49-0.65,0.63-0.96c0.15-0.32,0.23-0.65,0.24-0.94c0.01-0.31-0.06-0.61-0.19-0.9     C149.28,133.4,149.07,133.12,148.79,132.89z M143.07,133.24l0.25-0.3c0.44-0.49,0.84-0.57,1.22-0.23     c0.38,0.34,0.37,0.75-0.06,1.24l-0.25,0.3L143.07,133.24z M147.57,135.06c-0.04,0.26-0.25,0.59-0.58,0.98l-0.29,0.34l-1.29-1.11     l0.29-0.34c0.34-0.4,0.64-0.64,0.89-0.72c0.25-0.08,0.48-0.02,0.71,0.16C147.52,134.57,147.61,134.8,147.57,135.06z      M152.47,128.04l4.08,0.68l-1.9,1.76l-3.54-0.9l2.1,2.25l-1.52,1.41l-4.33-4.64l-0.58,0.56l-0.68-1.63l2.49-2.33     c0.33-0.32,0.65-0.53,0.99-0.66c0.35-0.13,0.65-0.19,0.98-0.17c0.31,0.03,0.61,0.1,0.89,0.24c0.28,0.14,0.53,0.33,0.77,0.58     c0.42,0.45,0.66,0.91,0.7,1.38C152.94,127.06,152.8,127.55,152.47,128.04z M150.47,128.33c0.29-0.29,0.47-0.55,0.51-0.83     c0.05-0.27-0.04-0.53-0.25-0.77c-0.22-0.23-0.47-0.33-0.74-0.31c-0.27,0.02-0.56,0.18-0.87,0.45l-0.29,0.27l1.34,1.45     L150.47,128.33z M156.61,118.58l-2.43,1.8l0.48,1.7l0.63-0.46l1.86,6.55l1.77-1.33l-0.45-1.39l2.37-1.78l1.22,0.83l1.77-1.33     L156.61,118.58z M157.96,123.84l-0.83-2.69l2.34,1.58L157.96,123.84z M169.1,114.94l-3.58,2.06l0.8,1.37l1.49-0.85     c0.09,0.23,0.12,0.43,0.12,0.62c-0.01,0.2-0.05,0.38-0.13,0.54c-0.07,0.17-0.19,0.32-0.33,0.45c-0.14,0.12-0.31,0.24-0.48,0.35     c-0.3,0.18-0.59,0.27-0.87,0.31c-0.29,0.03-0.56,0-0.82-0.1c-0.26-0.1-0.49-0.26-0.72-0.46c-0.22-0.2-0.41-0.46-0.58-0.75     c-0.18-0.33-0.31-0.64-0.37-0.96c-0.07-0.31-0.07-0.6-0.03-0.89c0.05-0.27,0.16-0.52,0.32-0.75c0.17-0.22,0.38-0.41,0.65-0.57     c0.32-0.19,0.67-0.27,1.01-0.25c0.34,0.02,0.71,0.18,1.09,0.46l1.3-1.69c-0.69-0.48-1.41-0.71-2.13-0.71     c-0.71,0-1.44,0.22-2.17,0.63c-0.55,0.33-1.02,0.7-1.37,1.15c-0.34,0.44-0.59,0.91-0.73,1.41c-0.14,0.5-0.18,1.03-0.09,1.58     c0.09,0.55,0.27,1.09,0.59,1.63c0.32,0.54,0.68,0.99,1.13,1.34c0.45,0.35,0.91,0.59,1.42,0.73c0.5,0.14,1.02,0.16,1.57,0.09     c0.54-0.08,1.08-0.26,1.62-0.58c0.39-0.23,0.74-0.5,1.04-0.79c0.3-0.31,0.54-0.64,0.73-0.99c0.2-0.36,0.33-0.74,0.38-1.15     c0.05-0.4,0.05-0.83-0.03-1.27c-0.05-0.31-0.16-0.62-0.3-0.94C169.47,115.64,169.31,115.31,169.1,114.94z M174.33,112.6l3.8-1.58     c0.16,0.38,0.29,0.75,0.4,1.08c0.1,0.33,0.15,0.66,0.17,0.98c0.03,0.44-0.01,0.86-0.13,1.25c-0.12,0.39-0.28,0.76-0.52,1.09     c-0.24,0.33-0.52,0.63-0.86,0.89c-0.33,0.26-0.71,0.48-1.13,0.65c-0.57,0.24-1.14,0.37-1.69,0.38c-0.55,0.01-1.07-0.09-1.56-0.29     c-0.48-0.21-0.92-0.5-1.31-0.9c-0.38-0.4-0.71-0.89-0.95-1.47c-0.24-0.57-0.36-1.14-0.38-1.69c-0.01-0.55,0.08-1.08,0.28-1.55     c0.21-0.48,0.5-0.92,0.9-1.31c0.41-0.39,0.91-0.72,1.5-0.96c0.77-0.32,1.51-0.44,2.23-0.35c0.72,0.09,1.4,0.41,2.02,0.98     l-1.5,1.51c-0.34-0.33-0.67-0.53-1.03-0.6c-0.34-0.06-0.69-0.02-1.03,0.11c-0.29,0.11-0.53,0.28-0.73,0.49     c-0.2,0.2-0.33,0.45-0.41,0.7c-0.08,0.27-0.11,0.56-0.1,0.88c0.02,0.32,0.11,0.65,0.24,1c0.13,0.31,0.29,0.58,0.48,0.83     c0.19,0.23,0.42,0.41,0.66,0.54c0.25,0.13,0.51,0.19,0.81,0.21c0.29,0,0.59-0.06,0.9-0.19c0.19-0.08,0.36-0.17,0.52-0.29     c0.16-0.12,0.29-0.25,0.39-0.4c0.1-0.15,0.16-0.33,0.19-0.51c0.03-0.2,0.02-0.4-0.05-0.62l-1.58,0.66L174.33,112.6z      M179.06,108.53c0.41-0.29,0.49-0.82,0.2-1.21c-0.28-0.39-0.81-0.47-1.21-0.18c-0.39,0.28-0.48,0.83-0.2,1.21     C178.14,108.74,178.67,108.82,179.06,108.53z M178.97,108.39c-0.32,0.23-0.73,0.14-0.95-0.16c-0.22-0.3-0.18-0.72,0.15-0.94     c0.3-0.22,0.71-0.13,0.93,0.17C179.33,107.76,179.28,108.17,178.97,108.39z M178.55,108.39l0.16-0.12l-0.2-0.28l0.08-0.05     c0.09-0.06,0.15-0.05,0.22,0.01c0.07,0.07,0.13,0.12,0.17,0.13l0.18-0.13c-0.03-0.02-0.08-0.06-0.18-0.14     c-0.09-0.07-0.16-0.09-0.25-0.07l-0.01-0.01c0.06-0.08,0.08-0.19,0.02-0.26c-0.05-0.06-0.12-0.11-0.17-0.11     c-0.07,0.01-0.15,0.03-0.28,0.12c-0.11,0.08-0.19,0.16-0.25,0.22L178.55,108.39z M178.51,107.82l-0.08,0.05l-0.14-0.19     c0-0.02,0.04-0.05,0.08-0.08c0.1-0.07,0.18-0.07,0.23-0.01C178.65,107.68,178.59,107.76,178.51,107.82z"></path>
		</g>
		
			<linearGradient id="SVGID_00000157280869230627488120000004663270524779021991_" gradientUnits="userSpaceOnUse" x1="180.5153" y1="185.9817" x2="180.7053" y2="186.1192" gradientTransform="matrix(1 0 0 -1 0 307.4738)">
			<stop offset="0" style="stop-color:#ED1C24"></stop>
			<stop offset="0.2361" style="stop-color:#E91C24"></stop>
			<stop offset="0.4038" style="stop-color:#E11B22"></stop>
			<stop offset="0.5501" style="stop-color:#D41920"></stop>
			<stop offset="0.6844" style="stop-color:#C3161D"></stop>
			<stop offset="0.8103" style="stop-color:#AD1116"></stop>
			<stop offset="0.9285" style="stop-color:#92080B"></stop>
			<stop offset="1" style="stop-color:#810101"></stop>
		</linearGradient>
		<path style="fill:url(#SVGID_00000157280869230627488120000004663270524779021991_);" d="M180.5,121.46    c0.07-0.03,0.14-0.07,0.23-0.09l-0.02-0.03C180.64,121.38,180.56,121.42,180.5,121.46z"></path>
	</g>
	<path class="st1" d="M88.7,27.68l-0.02,0.02l-0.02,0.02c-2.86,2.28-9.27,7.34-12.14,9.42c-1.69,1.22-2.48,2.65-2.64,4.03   c-0.16,1.33,0.28,2.48,0.78,3.18l9.93,13.69c0.43,0.59,1.04,1.06,1.63,1.43c0.59,0.37,1.25,0.71,1.85,1l0.26,0.13   c0.51,0.25,0.96,0.47,1.35,0.69c0.48,0.28,0.67,0.45,0.72,0.52c2.26,3.11,3.67,8.5,4.48,14.18c0.8,5.62,0.97,11.29,0.88,14.78   l0,0.02l0,0.02c0.13,13.79,1.34,22.57,3.22,28.85c1.89,6.32,4.44,10.06,7.1,13.72l51.25,70.64h3.11l-52.32-72.12   c-2.6-3.58-4.96-7.04-6.73-12.96c-1.78-5.96-2.98-14.47-3.11-28.13c0.09-3.61-0.09-9.41-0.9-15.18   c-0.81-5.72-2.28-11.65-4.93-15.31c-0.39-0.54-1-0.93-1.5-1.22c-0.46-0.27-1-0.53-1.5-0.78h0l-0.25-0.12   c-0.6-0.3-1.15-0.58-1.62-0.87c-0.48-0.3-0.78-0.56-0.93-0.77l-9.93-13.69c-0.18-0.24-0.4-0.77-0.32-1.4   c0.07-0.58,0.41-1.41,1.62-2.29c2.92-2.12,9.35-7.19,12.21-9.47c3.26-2.36,10.3-7.35,13.02-8.84c1.66-0.92,2.56-1.02,3.02-0.94   c0.38,0.06,0.67,0.28,1.02,0.77l9.93,13.69c0.08,0.1,0.18,0.34,0.31,0.81c0.09,0.34,0.16,0.7,0.25,1.12l0,0   c0.03,0.15,0.07,0.32,0.1,0.49c0.25,1.19,0.62,2.73,1.53,3.98c0.24,0.34,0.47,0.68,0.7,1.04c0.92,1.41,1.94,2.99,4.75,4.85   c3.41,2.27,9.53,5.04,21.71,9.12c12.1,4.05,19.91,7.94,25.28,11.62c5.35,3.67,8.33,7.16,10.75,10.5l80.63,111.14l0.02,0.03   c1.55,1.9,4.78,7.57,5.18,14.96h2.52c-0.4-8.02-3.86-14.23-5.73-16.53L184.6,76.41c-2.54-3.51-5.72-7.22-11.37-11.1   c-5.63-3.86-13.66-7.83-25.9-11.93c-12.16-4.07-18-6.76-21.11-8.82c-2.34-1.56-3.09-2.7-3.97-4.04c-0.25-0.39-0.52-0.79-0.83-1.23   c-0.56-0.77-0.84-1.82-1.1-3.02c-0.03-0.14-0.06-0.27-0.09-0.42v0c-0.09-0.44-0.19-0.91-0.3-1.32c-0.14-0.53-0.34-1.15-0.7-1.64   l-9.93-13.69c-0.52-0.71-1.31-1.56-2.67-1.78c-1.28-0.2-2.78,0.21-4.63,1.22C99.11,20.25,91.89,25.36,88.7,27.68z"></path>
	<path class="st1" d="M223.37,204.02h4.26c16.24-11.98,27.03-20.87,30.67-24.07l-1.66-1.89   C252.86,181.38,241.11,191.04,223.37,204.02z"></path>
</g>
<path class="st11" d="M319.19,298.82H53.7c-28.41,0-51.44-23.03-51.44-51.44V53.43c0-28.41,23.03-51.44,51.44-51.44h265.5  c28.41,0,51.44,23.03,51.44,51.44v193.95C370.63,275.79,347.6,298.82,319.19,298.82z"></path>
<rect x="85.52" y="228.97" class="st16" width="201.85" height="46.82"></rect>
<text transform="matrix(1 0 0 1 98.3926 244.7895)"><tspan x="0" y="0" class="st17 st18">Agita suavemente </tspan><tspan x="9.78" y="26.4" class="st17 st18">antes de usarlo. </tspan></text>
<line class="st11" x1="2.04" y1="204.02" x2="370.63" y2="204.02"></line>
</svg>
