<?xml version="1.0" encoding="UTF-8"?>
<!-- Generator: Adobe Illustrator 25.2.1, SVG Export Plug-In . SVG Version: 6.00 Build 0)  -->
<svg xmlns="http://www.w3.org/2000/svg" xmlns:xlink="http://www.w3.org/1999/xlink" version="1.1" id="Layer_2_1_" x="0px" y="0px" viewBox="0 0 372.5 300.7" style="enable-background:new 0 0 372.5 300.7;" xml:space="preserve">
<style type="text/css">
	.st0{fill-rule:evenodd;clip-rule:evenodd;fill:#231F20;}
	.st1{fill:none;stroke:#EC1D2B;stroke-width:3;stroke-miterlimit:10;}
	.st2{fill:none;}
	.st3{font-family:'Helvetica';}
	.st4{font-size:22px;}
</style>
<g>
	<path class="st0" d="M119.4,29.7l-1,0.5v0c-7.3,4.3-11.3,7.3-13.5,9.3c-1.2,1.1-1.9,2-2.3,2.7c-0.5,0.8-0.6,1.3-0.7,1.7   c0,0.2-0.1,0.2-0.1,0.3c-0.2,0.6-0.2,1.2-0.1,1.8c0.1,0.6,0.3,1.2,0.6,1.8c0.5,1.2,1.2,2.5,1.8,3.6c1,1.7,3.2,7.1,4.2,9.6l0.8,2   l0.1-0.2l0.2,0.2l0,0l0,0l0,0l0.1,0.1l0,0c0.2,0.2,0.8,0.8,1.4,1.3c0.3,0.2,0.7,0.4,1.1,0.6c0.1,0.6,0.3,1.3,0.8,2.1   c0.7,1.1,2,1.3,2.9,1.3c0.6,0,1.2-0.1,1.7-0.2l5.9,10.2l5.2,10.1c-0.3,0.9-0.4,2.2,0.5,3.5c0.4,0.6,0.9,0.9,1.5,1.1   c0.2,0.1,0.5,0.2,0.8,0.2c0.8,1.2,1.8,2.9,2.7,4.7c1.1,2.1,2.2,4.2,2.6,5.5c0.2,0.5,0.3,1.4,0.4,2.5c0.1,1.1,0.1,2.4,0.1,3.8   c-0.1,2.8-0.2,5.9-0.4,8.7v0c-0.1,2.1-0.2,4-0.3,5.3c-0.1,4.8,0.4,12.5,6.9,22c5,7.4,10.7,18,12.9,22.4l0,0l19.5,33.2h2.6   l-8.5-14.2l0.1,0l-11.8-20c-2-4-6.9-13-11.5-20.2l62-35.8c3.9,7.6,9.3,16.3,11.8,20.1l17.9,31.5l-0.1,0.1l21.6,38.7h2.6l-40.2-71.4   l0,0c-2.7-4.1-9-14.4-12.9-22.4c-5-10.3-11.4-14.6-15.6-17c-1.1-0.6-2.9-1.5-4.8-2.4l0,0c-2.5-1.2-5.3-2.6-7.7-4   c-1.2-0.7-2.3-1.3-3.2-1.9c-0.9-0.6-1.6-1.2-1.9-1.6c-1-1.1-2.2-3-3.5-5c-1.1-1.7-2-3.4-2.7-4.7c0.1-0.2,0.2-0.5,0.3-0.8   c0.1-0.6,0.1-1.2-0.2-1.8c-0.7-1.4-1.9-2-2.8-2.2l-6.2-9.5l-5.9-10.2c0.3-0.4,0.7-0.9,1-1.4c0.4-0.8,0.9-2,0.3-3.1   c-0.4-0.8-0.9-1.3-1.4-1.7c0.1-0.4,0.1-0.8,0-1.2c-0.1-0.8-0.3-1.5-0.4-1.8v0l0-0.1l0,0v0l0,0l0-0.1h0l0,0l-0.1-0.2l-0.3-0.2l0,0   l-1-1.3c-1.7-2.1-5.2-6.7-6.2-8.4c-0.6-1.1-1.4-2.4-2.2-3.4c-0.4-0.5-0.8-1-1.3-1.4c-0.4-0.4-1-0.7-1.6-0.8c-0.1,0-0.1,0-0.3-0.1   c-0.4-0.1-1-0.3-1.9-0.2c-0.9,0-2,0.2-3.5,0.6c-0.3,0.1-0.6,0.2-1,0.3v0l0,0c-2.9,1-7.2,3-13.8,6.7v0l-1,0.5l-0.4,0.2l0,0   L119.4,29.7z M148.2,35.8c0.7-0.2,1.3-0.5,1.9-0.6c-1.8-2.3-4.4-5.7-5.3-7.3c-0.6-1.1-1.3-2.3-2-3.1c-0.3-0.4-0.7-0.8-0.9-1   c-0.3-0.2-0.5-0.3-0.6-0.3c-0.1,0-0.2,0-0.3-0.1L148.2,35.8z M138.4,23.3c-0.5,0.1-1,0.2-1.7,0.4c-0.2,0-0.3,0.1-0.5,0.2l7.9,13.7   c0.7-0.3,1.4-0.6,2-0.9L138.4,23.3z M142.1,38.5l-8-13.8c-0.4,0.2-0.8,0.3-1.2,0.5l8,13.9c0.2-0.1,0.4-0.2,0.6-0.3   C141.7,38.7,141.9,38.6,142.1,38.5z M130.9,26.1c-0.4,0.2-0.8,0.4-1.2,0.6l8.1,14c0.4-0.2,0.8-0.4,1.2-0.6L130.9,26.1z M135.9,41.7   l-8.1-14.1c-0.4,0.2-0.8,0.4-1.2,0.6l8.1,14.1C135.1,42.2,135.5,41.9,135.9,41.7z M124.6,29.3c-0.4,0.2-0.8,0.4-1.2,0.6l8.2,14.1   c0.4-0.2,0.8-0.4,1.1-0.7L124.6,29.3z M129.7,45.2L121.5,31l-0.2,0.1l-0.3,0.2l-0.1,0l0,0l-0.1,0l-0.3,0.2l-0.2,0.1l8.2,14.2   l0.1-0.1l0.4-0.2l0.4-0.2L129.7,45.2z M118.5,32.8c-0.4,0.2-0.8,0.5-1.1,0.7l8.2,14.1c0.4-0.2,0.8-0.5,1.1-0.7L118.5,32.8z    M123.6,48.8l-8.1-14.1c-0.4,0.2-0.8,0.5-1.1,0.7l8.1,14.1C122.9,49.2,123.2,49,123.6,48.8z M112.5,36.6c-0.4,0.3-0.8,0.5-1.1,0.8   l8.1,14c0.4-0.2,0.8-0.5,1.1-0.7L112.5,36.6z M117.6,52.5l-8-13.9c-0.4,0.3-0.7,0.5-1.1,0.8l8,13.8c0.2-0.1,0.4-0.2,0.6-0.4   C117.3,52.8,117.4,52.7,117.6,52.5z M114.7,54.5l-7.9-13.7c-0.1,0.1-0.3,0.2-0.4,0.3c-0.5,0.5-0.9,0.9-1.2,1.3l7.7,13.4   C113.5,55.4,114.1,55,114.7,54.5z M111.2,57.2c-0.6,0.5-1.1,0.9-1.5,1.3c-1.1-2.8-2.8-6.7-3.7-8.2c-0.7-1.1-1.3-2.3-1.7-3.3   c-0.2-0.5-0.3-1-0.4-1.3c-0.1-0.4,0-0.6,0-0.6c0-0.1,0.1-0.2,0.1-0.3L111.2,57.2z M207.6,109.3c-0.1-0.2-0.2-0.3-0.2-0.5   c-4.8-9.8-10.8-13.8-14.7-16c-1.1-0.6-2.8-1.4-4.7-2.4l0,0c-2.5-1.2-5.3-2.7-7.8-4c-1.2-0.7-2.4-1.4-3.4-2c-1-0.6-1.8-1.3-2.4-1.9   c-1.1-1.2-2.5-3.3-3.7-5.3c-1.2-2.1-2.4-4.1-3.1-5.4l-0.4-0.8l0.7-0.6c0,0,0,0,0-0.1c0-0.1,0.1-0.1,0.1-0.2c0-0.2,0-0.3-0.1-0.4   c-0.5-0.9-1.3-1.1-1.5-1.1h-0.6L159,57.9l-6.8-11.8l0.6-0.6c0.4-0.3,0.9-0.9,1.2-1.5c0.4-0.7,0.3-1,0.3-1.1c-0.4-0.9-1-1.1-1.1-1.1   l0,0l-2.9-0.4l2.3-1.6v0c0-0.1,0-0.3,0-0.6c0-0.3-0.1-0.6-0.2-0.9c-0.1,0-0.2,0-0.3,0.1c-0.7,0.2-1.9,0.6-3.6,1.3   c-3.3,1.4-8.6,4-16.6,8.6l-0.6,0.4l-0.1,0.1l0,0l-0.1,0.1l-0.6,0.4c-8,4.7-12.9,7.9-15.8,10.1c-1.4,1.1-2.4,1.9-2.9,2.4   c-0.1,0.1-0.2,0.2-0.2,0.2c0.2,0.2,0.4,0.4,0.7,0.6c0.2,0.2,0.4,0.3,0.5,0.3l0,0l2.5-1.2l-1.1,2.7l0,0c0,0.1-0.1,0.6,0.4,1.4   c0.1,0.1,0.3,0.3,1.1,0.3c0.7,0,1.4-0.1,1.9-0.3l0.8-0.2l6.8,11.8l5.7,11.2l-0.3,0.5c-0.1,0.2-0.4,1,0.2,1.8   c0.1,0.1,0.2,0.2,0.4,0.3c0.1,0,0.1,0,0.2,0c0,0,0.1,0,0.1,0l0.8-0.3l0.5,0.8c0.8,1.2,2,3.3,3.1,5.4c1.1,2.1,2.2,4.3,2.8,5.9   c0.3,0.8,0.4,1.9,0.5,3c0.1,1.2,0.1,2.5,0.1,3.9c-0.1,2.8-0.2,6-0.4,8.8l0,0v0c-0.1,2.1-0.2,4-0.3,5.2c-0.1,4.5,0.4,11.7,6.5,20.7   c0.1,0.2,0.2,0.3,0.3,0.5L207.6,109.3z M200.8,147.1c3.7-1.2,7.5-2.1,11.4-2.5l-3-5l1.8-5.6c-1.8,0.2-3.7,0.5-5.5,0.9l1.5,7.6   c-2.3,0.5-4.7,1.1-7,1.9L200.8,147.1z M174.4,161.2c1.6-1.8,3.3-3.5,5.1-5.1l2.1,2.1c-2.9,2.6-5.6,5.5-7.8,8.6l-2.8-5.1l-5.8-1.2   c1.1-1.5,2.2-2.9,3.5-4.3L174.4,161.2z M174.4,160.2l-7.1-6.2c4.7-5.3,10.4-9.9,16.9-13.7c6.5-3.7,13.3-6.3,20.2-7.7l1.8,9.2   c-5.9,1.2-11.8,3.4-17.4,6.6C183.3,151.7,178.4,155.7,174.4,160.2z M177.4,152.4c-0.1-0.1-0.3-0.3-0.4-0.4   c-0.1-0.1-0.3-0.2-0.5-0.2s-0.4,0-0.5,0c-0.2,0.1-0.4,0.1-0.6,0.3c0.1-0.3,0.1-0.5,0-0.8c-0.1-0.2-0.2-0.5-0.4-0.7   c-0.4-0.4-0.8-0.6-1.2-0.6c-0.4,0-0.8,0.2-1.3,0.6l-1.9,1.8l0.5,1.3l0.5-0.4l3.5,3.8l2-1.8c0.2-0.2,0.4-0.5,0.6-0.7   c0.1-0.2,0.2-0.5,0.3-0.7c0-0.2,0-0.5-0.1-0.7C177.8,152.8,177.7,152.6,177.4,152.4z M172.8,152.2l0.2-0.2c0.4-0.4,0.7-0.4,1-0.1   c0.3,0.3,0.2,0.6-0.2,1l-0.2,0.2L172.8,152.2z M176.3,154c-0.1,0.2-0.2,0.4-0.6,0.7l-0.3,0.2l-0.9-1l0.3-0.2   c0.3-0.3,0.6-0.5,0.8-0.5c0.2-0.1,0.4,0,0.6,0.2C176.3,153.6,176.4,153.8,176.3,154z M180.8,148.8l3.2,0.9l-1.7,1.3l-2.8-1l1.5,2   l-1.3,1l-3.1-4.1l-0.5,0.4l-0.4-1.4l2.2-1.7c0.3-0.2,0.6-0.4,0.9-0.4c0.3-0.1,0.5-0.1,0.8-0.1c0.2,0.1,0.5,0.1,0.7,0.3   s0.4,0.3,0.6,0.5c0.3,0.4,0.4,0.8,0.4,1.2C181.3,148,181.1,148.4,180.8,148.8z M179.2,148.9c0.3-0.2,0.4-0.4,0.5-0.6   c0.1-0.2,0-0.4-0.1-0.6c-0.2-0.2-0.4-0.3-0.6-0.3s-0.5,0.1-0.7,0.3l-0.2,0.2l1,1.3L179.2,148.9z M184.9,141.5l-2.1,1.2l0.2,1.4   l0.5-0.3l0.9,5.4l1.5-0.9l-0.2-1.1l2.1-1.2l0.9,0.8l1.5-0.9L184.9,141.5z M185.6,145.9l-0.4-2.2l1.8,1.5L185.6,145.9z M195.2,139.7   l-3,1.4l0.5,1.2l1.3-0.6c0.1,0.2,0.1,0.4,0.1,0.5c0,0.2-0.1,0.3-0.1,0.4c-0.1,0.1-0.2,0.2-0.3,0.3c-0.1,0.1-0.3,0.2-0.4,0.2   c-0.2,0.1-0.5,0.2-0.7,0.2s-0.4-0.1-0.6-0.1c-0.2-0.1-0.4-0.2-0.5-0.4c-0.2-0.2-0.3-0.4-0.4-0.6c-0.1-0.3-0.2-0.5-0.2-0.8   c0-0.3,0-0.5,0.1-0.7c0.1-0.2,0.2-0.4,0.3-0.6c0.2-0.2,0.3-0.3,0.6-0.4c0.3-0.1,0.6-0.2,0.8-0.1c0.3,0.1,0.6,0.2,0.8,0.5l1.2-1.2   c-0.5-0.4-1.1-0.7-1.6-0.8c-0.6-0.1-1.2,0.1-1.8,0.3c-0.5,0.2-0.9,0.5-1.2,0.8c-0.3,0.3-0.6,0.7-0.7,1.1c-0.1,0.4-0.2,0.8-0.2,1.3   s0.1,0.9,0.3,1.4s0.5,0.9,0.8,1.2c0.3,0.3,0.7,0.6,1.1,0.7c0.4,0.1,0.8,0.2,1.2,0.2c0.4,0,0.9-0.1,1.4-0.3c0.3-0.1,0.6-0.3,0.9-0.6   c0.3-0.2,0.5-0.5,0.7-0.7c0.2-0.3,0.3-0.6,0.4-0.9c0.1-0.3,0.1-0.7,0.1-1c0-0.2-0.1-0.5-0.2-0.8C195.5,140.3,195.4,140,195.2,139.7   z M199.6,138.2l3.2-0.9c0.1,0.3,0.2,0.6,0.2,0.9c0.1,0.3,0.1,0.5,0.1,0.8c0,0.4-0.1,0.7-0.2,1c-0.1,0.3-0.3,0.6-0.5,0.8   s-0.5,0.5-0.8,0.6s-0.6,0.3-1,0.4c-0.5,0.1-0.9,0.2-1.4,0.2s-0.9-0.2-1.2-0.4c-0.4-0.2-0.7-0.5-1-0.8c-0.3-0.4-0.5-0.8-0.6-1.3   s-0.2-0.9-0.2-1.4s0.2-0.9,0.4-1.2c0.2-0.4,0.5-0.7,0.8-1c0.4-0.3,0.8-0.5,1.3-0.6c0.6-0.2,1.2-0.2,1.8-0.1s1.1,0.4,1.5,1l-1.3,1.1   c-0.2-0.3-0.5-0.5-0.8-0.6c-0.3-0.1-0.6-0.1-0.8,0c-0.2,0.1-0.4,0.2-0.6,0.3c-0.2,0.1-0.3,0.3-0.4,0.5c-0.1,0.2-0.1,0.4-0.1,0.7   c0,0.2,0,0.5,0.1,0.8c0.1,0.3,0.2,0.5,0.3,0.7c0.1,0.2,0.3,0.4,0.5,0.5c0.2,0.1,0.4,0.2,0.6,0.2c0.2,0,0.5,0,0.7-0.1   c0.2-0.1,0.3-0.1,0.4-0.2c0.1-0.1,0.2-0.2,0.3-0.3c0.1-0.1,0.2-0.2,0.2-0.4c0-0.1,0.1-0.3,0-0.5l-1.3,0.4L199.6,138.2z    M203.8,135.4c0.4-0.2,0.5-0.6,0.3-0.9c-0.2-0.3-0.6-0.4-1-0.2c-0.3,0.2-0.4,0.6-0.3,0.9C203,135.5,203.4,135.6,203.8,135.4z    M203.7,135.2c-0.3,0.2-0.6,0.1-0.7-0.2c-0.1-0.3-0.1-0.6,0.2-0.7c0.3-0.1,0.6-0.1,0.7,0.2C204.1,134.8,204,135.1,203.7,135.2z    M203.4,135.2l0.1-0.1l-0.1-0.2l0.1,0c0.1,0,0.1,0,0.2,0c0.1,0.1,0.1,0.1,0.1,0.1l0.1-0.1c0,0-0.1-0.1-0.1-0.1l0,0   c-0.1-0.1-0.1-0.1-0.2-0.1l0,0c0.1-0.1,0.1-0.1,0-0.2c0-0.1-0.1-0.1-0.1-0.1c-0.1,0-0.1,0-0.2,0.1c-0.1,0.1-0.2,0.1-0.2,0.1   L203.4,135.2z M203.4,134.8L203.4,134.8l-0.2-0.1c0,0,0,0,0.1-0.1c0.1-0.1,0.1,0,0.2,0C203.5,134.6,203.5,134.7,203.4,134.8z    M105.6,121.1c0.4,0.6,1.2,0.7,1.8,0.3c0.6-0.4,0.7-1.2,0.3-1.8l-34-48.3c-0.4-0.6-1.2-0.7-1.8-0.3c-0.6,0.4-0.7,1.2-0.3,1.8   L105.6,121.1z M266.2,118.9c0.6-0.4,1.4-0.2,1.8,0.3l20.5,30.3c0.4,0.6,0.2,1.4-0.4,1.8c-0.6,0.4-1.4,0.2-1.8-0.4l-20.5-30.3   C265.4,120.1,265.6,119.3,266.2,118.9z M249.1,120.5c0.6-0.4,1.4-0.3,1.8,0.3l34,48.3c0.4,0.6,0.3,1.4-0.3,1.8s-1.4,0.3-1.8-0.3   l-34-48.3C248.4,121.8,248.5,120.9,249.1,120.5z M90.4,123c-0.6,0.4-1.4,0.2-1.8-0.3L68.1,92.3c-0.4-0.6-0.2-1.4,0.3-1.8   s1.4-0.2,1.8,0.3l20.5,30.3C91.2,121.8,91,122.6,90.4,123z"></path>
</g>
<path class="st1" d="M319.2,298.8H53.7c-28.4,0-51.4-23-51.4-51.4v-194C2.3,25,25.3,2,53.7,2h265.5c28.4,0,51.4,23,51.4,51.4v194  C370.6,275.8,347.6,298.8,319.2,298.8z"></path>
<rect x="76" y="242.5" class="st2" width="220.8" height="23.4"></rect>
<text transform="matrix(1 0 0 1 80.0451 258.351)" class="st3 st4">Agita antes de usarla. </text>
<line class="st1" x1="2" y1="204" x2="370.6" y2="204"></line>
</svg>
