<?xml version="1.0" encoding="UTF-8"?>
<!-- Generator: Adobe Illustrator 27.0.0, SVG Export Plug-In . SVG Version: 6.00 Build 0)  -->
<svg xmlns="http://www.w3.org/2000/svg" xmlns:xlink="http://www.w3.org/1999/xlink" version="1.1" id="Layer_2" x="0px" y="0px" viewBox="0 0 372.45 300.74" style="enable-background:new 0 0 372.45 300.74;" xml:space="preserve">
<style type="text/css">
	.st0{clip-path:url(#SVGID_00000149343399474792639510000006191487621245905825_);}
	.st1{fill-rule:evenodd;clip-rule:evenodd;fill:#231F20;}
	.st2{fill:#231F20;}
	.st3{fill:none;stroke:#231F20;stroke-width:1.5;}
	.st4{fill:#FFFFFF;}
	.st5{fill:url(#SVGID_00000123440217481299302800000017736196448904295552_);}
	.st6{fill:#2E2A2B;}
	.st7{clip-path:url(#SVGID_00000072983499263878156040000011555203545587271822_);}
	.st8{clip-path:url(#SVGID_00000129903735027592018270000004029071529432244655_);}
	.st9{fill:url(#SVGID_00000009583509096515561780000004736283065839725970_);}
	.st10{fill:url(#SVGID_00000034070995687356634780000018014434590603143045_);}
	.st11{fill:none;stroke:#EC1D2B;stroke-width:3;stroke-miterlimit:10;}
	.st12{clip-path:url(#SVGID_00000181064777404040934530000013201829784733020308_);}
	.st13{fill:url(#SVGID_00000065053427515360898900000014621288206136695985_);}
	.st14{fill:#231F20;stroke:#231F20;stroke-width:1.5;}
	.st15{fill:url(#SVGID_00000047782896057754669320000011302598061006625411_);}
	.st16{clip-path:url(#SVGID_00000183927607854905485750000000186602154531523987_);}
	.st17{fill:url(#SVGID_00000106127348079866451220000006101601375928128700_);}
	.st18{clip-path:url(#SVGID_00000038382425030883529910000016479431289900948378_);}
	.st19{clip-path:url(#SVGID_00000142856178196356062940000007357340361322879106_);}
	.st20{fill:url(#SVGID_00000053529257580229488760000013241290265617643138_);}
	.st21{fill:url(#SVGID_00000023989874008884001020000009650917619487745688_);}
	.st22{fill-rule:evenodd;clip-rule:evenodd;}
	.st23{clip-path:url(#SVGID_00000111889628375035502680000017362588051264284090_);}
	.st24{fill:url(#SVGID_00000062158919208886564990000004752178309979688085_);}
	.st25{clip-path:url(#SVGID_00000090999461346736340540000008000955689990795436_);}
	.st26{clip-path:url(#SVGID_00000176755472935532300260000015976860296696194210_);}
	.st27{fill:url(#SVGID_00000000941505390087822430000006064511341615638938_);}
	.st28{fill:none;}
	.st29{font-family:'Helvetica';}
	.st30{font-size:22px;}
	.st31{fill:url(#SVGID_00000034799931698784509200000014639395385213941384_);}
	.st32{clip-path:url(#SVGID_00000100383369663597447870000003535492389259430072_);}
	.st33{fill:#272324;}
	.st34{fill:#2D292A;}
	.st35{fill:#2C2829;}
	.st36{clip-path:url(#SVGID_00000173156992361974421080000001996644250637188281_);}
	.st37{fill:none;stroke:#231F20;stroke-width:1.25;}
	.st38{clip-path:url(#SVGID_00000082363418747910797840000009913069143325671092_);}
</style>
<path class="st11" d="M319.19,298.82H53.7c-28.41,0-51.44-23.03-51.44-51.44V53.43c0-28.41,23.03-51.44,51.44-51.44h265.5  c28.41,0,51.44,23.03,51.44,51.44v193.95C370.63,275.79,347.6,298.82,319.19,298.82z"></path>
<rect x="67.65" y="229.36" class="st28" width="237.58" height="46.82"></rect>
<text transform="matrix(1 0 0 1 70.8713 245.1789)"><tspan x="0" y="0" class="st29 st30">Almacénalo en un lugar </tspan><tspan x="37.94" y="26.4" class="st29 st30">oscuro y fresco.</tspan></text>
<line class="st11" x1="2.04" y1="204.02" x2="370.63" y2="204.02"></line>
<g>
	<path class="st1" d="M81.5,114.82H48.26c-1.12,0-3.39,0.58-3.51,2.91c-0.12,2.33-0.05,13.44,0,18.7c0.05,0.79,0.58,2.36,2.34,2.36   H81.5h0.06h34.42c1.75,0,2.29-1.57,2.34-2.36c0.05-5.26,0.12-16.38,0-18.7c-0.12-2.33-2.39-2.91-3.51-2.91H81.57H81.5z"></path>
	<path class="st1" d="M46.53,116.07c-0.54,0.32-0.96,0.83-1,1.7c-0.12,2.29-0.05,13.34,0,18.63c0.02,0.28,0.13,0.7,0.38,1.04   c0.23,0.31,0.57,0.56,1.18,0.56h68.9c0.6,0,0.95-0.25,1.18-0.56c0.25-0.34,0.36-0.76,0.38-1.04c0.05-5.29,0.12-16.34,0-18.63   c-0.04-0.86-0.46-1.37-1-1.7c-0.57-0.35-1.27-0.47-1.72-0.47H48.26C47.8,115.6,47.11,115.72,46.53,116.07z M45.72,114.73   c0.87-0.53,1.87-0.69,2.53-0.69h66.56c0.67,0,1.66,0.17,2.53,0.69c0.91,0.55,1.68,1.49,1.75,2.96c0.12,2.36,0.05,13.5,0,18.75   l0,0.02l0,0.02c-0.03,0.51-0.21,1.25-0.68,1.89c-0.49,0.67-1.29,1.2-2.44,1.2h-68.9c-1.15,0-1.95-0.53-2.44-1.2   c-0.47-0.64-0.65-1.38-0.68-1.89l0-0.02l0-0.02c-0.05-5.25-0.12-16.39,0-18.75C44.04,116.22,44.81,115.28,45.72,114.73z"></path>
	<path class="st1" d="M118.94,161.02H44.69v-2.35h74.26V161.02z"></path>
	<path class="st1" d="M217.38,127.32H138.9v-2.35h78.48V127.32z"></path>
	<path class="st2" d="M191.97,151.71c4.76,0.96,9.35,2.43,13.7,4.32l-0.16-7.23l5.46-4.9c-2.08-0.92-4.21-1.74-6.39-2.47l-3.08,9.07   c-2.8-0.95-5.67-1.73-8.62-2.33L191.97,151.71z"></path>
	<path class="st2" d="M163.65,148.17c-2.94,0.61-5.82,1.4-8.62,2.35l-3.08-9.08c-2.18,0.75-4.31,1.57-6.39,2.49l5.44,4.88   l-0.14,7.23c4.35-1.91,8.94-3.37,13.7-4.34L163.65,148.17z"></path>
	<path class="st1" d="M155.55,149.5l-3.76-11.04c8.33-2.75,17.25-4.24,26.5-4.24c9.24,0,18.12,1.48,26.44,4.21l-3.76,11.04   c-7.14-2.34-14.76-3.6-22.68-3.6C170.36,145.88,162.71,147.15,155.55,149.5z M163.71,142.97c-0.05-0.23-0.14-0.45-0.23-0.64   c-0.11-0.19-0.23-0.36-0.4-0.5c-0.17-0.14-0.36-0.23-0.59-0.3c-0.23-0.06-0.5-0.09-0.79-0.08c0.25-0.25,0.4-0.51,0.5-0.81   c0.08-0.3,0.08-0.64-0.02-1.03c-0.16-0.64-0.45-1.1-0.9-1.35c-0.45-0.26-1.03-0.31-1.74-0.14l-3.17,0.73l-0.23,1.74l0.76-0.19   l1.43,6.17l3.25-0.75c0.4-0.09,0.78-0.23,1.07-0.4c0.31-0.17,0.56-0.39,0.75-0.62c0.19-0.25,0.31-0.53,0.37-0.84   C163.8,143.67,163.8,143.32,163.71,142.97z M158.88,139.9l0.37-0.09c0.64-0.14,1.01,0.03,1.12,0.53c0.11,0.5-0.14,0.82-0.78,0.96   l-0.37,0.09L158.88,139.9z M161.45,144.01c-0.19,0.19-0.54,0.33-1.04,0.45l-0.44,0.11l-0.39-1.65l0.44-0.11   c0.51-0.12,0.89-0.14,1.14-0.06c0.25,0.08,0.4,0.26,0.48,0.54C161.7,143.59,161.64,143.82,161.45,144.01z M169.52,141.21l2.89,2.94   l-2.57,0.31l-2.33-2.8l0.37,3.05l-2.05,0.25l-0.78-6.28l-0.79,0.11l0.4-1.71l3.37-0.42c0.45-0.06,0.84-0.05,1.18,0.05   c0.36,0.09,0.64,0.23,0.89,0.44c0.23,0.2,0.44,0.44,0.58,0.72s0.23,0.58,0.28,0.92c0.08,0.61,0,1.12-0.25,1.52   C170.47,140.7,170.06,141.01,169.52,141.21z M167.73,140.28c0.4-0.06,0.7-0.17,0.9-0.37c0.2-0.19,0.28-0.45,0.25-0.76   c-0.05-0.31-0.19-0.54-0.42-0.68c-0.23-0.14-0.56-0.19-0.96-0.14l-0.39,0.05l0.23,1.96L167.73,140.28z M178.4,136l-3.02,0.03   l-0.61,1.65h0.78l-2.33,6.38l2.21-0.03l0.45-1.38l2.96-0.05l0.5,1.38l2.21-0.03L178.4,136z M176.41,141.03l0.9-2.66l0.96,2.64   L176.41,141.03z M190.61,140.37l-4.09-0.44l-0.16,1.57l1.69,0.19c-0.06,0.23-0.16,0.42-0.26,0.58c-0.13,0.16-0.26,0.28-0.42,0.36   c-0.16,0.09-0.34,0.14-0.53,0.17c-0.19,0.02-0.39,0.02-0.59,0c-0.34-0.03-0.64-0.12-0.89-0.26c-0.25-0.14-0.45-0.33-0.61-0.56   c-0.16-0.23-0.25-0.5-0.31-0.79c-0.06-0.3-0.06-0.61-0.03-0.95c0.05-0.37,0.13-0.7,0.26-1c0.12-0.3,0.3-0.53,0.5-0.73   c0.2-0.19,0.43-0.33,0.7-0.42c0.26-0.08,0.54-0.11,0.86-0.08c0.37,0.03,0.7,0.17,0.96,0.39c0.26,0.22,0.47,0.56,0.61,1.01   l2.04-0.61c-0.28-0.79-0.72-1.4-1.31-1.82c-0.58-0.42-1.29-0.67-2.11-0.76c-0.64-0.06-1.23-0.03-1.77,0.12   c-0.53,0.16-1.01,0.39-1.42,0.72c-0.4,0.33-0.75,0.73-1,1.23c-0.25,0.5-0.42,1.04-0.48,1.66c-0.06,0.62-0.03,1.2,0.12,1.74   c0.16,0.54,0.39,1.01,0.72,1.42c0.33,0.4,0.73,0.73,1.21,1c0.48,0.25,1.03,0.42,1.65,0.48c0.45,0.05,0.89,0.03,1.31-0.03   c0.42-0.08,0.81-0.2,1.17-0.37c0.37-0.17,0.7-0.4,0.98-0.7c0.28-0.3,0.53-0.64,0.71-1.04c0.14-0.28,0.23-0.59,0.31-0.93   C190.5,141.16,190.56,140.79,190.61,140.37z M196.2,141.55l4,0.95c-0.09,0.4-0.2,0.78-0.31,1.1c-0.11,0.33-0.26,0.62-0.44,0.89   c-0.23,0.37-0.51,0.68-0.84,0.93c-0.33,0.25-0.67,0.45-1.06,0.58c-0.39,0.12-0.79,0.2-1.21,0.22c-0.42,0.02-0.86-0.03-1.29-0.14   c-0.61-0.14-1.13-0.37-1.59-0.68c-0.45-0.31-0.81-0.7-1.09-1.15c-0.26-0.45-0.45-0.95-0.53-1.49c-0.08-0.54-0.05-1.14,0.09-1.74   c0.14-0.61,0.37-1.14,0.68-1.59c0.31-0.45,0.7-0.82,1.13-1.09c0.45-0.26,0.95-0.45,1.49-0.53c0.56-0.08,1.15-0.05,1.77,0.11   c0.81,0.19,1.48,0.53,2.01,1.03c0.53,0.5,0.89,1.15,1.06,1.98l-2.1,0.34c-0.08-0.47-0.23-0.82-0.48-1.09   c-0.23-0.25-0.54-0.42-0.9-0.51c-0.29-0.08-0.59-0.08-0.87-0.03c-0.28,0.05-0.53,0.17-0.75,0.33c-0.22,0.17-0.42,0.39-0.59,0.65   c-0.17,0.26-0.29,0.59-0.39,0.95c-0.08,0.33-0.11,0.64-0.09,0.95c0.02,0.3,0.09,0.58,0.22,0.82c0.12,0.25,0.29,0.45,0.53,0.64   c0.23,0.17,0.51,0.3,0.84,0.37c0.2,0.05,0.39,0.08,0.59,0.08c0.2,0,0.37-0.03,0.54-0.09c0.17-0.06,0.33-0.17,0.45-0.3   c0.14-0.14,0.25-0.31,0.33-0.53l-1.66-0.39L196.2,141.55z M202.4,141.04c0.5,0,0.87-0.37,0.87-0.86c0-0.48-0.37-0.86-0.87-0.86   c-0.48,0-0.87,0.39-0.87,0.86C201.52,140.66,201.91,141.04,202.4,141.04z M202.41,140.87c-0.39,0-0.67-0.31-0.67-0.68   c0-0.37,0.28-0.68,0.67-0.67c0.37,0,0.65,0.31,0.65,0.68C203.07,140.57,202.78,140.87,202.41,140.87z M202.07,140.62h0.2v-0.34   h0.09c0.11,0,0.16,0.05,0.17,0.14c0.02,0.09,0.03,0.17,0.06,0.2h0.22c-0.02-0.03-0.03-0.09-0.06-0.22   c-0.03-0.11-0.08-0.17-0.16-0.2v-0.02c0.09-0.03,0.17-0.11,0.17-0.2c0-0.08-0.03-0.16-0.08-0.19c-0.06-0.03-0.14-0.06-0.3-0.06   c-0.14,0-0.25,0.02-0.33,0.03V140.62z M202.36,140.13h-0.09v-0.23c0.02-0.02,0.06-0.02,0.11-0.02c0.13,0,0.19,0.05,0.19,0.12   C202.57,140.1,202.47,140.13,202.36,140.13z"></path>
	
		<linearGradient id="SVGID_00000109026055614284630120000009101157852324584383_" gradientUnits="userSpaceOnUse" x1="195.983" y1="-2058.8003" x2="196.2165" y2="-2058.8003" gradientTransform="matrix(1 0 0 -1 0 -1906.4553)">
		<stop offset="0" style="stop-color:#ED1C24"></stop>
		<stop offset="0.2361" style="stop-color:#E91C24"></stop>
		<stop offset="0.4038" style="stop-color:#E11B22"></stop>
		<stop offset="0.5501" style="stop-color:#D41920"></stop>
		<stop offset="0.6844" style="stop-color:#C3161D"></stop>
		<stop offset="0.8103" style="stop-color:#AD1116"></stop>
		<stop offset="0.9285" style="stop-color:#92080B"></stop>
		<stop offset="1" style="stop-color:#810101"></stop>
	</linearGradient>
	<path style="fill:url(#SVGID_00000109026055614284630120000009101157852324584383_);" d="M195.99,152.31   c0.08,0.02,0.16,0.03,0.23,0.06v-0.03C196.14,152.33,196.07,152.31,195.99,152.31z"></path>
	<path class="st1" d="M158.06,48.28c-0.48,1.54-0.6,7.08-0.6,9.65h20.03h1.08h20.03c0-2.57-0.12-8.11-0.6-9.65v-9.41   c-0.08-0.44-0.43-1.45-1.21-1.93c0-0.05,0-0.1,0-0.16v0c0.02-0.74,0.06-1.89-3.86-1.89h-14.36h-1.08h-14.36   c-3.93,0-3.89,1.15-3.86,1.89c0,0.06,0,0.11,0,0.16c-0.77,0.48-1.13,1.49-1.21,1.93V48.28z M165.42,38.27h0.72v14.15h-0.72V38.27z    M160.59,38.27h0.72v14.15h-0.72V38.27z M170.97,38.27h-0.72v14.15h0.72V38.27z M175.07,38.27h0.72v14.15h-0.72V38.27z    M185.44,38.27h-0.72v14.15h0.72V38.27z M189.55,38.27h0.72v14.15h-0.72V38.27z M180.62,38.27h-0.72v14.15h0.72V38.27z    M194.37,38.27h0.72v14.15h-0.72V38.27z"></path>
	<path class="st1" d="M320.7,96.79h-75.23c-0.43,0-0.78,0.35-0.78,0.78v7.84c0,0.43,0.35,0.78,0.78,0.78h75.23   c0.43,0,0.78-0.35,0.78-0.78v-7.84C321.48,97.14,321.13,96.79,320.7,96.79z M245.47,94.44c-1.73,0-3.13,1.4-3.13,3.13v7.84   c0,1.73,1.4,3.13,3.13,3.13h75.23c1.73,0,3.13-1.4,3.13-3.13v-7.84c0-1.73-1.4-3.13-3.13-3.13H245.47z"></path>
	<path class="st2" d="M242.34,110.9c0-1.3,1.05-2.35,2.35-2.35h76.79c1.3,0,2.35,1.05,2.35,2.35s-1.05,2.35-2.35,2.35h-76.79   C243.39,113.25,242.34,112.2,242.34,110.9z"></path>
	<path class="st1" d="M244.69,108.55c-1.3,0-2.35,1.05-2.35,2.35s1.05,2.35,2.35,2.35h76.79c1.3,0,2.35-1.05,2.35-2.35   s-1.05-2.35-2.35-2.35H244.69z"></path>
	<path class="st1" d="M331.67,152.04h-95.6v-2.35h95.6V152.04z"></path>
	<path class="st1" d="M284.69,185.45l3.51-9.43l1.98,9.43l5.03-8.46l0.21,10.2l6.6-7.81l-1.77,10.08l8.08-6.44l-3.96,9.39l9.4-4.21   l-6.31,7.94l10.14-1.3l-8.66,5.59l10,2.15h-68.27l-0.5-0.12l10.1-1.94l-8.45-5.59l10.19,1.26l-6.35-7.94l9.32,4.17l-3.92-9.27   l8.17,6.23l-1.94-10.08l6.72,7.86l0.08-10.16l5.16,8.95l1.9-10L284.69,185.45z"></path>
	<path class="st1" d="M115.96,137.61H47.6v3.13c-1.99,1.18-4.96,3.28-5.4,7.63c-0.31,3.13,0.4,5.35,1.1,6.45l0.28,47.76h2.35   l-0.28-48.58l-0.28-0.33c-0.25-0.29-1.15-1.98-0.84-5.08c0.35-3.51,2.87-5.05,4.82-6.16l0.59-0.34v-2.14h63.66v2.14l0.59,0.34   c1.94,1.11,4.47,2.65,4.82,6.16c0.31,3.1-0.59,4.79-0.84,5.08l-0.28,0.33l-0.28,48.58h2.35l0.28-47.76c0.7-1.1,1.42-3.32,1.1-6.45   c-0.43-4.34-3.4-6.45-5.4-7.63V137.61z"></path>
	<path class="st1" d="M319.25,112.1h-71.98l-0.35,0.54c-1.98,3.06-4.96,7.88-7.44,12.37c-1.24,2.24-2.37,4.42-3.19,6.27   c-0.41,0.92-0.75,1.78-0.99,2.54c-0.23,0.73-0.4,1.45-0.4,2.07v66.7h2.35v-66.7c0-0.24,0.08-0.69,0.29-1.35   c0.21-0.64,0.51-1.42,0.9-2.3c0.78-1.76,1.87-3.87,3.1-6.09c2.31-4.17,5.06-8.65,7.01-11.69h69.41c1.95,3.04,4.7,7.52,7.01,11.69   c1.23,2.22,2.32,4.33,3.1,6.09c0.39,0.88,0.7,1.65,0.9,2.3c0.21,0.67,0.29,1.11,0.29,1.35v66.7h2.35v-66.7   c0-0.62-0.17-1.34-0.4-2.07c-0.24-0.75-0.58-1.61-0.99-2.54c-0.82-1.85-1.95-4.03-3.19-6.27c-2.48-4.49-5.46-9.3-7.44-12.37   L319.25,112.1z"></path>
	<path class="st1" d="M158.05,56.83h19.36l0.02,0h20.93c0.48,0,0.9,0.29,1.09,0.73c0.18,0.44,0.08,0.94-0.25,1.28l-0.61,0.61v1.65   c0,0.41-0.22,0.8-0.57,1.01l-1.21,0.73v3.5c0,3.69,1.69,8.31,2.59,10.25c0.93,1.43,4.35,7.03,11.17,18.89   c7,12.18,8.29,21.98,8,25.61v81.51h-2.35v-81.55c0-0.03,0-0.07,0-0.1c0.25-3-0.84-12.36-7.7-24.29   c-6.95-12.08-10.33-17.61-11.14-18.85c-0.03-0.05-0.06-0.1-0.08-0.15c-0.94-1.99-2.85-7.07-2.85-11.32v-4.16   c0-0.41,0.22-0.8,0.57-1.01l1.21-0.73v-1.25h-18.78l-0.02,0h-17.26v1.25l1.21,0.73c0.35,0.21,0.57,0.6,0.57,1.01v4.16   c0,4.26-1.91,9.33-2.85,11.32c-0.02,0.05-0.05,0.1-0.08,0.15c-0.81,1.24-4.2,6.76-11.14,18.85c-6.86,11.93-7.95,21.29-7.7,24.29   c0,0.03,0,0.07,0,0.1v81.55h-2.35v-81.51c-0.29-3.63,1.01-13.43,8-25.61c6.82-11.87,10.24-17.47,11.17-18.89   c0.9-1.94,2.59-6.56,2.59-10.25v-3.5l-1.21-0.73c-0.35-0.21-0.57-0.6-0.57-1.01v-1.65l-0.61-0.61c-0.34-0.34-0.44-0.84-0.25-1.28   C157.14,57.12,157.57,56.83,158.05,56.83z"></path>
</g>
</svg>
