<?xml version="1.0" encoding="UTF-8"?>
<!-- Generator: Adobe Illustrator 27.0.0, SVG Export Plug-In . SVG Version: 6.00 Build 0)  -->
<svg xmlns="http://www.w3.org/2000/svg" xmlns:xlink="http://www.w3.org/1999/xlink" version="1.1" id="Layer_2" x="0px" y="0px" viewBox="0 0 372.45 300.74" style="enable-background:new 0 0 372.45 300.74;" xml:space="preserve">
<style type="text/css">
	.st0{clip-path:url(#SVGID_00000068670056152145097830000015252901913124584872_);}
	.st1{fill-rule:evenodd;clip-rule:evenodd;fill:#231F20;}
	.st2{fill:#231F20;}
	.st3{fill:none;stroke:#231F20;stroke-width:1.5;}
	.st4{fill:#FFFFFF;}
	.st5{fill:url(#SVGID_00000000211633055497561500000017815230023958837657_);}
	.st6{fill:#2E2A2B;}
	.st7{clip-path:url(#SVGID_00000171678400391071116590000003478098030134274210_);}
	.st8{clip-path:url(#SVGID_00000062192646449919823160000004922227560740791992_);}
	.st9{fill:url(#SVGID_00000016057151502785135360000013429342255517782714_);}
	.st10{fill:url(#SVGID_00000109750792689070980630000014886444009973970321_);}
	.st11{fill:none;stroke:#EC1D2B;stroke-width:3;stroke-miterlimit:10;}
	.st12{clip-path:url(#SVGID_00000047041123538481796430000010925404303752847028_);}
	.st13{fill:url(#SVGID_00000145056759955224382220000001946543156709622670_);}
	.st14{fill:#231F20;stroke:#231F20;stroke-width:1.5;}
	.st15{fill:url(#SVGID_00000115479521563487102090000013747266759714511030_);}
	.st16{clip-path:url(#SVGID_00000111157942075614310470000011889081285887299484_);}
	.st17{fill:url(#SVGID_00000012471614127945457910000018360508282695140763_);}
	.st18{clip-path:url(#SVGID_00000162338138689596029440000001230801440335266229_);}
	.st19{clip-path:url(#SVGID_00000179645425880910903920000000164373544467125415_);}
	.st20{fill:url(#SVGID_00000024708929843056312910000004184594200230034563_);}
	.st21{fill:url(#SVGID_00000054260429599952117610000012019833576571772043_);}
	.st22{fill-rule:evenodd;clip-rule:evenodd;}
	.st23{clip-path:url(#SVGID_00000150797204572044943840000002935683288687794827_);}
	.st24{fill:url(#SVGID_00000119106530158239861210000018312849440322226846_);}
	.st25{fill:none;}
	.st26{font-family:'Helvetica';}
	.st27{font-size:22px;}
	.st28{clip-path:url(#SVGID_00000132049085231034792400000007054695739385450135_);}
	.st29{clip-path:url(#SVGID_00000005228650163244505310000010460454838741446040_);}
	.st30{fill:url(#SVGID_00000118390088391689593160000015399480160659196343_);}
	.st31{fill:url(#SVGID_00000139280847128400118140000009280482300682562440_);}
	.st32{clip-path:url(#SVGID_00000081614806154422994550000014502894653483344543_);}
	.st33{fill:#272324;}
	.st34{fill:#2D292A;}
	.st35{fill:#2C2829;}
	.st36{clip-path:url(#SVGID_00000170237087258035703520000014886559439199267213_);}
	.st37{fill:none;stroke:#231F20;stroke-width:1.25;}
	.st38{clip-path:url(#SVGID_00000052797877595769360310000007954497325188312988_);}
</style>
<g>
	<g>
		<defs>
			<rect id="SVGID_00000031888022872685415940000015102706557771286914_" x="9.21" y="10.18" width="352.85" height="192.32"></rect>
		</defs>
		<clipPath id="SVGID_00000181069900044885184580000012156707436545347772_">
			<use xlink:href="#SVGID_00000031888022872685415940000015102706557771286914_" style="overflow:visible;"></use>
		</clipPath>
		<g style="clip-path:url(#SVGID_00000181069900044885184580000012156707436545347772_);">
			<path class="st1" d="M96.53,37.21h37.84v2.38H97.49L68.4,67.91v41.22h-2.38V66.9L96.53,37.21z"></path>
			<path class="st1" d="M101.38,65.81c0-0.66,0.53-1.19,1.19-1.19h71.52c0.66,0,1.19,0.53,1.19,1.19s-0.53,1.19-1.19,1.19h-71.52     C101.92,67.01,101.38,66.47,101.38,65.81z"></path>
			<path class="st1" d="M160.27,140.92l-0.95,2.38h-13.83c-0.66,0-1.19-0.53-1.19-1.19s0.53-1.19,1.19-1.19H160.27z"></path>
			<path class="st1" d="M101.38,142.11c0-0.66,0.53-1.19,1.19-1.19h9.54c0.66,0,1.19,0.53,1.19,1.19s-0.53,1.19-1.19,1.19h-9.54     C101.92,143.3,101.38,142.77,101.38,142.11z"></path>
			<path class="st1" d="M123.63,142.11c0-0.66,0.53-1.19,1.19-1.19h9.54c0.66,0,1.19,0.53,1.19,1.19s-0.53,1.19-1.19,1.19h-9.54     C124.17,143.3,123.63,142.77,123.63,142.11z"></path>
			<path class="st1" d="M88.59,173.18h-54.4v-2.38h54.4V173.18z"></path>
			<g>
				<g>
					<path class="st2" d="M70.97,189.7c3.3,0.67,6.48,1.68,9.5,3l-0.11-5.01l3.78-3.4c-1.44-0.64-2.92-1.21-4.43-1.71l-2.13,6.28       c-1.94-0.66-3.93-1.2-5.97-1.62L70.97,189.7z"></path>
				</g>
				<g>
					<path class="st2" d="M51.34,187.25c-2.04,0.42-4.03,0.97-5.97,1.63l-2.13-6.3c-1.51,0.52-2.99,1.09-4.43,1.72l3.77,3.39       l-0.1,5.01c3.02-1.33,6.2-2.34,9.5-3.01L51.34,187.25z"></path>
				</g>
				<g>
					<path class="st1" d="M45.73,188.18l-2.6-7.65c5.77-1.91,11.96-2.94,18.37-2.94c6.4,0,12.56,1.03,18.32,2.92l-2.6,7.65       c-4.95-1.62-10.23-2.49-15.72-2.49C55.99,185.66,50.69,186.55,45.73,188.18z M51.38,183.65c-0.03-0.16-0.1-0.31-0.16-0.44       c-0.08-0.13-0.16-0.25-0.28-0.34c-0.12-0.1-0.25-0.16-0.41-0.21c-0.16-0.04-0.34-0.07-0.55-0.05c0.17-0.17,0.28-0.36,0.34-0.56       c0.05-0.21,0.05-0.44-0.01-0.71c-0.11-0.44-0.31-0.77-0.63-0.94c-0.31-0.18-0.71-0.22-1.21-0.1l-2.2,0.51l-0.16,1.21l0.53-0.13       l0.99,4.28l2.25-0.52c0.28-0.06,0.54-0.16,0.74-0.28c0.22-0.12,0.39-0.27,0.52-0.43c0.13-0.17,0.22-0.37,0.26-0.58       C51.44,184.13,51.44,183.89,51.38,183.65z M48.04,181.52l0.26-0.07c0.44-0.1,0.7,0.02,0.78,0.37c0.08,0.34-0.1,0.57-0.54,0.67       l-0.26,0.07L48.04,181.52z M49.82,184.37c-0.13,0.13-0.38,0.23-0.72,0.31l-0.3,0.07l-0.27-1.14l0.3-0.08       c0.36-0.09,0.61-0.1,0.79-0.04c0.17,0.05,0.28,0.18,0.33,0.38C49.99,184.08,49.95,184.24,49.82,184.37z M55.41,182.43       l2.01,2.04l-1.78,0.22l-1.62-1.94l0.26,2.11l-1.42,0.17l-0.54-4.36l-0.55,0.08l0.28-1.19l2.34-0.29       c0.31-0.04,0.58-0.03,0.82,0.03c0.25,0.07,0.44,0.16,0.61,0.3c0.16,0.14,0.3,0.3,0.4,0.5c0.1,0.19,0.16,0.4,0.19,0.64       c0.05,0.42,0,0.78-0.17,1.06C56.07,182.07,55.79,182.29,55.41,182.43z M54.17,181.78c0.28-0.04,0.49-0.12,0.63-0.26       c0.14-0.13,0.19-0.31,0.17-0.53c-0.03-0.21-0.13-0.38-0.29-0.47c-0.16-0.1-0.39-0.13-0.67-0.1l-0.27,0.03l0.16,1.36       L54.17,181.78z M61.56,178.81l-2.09,0.02l-0.42,1.14h0.54l-1.62,4.42l1.53-0.02l0.31-0.96l2.05-0.03l0.34,0.96l1.53-0.02       L61.56,178.81z M60.18,182.31l0.63-1.84l0.67,1.83L60.18,182.31z M70.02,181.85l-2.83-0.3l-0.11,1.09l1.18,0.13       c-0.04,0.16-0.11,0.29-0.18,0.4c-0.09,0.11-0.18,0.19-0.29,0.25c-0.11,0.07-0.24,0.1-0.37,0.12c-0.13,0.01-0.27,0.01-0.41,0       c-0.24-0.02-0.44-0.09-0.61-0.18c-0.17-0.1-0.31-0.23-0.42-0.39c-0.11-0.16-0.17-0.34-0.22-0.55       c-0.04-0.21-0.04-0.42-0.02-0.66c0.03-0.26,0.09-0.48,0.18-0.69c0.09-0.2,0.2-0.37,0.34-0.51c0.14-0.13,0.3-0.23,0.49-0.29       c0.18-0.05,0.38-0.08,0.59-0.05c0.26,0.02,0.49,0.12,0.67,0.27c0.18,0.15,0.32,0.39,0.42,0.7l1.41-0.42       c-0.19-0.55-0.5-0.97-0.91-1.26c-0.4-0.29-0.89-0.46-1.47-0.53c-0.44-0.04-0.85-0.02-1.23,0.09c-0.37,0.11-0.7,0.27-0.98,0.5       c-0.28,0.23-0.52,0.51-0.69,0.85c-0.17,0.34-0.29,0.72-0.33,1.15c-0.04,0.43-0.02,0.83,0.09,1.21c0.11,0.38,0.27,0.7,0.5,0.98       c0.23,0.28,0.51,0.51,0.84,0.69c0.33,0.17,0.71,0.29,1.14,0.33c0.31,0.03,0.61,0.02,0.91-0.02c0.29-0.05,0.56-0.14,0.81-0.26       c0.26-0.12,0.49-0.28,0.68-0.48c0.19-0.21,0.37-0.44,0.5-0.72c0.1-0.2,0.16-0.41,0.22-0.65       C69.95,182.39,69.99,182.14,70.02,181.85z M73.9,182.66l2.77,0.66c-0.06,0.28-0.14,0.54-0.22,0.76       c-0.08,0.23-0.18,0.43-0.3,0.62c-0.16,0.26-0.36,0.47-0.58,0.65c-0.23,0.17-0.46,0.31-0.73,0.4c-0.27,0.09-0.55,0.14-0.84,0.15       c-0.29,0.01-0.59-0.02-0.89-0.1c-0.42-0.1-0.79-0.26-1.1-0.47c-0.31-0.22-0.56-0.48-0.75-0.8c-0.18-0.31-0.31-0.66-0.37-1.03       c-0.05-0.38-0.03-0.79,0.06-1.21c0.1-0.42,0.26-0.79,0.47-1.1c0.22-0.31,0.49-0.57,0.79-0.75c0.31-0.18,0.66-0.31,1.03-0.37       c0.39-0.05,0.8-0.03,1.23,0.08c0.56,0.13,1.02,0.37,1.39,0.71c0.37,0.34,0.61,0.8,0.73,1.37l-1.46,0.24       c-0.05-0.32-0.16-0.57-0.33-0.75c-0.16-0.17-0.38-0.29-0.63-0.36c-0.2-0.05-0.41-0.05-0.6-0.02c-0.19,0.03-0.37,0.12-0.52,0.23       c-0.15,0.12-0.29,0.27-0.41,0.45c-0.12,0.18-0.2,0.41-0.27,0.66c-0.05,0.23-0.08,0.44-0.06,0.66c0.01,0.2,0.06,0.4,0.15,0.57       c0.09,0.17,0.2,0.31,0.37,0.44c0.16,0.12,0.36,0.21,0.58,0.26c0.14,0.03,0.27,0.05,0.41,0.05c0.14,0,0.26-0.02,0.38-0.07       c0.12-0.04,0.23-0.12,0.31-0.21c0.1-0.1,0.17-0.21,0.23-0.37l-1.15-0.27L73.9,182.66z M78.2,182.31c0.34,0,0.6-0.26,0.6-0.59       c0-0.34-0.26-0.59-0.6-0.59c-0.33,0-0.6,0.27-0.6,0.59C77.59,182.05,77.86,182.31,78.2,182.31z M78.21,182.19       c-0.27,0-0.46-0.22-0.46-0.47c0-0.26,0.19-0.48,0.46-0.46c0.26,0,0.45,0.22,0.45,0.47C78.66,181.98,78.47,182.19,78.21,182.19z        M77.97,182.02h0.14v-0.24h0.06c0.08,0,0.11,0.03,0.12,0.1c0.01,0.07,0.02,0.12,0.04,0.14h0.15c-0.01-0.02-0.02-0.06-0.04-0.15       c-0.02-0.08-0.05-0.12-0.11-0.14v-0.01c0.06-0.02,0.12-0.08,0.12-0.14c0-0.05-0.02-0.11-0.05-0.13       c-0.04-0.02-0.1-0.04-0.2-0.04c-0.1,0-0.17,0.01-0.23,0.02V182.02z M78.18,181.68h-0.06v-0.16c0.01-0.01,0.04-0.01,0.08-0.01       c0.09,0,0.13,0.03,0.13,0.09C78.32,181.66,78.25,181.68,78.18,181.68z"></path>
				</g>
				
					<linearGradient id="SVGID_00000080925362970970941990000000063518210210555553_" gradientUnits="userSpaceOnUse" x1="73.7531" y1="-2096.6023" x2="73.9149" y2="-2096.6023" gradientTransform="matrix(1 0 0 -1 0 -1906.4553)">
					<stop offset="0" style="stop-color:#ED1C24"></stop>
					<stop offset="0.2361" style="stop-color:#E91C24"></stop>
					<stop offset="0.4038" style="stop-color:#E11B22"></stop>
					<stop offset="0.5501" style="stop-color:#D41920"></stop>
					<stop offset="0.6844" style="stop-color:#C3161D"></stop>
					<stop offset="0.8103" style="stop-color:#AD1116"></stop>
					<stop offset="0.9285" style="stop-color:#92080B"></stop>
					<stop offset="1" style="stop-color:#810101"></stop>
				</linearGradient>
				<path style="fill:url(#SVGID_00000080925362970970941990000000063518210210555553_);" d="M73.76,190.13      c0.05,0.01,0.11,0.02,0.16,0.04v-0.02C73.86,190.14,73.81,190.13,73.76,190.13z"></path>
			</g>
			<path class="st1" d="M47.46,118.01c-0.33,1.07-0.42,4.91-0.42,6.69h13.88h0.75h13.88c0-1.78-0.08-5.62-0.42-6.69v-6.52     c-0.06-0.31-0.3-1-0.84-1.34c0-0.04,0-0.07,0-0.11v0c0.02-0.51,0.04-1.31-2.68-1.31h-9.95h-0.75h-9.95c-2.72,0-2.7,0.8-2.68,1.31     c0,0.04,0,0.08,0,0.11c-0.54,0.33-0.78,1.03-0.84,1.34V118.01z M49.22,111.07h0.5v9.81h-0.5V111.07z M52.56,111.07h0.5v9.81h-0.5     V111.07z M56.41,111.07h-0.5v9.81h0.5V111.07z M59.25,111.07h0.5v9.81h-0.5V111.07z M66.45,111.07h-0.5v9.81h0.5V111.07z      M69.29,111.07h0.5v9.81h-0.5V111.07z M63.1,111.07h-0.5v9.81h0.5V111.07z M72.64,111.07h0.5v9.81h-0.5V111.07z"></path>
			<path class="st2" d="M162.8,102.04h-47.51c0,9.84,7.98,17.82,17.82,17.82h11.88C154.82,119.86,162.8,111.88,162.8,102.04z"></path>
			<path class="st1" d="M114.49,101.25h49.1v0.79c0,10.28-8.33,18.61-18.61,18.61H133.1c-10.28,0-18.61-8.33-18.61-18.61V101.25z      M116.1,102.83c0.42,9.03,7.87,16.23,17,16.23h11.88c9.13,0,16.59-7.19,17-16.23H116.1z"></path>
			<path class="st1" d="M120.55,87.53c0.29,0.59,0.06,1.3-0.53,1.6c-0.24,0.12-0.4,0.21-0.52,0.35c-0.09,0.1-0.21,0.28-0.21,0.68     c0,0.21,0.05,0.29,0.07,0.33c0.06,0.09,0.14,0.17,0.41,0.4c0.23,0.2,0.57,0.52,0.84,0.99c0.28,0.49,0.43,1.07,0.43,1.77     c0,2.19-1.27,3.34-2.3,3.6c-0.64,0.16-1.29-0.23-1.45-0.87c-0.16-0.64,0.23-1.29,0.87-1.45c-0.01,0-0.01,0-0.01,0     c0-0.01,0.51-0.21,0.51-1.29c0-0.35-0.07-0.51-0.12-0.6c-0.06-0.11-0.15-0.21-0.36-0.39c-0.02-0.02-0.04-0.03-0.06-0.05     c-0.19-0.17-0.5-0.44-0.74-0.8c-0.3-0.45-0.47-0.99-0.47-1.65c0-1,0.34-1.75,0.83-2.29c0.44-0.49,0.96-0.74,1.2-0.86     c0.01,0,0.02-0.01,0.02-0.01C119.54,86.71,120.25,86.94,120.55,87.53z"></path>
			<path class="st1" d="M126.83,87.53c0.29,0.59,0.06,1.3-0.53,1.6c-0.24,0.12-0.4,0.21-0.52,0.35c-0.09,0.1-0.21,0.28-0.21,0.68     c0,0.21,0.05,0.29,0.07,0.33c0.06,0.09,0.14,0.17,0.41,0.4c0.23,0.2,0.57,0.52,0.84,0.99c0.28,0.49,0.43,1.07,0.43,1.77     c0,2.19-1.27,3.34-2.3,3.6c-0.64,0.16-1.29-0.23-1.45-0.87c-0.16-0.64,0.23-1.29,0.87-1.45c-0.01,0-0.01,0-0.01,0     c0-0.01,0.51-0.21,0.51-1.29c0-0.35-0.07-0.51-0.12-0.6c-0.06-0.11-0.15-0.21-0.36-0.39c-0.02-0.02-0.04-0.03-0.06-0.05     c-0.19-0.17-0.5-0.44-0.74-0.8c-0.3-0.45-0.47-0.99-0.47-1.65c0-1,0.34-1.75,0.83-2.29c0.44-0.49,0.96-0.74,1.2-0.86     c0.01,0,0.01-0.01,0.02-0.01C125.82,86.71,126.54,86.94,126.83,87.53z"></path>
			<path class="st1" d="M133.12,87.53c0.29,0.59,0.06,1.3-0.53,1.6c-0.24,0.12-0.4,0.21-0.52,0.35c-0.09,0.1-0.21,0.28-0.21,0.68     c0,0.21,0.05,0.29,0.07,0.33c0.06,0.09,0.14,0.17,0.41,0.4c0.23,0.2,0.57,0.52,0.84,0.99c0.28,0.49,0.43,1.07,0.43,1.77     c0,2.19-1.27,3.34-2.3,3.6c-0.64,0.16-1.29-0.23-1.45-0.87c-0.16-0.64,0.23-1.29,0.87-1.45c-0.01,0-0.01,0-0.01,0     c0-0.01,0.51-0.21,0.51-1.29c0-0.35-0.07-0.51-0.12-0.6c-0.06-0.11-0.15-0.21-0.36-0.39c-0.02-0.02-0.04-0.03-0.06-0.05     c-0.19-0.17-0.5-0.44-0.74-0.8c-0.3-0.45-0.47-0.99-0.47-1.65c0-1,0.34-1.75,0.83-2.29c0.44-0.49,0.96-0.74,1.2-0.86     c0.01,0,0.02-0.01,0.02-0.01C132.11,86.71,132.83,86.94,133.12,87.53z"></path>
			<path class="st1" d="M139.41,87.53c0.29,0.59,0.06,1.3-0.53,1.6c-0.24,0.12-0.4,0.21-0.52,0.35c-0.09,0.1-0.21,0.28-0.21,0.68     c0,0.21,0.05,0.29,0.07,0.33c0.06,0.09,0.14,0.17,0.41,0.4c0.23,0.2,0.57,0.52,0.84,0.99c0.28,0.49,0.43,1.07,0.43,1.77     c0,2.19-1.27,3.34-2.3,3.6c-0.64,0.16-1.29-0.23-1.45-0.87c-0.16-0.64,0.23-1.29,0.87-1.45c-0.01,0-0.01,0-0.01,0     c0-0.01,0.51-0.21,0.51-1.29c0-0.35-0.07-0.51-0.12-0.6c-0.06-0.11-0.15-0.21-0.36-0.39c-0.02-0.02-0.04-0.03-0.06-0.05     c-0.19-0.17-0.5-0.44-0.74-0.8c-0.3-0.45-0.47-0.99-0.47-1.65c0-1,0.34-1.75,0.83-2.29c0.44-0.49,0.96-0.74,1.2-0.86     c0.01,0,0.02-0.01,0.02-0.01C138.4,86.71,139.12,86.94,139.41,87.53z"></path>
			<path class="st1" d="M145.7,87.53c0.29,0.59,0.06,1.3-0.53,1.6c-0.24,0.12-0.4,0.21-0.52,0.35c-0.09,0.1-0.21,0.28-0.21,0.68     c0,0.21,0.05,0.29,0.07,0.33c0.06,0.09,0.14,0.17,0.41,0.4c0.23,0.2,0.57,0.52,0.84,0.99c0.28,0.49,0.43,1.07,0.43,1.77     c0,2.19-1.27,3.34-2.3,3.6c-0.64,0.16-1.29-0.23-1.45-0.87c-0.16-0.64,0.23-1.29,0.87-1.45c-0.01,0-0.01,0-0.01,0     c0-0.01,0.51-0.21,0.51-1.29c0-0.35-0.07-0.51-0.12-0.6c-0.06-0.11-0.15-0.21-0.36-0.39c-0.02-0.02-0.04-0.03-0.06-0.05     c-0.19-0.17-0.5-0.44-0.74-0.8c-0.3-0.45-0.47-0.99-0.47-1.65c0-1,0.34-1.75,0.83-2.29c0.44-0.49,0.96-0.74,1.2-0.86     c0.01,0,0.02-0.01,0.02-0.01C144.69,86.71,145.4,86.94,145.7,87.53z"></path>
			<path class="st1" d="M151.99,87.53c0.29,0.59,0.06,1.3-0.53,1.6c-0.24,0.12-0.4,0.21-0.52,0.35c-0.09,0.1-0.21,0.28-0.21,0.68     c0,0.21,0.05,0.29,0.07,0.33c0.06,0.09,0.14,0.17,0.41,0.4c0.23,0.2,0.57,0.52,0.84,0.99c0.28,0.49,0.43,1.07,0.43,1.77     c0,2.19-1.27,3.34-2.3,3.6c-0.64,0.16-1.29-0.23-1.45-0.87c-0.16-0.64,0.23-1.29,0.87-1.45c-0.01,0-0.01,0-0.01,0     c0-0.01,0.51-0.21,0.51-1.29c0-0.35-0.07-0.51-0.12-0.6c-0.06-0.11-0.15-0.21-0.36-0.39c-0.02-0.02-0.04-0.03-0.06-0.05     c-0.19-0.17-0.5-0.44-0.74-0.8c-0.3-0.45-0.47-0.99-0.47-1.65c0-1,0.34-1.75,0.83-2.29c0.44-0.49,0.96-0.74,1.2-0.86     c0.01,0,0.02-0.01,0.02-0.01C150.98,86.71,151.69,86.94,151.99,87.53z"></path>
			<path class="st1" d="M158.27,87.53c0.29,0.59,0.06,1.3-0.53,1.6c-0.24,0.12-0.4,0.21-0.52,0.35c-0.09,0.1-0.21,0.28-0.21,0.68     c0,0.21,0.05,0.29,0.07,0.33c0.06,0.09,0.14,0.17,0.41,0.4c0.23,0.2,0.57,0.52,0.84,0.99c0.28,0.49,0.43,1.07,0.43,1.77     c0,2.19-1.27,3.34-2.3,3.6c-0.64,0.16-1.29-0.23-1.45-0.87c-0.16-0.64,0.23-1.29,0.87-1.45c-0.01,0-0.01,0-0.01,0     c0-0.01,0.51-0.21,0.51-1.29c0-0.35-0.07-0.51-0.12-0.6c-0.06-0.11-0.15-0.21-0.36-0.39c-0.02-0.02-0.04-0.03-0.06-0.05     c-0.19-0.17-0.5-0.44-0.74-0.8c-0.3-0.45-0.47-0.99-0.47-1.65c0-1,0.34-1.75,0.83-2.29c0.44-0.49,0.96-0.74,1.2-0.86     c0.01,0,0.02-0.01,0.02-0.01C157.26,86.71,157.98,86.94,158.27,87.53z"></path>
			<path class="st1" d="M47.46,123.56h13.42l0.02,0H75.4c0.48,0,0.92,0.29,1.1,0.74c0.18,0.45,0.08,0.96-0.26,1.3l-0.31,0.31v0.99     c0,0.42-0.22,0.81-0.58,1.02l-0.66,0.39v2.21c0,2.46,1.13,5.58,1.75,6.92c0.67,1.04,3.05,4.93,7.74,13.09     c4.87,8.47,5.8,15.33,5.6,17.95v34.02H87.4v-34.07c0-0.03,0-0.07,0-0.1c0.17-1.98-0.56-8.39-5.29-16.62     c-4.82-8.38-7.16-12.2-7.71-13.05c-0.03-0.05-0.06-0.1-0.08-0.15c-0.66-1.4-2.01-4.97-2.01-8.01v-2.88     c0-0.42,0.22-0.81,0.58-1.02l0.66-0.39v-0.28H60.91l-0.02,0H49.31v0.28l0.66,0.39c0.36,0.22,0.58,0.6,0.58,1.02v2.88     c0,3.03-1.35,6.61-2.01,8.01c-0.02,0.05-0.05,0.1-0.08,0.15c-0.55,0.85-2.9,4.67-7.71,13.05c-4.73,8.22-5.45,14.63-5.29,16.62     c0,0.03,0,0.07,0,0.1v34.07h-2.38v-34.02c-0.2-2.62,0.73-9.48,5.6-17.95c4.69-8.16,7.07-12.06,7.74-13.09     c0.62-1.34,1.75-4.46,1.75-6.92v-2.21l-0.66-0.39c-0.36-0.22-0.58-0.6-0.58-1.02v-0.99l-0.31-0.31c-0.34-0.34-0.44-0.85-0.26-1.3     C46.54,123.85,46.98,123.56,47.46,123.56z"></path>
			<path class="st1" d="M208.27,129.39V43.56c0-2.19-1.78-3.97-3.97-3.97H99.39v20.66c0,4.83-3.91,8.74-8.74,8.74H68.4v39.74h-2.38     V66.61h24.64c3.51,0,6.36-2.85,6.36-6.36V37.21H204.3c3.51,0,6.36,2.85,6.36,6.36v85.83H208.27z"></path>
			<path class="st1" d="M159.06,168.08h155.46v34.42h2.38v-36.8H156.67v36.8h2.38V168.08z"></path>
			<path class="st1" d="M136.35,171.68h22.71v24.31l-22.71-6.68V171.68z M138.73,174.07v13.46l17.94,5.28v-18.74H138.73z"></path>
			<path class="st1" d="M337.62,171.68h-22.71v24.31l22.71-6.68V171.68z M335.23,174.07v13.46l-17.94,5.28v-18.74H335.23z"></path>
			<path class="st1" d="M314.51,150.75H159.06c-3.97,0-7.18,3.22-7.18,7.18c0,3.97,3.22,7.18,7.18,7.18h155.44     c3.97,0,7.18-3.22,7.18-7.18C321.69,153.96,318.47,150.75,314.51,150.75z M159.06,148.36c-5.28,0-9.57,4.28-9.57,9.57     c0,5.28,4.28,9.57,9.57,9.57h155.44c5.28,0,9.57-4.28,9.57-9.57c0-5.28-4.28-9.57-9.57-9.57H159.06z"></path>
			<path class="st1" d="M295.38,131.02H178.2c-9.76,0-17.82,7.31-18.99,16.75h155.16C313.19,138.33,305.14,131.02,295.38,131.02z      M316.77,147.77c-1.19-10.76-10.31-19.14-21.39-19.14H178.2c-11.08,0-20.21,8.37-21.39,19.14c-0.09,0.78-0.13,1.58-0.13,2.38     H316.9C316.9,149.35,316.85,148.56,316.77,147.77z"></path>
			<path class="st2" d="M226.02,127.44c0-5.94,4.82-10.76,10.76-10.76c5.94,0,10.76,4.82,10.76,10.76v3.59h-21.52V127.44z"></path>
			<path class="st1" d="M245.16,128.64v-1.2c0-4.63-3.75-8.38-8.38-8.38c-4.63,0-8.38,3.75-8.38,8.38v1.2H245.16z M236.79,116.68     c-5.94,0-10.76,4.82-10.76,10.76v3.59h21.52v-3.59C247.55,121.49,242.73,116.68,236.79,116.68z"></path>
			<path class="st1" d="M137.54,177.47h-34.97c-0.66,0-1.19,0.53-1.19,1.19s0.53,1.19,1.19,1.19h34.97V177.47z"></path>
			<path class="st1" d="M150.26,158.4h-47.68c-0.66,0-1.19,0.53-1.19,1.19s0.53,1.19,1.19,1.19h47.68V158.4z"></path>
		</g>
	</g>
</g>
<path class="st11" d="M319.19,298.82H53.7c-28.41,0-51.44-23.03-51.44-51.44V53.43c0-28.41,23.03-51.44,51.44-51.44h265.5  c28.41,0,51.44,23.03,51.44,51.44v193.95C370.63,275.79,347.6,298.82,319.19,298.82z"></path>
<rect x="28.02" y="229.36" class="st25" width="316.85" height="46.82"></rect>
<text transform="matrix(1 0 0 1 32.3607 245.1793)"><tspan x="0" y="0" class="st26 st27">Añádelo a tus recetas favoritas, </tspan><tspan x="69.71" y="26.4" class="st26 st27">saladas y dulces.</tspan></text>
<line class="st11" x1="2.04" y1="204.02" x2="370.63" y2="204.02"></line>
</svg>
