<?xml version="1.0" encoding="UTF-8"?>
<!-- Generator: Adobe Illustrator 27.0.0, SVG Export Plug-In . SVG Version: 6.00 Build 0)  -->
<svg xmlns="http://www.w3.org/2000/svg" xmlns:xlink="http://www.w3.org/1999/xlink" version="1.1" id="Layer_2" x="0px" y="0px" viewBox="0 0 372.45 300.74" style="enable-background:new 0 0 372.45 300.74;" xml:space="preserve">
<style type="text/css">
	.st0{clip-path:url(#SVGID_00000069359598790478844550000014743308765830736512_);}
	.st1{fill-rule:evenodd;clip-rule:evenodd;fill:#231F20;}
	.st2{fill:#231F20;}
	.st3{fill:none;stroke:#231F20;stroke-width:1.5;}
	.st4{fill:#FFFFFF;}
	.st5{fill:url(#SVGID_00000001641072702646844050000005880853413698905267_);}
	.st6{fill:#2E2A2B;}
	.st7{clip-path:url(#SVGID_00000101783439326352156630000007353289654451158974_);}
	.st8{clip-path:url(#SVGID_00000178179350226396423650000006046484470082371004_);}
	.st9{fill:url(#SVGID_00000034797188470347218780000016049657444544710020_);}
	.st10{fill:url(#SVGID_00000120530002567359386960000009370220469574539435_);}
	.st11{fill:none;stroke:#EC1D2B;stroke-width:3;stroke-miterlimit:10;}
	.st12{clip-path:url(#SVGID_00000054225588282916904160000009369100955202693566_);}
	.st13{fill:url(#SVGID_00000129909302190250309700000015620707797590316193_);}
	.st14{fill:#231F20;stroke:#231F20;stroke-width:1.5;}
	.st15{fill:url(#SVGID_00000135650431899033341340000001413016749689993098_);}
	.st16{clip-path:url(#SVGID_00000067237942229936840870000018207003295055769999_);}
	.st17{fill:url(#SVGID_00000080173009702061030050000017569863869753690754_);}
	.st18{clip-path:url(#SVGID_00000008106988314123570600000011500744046699963555_);}
	.st19{clip-path:url(#SVGID_00000013163829677279560270000011508120138827408536_);}
	.st20{fill:url(#SVGID_00000030473971636965510890000005457035291282079904_);}
	.st21{fill:url(#SVGID_00000140709753594036713910000007304007227943509427_);}
	.st22{fill-rule:evenodd;clip-rule:evenodd;}
	.st23{clip-path:url(#SVGID_00000164488586575141189410000006215029471526996877_);}
	.st24{fill:url(#SVGID_00000156584163184446461940000004974018518318718871_);}
	.st25{clip-path:url(#SVGID_00000081605544884586306140000004375730327049691565_);}
	.st26{clip-path:url(#SVGID_00000094594057208832206810000017192531477849456269_);}
	.st27{fill:url(#SVGID_00000047753254645401094490000008207738741517267843_);}
	.st28{fill:none;}
	.st29{font-family:'Helvetica';}
	.st30{font-size:22px;}
	.st31{fill:url(#SVGID_00000170251472216894208300000013642450661180390291_);}
	.st32{clip-path:url(#SVGID_00000165950533118302846960000002298597559575745939_);}
	.st33{fill:#272324;}
	.st34{fill:#2D292A;}
	.st35{fill:#2C2829;}
	.st36{clip-path:url(#SVGID_00000024721572092689328550000012276008465659155851_);}
	.st37{fill:none;stroke:#231F20;stroke-width:1.25;}
	.st38{clip-path:url(#SVGID_00000139990233699821727770000006285850547841323193_);}
</style>
<g>
	<path class="st6" d="M309.75,202.82c-1.88,0.41-2.23-0.43-2.21-2.2c0.09-9.35,0-18.71,0.08-28.06c0.02-1.69-0.52-2.06-2.11-2.05   c-56.08,0.04-112.15,0.04-168.23-0.01c-1.57,0-1.96,0.41-1.95,1.96c0.07,9.49,0.04,18.98,0.03,28.47c0,0.88,0.42,1.94-1.28,1.94   c-1.73,0-1.23-1.11-1.23-1.95c-0.02-10.25,0.03-20.51-0.05-30.76c-0.01-1.68,0.34-2.28,2.13-2.2c3.28,0.14,3.29,0.03,2.63-3.25   c-1.4-6.98-1.41-13.92,2.62-20.05c4.45-6.77,10.51-11.38,19.11-11.38c1.27,0,1.6-0.65,2.02-1.59c2.66-5.99,6.61-10.57,13.45-11.73   c6.39-1.08,11.91,0.6,16.35,5.66c0.6-0.71,0.36-1.48,0.36-2.17c0.02-13.58,0.04-27.16-0.03-40.74c-0.01-1.67,0.32-2.22,2.12-2.18   c19.37,0.51,40.7,12.13,46.7,37.93c0.74,3.17,0.73,3.17,3.86,2.14c25.86-8.51,53.53,9.56,56.15,36.63   c0.29,3.05,0.39,6.08-0.06,9.11c-0.18,1.21,0.02,1.76,1.44,1.68c2.69-0.14,5.4-0.1,8.1-0.14   C309.75,179.54,309.75,191.18,309.75,202.82z M194.02,125.71c0,13.44,0.03,26.88-0.04,40.32c-0.01,1.67,0.48,2.05,2.07,2.02   c5.33-0.1,10.67-0.04,16.01-0.04c2.59,0,2.65-0.01,2.36-2.68c-0.36-3.33-0.24-6.65,0.3-9.94c2.35-14.32,9.96-24.95,22.68-31.91   c0.82-0.45,1.17-0.77,0.98-1.86c-3.69-21.39-20.92-37.01-42.45-38.48c-1.57-0.11-1.95,0.25-1.95,1.83   C194.05,98.55,194.02,112.13,194.02,125.71z M166.15,168.01c7.76,0,15.52-0.04,23.29,0.03c1.56,0.01,2.11-0.31,2.1-2.02   c-0.09-10.74-0.06-21.47-0.03-32.21c0-1.79-0.48-3.42-1.34-4.94c-4.65-8.21-17.08-9.09-23.26-1.65c-1.7,2.04-3.05,4.32-3.82,6.84   c-0.45,1.49-1.19,1.81-2.65,1.76c-7.96-0.28-16.2,4.98-19.31,12.29c-2.53,5.94-2.14,12-0.64,18.12c0.34,1.4,0.92,1.83,2.38,1.81   C150.62,167.97,158.38,168.01,166.15,168.01z M216.73,161.76c0.05,6.3,0.05,6.26,5.71,6.28c1.45,0.01,1.94-0.13,1.74-1.89   c-2.57-22.08,14.7-39.76,36.81-37.81c17.17,1.52,30.89,17.4,29.97,34.65c-0.09,1.65-1.23,3.89,0.03,4.81   c1.14,0.83,3.34,0.15,5.07,0.23c1.12,0.05,1.54-0.3,1.67-1.48c0.9-8.13-0.42-15.83-4.09-23.15c-8.49-16.92-27.53-25.67-46.12-21.15   C229.63,126.6,216.58,143.35,216.73,161.76z M226.32,161.6c0.1,1.45,0.25,2.9,0.29,4.35c0.05,1.64,0.74,2.32,2.44,2.1   c1.23-0.16,2.5-0.1,3.74-0.01c1.18,0.08,1.44-0.35,1.18-1.43c-0.57-2.38-0.63-4.78-0.42-7.22c1.08-12.52,12.57-22.58,24.8-21.66   c13.78,1.03,23.81,12.05,23.03,25.24c-0.1,1.67-1.41,3.95-0.28,4.8c1.16,0.87,3.46,0.17,5.25,0.28c1.18,0.08,1.57-0.43,1.72-1.5   c0.47-3.32,0.5-6.63-0.04-9.93c-2.52-15.54-17.05-27.13-32.42-25.89C238.75,132.07,226.4,145.12,226.32,161.6z M244.16,168.01   c-1.93-9.27-0.5-14.35,4.99-18.11c4.91-3.36,11.18-3.61,16-0.28c6.61,4.56,7.96,10.87,5.34,18.39c1.7,0,3.22,0,4.73,0   c2.96,0,2.96,0,3.34-3.05c1.84-14.6-9.39-26.06-24.02-24.52c-12.31,1.29-21.19,14.21-18.03,26.22c0.18,0.69,0.26,1.37,1.22,1.36   C239.87,168,241.99,168.01,244.16,168.01z M257.36,168.01c2.91,0,5.81-0.05,8.72,0.03c1.08,0.03,1.61-0.41,2.05-1.32   c2.27-4.64,0.93-10.88-3.09-14.14c-4.53-3.67-10.75-3.67-15.28,0.01c-4.05,3.29-5.4,9.46-3.15,14.1c0.49,1.02,1.11,1.39,2.24,1.35   C251.68,167.96,254.52,168.01,257.36,168.01z"></path>
	<path class="st6" d="M148,2.85c1.35-0.34,2.81,0.19,4.29,1.69c6.87,6.94,13.87,13.75,20.82,20.61c0.6,0.59,1.24,1.05,2.01,1.42   c4.01,1.96,5.77,5.13,5.31,9.58c-0.09,0.89-0.04,1.62,0.75,2.19c0.77,0.56,1.1,1.18,0.12,1.91c-0.86,0.65-0.07,1.04,0.32,1.43   c2.29,2.31,4.61,4.6,6.9,6.91c2,2.02,2.06,3.7,0.03,5.73c-10.76,10.79-21.54,21.57-32.33,32.32c-2.07,2.06-3.75,2.02-5.88-0.07   c-2.17-2.14-4.33-4.29-6.44-6.49c-0.81-0.84-1.47-1.43-2.36-0.13c-0.64,0.94-1.28,0.81-1.96-0.03c-0.48-0.59-1-0.94-1.94-0.8   c-4.52,0.66-8.01-1.26-9.89-5.4c-0.36-0.78-0.83-1.4-1.42-1.99C105.98,51.16,85.61,30.58,65.27,9.98   c-0.41-0.42-1.65-0.77-0.76-1.67c0.71-0.72,1.54-1.2,2.6-0.07c2.7,2.88,5.59,5.58,8.3,8.44c0.87,0.92,1.26,1.05,2.13,0   c3.57-4.33,7.58-8.26,11.39-12.37c1.4-1.51,2.85-1.57,4.87-1.36c-3.37,3.52-6.59,6.82-9.75,10.18c-1.61,1.71-3.05,3.59-4.73,5.23   c-1.05,1.03-0.75,1.58,0.13,2.46c9.58,9.62,19.11,19.28,28.66,28.93c5.36,5.41,10.76,10.8,16.06,16.27c0.98,1.02,1.45,0.95,2.4,0   c13.54-13.59,27.11-27.16,40.72-40.69c0.95-0.95,0.94-1.45,0.01-2.4C160.79,16.23,154.34,9.46,148,2.85z M178.05,35.14   c0.12-2.73-1.4-5.15-3.95-6.22c-0.92-0.39-1.77-0.81-2.33-1.61c-1.08-1.51-1.85-1.1-3.01,0.06   c-13.08,13.16-26.22,26.26-39.34,39.37c-2.11,2.11-2.1,2.1-0.27,4.3c0.34,0.42,0.64,0.9,0.85,1.39c1.5,3.49,4.13,4.88,7.8,4.13   c0.69-0.14,1.49-0.69,2.12,0.08c0.7,0.86,1.11,0.29,1.61-0.21c12.04-12.04,24.08-24.08,36.12-36.12c0.32-0.32,1.02-0.83,0.68-1.13   C176.71,37.8,178.32,36.33,178.05,35.14z M187.47,51.23c-0.26-0.3-0.55-0.67-0.88-1.01c-2.2-2.21-4.44-4.37-6.58-6.63   c-0.82-0.87-1.3-0.81-2.12,0.02c-10.79,10.84-21.6,21.65-32.45,32.42c-0.89,0.88-0.73,1.36,0.06,2.13   c2.23,2.17,4.44,4.37,6.58,6.63c0.97,1.02,1.67,0.85,2.57-0.05c10.65-10.68,21.33-21.33,31.99-32   C187.02,52.35,187.43,51.96,187.47,51.23z"></path>
	<path class="st6" d="M188.9,63.55c1.45,0.02,2.7,1.26,2.6,2.67c-0.12,1.61-1.1,2.6-2.68,2.58c-1.59-0.02-2.53-1.02-2.58-2.66   C186.19,64.73,187.47,63.53,188.9,63.55z"></path>
	<path class="st6" d="M201.19,71.21c-0.03-1.41,1.17-2.65,2.6-2.67c1.45-0.02,2.73,1.16,2.68,2.59c-0.06,1.62-1.02,2.54-2.6,2.69   C202.48,73.94,201.22,72.65,201.19,71.21z"></path>
	<path class="st6" d="M188.19,79.57c-0.16,1.5-1.05,2.52-2.64,2.54c-1.59,0.02-2.56-0.97-2.65-2.6c-0.08-1.41,1.18-2.64,2.61-2.65   C186.97,76.85,188.18,78.03,188.19,79.57z"></path>
	<path class="st6" d="M170.52,78.52c1.45-0.03,2.74,1.15,2.68,2.58c-0.06,1.62-1.02,2.55-2.6,2.69c-1.39,0.13-2.65-1.16-2.68-2.6   C167.88,79.78,169.09,78.55,170.52,78.52z"></path>
	<path class="st6" d="M182.28,88.5c1.45,0.04,2.69,1.28,2.57,2.7c-0.14,1.61-1.13,2.59-2.71,2.55c-1.59-0.04-2.52-1.05-2.55-2.69   C179.55,89.64,180.84,88.46,182.28,88.5z"></path>
	<path class="st6" d="M167.91,99.32c0.15-1.55,1.51-2.65,2.92-2.49c1.45,0.15,2.53,1.48,2.36,2.89c-0.16,1.39-1.57,2.6-2.91,2.37   C168.72,101.8,167.9,100.8,167.91,99.32z"></path>
	<g>
		<path class="st1" d="M118.3,42.23c3.3-1.3,6.5-2.95,9.53-4.96l1.39,2.36c-1.87,1.23-3.81,2.34-5.79,3.32l3.17,6.42    c-1.54,0.76-3.1,1.45-4.69,2.07l0.3-5.47L118.3,42.23z"></path>
		<path class="st1" d="M144.66,24.17c1.23-1.87,2.33-3.81,3.31-5.8l6.43,3.17c0.76-1.55,1.45-3.11,2.06-4.69l-5.46,0.3l-3.75-3.9    c-1.29,3.31-2.94,6.51-4.95,9.53L144.66,24.17z"></path>
		<g>
			<path class="st1" d="M144.29,39.29c4.89-4.89,8.81-10.39,11.76-16.25l-7.82-3.85c-2.54,5.03-5.91,9.74-10.1,13.94     c-4.19,4.19-8.88,7.55-13.89,10.09l3.85,7.82C133.93,48.08,139.4,44.17,144.29,39.29z M146.82,26.45     c-0.13-0.2-0.21-0.41-0.25-0.64c-0.02-0.22-0.01-0.47,0.07-0.72c0.07-0.25,0.19-0.52,0.35-0.78l1.32-2.11l4.02,2.51l0.3-0.5     l0.8,1.04l-1.29,2.06c-0.29,0.47-0.62,0.75-0.99,0.85c-0.37,0.11-0.77,0.02-1.19-0.24c-0.26-0.16-0.44-0.34-0.55-0.53     c-0.11-0.21-0.16-0.43-0.16-0.69c-0.15,0.16-0.3,0.29-0.46,0.38c-0.16,0.09-0.3,0.14-0.47,0.16s-0.32-0.01-0.48-0.05     c-0.15-0.05-0.31-0.12-0.46-0.21C147.14,26.81,146.96,26.63,146.82,26.45z M143.34,29.41l2.71,0.25l-1.81-1.41l0.95-1.22     l3.73,2.91l0.36-0.48l0.69,1.12l-1.56,2.01c-0.21,0.27-0.42,0.47-0.65,0.6c-0.24,0.14-0.46,0.21-0.7,0.24     c-0.23,0.02-0.46,0-0.68-0.07c-0.22-0.07-0.43-0.18-0.63-0.34c-0.36-0.28-0.59-0.59-0.67-0.94c-0.08-0.35-0.03-0.72,0.15-1.12     l-3.08-0.02L143.34,29.41z M138.59,34.68l0.99,0.47l1.54-1.59l-0.49-0.97l1.15-1.18l2.14,4.6l0.41-0.41l0.55,1.19l-1.58,1.61     l-5.86-2.54L138.59,34.68z M134.03,41.85c-0.14-0.22-0.26-0.44-0.33-0.66c-0.11-0.31-0.16-0.63-0.17-0.93     c-0.01-0.3,0.04-0.6,0.15-0.89c0.1-0.28,0.24-0.55,0.42-0.81c0.19-0.25,0.41-0.49,0.67-0.71c0.36-0.3,0.74-0.49,1.13-0.62     c0.39-0.12,0.78-0.16,1.17-0.11c0.39,0.04,0.76,0.16,1.13,0.37c0.37,0.21,0.69,0.49,0.99,0.85c0.3,0.36,0.49,0.74,0.62,1.13     c0.13,0.39,0.16,0.79,0.12,1.18c-0.04,0.39-0.17,0.76-0.37,1.13c-0.2,0.37-0.5,0.7-0.87,1c-0.49,0.39-1,0.63-1.52,0.72     c-0.53,0.09-1.08,0-1.65-0.27l0.76-1.4c0.31,0.16,0.6,0.24,0.85,0.21c0.25-0.02,0.5-0.12,0.71-0.3c0.18-0.15,0.31-0.31,0.41-0.49     c0.09-0.19,0.14-0.39,0.15-0.59c0-0.21-0.03-0.43-0.12-0.65c-0.08-0.23-0.21-0.44-0.39-0.67c-0.16-0.2-0.33-0.36-0.52-0.49     c-0.19-0.12-0.38-0.21-0.58-0.25c-0.21-0.04-0.41-0.03-0.62,0.02c-0.21,0.06-0.41,0.16-0.61,0.33c-0.12,0.1-0.22,0.2-0.31,0.31     c-0.08,0.11-0.16,0.24-0.19,0.37c-0.04,0.12-0.05,0.26-0.03,0.41c0.02,0.14,0.07,0.29,0.16,0.44l0.99-0.8l0.75,0.91l-2.39,1.93     C134.34,42.3,134.17,42.07,134.03,41.85z M127.92,45.74c-0.11-0.23-0.19-0.47-0.24-0.7c-0.07-0.32-0.09-0.63-0.05-0.94     c0.04-0.31,0.12-0.59,0.26-0.86c0.14-0.27,0.31-0.53,0.53-0.76c0.21-0.23,0.47-0.44,0.76-0.61c0.39-0.25,0.8-0.4,1.2-0.48     c0.4-0.07,0.8-0.06,1.18,0.03c0.38,0.1,0.74,0.26,1.07,0.51c0.33,0.25,0.63,0.57,0.87,0.97c0.25,0.4,0.4,0.8,0.48,1.2     c0.07,0.4,0.07,0.81-0.02,1.17c-0.1,0.38-0.26,0.74-0.51,1.07c-0.25,0.34-0.58,0.63-0.99,0.88c-0.53,0.33-1.06,0.5-1.6,0.52     c-0.54,0.02-1.08-0.14-1.6-0.48l0.93-1.29c0.29,0.21,0.56,0.31,0.83,0.32c0.25,0.01,0.51-0.07,0.75-0.21     c0.2-0.12,0.35-0.27,0.48-0.44c0.12-0.17,0.19-0.37,0.22-0.57c0.03-0.21,0.02-0.43-0.03-0.66c-0.05-0.23-0.16-0.47-0.29-0.71     c-0.13-0.21-0.28-0.39-0.45-0.55c-0.16-0.15-0.35-0.26-0.55-0.32c-0.2-0.07-0.4-0.08-0.62-0.06c-0.21,0.03-0.43,0.11-0.64,0.25     c-0.13,0.08-0.25,0.16-0.35,0.27c-0.11,0.11-0.18,0.21-0.24,0.34c-0.06,0.12-0.08,0.26-0.08,0.39c0,0.15,0.03,0.3,0.11,0.45     l1.09-0.67l0.58,1.06l-2.62,1.61C128.18,46.22,128.04,45.97,127.92,45.74z M127.95,48.42c0.25-0.25,0.66-0.26,0.91-0.01     c0.25,0.25,0.25,0.66-0.01,0.91c-0.26,0.26-0.66,0.26-0.91,0.01C127.69,49.08,127.69,48.69,127.95,48.42z"></path>
			<path class="st1" d="M150.53,26.59c0.32,0.21,0.61,0.1,0.87-0.31l0.15-0.25l-0.97-0.61l-0.15,0.25     C150.17,26.08,150.21,26.38,150.53,26.59z"></path>
			<path class="st1" d="M148.84,25.72c0.17-0.09,0.36-0.3,0.57-0.63l0.17-0.29l-1.08-0.67l-0.17,0.29c-0.2,0.33-0.31,0.59-0.31,0.79     c0,0.2,0.09,0.35,0.28,0.48C148.49,25.8,148.67,25.81,148.84,25.72z"></path>
			<path class="st1" d="M147.25,31.85c0.2-0.05,0.39-0.2,0.58-0.44l0.18-0.23l-1.16-0.91l-0.18,0.23c-0.18,0.25-0.28,0.46-0.28,0.67     c-0.01,0.2,0.09,0.39,0.27,0.53C146.85,31.85,147.05,31.9,147.25,31.85z"></path>
			<polygon class="st1" points="141.69,34.69 140.71,35.68 142.61,36.57    "></polygon>
			<path class="st1" d="M128.75,49.24c0.21-0.2,0.2-0.51,0-0.71c-0.2-0.2-0.51-0.21-0.72-0.01c-0.2,0.2-0.19,0.5,0.01,0.7     C128.24,49.42,128.55,49.43,128.75,49.24z M128.06,48.75c0.03,0,0.08,0.03,0.14,0.07c0.06,0.04,0.11,0.04,0.17-0.02l0.05-0.05     l-0.18-0.18l0.11-0.11l0.45,0.45c-0.03,0.05-0.08,0.12-0.16,0.19c-0.08,0.08-0.14,0.11-0.19,0.12c-0.04,0.01-0.1-0.02-0.14-0.06     c-0.05-0.05-0.05-0.13-0.02-0.2l-0.01-0.01c-0.06,0.03-0.12,0.02-0.19-0.02c-0.08-0.05-0.12-0.07-0.15-0.08L128.06,48.75z"></path>
			<path class="st1" d="M128.57,49.02c0.03-0.03,0.05-0.05,0.05-0.07l-0.12-0.12l-0.05,0.05c-0.06,0.06-0.09,0.12-0.04,0.17     C128.44,49.1,128.5,49.09,128.57,49.02z"></path>
		</g>
	</g>
</g>
<path class="st11" d="M319.19,298.82H53.7c-28.41,0-51.44-23.03-51.44-51.44V53.43c0-28.41,23.03-51.44,51.44-51.44h265.5  c28.41,0,51.44,23.03,51.44,51.44v193.95C370.63,275.79,347.6,298.82,319.19,298.82z"></path>
<rect x="35.77" y="229.36" class="st28" width="301.13" height="46.82"></rect>
<text transform="matrix(1 0 0 1 35.9075 245.1789)"><tspan x="0" y="0" class="st29 st30">Espolvoréala sobre ensaladas, </tspan><tspan x="66.05" y="26.4" class="st29 st30">verduras y pasta. </tspan></text>
<line class="st11" x1="2.04" y1="204.02" x2="370.63" y2="204.02"></line>
</svg>
