<?xml version="1.0" encoding="UTF-8"?>
<!-- Generator: Adobe Illustrator 27.0.0, SVG Export Plug-In . SVG Version: 6.00 Build 0)  -->
<svg xmlns="http://www.w3.org/2000/svg" xmlns:xlink="http://www.w3.org/1999/xlink" version="1.1" id="Layer_2" x="0px" y="0px" viewBox="0 0 372.45 300.74" style="enable-background:new 0 0 372.45 300.74;" xml:space="preserve">
<style type="text/css">
	.st0{clip-path:url(#SVGID_00000027563638728824169270000002330134651456530591_);}
	.st1{fill-rule:evenodd;clip-rule:evenodd;fill:#231F20;}
	.st2{fill:#231F20;}
	.st3{fill:none;stroke:#231F20;stroke-width:1.5;}
	.st4{fill:#FFFFFF;}
	.st5{fill:url(#SVGID_00000115506888854398794460000010096561145700993691_);}
	.st6{fill:#2E2A2B;}
	.st7{clip-path:url(#SVGID_00000080200416594417387860000005056470673572320442_);}
	.st8{clip-path:url(#SVGID_00000112622661963749643790000008790776762038168960_);}
	.st9{fill:url(#SVGID_00000157308165629016423170000005925822297710687127_);}
	.st10{fill:url(#SVGID_00000034080378135133739520000012265394217774137237_);}
	.st11{fill:none;stroke:#EC1D2B;stroke-width:3;stroke-miterlimit:10;}
	.st12{clip-path:url(#SVGID_00000161621594268928717700000004626217848782057918_);}
	.st13{fill:url(#SVGID_00000036215776016779158610000017094726165114820519_);}
	.st14{fill:#231F20;stroke:#231F20;stroke-width:1.5;}
	.st15{fill:url(#SVGID_00000003097298747003770440000012212661371848766904_);}
	.st16{clip-path:url(#SVGID_00000073711083455399131320000000698279194115726270_);}
	.st17{fill:none;}
	.st18{font-family:'Helvetica';}
	.st19{font-size:22px;}
	.st20{fill:url(#SVGID_00000092436555418322585630000006463949830464652983_);}
	.st21{clip-path:url(#SVGID_00000049903496618192345930000002765136237380052912_);}
	.st22{clip-path:url(#SVGID_00000098916988640774286930000010156376845017650622_);}
	.st23{fill:url(#SVGID_00000038382503273503906720000011582955979918535332_);}
	.st24{fill:url(#SVGID_00000131357210442705274170000016269006290823154336_);}
	.st25{fill-rule:evenodd;clip-rule:evenodd;}
	.st26{clip-path:url(#SVGID_00000073711476923863049560000000576327159315901363_);}
	.st27{fill:url(#SVGID_00000178899982264874308550000002375802326431135931_);}
	.st28{clip-path:url(#SVGID_00000067207824380583808190000005703800345833866931_);}
	.st29{clip-path:url(#SVGID_00000033361613799649723820000011190687209497361585_);}
	.st30{fill:url(#SVGID_00000130630299110095795760000015425305398031173772_);}
	.st31{fill:url(#SVGID_00000096740447798532592500000005308923847173685914_);}
	.st32{clip-path:url(#SVGID_00000099639152558757889950000002518074544762882203_);}
	.st33{fill:#272324;}
	.st34{fill:#2D292A;}
	.st35{fill:#2C2829;}
	.st36{clip-path:url(#SVGID_00000079447200715141992840000014312900233235076774_);}
	.st37{fill:none;stroke:#231F20;stroke-width:1.25;}
	.st38{clip-path:url(#SVGID_00000034065739417475948550000016337825856672509836_);}
</style>
<path class="st11" d="M319.19,298.82H53.7c-28.41,0-51.44-23.03-51.44-51.44V53.43c0-28.41,23.03-51.44,51.44-51.44h265.5  c28.41,0,51.44,23.03,51.44,51.44v193.95C370.63,275.79,347.6,298.82,319.19,298.82z"></path>
<rect x="30.94" y="228.97" class="st17" width="311.01" height="46.82"></rect>
<text transform="matrix(1 0 0 1 33.5798 244.7895)"><tspan x="0" y="0" class="st18 st19">Mezcla 1 cucharada de vinagre</tspan><tspan x="64.5" y="26.4" class="st18 st19">+ 250 ml de agua. </tspan></text>
<g>
	<path class="st1" d="M193.5,34.79h91.85l-13.92,143.76c-0.43,4.39-4.11,7.73-8.52,7.73H217.1c-4.38,0-8.05-3.31-8.51-7.66   L193.5,34.79z M199.32,64.36l11.96,113.98c0.31,2.98,2.82,5.24,5.82,5.24h45.81c3.02,0,5.54-2.29,5.83-5.29l11.03-113.93H199.32z    M199.04,61.65h81l2.34-24.16H196.5L199.04,61.65z M114.37,173.56c-1.22-10.97-4.88-70.72-4.88-75.6c0-4.88,1.22-9.75,7.32-14.63   c6.1-4.88,7.32-12.19,7.32-18.29s-4.88-30.48-18.29-30.48S87.54,58.94,87.54,65.03c0,6.1,1.22,13.41,7.32,18.29   c6.1,4.88,7.32,9.76,7.32,14.63c0,4.88-3.66,64.63-4.88,75.6c-0.98,8.78,5.28,11.79,8.54,12.19l0-147.84v147.84   C109.08,185.35,115.34,182.34,114.37,173.56z M160.65,96.85c0.88,0,1.6,0.72,1.6,1.6v9.07h9.08c0.88,0,1.6,0.72,1.6,1.6   c0,0.88-0.72,1.6-1.6,1.6h-9.08v9.07c0,0.88-0.72,1.6-1.6,1.6s-1.6-0.72-1.6-1.6v-9.07h-9.07c-0.88,0-1.6-0.72-1.6-1.6   c0-0.88,0.72-1.6,1.6-1.6h9.07v-9.07C159.04,97.57,159.76,96.85,160.65,96.85z"></path>
</g>
<line class="st11" x1="2.04" y1="204.02" x2="370.63" y2="204.02"></line>
</svg>
