<?xml version="1.0" encoding="UTF-8"?>
<!-- Generator: Adobe Illustrator 27.0.0, SVG Export Plug-In . SVG Version: 6.00 Build 0)  -->
<svg xmlns="http://www.w3.org/2000/svg" xmlns:xlink="http://www.w3.org/1999/xlink" version="1.1" id="Layer_2" x="0px" y="0px" viewBox="0 0 372.45 300.74" style="enable-background:new 0 0 372.45 300.74;" xml:space="preserve">
<style type="text/css">
	.st0{clip-path:url(#SVGID_00000138560545195922486360000002276563864632445570_);}
	.st1{fill-rule:evenodd;clip-rule:evenodd;fill:#231F20;}
	.st2{fill:#231F20;}
	.st3{fill:none;stroke:#231F20;stroke-width:1.5;}
	.st4{fill:#FFFFFF;}
	.st5{fill:url(#SVGID_00000070837929679721721960000008160165261274828697_);}
	.st6{fill:#2E2A2B;}
	.st7{clip-path:url(#SVGID_00000090293561073227197470000011624546516854936962_);}
	.st8{clip-path:url(#SVGID_00000065753650935763990660000014981399608090704274_);}
	.st9{fill:url(#SVGID_00000113328412036683584810000004380653473108520625_);}
	.st10{fill:url(#SVGID_00000160187019140554726050000008280767441935086720_);}
	.st11{fill:none;stroke:#EC1D2B;stroke-width:3;stroke-miterlimit:10;}
	.st12{clip-path:url(#SVGID_00000026878296435573270340000015087336349413602443_);}
	.st13{fill:url(#SVGID_00000018943021507789807530000018322194380432333980_);}
	.st14{fill:#231F20;stroke:#231F20;stroke-width:1.5;}
	.st15{fill:url(#SVGID_00000135656918905532840150000016582653857418760577_);}
	.st16{clip-path:url(#SVGID_00000109008109891883406360000015421211018251694522_);}
	.st17{fill:url(#SVGID_00000069372539910180488710000015680056560808404127_);}
	.st18{clip-path:url(#SVGID_00000002353472093709562570000003986544332453995688_);}
	.st19{clip-path:url(#SVGID_00000003100929800902157930000017347674122486991526_);}
	.st20{fill:url(#SVGID_00000029748430424232336290000013199155751125028249_);}
	.st21{fill:none;}
	.st22{font-family:'Helvetica';}
	.st23{font-size:22px;}
	.st24{fill:url(#SVGID_00000088855391988136911210000010944061501181127054_);}
	.st25{fill-rule:evenodd;clip-rule:evenodd;}
	.st26{clip-path:url(#SVGID_00000040573781548547770630000014546962925343113649_);}
	.st27{fill:url(#SVGID_00000147937999277475711680000006681510711551276469_);}
	.st28{clip-path:url(#SVGID_00000139995474330912008350000010671260902139939992_);}
	.st29{clip-path:url(#SVGID_00000016054388087151334840000014713956227193190034_);}
	.st30{fill:url(#SVGID_00000035521392940110441900000000821330587345738388_);}
	.st31{fill:url(#SVGID_00000124864685699127358760000014153042025266581170_);}
	.st32{clip-path:url(#SVGID_00000039853202671650873080000014901853831388256656_);}
	.st33{fill:#272324;}
	.st34{fill:#2D292A;}
	.st35{fill:#2C2829;}
	.st36{clip-path:url(#SVGID_00000067957923834339980150000015364808702666860197_);}
	.st37{fill:none;stroke:#231F20;stroke-width:1.25;}
	.st38{clip-path:url(#SVGID_00000181071444785681347390000007589514497664112523_);}
</style>
<g>
	<g>
		<defs>
			<rect id="SVGID_00000039819941352154597530000012898288612499762100_" x="2.58" y="2.22" width="367.73" height="200.43"></rect>
		</defs>
		<clipPath id="SVGID_00000087408091440148742560000016989534170954464145_">
			<use xlink:href="#SVGID_00000039819941352154597530000012898288612499762100_" style="overflow:visible;"></use>
		</clipPath>
		<g style="clip-path:url(#SVGID_00000087408091440148742560000016989534170954464145_);">
			<path class="st1" d="M265.5,98.68c0.56-0.4,1.34-0.26,1.73,0.3l31.95,45.31c0.4,0.56,0.26,1.34-0.3,1.73     c-0.56,0.4-1.34,0.26-1.73-0.3l-31.95-45.31C264.81,99.85,264.94,99.08,265.5,98.68z"></path>
			<path class="st1" d="M281.5,97.17c0.57-0.38,1.34-0.24,1.73,0.33l19.23,28.42c0.38,0.57,0.24,1.34-0.33,1.73     c-0.57,0.38-1.34,0.24-1.72-0.33L281.17,98.9C280.78,98.33,280.93,97.56,281.5,97.17z"></path>
			<path class="st1" d="M106.03,99.5c-0.56,0.4-1.34,0.26-1.73-0.3L72.35,53.89c-0.4-0.56-0.26-1.34,0.3-1.73     c0.56-0.4,1.34-0.26,1.73,0.3l31.95,45.31C106.72,98.33,106.59,99.11,106.03,99.5z"></path>
			<path class="st1" d="M90.03,101.01c-0.57,0.38-1.34,0.24-1.72-0.33L69.07,72.25c-0.38-0.57-0.24-1.34,0.33-1.72     c0.57-0.38,1.34-0.24,1.73,0.33l19.23,28.42C90.75,99.85,90.6,100.62,90.03,101.01z"></path>
			<g>
				<path class="st2" d="M201.38,101.36c4.61-1.76,9.34-3,14.1-3.74l-4.06-6.12l2.02-7.17c-2.29,0.35-4.56,0.8-6.82,1.35l2.29,9.45      c-2.92,0.71-5.81,1.61-8.66,2.68L201.38,101.36z"></path>
				<path class="st2" d="M175.17,113.73c-2.19,2.12-4.23,4.36-6.11,6.7l-7.58-6.11c-1.46,1.82-2.84,3.69-4.13,5.61l7.32,1.23      l3.81,6.28c2.69-4.01,5.83-7.76,9.39-11.17L175.17,113.73z"></path>
				<path class="st1" d="M168.95,119.27l-9.22-7.42c5.65-6.89,12.49-13.01,20.42-18.04c7.92-5.02,16.35-8.58,24.96-10.76l2.78,11.51      c-7.39,1.88-14.61,4.94-21.41,9.25C179.68,108.11,173.81,113.36,168.95,119.27z M190.31,94.23l3.75-1.85      c0.19,0.39,0.34,0.74,0.47,1.07c0.12,0.34,0.21,0.65,0.24,0.97c0.06,0.45,0.03,0.88-0.05,1.28c-0.08,0.41-0.23,0.78-0.46,1.13      c-0.21,0.34-0.48,0.66-0.8,0.95c-0.32,0.28-0.69,0.53-1.1,0.74c-0.57,0.28-1.13,0.43-1.67,0.48c-0.56,0.04-1.08-0.03-1.58-0.19      c-0.5-0.17-0.95-0.44-1.38-0.82c-0.43-0.38-0.77-0.86-1.05-1.43c-0.28-0.57-0.43-1.13-0.49-1.69c-0.06-0.56,0.02-1.09,0.19-1.59      c0.17-0.5,0.46-0.96,0.82-1.38c0.38-0.43,0.87-0.78,1.45-1.07c0.76-0.37,1.51-0.54,2.23-0.5c0.73,0.04,1.44,0.32,2.11,0.85      l-1.42,1.63c-0.36-0.31-0.72-0.49-1.07-0.54c-0.35-0.04-0.7,0.01-1.04,0.19c-0.28,0.14-0.51,0.32-0.69,0.53      c-0.18,0.22-0.3,0.47-0.37,0.74c-0.06,0.28-0.08,0.58-0.03,0.9c0.04,0.33,0.15,0.65,0.31,1c0.16,0.31,0.33,0.58,0.54,0.8      c0.21,0.22,0.44,0.4,0.7,0.51c0.26,0.12,0.54,0.17,0.82,0.15c0.29-0.02,0.59-0.1,0.9-0.26c0.18-0.1,0.36-0.21,0.51-0.32      c0.14-0.13,0.28-0.27,0.36-0.43c0.09-0.15,0.14-0.33,0.17-0.54c0.01-0.19-0.01-0.4-0.09-0.64l-1.56,0.76L190.31,94.23z       M203.43,88.99l-3.94,1.36l0.46,1.58l1.64-0.57c0.05,0.23,0.05,0.43,0.01,0.63c-0.04,0.17-0.11,0.35-0.23,0.5      c-0.11,0.15-0.24,0.27-0.42,0.38c-0.17,0.11-0.35,0.18-0.55,0.25c-0.32,0.11-0.63,0.16-0.92,0.14c-0.3-0.03-0.56-0.11-0.8-0.26      c-0.24-0.15-0.46-0.34-0.64-0.59c-0.18-0.26-0.32-0.54-0.44-0.86c-0.11-0.36-0.19-0.71-0.18-1.02c0-0.32,0.06-0.62,0.15-0.88      c0.1-0.25,0.25-0.49,0.46-0.69c0.22-0.19,0.47-0.35,0.76-0.45c0.36-0.11,0.72-0.14,1.05-0.05c0.36,0.09,0.68,0.31,1,0.67      l1.62-1.43c-0.59-0.61-1.26-0.98-1.98-1.12c-0.72-0.14-1.48-0.07-2.28,0.21c-0.62,0.2-1.14,0.5-1.58,0.87      c-0.42,0.36-0.75,0.79-0.99,1.27c-0.23,0.46-0.36,0.99-0.38,1.55c-0.02,0.56,0.07,1.14,0.28,1.73c0.21,0.6,0.5,1.12,0.87,1.54      c0.36,0.42,0.79,0.75,1.27,0.99c0.49,0.23,1,0.37,1.56,0.4c0.56,0.02,1.14-0.07,1.73-0.28c0.43-0.14,0.83-0.34,1.18-0.58      c0.35-0.24,0.66-0.53,0.92-0.85c0.27-0.32,0.45-0.68,0.59-1.07c0.15-0.39,0.22-0.81,0.21-1.26c0-0.32-0.02-0.66-0.11-1      C203.68,89.77,203.57,89.39,203.43,88.99z M172.39,109.23c-0.17-0.17-0.36-0.31-0.55-0.42c-0.19-0.1-0.39-0.18-0.62-0.21      c-0.22-0.03-0.43-0.01-0.67,0.07c-0.24,0.07-0.48,0.19-0.72,0.36c0.08-0.35,0.07-0.66-0.01-0.96c-0.09-0.3-0.28-0.59-0.57-0.87      c-0.48-0.46-0.99-0.7-1.51-0.67c-0.53,0.02-1.05,0.29-1.57,0.83l-2.32,2.35l0.75,1.62l0.55-0.57l4.58,4.52l2.38-2.41      c0.3-0.3,0.54-0.62,0.7-0.93c0.17-0.32,0.27-0.64,0.3-0.94c0.02-0.31-0.02-0.62-0.14-0.92      C172.85,109.78,172.67,109.49,172.39,109.23z M166.59,109.22l0.27-0.28c0.47-0.47,0.88-0.52,1.25-0.16      c0.36,0.37,0.33,0.78-0.14,1.25l-0.27,0.28L166.59,109.22z M171.03,111.35c-0.06,0.26-0.29,0.58-0.65,0.95l-0.31,0.33l-1.23-1.2      l0.31-0.33c0.37-0.39,0.68-0.6,0.94-0.67c0.26-0.07,0.49,0.01,0.71,0.2C171.01,110.85,171.08,111.09,171.03,111.35z       M176.42,104.56l4.08,0.95l-2.03,1.66l-3.52-1.13l1.98,2.41l-1.62,1.33l-4.08-4.97l-0.62,0.52l-0.58-1.69l2.67-2.19      c0.35-0.3,0.69-0.5,1.04-0.6c0.36-0.11,0.67-0.15,1-0.11c0.31,0.05,0.61,0.14,0.88,0.3c0.27,0.16,0.51,0.37,0.74,0.63      c0.4,0.48,0.61,0.96,0.61,1.44C176.96,103.61,176.78,104.09,176.42,104.56z M174.38,104.73c0.31-0.27,0.51-0.53,0.57-0.81      c0.07-0.27-0.01-0.54-0.2-0.79c-0.21-0.24-0.46-0.37-0.73-0.36c-0.27,0.01-0.58,0.14-0.9,0.4l-0.31,0.25l1.27,1.55      L174.38,104.73z M181.2,95.27l-2.57,1.67l0.38,1.74l0.67-0.42l1.47,6.74l1.88-1.23l-0.37-1.43l2.51-1.65l1.18,0.92l1.88-1.23      L181.2,95.27z M182.24,100.67l-0.67-2.77l2.26,1.74L182.24,100.67z M204.53,86.54c0.43-0.27,0.54-0.79,0.28-1.21      c-0.26-0.41-0.79-0.53-1.21-0.26c-0.41,0.26-0.54,0.81-0.28,1.21C203.58,86.7,204.11,86.8,204.53,86.54z M204.45,86.39      c-0.33,0.21-0.74,0.1-0.95-0.22c-0.2-0.32-0.13-0.74,0.21-0.94c0.32-0.2,0.73-0.09,0.93,0.23      C204.85,85.78,204.77,86.18,204.45,86.39z M204.02,86.36l0.17-0.11L204,85.96l0.08-0.05c0.09-0.06,0.16-0.04,0.22,0.03      c0.06,0.07,0.12,0.13,0.16,0.14l0.19-0.12c-0.03-0.02-0.08-0.06-0.17-0.15c-0.09-0.08-0.16-0.1-0.24-0.09l-0.01-0.01      c0.06-0.08,0.09-0.19,0.04-0.27c-0.04-0.07-0.11-0.12-0.17-0.12c-0.07,0.01-0.15,0.02-0.29,0.11c-0.12,0.08-0.21,0.15-0.26,0.2      L204.02,86.36z M204.01,85.78l-0.08,0.05l-0.13-0.2c0-0.02,0.04-0.05,0.08-0.07c0.11-0.07,0.19-0.06,0.23,0.01      C204.17,85.65,204.1,85.73,204.01,85.78z"></path>
				
					<linearGradient id="SVGID_00000137815058394184569190000010844526217186919065_" gradientUnits="userSpaceOnUse" x1="205.173" y1="-527.4634" x2="205.3734" y2="-527.3367" gradientTransform="matrix(1 0 0 -1 0 -427.7363)">
					<stop offset="0" style="stop-color:#ED1C24"></stop>
					<stop offset="0.2361" style="stop-color:#E91C24"></stop>
					<stop offset="0.4038" style="stop-color:#E11B22"></stop>
					<stop offset="0.5501" style="stop-color:#D41920"></stop>
					<stop offset="0.6844" style="stop-color:#C3161D"></stop>
					<stop offset="0.8103" style="stop-color:#AD1116"></stop>
					<stop offset="0.9285" style="stop-color:#92080B"></stop>
					<stop offset="1" style="stop-color:#810101"></stop>
				</linearGradient>
				<path style="fill:url(#SVGID_00000137815058394184569190000010844526217186919065_);" d="M205.16,99.7      c0.07-0.03,0.15-0.06,0.23-0.07l-0.02-0.03C205.3,99.63,205.23,99.66,205.16,99.7z"></path>
			</g>
			<path class="st2" d="M122.97,50.45c1.29,1.87,2.66,0.99,3.18,0.32c-0.38-3.25,10.59-9.82,19.46-15.44     c8.86-5.62,15.03-8.75,16.61-9.11c1.27-0.29,2.62,0.19,3.14,0.47c2.07-1.63,1.56-2.76,1.43-3.37l-2.75-4.34     c-0.76-1.2-1.5-4.09-5.01-3.3c-9.32,2.03-31.51,17.65-36.25,21.81c-3.79,3.33-3.91,6.15-3.5,7.14     C119.97,45.8,121.68,48.58,122.97,50.45z"></path>
			<path class="st1" d="M139.85,26.84c-7.29,4.67-13.96,9.57-16.25,11.59c-3.42,3.01-3.31,5.21-3.19,5.67     c0.72,1.21,2.35,3.86,3.58,5.64c0.24,0.35,0.43,0.49,0.53,0.54c0.09,0.05,0.14,0.05,0.17,0.04c0.05-0.01,0.13-0.03,0.22-0.1     c0.07-0.52,0.27-1.01,0.51-1.44c0.35-0.63,0.86-1.26,1.46-1.88c1.19-1.24,2.88-2.6,4.8-3.98c3.15-2.28,7.09-4.76,10.84-7.12     c0.82-0.52,1.63-1.03,2.42-1.53c4.45-2.82,8.23-5.02,11.11-6.57c1.44-0.77,2.66-1.39,3.63-1.83c0.94-0.43,1.73-0.75,2.26-0.87     c1.18-0.27,2.36-0.04,3.18,0.24c0.44-0.44,0.53-0.73,0.56-0.87c0.04-0.18,0.01-0.26-0.04-0.49c-0.01-0.03-0.01-0.05-0.02-0.08     l-2.63-4.15c-0.15-0.24-0.32-0.57-0.47-0.86c-0.07-0.13-0.13-0.25-0.18-0.35c-0.21-0.4-0.43-0.74-0.68-1.01     c-0.24-0.26-0.51-0.45-0.84-0.55c-0.33-0.1-0.81-0.15-1.51,0.02l-0.01,0c-2.16,0.47-5.17,1.76-8.62,3.56     C147.25,22.26,143.49,24.51,139.85,26.84z M158.76,14.48c-2.5,0.55-5.76,1.97-9.24,3.79c-3.51,1.84-7.34,4.13-11.01,6.48     c-7.32,4.69-14.12,9.68-16.55,11.82c-3.99,3.51-4.53,6.85-3.83,8.54l0.03,0.08l0.05,0.08c0.69,1.16,2.42,3.98,3.73,5.88     c0.83,1.2,1.9,1.79,3.05,1.64c1.01-0.13,1.75-0.78,2.13-1.27l0.31-0.4l-0.06-0.5c0-0.04,0-0.23,0.21-0.62     c0.21-0.37,0.56-0.83,1.08-1.37c1.04-1.08,2.58-2.33,4.46-3.69c3.08-2.23,6.93-4.66,10.68-7.01c0.83-0.52,1.65-1.04,2.45-1.55     c4.41-2.8,8.14-4.97,10.96-6.48c1.41-0.76,2.58-1.35,3.49-1.76c0.94-0.43,1.52-0.64,1.77-0.7c0.41-0.09,0.87-0.07,1.32,0.03     c0.45,0.09,0.81,0.24,0.96,0.33l0.71,0.38l0.63-0.5c1.18-0.93,1.8-1.85,1.99-2.79c0.16-0.78-0.03-1.49-0.09-1.73     c-0.01-0.03-0.01-0.06-0.02-0.07l-0.05-0.22l-2.87-4.53c-0.1-0.15-0.18-0.31-0.28-0.52c-0.08-0.15-0.17-0.32-0.28-0.54     c-0.25-0.46-0.58-1.02-1.05-1.52c-0.48-0.51-1.1-0.98-1.92-1.23C160.73,14.26,159.8,14.24,158.76,14.48z"></path>
			<path class="st1" d="M141.34,35.62c0.94-0.58,1.83-1.13,2.63-1.64c3.24-2.05,7.26-4.44,10.76-6.3c1.75-0.93,3.38-1.74,4.74-2.3     c0.67-0.28,1.3-0.52,1.85-0.67c0.51-0.15,1.08-0.27,1.58-0.23c1.62,0.13,3.05,0.74,4.09,1.81c1.04,1.07,1.6,2.52,1.62,4.15     c0,0.35,0.16,0.84,0.56,1.45c0.39,0.6,0.95,1.24,1.61,1.84c1.33,1.23,2.87,2.19,3.77,2.53c0.08,0.03,0.36,0.09,0.93,0.12     c0.53,0.03,1.21,0.04,2.01,0.04c0.42,0,0.88,0,1.36-0.01c1.33-0.01,2.87-0.02,4.47,0.01c4.33,0.1,9.53,0.56,13.28,2.6     c5.8,3.16,9.99,9.13,11.41,11.78l72.35,114.14c0.31,0.5,0.81,1.22,1.42,2.13c1.61,2.38,4.06,6.02,6.39,10     c3.21,5.49,6.37,11.96,6.91,17.24c0.3,2.93-0.96,5.85-2.93,8.58c-1.99,2.75-4.81,5.45-7.94,8.01     c-5.49,4.49-12.09,8.64-17.12,11.81c-0.7,0.44-1.37,0.86-2,1.26c-5.24,3.32-13.41,8.14-21.06,11.82     c-3.82,1.84-7.56,3.41-10.76,4.37c-1.6,0.48-3.1,0.81-4.43,0.94c-1.31,0.12-2.57,0.06-3.61-0.36c-2.76-1.11-5.51-3.54-7.77-5.99     c-2.29-2.47-4.19-5.11-5.26-6.79c0,0,0,0,0,0l-75.59-118.22l0,0c-7.84-12.36-10.76-20.13-10.89-26.44     c-0.11-5.45,1.9-9.71,4.19-14.57c0.36-0.77,0.73-1.55,1.1-2.35c1.41-3.07,1.25-5.78,0.59-7.75c-0.34-0.99-0.8-1.78-1.25-2.33     c-0.23-0.27-0.44-0.47-0.61-0.6c-0.14-0.11-0.23-0.15-0.27-0.16c-3.49-0.58-4.47-3.48-4.51-4.91l0-0.06l0-0.06     c0.12-1.67,1.15-3.28,2.45-4.71c1.33-1.47,3.1-2.93,5.01-4.34C135.25,39.39,138.54,37.35,141.34,35.62z M127.42,50.65     c0.04,0.71,0.56,2.17,2.47,2.46l0.04,0.01l0.04,0.01c0.86,0.19,1.65,0.86,2.26,1.61c0.65,0.79,1.26,1.86,1.69,3.11     c0.86,2.53,1.01,5.9-0.68,9.58c-0.39,0.85-0.77,1.65-1.13,2.43c-2.3,4.89-4.03,8.58-3.93,13.41c0.11,5.6,2.71,12.88,10.5,25.16     c0,0,0,0,0,0l75.59,118.22c1,1.58,2.82,4.09,4.99,6.44c2.2,2.38,4.64,4.47,6.87,5.37c0.52,0.21,1.32,0.3,2.45,0.19     c1.11-0.11,2.44-0.39,3.95-0.84c3.02-0.9,6.62-2.41,10.4-4.23c7.54-3.62,15.62-8.39,20.81-11.68c0.64-0.41,1.32-0.83,2.02-1.28     c5.05-3.18,11.5-7.24,16.86-11.62c3.05-2.49,5.69-5.05,7.5-7.54c1.82-2.51,2.68-4.82,2.47-6.87c-0.48-4.69-3.38-10.75-6.58-16.23     c-2.28-3.9-4.61-7.35-6.21-9.73c-0.65-0.96-1.18-1.75-1.55-2.32l-72.4-114.22l-0.02-0.04c-1.28-2.4-5.19-7.96-10.42-10.81     c-3.17-1.73-7.82-2.2-12.15-2.3c-1.56-0.04-3.03-0.02-4.35-0.01c-0.49,0-0.97,0.01-1.41,0.01c-0.81,0-1.55,0-2.16-0.04     c-0.57-0.03-1.18-0.1-1.64-0.27c-1.3-0.48-3.11-1.65-4.6-3.03c-0.76-0.7-1.47-1.49-2.01-2.32c-0.53-0.82-0.95-1.77-0.96-2.78     c-0.01-1.07-0.37-1.88-0.92-2.45c-0.56-0.57-1.39-0.98-2.5-1.07c0,0-0.02,0-0.05,0c-0.04,0-0.08,0.01-0.15,0.02     c-0.13,0.02-0.3,0.06-0.5,0.12c-0.42,0.12-0.95,0.31-1.57,0.58c-1.25,0.53-2.81,1.29-4.53,2.21c-3.43,1.82-7.4,4.18-10.59,6.2     c-0.84,0.53-1.76,1.1-2.73,1.7c-2.78,1.72-5.95,3.68-8.71,5.7c-1.86,1.36-3.47,2.71-4.63,4     C128.06,48.77,127.5,49.83,127.42,50.65z"></path>
			<path class="st1" d="M141.21,108.42c-1.45,1.2-2.09,1.86-2.25,2.09l-2.04-1.43c0.38-0.55,1.28-1.4,2.69-2.58     c1.46-1.21,3.57-2.85,6.5-4.98c5.86-4.26,15.01-10.49,28.76-19.2c13.75-8.71,22.98-14.14,28.95-17.38     c2.98-1.62,5.16-2.7,6.69-3.38c0.76-0.34,1.38-0.58,1.86-0.74c0.42-0.14,0.91-0.28,1.33-0.25l-0.14,2.48c0.03,0,0.04,0,0.04,0     c0,0-0.13,0.02-0.45,0.13c-0.38,0.13-0.91,0.34-1.64,0.66c-1.44,0.64-3.56,1.69-6.51,3.29c-5.9,3.2-15.08,8.59-28.81,17.29     c-13.72,8.7-22.82,14.9-28.63,19.11C144.68,105.65,142.61,107.25,141.21,108.42z"></path>
			<path class="st1" d="M247.28,199.81c-20.44,12.96-34.78,18.25-39.53,19.27l-0.53-2.43c4.35-0.94,18.41-6.06,38.72-18.94     c20.34-12.9,33.3-23.18,37.2-26.67l1.66,1.85C280.78,176.51,267.7,186.87,247.28,199.81z"></path>
		</g>
	</g>
</g>
<path class="st11" d="M319.19,298.82H53.7c-28.41,0-51.44-23.03-51.44-51.44V53.43c0-28.41,23.03-51.44,51.44-51.44h265.5  c28.41,0,51.44,23.03,51.44,51.44v193.95C370.63,275.79,347.6,298.82,319.19,298.82z"></path>
<rect x="79.13" y="229.36" class="st21" width="214.4" height="46.82"></rect>
<text transform="matrix(1 0 0 1 87.2766 245.1796)"><tspan x="0" y="0" class="st22 st23">Refrigera, agita bien</tspan><tspan x="51.37" y="26.4" class="st22 st23">y disfruta. </tspan></text>
<line class="st11" x1="2.04" y1="204.02" x2="370.63" y2="204.02"></line>
</svg>
