<?xml version="1.0" encoding="UTF-8"?>
<!-- Generator: Adobe Illustrator 27.7.0, SVG Export Plug-In . SVG Version: 6.00 Build 0)  -->
<svg xmlns="http://www.w3.org/2000/svg" xmlns:xlink="http://www.w3.org/1999/xlink" version="1.1" id="Layer_2_00000079452098052493617430000002890798703206315687_" x="0px" y="0px" viewBox="0 0 372.5 300.7" style="enable-background:new 0 0 372.5 300.7;" xml:space="preserve">
<style type="text/css">
	.st0{fill:none;stroke:#EC1D2B;stroke-width:3;stroke-miterlimit:10;}
	.st1{clip-path:url(#SVGID_00000160148159491967841280000001285075672007929249_);}
	.st2{fill-rule:evenodd;clip-rule:evenodd;fill:#231F20;}
	.st3{fill:#231F20;}
	.st4{fill:url(#SVGID_00000034090668837220371810000000876021250094712980_);}
	.st5{fill:none;}
	.st6{font-family:'Helvetica';}
	.st7{font-size:22px;}
</style>
<path class="st0" d="M319,298.8H53.5c-28.4,0-51.4-23-51.4-51.4v-194C2,25,25.1,2,53.5,2H319c28.4,0,51.4,23,51.4,51.4v194  C370.4,275.8,347.4,298.8,319,298.8z"></path>
<line class="st0" x1="2" y1="204" x2="370.6" y2="204"></line>
<g>
	<g>
		<g>
			<defs>
				<rect id="SVGID_1_" x="2.4" y="2.1" width="367.7" height="200.4"></rect>
			</defs>
			<clipPath id="SVGID_00000149380899065073491910000013214434828786728367_">
				<use xlink:href="#SVGID_1_" style="overflow:visible;"></use>
			</clipPath>
			<g style="clip-path:url(#SVGID_00000149380899065073491910000013214434828786728367_);">
				<path class="st2" d="M147.6,154.9l-1-1.7c-1.4-2.8-4-9.3-3.4-13.4c0.2-1.3,0.5-2.6,0.9-3.9c0.9-3.6,1.8-7.2,0.3-12.1      c-2.1-6.6-3-8.7-9.8-21.5c-5.5-10.3-13.3-25.4-16.6-31.7c-0.7-1.7-2.7-5.3-5.1-5.8c-2.7-0.6-2.6-2.4-2.5-3.9c0-0.1,0-0.3,0-0.4      c0-0.2,0-0.5,0-0.7c0.1-1.2,0.1-2-0.7-3.4l-6.5-11.3c-0.7-1.2-1.1-4.1,2.3-6.5c2.6-1.8,6.7-4.4,9.7-6.2l0,0      c0.4-0.2,0.8-0.5,1.3-0.7c0.5-0.3,0.9-0.5,1.3-0.8l0,0c3.1-1.7,7.4-4,10.2-5.3c3.8-1.8,6.1,0.1,6.8,1.3l6.5,11.3      c0.8,1.4,1.5,1.8,2.6,2.3c0.2,0.1,0.4,0.2,0.6,0.3c0.1,0.1,0.2,0.1,0.4,0.2c1.4,0.7,3,1.5,2.1,4.2c-0.8,2.3,1.3,5.8,2.4,7.2      c3.8,6,13,20.4,19.2,30.2c7.7,12.3,9,14.1,13.7,19.2c3.4,3.8,7,4.8,10.6,5.8c1.3,0.4,2.6,0.7,3.8,1.2c3.9,1.5,8.2,7,9.9,9.6      l1,1.7L147.6,154.9z"></path>
				<g>
					<g>
						<path class="st3" d="M203,154c4.6-1.5,9.3-2.6,13.9-3.1l-3.7-6.1l2.3-6.9c-2.2,0.2-4.5,0.6-6.7,1.1l1.9,9.3        c-2.9,0.6-5.8,1.3-8.6,2.3L203,154z"></path>
					</g>
					<g>
						<path class="st3" d="M176.9,165.1c-2.2,2-4.3,4.1-6.2,6.3l-7.2-6.3c-1.5,1.7-2.9,3.5-4.3,5.3l7.1,1.5l3.5,6.3        c2.8-3.8,6-7.4,9.6-10.6L176.9,165.1z"></path>
					</g>
					<g>
						<path class="st2" d="M170.5,170.2l-8.7-7.6c5.8-6.5,12.8-12.2,20.7-16.8c8-4.6,16.4-7.7,24.9-9.5l2.2,11.4        c-7.3,1.5-14.5,4.2-21.3,8.2C181.5,159.8,175.5,164.6,170.5,170.2z M174.3,160.6c-0.2-0.2-0.4-0.3-0.5-0.4        c-0.2-0.1-0.4-0.2-0.6-0.2s-0.4,0-0.7,0s-0.5,0.2-0.7,0.3c0.1-0.3,0.1-0.6,0-0.9c-0.1-0.3-0.2-0.6-0.5-0.9        c-0.4-0.5-0.9-0.7-1.4-0.7c-0.5,0-1,0.2-1.6,0.8l-2.4,2.2l0.7,1.6l0.6-0.5l4.3,4.6l2.4-2.3c0.3-0.3,0.6-0.6,0.7-0.9        c0.2-0.3,0.3-0.6,0.3-0.9c0-0.3,0-0.6-0.1-0.9C174.7,161.1,174.6,160.8,174.3,160.6z M168.6,160.3l0.3-0.3        c0.5-0.4,0.9-0.5,1.2-0.1c0.3,0.4,0.3,0.8-0.2,1.2l-0.3,0.3L168.6,160.3z M172.9,162.6c-0.1,0.2-0.3,0.6-0.7,0.9l-0.3,0.3        l-1.1-1.2l0.3-0.3c0.4-0.4,0.7-0.6,0.9-0.6c0.2-0.1,0.5,0,0.7,0.2C172.9,162.1,172.9,162.3,172.9,162.6z M178.4,156.1l3.9,1.1        l-2.1,1.5l-3.4-1.2l1.8,2.4l-1.6,1.2l-3.8-5l-0.6,0.5l-0.5-1.7l2.7-2c0.4-0.3,0.7-0.5,1-0.6c0.4-0.1,0.7-0.1,1-0.1        c0.3,0.1,0.6,0.2,0.9,0.3c0.3,0.2,0.5,0.4,0.7,0.6c0.4,0.5,0.6,1,0.5,1.4C179,155.2,178.8,155.7,178.4,156.1z M176.4,156.2        c0.3-0.2,0.5-0.5,0.6-0.8c0.1-0.3,0-0.5-0.2-0.8c-0.2-0.2-0.4-0.4-0.7-0.4s-0.6,0.1-0.9,0.4l-0.3,0.2l1.2,1.6L176.4,156.2z         M183.5,147.2l-2.6,1.5l0.3,1.7l0.7-0.4l1.2,6.6l1.9-1.1l-0.3-1.4l2.5-1.5l1.1,0.9l1.9-1.1L183.5,147.2z M184.3,152.6        l-0.5-2.7l2.1,1.8L184.3,152.6z M196.2,144.9l-3.7,1.7l0.6,1.4l1.6-0.7c0.1,0.2,0.1,0.4,0.1,0.6c0,0.2-0.1,0.4-0.2,0.5        c-0.1,0.2-0.2,0.3-0.4,0.4c-0.1,0.1-0.3,0.2-0.5,0.3c-0.3,0.1-0.6,0.2-0.9,0.2s-0.6-0.1-0.8-0.2s-0.5-0.3-0.7-0.5        c-0.2-0.2-0.4-0.5-0.5-0.8c-0.1-0.3-0.2-0.7-0.3-1c0-0.3,0-0.6,0.1-0.9c0.1-0.3,0.2-0.5,0.4-0.7c0.2-0.2,0.4-0.4,0.7-0.5        c0.3-0.2,0.7-0.2,1-0.1c0.3,0.1,0.7,0.2,1,0.6l1.4-1.5c-0.6-0.5-1.3-0.9-2-0.9c-0.7-0.1-1.4,0.1-2.2,0.4        c-0.6,0.3-1.1,0.6-1.5,1c-0.4,0.4-0.7,0.8-0.9,1.3c-0.2,0.5-0.3,1-0.2,1.6s0.2,1.1,0.4,1.7c0.3,0.6,0.6,1.1,1,1.4        s0.8,0.7,1.3,0.9c0.5,0.2,1,0.3,1.5,0.2c0.5,0,1.1-0.1,1.7-0.4c0.4-0.2,0.8-0.4,1.1-0.7c0.3-0.3,0.6-0.6,0.8-0.9        c0.2-0.3,0.4-0.7,0.5-1.1c0.1-0.4,0.1-0.8,0.1-1.2c0-0.3-0.1-0.6-0.2-1C196.5,145.7,196.4,145.3,196.2,144.9z M201.6,143.2        l3.9-1.2c0.1,0.4,0.2,0.8,0.3,1.1c0.1,0.3,0.1,0.7,0.1,1c0,0.4-0.1,0.8-0.3,1.2c-0.2,0.4-0.4,0.7-0.6,1s-0.6,0.6-0.9,0.8        c-0.4,0.2-0.8,0.4-1.2,0.5c-0.6,0.2-1.2,0.2-1.7,0.2c-0.5,0-1.1-0.2-1.5-0.4c-0.4-0.3-0.9-0.6-1.2-1c-0.3-0.4-0.6-0.9-0.8-1.6        c-0.2-0.6-0.2-1.2-0.2-1.7c0-0.5,0.2-1.1,0.4-1.5c0.3-0.4,0.6-0.9,1-1.2c0.4-0.4,1-0.6,1.6-0.8c0.8-0.2,1.5-0.3,2.2-0.1        c0.7,0.2,1.3,0.6,1.9,1.2L203,142c-0.3-0.4-0.6-0.6-1-0.7c-0.3-0.1-0.7-0.1-1,0c-0.3,0.1-0.6,0.2-0.8,0.4        c-0.2,0.2-0.4,0.4-0.5,0.6c-0.1,0.3-0.2,0.5-0.2,0.9c0,0.3,0,0.7,0.1,1c0.1,0.3,0.2,0.6,0.4,0.9c0.2,0.2,0.4,0.4,0.6,0.6        c0.2,0.1,0.5,0.2,0.8,0.3c0.3,0,0.6,0,0.9-0.1c0.2-0.1,0.4-0.1,0.6-0.2c0.2-0.1,0.3-0.2,0.4-0.4c0.1-0.1,0.2-0.3,0.2-0.5        c0.1-0.2,0.1-0.4,0-0.6l-1.6,0.5L201.6,143.2z M206.7,139.6c0.4-0.2,0.6-0.8,0.3-1.2c-0.2-0.4-0.8-0.6-1.2-0.3        c-0.4,0.2-0.6,0.8-0.3,1.2C205.7,139.8,206.3,139.9,206.7,139.6z M206.6,139.5c-0.3,0.2-0.7,0.1-0.9-0.3        c-0.2-0.3-0.1-0.7,0.2-0.9c0.3-0.2,0.7-0.1,0.9,0.3C207,138.9,206.9,139.3,206.6,139.5z M206.2,139.4l0.2-0.1l-0.2-0.3        l0.1-0.1c0.1-0.1,0.2,0,0.2,0c0.1,0.1,0.1,0.1,0.1,0.1l0.2-0.1c0,0-0.1-0.1-0.2-0.2c-0.1-0.1-0.1-0.1-0.2-0.1l0,0        c0.1-0.1,0.1-0.2,0.1-0.3c0-0.1-0.1-0.1-0.2-0.1c-0.1,0-0.1,0-0.3,0.1c-0.1,0.1-0.2,0.1-0.3,0.2L206.2,139.4z M206.2,138.9        L206.2,138.9l-0.2-0.1c0,0,0.1,0,0.1-0.1c0.1-0.1,0.2-0.1,0.2,0C206.4,138.8,206.3,138.8,206.2,138.9z"></path>
					</g>
					
						<linearGradient id="SVGID_00000096755279198315153090000006855947470551379330_" gradientUnits="userSpaceOnUse" x1="206.7778" y1="1454.752" x2="206.9782" y2="1454.6361" gradientTransform="matrix(1 0 0 1 0 -1302.1803)">
						<stop offset="0" style="stop-color:#ED1C24"></stop>
						<stop offset="0.2361" style="stop-color:#E91C24"></stop>
						<stop offset="0.4038" style="stop-color:#E11B22"></stop>
						<stop offset="0.5501" style="stop-color:#D41920"></stop>
						<stop offset="0.6844" style="stop-color:#C3161D"></stop>
						<stop offset="0.8103" style="stop-color:#AD1116"></stop>
						<stop offset="0.9285" style="stop-color:#92080B"></stop>
						<stop offset="1" style="stop-color:#810101"></stop>
					</linearGradient>
					<path style="fill:url(#SVGID_00000096755279198315153090000006855947470551379330_);" d="M206.8,152.5c0.1,0,0.1-0.1,0.2-0.1       l0,0C206.9,152.5,206.8,152.5,206.8,152.5z"></path>
				</g>
				<path class="st2" d="M252,144.1c0.6-0.4,1.3-0.3,1.7,0.3l31.9,45.3c0.4,0.6,0.3,1.3-0.3,1.7c-0.6,0.4-1.3,0.3-1.7-0.3      l-31.9-45.3C251.3,145.3,251.4,144.6,252,144.1z"></path>
				<path class="st2" d="M268,142.6c0.6-0.4,1.3-0.2,1.7,0.3l19.2,28.4c0.4,0.6,0.2,1.3-0.3,1.7c-0.6,0.4-1.3,0.2-1.7-0.3      l-19.2-28.4C267.3,143.8,267.4,143,268,142.6z"></path>
				<path class="st2" d="M119.1,145c-0.6,0.4-1.3,0.3-1.7-0.3L85.4,99.4c-0.4-0.6-0.3-1.3,0.3-1.7c0.6-0.4,1.3-0.3,1.7,0.3      l31.9,45.3C119.7,143.8,119.6,144.6,119.1,145z"></path>
				<path class="st2" d="M103.1,146.5c-0.6,0.4-1.3,0.2-1.7-0.3l-19.2-28.4c-0.4-0.6-0.2-1.3,0.3-1.7c0.6-0.4,1.3-0.2,1.7,0.3      l19.2,28.4C103.8,145.3,103.6,146.1,103.1,146.5z"></path>
				<path class="st2" d="M114.7,31.2l-1.1,0.6l0.1,0.1c-2.9,1.8-6.4,4-8.7,5.7c-1.9,1.4-2.9,3-3.2,4.5c-0.3,1.5,0.1,2.8,0.5,3.6      l6.5,11.3c0.3,0.6,0.5,1,0.5,1.3c0.1,0.4,0,0.8,0,1.4l0,0c0,0.2,0,0.4,0,0.7c0,0.1,0,0.2,0,0.4l0,0.1c0,0.7-0.1,1.8,0.3,2.8      c0.5,1.2,1.6,2,3.2,2.3c0.7,0.2,1.6,0.8,2.4,1.9c0.8,1.1,1.4,2.3,1.7,3.1l0,0.1l0,0.1c3.3,6.3,11.1,21.5,16.6,31.8      c6.8,12.8,7.7,14.8,9.7,21.3c1.4,4.5,0.6,7.8-0.3,11.4l0,0c-0.3,1.3-0.7,2.6-0.9,4c-0.4,2.3,0.2,5.2,1,7.7      c0.8,2.6,1.8,4.9,2.5,6.4l0,0l28.4,49.2h2.9l-29.1-50.4c-0.7-1.3-1.6-3.6-2.4-5.9c-0.7-2.4-1.2-4.9-0.9-6.6      c0.2-1.3,0.5-2.5,0.9-3.8l0-0.1c0.9-3.6,1.9-7.5,0.3-12.7c-2.1-6.7-3.1-8.9-9.9-21.7c-5.4-10.2-13.3-25.3-16.6-31.7      c-0.4-0.9-1.1-2.3-2-3.6c-0.9-1.2-2.2-2.5-3.9-2.9c-1.1-0.2-1.3-0.6-1.4-0.9c-0.2-0.4-0.2-1-0.1-1.8l0,0l0,0c0-0.1,0-0.3,0-0.4      c0-0.2,0-0.4,0-0.6v0c0-0.6,0.1-1.2,0-1.9c-0.1-0.7-0.3-1.4-0.8-2.2l-6.5-11.3c-0.2-0.3-0.4-1-0.2-1.9c0.2-0.8,0.7-1.9,2.2-3      c2.5-1.8,6.6-4.4,9.6-6.2l1-0.6v0l0.2-0.1l0,0l0,0l0.2-0.1v0l1.1-0.6c3.1-1.7,7.3-3.9,10.2-5.2c1.7-0.8,2.9-0.7,3.7-0.4      c0.8,0.3,1.4,0.8,1.5,1.2l6.5,11.3c0.5,0.8,0.9,1.4,1.5,1.8c0.5,0.4,1.1,0.7,1.6,1l0.1,0c0.2,0.1,0.4,0.2,0.6,0.3      c0.1,0.1,0.2,0.1,0.4,0.2l0,0l0,0c0.8,0.4,1.2,0.6,1.5,1c0.2,0.2,0.4,0.6,0,1.7c-0.5,1.6,0,3.4,0.6,4.8c0.6,1.4,1.4,2.8,2.1,3.5      c3.9,6,13,20.4,19.1,30.2c7.7,12.3,9.1,14.2,13.9,19.4c3.7,4,7.6,5.1,11.1,6.1l0.1,0c1.3,0.4,2.5,0.7,3.7,1.2      c1.6,0.6,3.5,2.2,5.3,4.1c1.7,1.8,3.2,3.8,4,5l48.4,83.9h2.9l-49.2-85.2l0,0c-0.9-1.3-2.4-3.4-4.3-5.4c-1.8-1.9-4-3.8-6.2-4.7      c-1.3-0.5-2.6-0.9-3.9-1.2l0,0l0,0c-3.6-1-6.8-1.9-10-5.4c-4.6-5-5.9-6.8-13.6-19.1c-6.2-9.9-15.4-24.3-19.2-30.2l0,0l0,0      c-0.5-0.7-1.3-1.8-1.8-3c-0.5-1.3-0.7-2.4-0.5-3.1c0.5-1.6,0.4-2.9-0.4-3.9c-0.6-0.9-1.6-1.3-2.3-1.7l-0.1,0      c-0.1-0.1-0.2-0.1-0.3-0.2c-0.2-0.1-0.4-0.2-0.6-0.3l0,0c-0.6-0.3-0.9-0.5-1.2-0.7c-0.3-0.2-0.6-0.5-0.9-1.1L136,26.3      c-0.5-0.8-1.4-1.8-2.9-2.3c-1.5-0.5-3.3-0.5-5.5,0.5c-2.6,1.2-6.3,3.1-9.3,4.7l-0.1-0.1l-1.1,0.6c-0.4,0.2-0.8,0.5-1.3,0.8      C115.5,30.8,115,31,114.7,31.2z"></path>
			</g>
		</g>
	</g>
</g>
<rect x="55.2" y="227.1" class="st5" width="262" height="43.3"></rect>
<text transform="matrix(1 0 0 1 55.987 242.8944)"><tspan x="0" y="0" class="st6 st7">Refrigera después de abrir </tspan><tspan x="25.1" y="26.4" class="st6 st7">y agita antes de usar.</tspan></text>
</svg>
