<?xml version="1.0" encoding="UTF-8"?>
<!-- Generator: Adobe Illustrator 27.0.0, SVG Export Plug-In . SVG Version: 6.00 Build 0)  -->
<svg xmlns="http://www.w3.org/2000/svg" xmlns:xlink="http://www.w3.org/1999/xlink" version="1.1" id="Layer_2" x="0px" y="0px" viewBox="0 0 372.45 300.74" style="enable-background:new 0 0 372.45 300.74;" xml:space="preserve">
<style type="text/css">
	.st0{clip-path:url(#SVGID_00000088128639282240447910000010008513066319873973_);}
	.st1{fill-rule:evenodd;clip-rule:evenodd;fill:#231F20;}
	.st2{fill:#231F20;}
	.st3{fill:none;stroke:#231F20;stroke-width:1.5;}
	.st4{fill:#FFFFFF;}
	.st5{fill:url(#SVGID_00000165930618615833354910000013793004851396198293_);}
	.st6{fill:#2E2A2B;}
	.st7{clip-path:url(#SVGID_00000067955074653880010180000001554743383639072686_);}
	.st8{clip-path:url(#SVGID_00000111911869093000043780000008481770195812776097_);}
	.st9{fill:url(#SVGID_00000116944224301734851290000017303630092436669115_);}
	.st10{fill:url(#SVGID_00000183947277770209595160000009390346702405054619_);}
	.st11{fill:none;stroke:#EC1D2B;stroke-width:3;stroke-miterlimit:10;}
	.st12{clip-path:url(#SVGID_00000173158433115618865930000016246862663040614027_);}
	.st13{fill:url(#SVGID_00000016068153204498769350000013988312422505391032_);}
	.st14{fill:#231F20;stroke:#231F20;stroke-width:1.5;}
	.st15{fill:url(#SVGID_00000046318956068059984120000012987188893053488512_);}
	.st16{clip-path:url(#SVGID_00000149361514634692751730000002754749004876983191_);}
	.st17{fill:url(#SVGID_00000007420434215327670380000009944672642624423837_);}
	.st18{clip-path:url(#SVGID_00000147930996356256756790000003662942762990707867_);}
	.st19{clip-path:url(#SVGID_00000049196107933415030280000015038822029282737565_);}
	.st20{fill:url(#SVGID_00000082338464831486730620000010059290143812446397_);}
	.st21{fill:url(#SVGID_00000145047566879142470220000002211514516603732412_);}
	.st22{fill-rule:evenodd;clip-rule:evenodd;}
	.st23{clip-path:url(#SVGID_00000114759817297630368790000010502437504652046740_);}
	.st24{fill:url(#SVGID_00000013915159786531090550000001583951939577741474_);}
	.st25{fill:none;}
	.st26{font-family:'Helvetica';}
	.st27{font-size:22px;}
	.st28{clip-path:url(#SVGID_00000150071685350689541070000005637011239585059223_);}
	.st29{clip-path:url(#SVGID_00000152984733892644002030000017433711322922969507_);}
	.st30{fill:url(#SVGID_00000060018446399023405150000018120143863158218632_);}
	.st31{fill:url(#SVGID_00000002382314011743062460000000701551980679797382_);}
	.st32{clip-path:url(#SVGID_00000119810206094144109490000011032221662333773502_);}
	.st33{fill:#272324;}
	.st34{fill:#2D292A;}
	.st35{fill:#2C2829;}
	.st36{clip-path:url(#SVGID_00000070083543453963744730000003923798931842942136_);}
	.st37{fill:none;stroke:#231F20;stroke-width:1.25;}
	.st38{clip-path:url(#SVGID_00000015341756227780662840000002959781085527825545_);}
</style>
<g>
	<path class="st1" d="M94.16,77.45l53.19-46.13l1.62,1.87L95.78,79.32L94.16,77.45z"></path>
	<g>
		<g>
			<path class="st2" d="M97.17,46.12c-3.79,2.14-7.76,3.85-11.83,5.12l4.36,4.81l-0.82,6.53c1.95-0.6,3.88-1.3,5.79-2.08l-3.24-7.95     c2.45-1,4.86-2.17,7.21-3.48L97.17,46.12z"></path>
		</g>
		<g>
			<path class="st2" d="M118.44,31.87c1.64-2.14,3.12-4.37,4.46-6.65l7.42,4.35c1.04-1.79,2-3.6,2.87-5.44L126.64,24l-4.15-4.98     c-1.83,3.86-4.08,7.54-6.74,10.99L118.44,31.87z"></path>
		</g>
		<g>
			<path class="st1" d="M123.15,26.21l9.03,5.27c-4.03,6.76-9.2,13.01-15.47,18.45c-6.26,5.43-13.15,9.65-20.39,12.68l-3.94-9.69     c6.21-2.61,12.12-6.23,17.49-10.89C115.25,37.37,119.68,32.01,123.15,26.21z M121.47,35.43c0.17,0.13,0.36,0.22,0.53,0.3     c0.18,0.06,0.37,0.11,0.57,0.1c0.2-0.01,0.38-0.05,0.57-0.15c0.19-0.09,0.39-0.23,0.58-0.41c-0.02,0.31,0.03,0.59,0.14,0.84     c0.12,0.25,0.32,0.48,0.61,0.69c0.48,0.34,0.95,0.48,1.41,0.39c0.46-0.09,0.88-0.39,1.26-0.93l1.72-2.36L128,32.57l-0.41,0.57     l-4.6-3.34l-1.76,2.42c-0.22,0.3-0.39,0.62-0.49,0.9c-0.11,0.3-0.15,0.59-0.14,0.86c0.02,0.28,0.1,0.54,0.24,0.79     C120.99,35.01,121.19,35.24,121.47,35.43z M126.53,34.67l-0.2,0.28c-0.35,0.47-0.7,0.57-1.07,0.3c-0.37-0.27-0.39-0.64-0.04-1.11     l0.2-0.28L126.53,34.67z M122.38,33.4c0.02-0.24,0.18-0.54,0.44-0.92l0.23-0.33l1.23,0.89l-0.23,0.33     c-0.27,0.39-0.52,0.62-0.73,0.71c-0.21,0.09-0.43,0.06-0.65-0.09C122.46,33.83,122.37,33.64,122.38,33.4z M118.56,40.04     l-3.69-0.29l1.56-1.72l3.23,0.53l-2.04-1.85l1.25-1.38l4.22,3.8l0.47-0.54l0.73,1.4l-2.04,2.27c-0.27,0.31-0.54,0.53-0.83,0.66     c-0.3,0.15-0.57,0.22-0.86,0.23c-0.28,0-0.55-0.04-0.81-0.15c-0.26-0.11-0.5-0.25-0.73-0.46c-0.41-0.37-0.66-0.76-0.73-1.18     C118.22,40.95,118.31,40.5,118.56,40.04z M120.32,39.62c-0.24,0.28-0.37,0.53-0.39,0.78c-0.03,0.25,0.08,0.47,0.28,0.66     c0.21,0.18,0.45,0.26,0.69,0.22c0.24-0.04,0.49-0.2,0.74-0.47l0.24-0.26l-1.31-1.19L120.32,39.62z M115.6,48.79l2.03-1.79     l-0.56-1.47l-0.53,0.46l-2.17-5.69l-1.48,1.32l0.51,1.2l-1.98,1.77l-1.15-0.65l-1.48,1.32L115.6,48.79z M113.99,44.21l0.95,2.33     l-2.21-1.23L113.99,44.21z M104.76,53l3.03-2.11l-0.82-1.16l-1.26,0.87c-0.1-0.19-0.14-0.38-0.16-0.55     c-0.01-0.18,0.01-0.35,0.07-0.49c0.05-0.15,0.15-0.3,0.26-0.43c0.12-0.12,0.25-0.24,0.4-0.35c0.25-0.18,0.51-0.29,0.76-0.34     c0.25-0.05,0.5-0.04,0.74,0.02c0.24,0.07,0.46,0.19,0.68,0.35c0.22,0.16,0.4,0.37,0.58,0.62c0.19,0.28,0.33,0.55,0.41,0.83     c0.09,0.27,0.11,0.53,0.09,0.79c-0.03,0.25-0.1,0.48-0.23,0.7c-0.13,0.21-0.3,0.39-0.53,0.56c-0.27,0.2-0.57,0.3-0.88,0.3     c-0.31,0.01-0.65-0.11-1.01-0.33l-1.02,1.61c0.66,0.37,1.31,0.53,1.95,0.47c0.64-0.05,1.27-0.31,1.88-0.73     c0.47-0.33,0.85-0.7,1.13-1.13c0.27-0.42,0.46-0.86,0.54-1.32c0.08-0.46,0.08-0.93-0.05-1.42c-0.12-0.48-0.33-0.95-0.65-1.41     c-0.32-0.46-0.68-0.83-1.11-1.11c-0.43-0.28-0.86-0.46-1.32-0.54c-0.46-0.08-0.92-0.07-1.41,0.04c-0.47,0.11-0.94,0.32-1.4,0.64     c-0.33,0.23-0.62,0.5-0.87,0.79c-0.24,0.3-0.43,0.61-0.57,0.94c-0.15,0.34-0.24,0.69-0.25,1.05c-0.02,0.36,0.02,0.74,0.13,1.13     c0.07,0.27,0.19,0.54,0.34,0.82C104.37,52.4,104.54,52.69,104.76,53z M100.27,55.49l-3.27,1.71c-0.17-0.33-0.32-0.65-0.44-0.93     c-0.12-0.29-0.19-0.58-0.23-0.86c-0.06-0.39-0.05-0.77,0.02-1.13c0.08-0.36,0.19-0.7,0.38-1.01c0.19-0.31,0.42-0.6,0.69-0.86     c0.28-0.26,0.6-0.48,0.96-0.66c0.49-0.26,0.99-0.41,1.48-0.47c0.49-0.05,0.96,0,1.41,0.14c0.44,0.15,0.86,0.38,1.24,0.7     c0.37,0.32,0.7,0.74,0.96,1.24c0.26,0.49,0.41,0.99,0.47,1.48c0.05,0.49,0.01,0.97-0.13,1.4c-0.15,0.44-0.38,0.86-0.7,1.24     c-0.33,0.38-0.75,0.71-1.27,0.97c-0.66,0.35-1.31,0.51-1.96,0.48c-0.65-0.03-1.28-0.26-1.88-0.72l1.22-1.47     c0.33,0.27,0.64,0.42,0.97,0.45c0.3,0.03,0.62-0.04,0.91-0.18c0.25-0.12,0.45-0.29,0.61-0.49c0.16-0.2,0.26-0.43,0.31-0.66     c0.05-0.24,0.06-0.51,0.02-0.79c-0.04-0.28-0.15-0.57-0.29-0.87c-0.14-0.27-0.3-0.5-0.49-0.7c-0.18-0.19-0.4-0.34-0.63-0.43     c-0.23-0.1-0.47-0.13-0.73-0.12c-0.26,0.02-0.52,0.1-0.79,0.24c-0.16,0.09-0.31,0.18-0.45,0.29c-0.14,0.12-0.23,0.24-0.31,0.38     c-0.08,0.14-0.12,0.31-0.13,0.47c-0.01,0.18,0.01,0.36,0.09,0.55l1.36-0.71L100.27,55.49z M96.37,59.48     c-0.34,0.29-0.37,0.76-0.09,1.09c0.28,0.33,0.76,0.36,1.09,0.07c0.33-0.28,0.36-0.78,0.09-1.09     C97.18,59.22,96.7,59.19,96.37,59.48z M96.47,59.6c0.26-0.23,0.64-0.18,0.86,0.07c0.22,0.25,0.21,0.63-0.06,0.85     c-0.25,0.22-0.63,0.17-0.84-0.08C96.2,60.19,96.21,59.82,96.47,59.6z M96.84,59.57l-0.14,0.12l0.2,0.23l-0.06,0.05     c-0.07,0.06-0.13,0.06-0.2,0.01c-0.07-0.05-0.12-0.1-0.16-0.1l-0.15,0.13c0.03,0.01,0.08,0.04,0.17,0.11     c0.09,0.06,0.15,0.07,0.22,0.05l0.01,0.01c-0.04,0.08-0.05,0.17,0,0.24c0.05,0.05,0.11,0.09,0.16,0.08     c0.06-0.02,0.13-0.04,0.24-0.13c0.09-0.08,0.16-0.16,0.2-0.21L96.84,59.57z M96.93,60.07l0.06-0.05l0.14,0.16     c0,0.02-0.03,0.05-0.06,0.07c-0.08,0.07-0.15,0.08-0.2,0.03C96.81,60.21,96.85,60.14,96.93,60.07z"></path>
		</g>
		
			<linearGradient id="SVGID_00000018224134540841854020000016068687389692735897_" gradientUnits="userSpaceOnUse" x1="94.0757" y1="-1954.4998" x2="93.9165" y2="-1954.6378" gradientTransform="matrix(1 0 0 -1 0 -1906.4553)">
			<stop offset="0" style="stop-color:#ED1C24"></stop>
			<stop offset="0.2361" style="stop-color:#E91C24"></stop>
			<stop offset="0.4038" style="stop-color:#E11B22"></stop>
			<stop offset="0.5501" style="stop-color:#D41920"></stop>
			<stop offset="0.6844" style="stop-color:#C3161D"></stop>
			<stop offset="0.8103" style="stop-color:#AD1116"></stop>
			<stop offset="0.9285" style="stop-color:#92080B"></stop>
			<stop offset="1" style="stop-color:#810101"></stop>
		</linearGradient>
		<path style="fill:url(#SVGID_00000018224134540841854020000016068687389692735897_);" d="M94.09,48.07    c-0.06,0.04-0.12,0.07-0.2,0.1l0.02,0.02C93.98,48.15,94.04,48.11,94.09,48.07z"></path>
	</g>
	<path class="st1" d="M182.93,100.51c1.65,1.9,1.44,4.77-0.46,6.41l-18.37,15.93c-1.9,1.65-4.77,1.44-6.41-0.46l-8.89-10.25   l1.87-1.62l8.89,10.25c0.75,0.86,2.05,0.96,2.92,0.21l18.37-15.93c0.86-0.75,0.96-2.05,0.21-2.92l-8.89-10.25l1.87-1.62   L182.93,100.51z"></path>
	<path class="st1" d="M156.76,119.43l22.84-19.8l1.62,1.87l-22.84,19.8L156.76,119.43z"></path>
	<path class="st3" d="M169.8,116.54c2.48,3.31,6.81,13.44,9.09,23.15c3.31,14.05,16.53,31.41,29.76,31.41c10.58,0-27.83,0-45.47,0   c1.65-9.92,8.27-32.24-5.79-51.25"></path>
	<path class="st1" d="M121.26,3.28l28.89,33.32c0.02,0.03,0.05,0.05,0.07,0.08c1.9,1.85,6.65,8.8,9.01,20.89   c2.39,12.27,3.35,18,3.52,19.31c0.01,0.06,0.02,0.12,0.04,0.17c0.54,1.91,2.23,6.5,4.76,9.42l2.45,2.82   c0.29,0.33,0.72,0.48,1.15,0.41l1.15-0.2l0.54,0.63l-11.55,10.02c0,0-0.01,0.01-0.01,0.01c0,0-0.01,0.01-0.01,0.01l-12.58,10.9   l-0.54-0.63l0.36-1.11c0.14-0.41,0.04-0.87-0.24-1.2l-2.45-2.82c-2.53-2.91-6.83-5.24-8.65-6.05c-0.05-0.02-0.11-0.04-0.17-0.06   c-1.27-0.36-6.81-2.12-18.62-6.22c-11.63-4.05-17.84-9.73-19.4-11.87c-0.02-0.03-0.04-0.06-0.06-0.08L34.21,6.42   c-0.82,0.3-1.64,0.62-2.45,0.96l65.24,75.24c1.97,2.67,8.64,8.56,20.56,12.71c11.56,4.02,17.18,5.81,18.67,6.24   c1.74,0.79,5.57,2.91,7.7,5.37l1.99,2.29l-0.36,1.11c-0.14,0.41-0.04,0.87,0.24,1.2l0.92,1.06l-0.05,0.69   c-0.04,0.5,0.23,0.97,0.68,1.2c0.45,0.22,0.99,0.16,1.37-0.17l14.19-12.3c0.01-0.01,0.02-0.02,0.03-0.02l13.11-11.37   c0.38-0.33,0.52-0.85,0.36-1.33c-0.16-0.48-0.59-0.81-1.09-0.85l-0.69-0.05l-0.92-1.06c-0.29-0.33-0.72-0.48-1.15-0.41l-1.15,0.2   l-1.99-2.29c-2.14-2.46-3.7-6.55-4.23-8.39c-0.21-1.54-1.19-7.35-3.54-19.37c-2.42-12.38-7.31-19.82-9.67-22.15L124.54,3.28H121.26   z"></path>
	<path class="st1" d="M72.91,169.86h297.77v2.48h-75.65c-1.49,2.74-2.94,5.42-4.4,8.1l-0.01,0.01c-3.13,5.78-6.27,11.56-9.8,17.97   c-0.87,1.58-1.82,2.93-2.82,4.09h-3.48c1.47-1.3,2.89-3.03,4.13-5.28c3.53-6.41,6.66-12.19,9.79-17.97   c1.24-2.29,2.49-4.59,3.76-6.92H76.57c2.08,5.02,6.08,13.86,9.77,19.46c1.03,1.56,1.87,3.08,2.64,4.47l0,0h0   c0.24,0.44,0.48,0.87,0.71,1.28c0.98,1.74,1.91,3.2,3.11,4.41c0.19,0.19,0.38,0.37,0.58,0.55h-3.41c-0.93-1.16-1.7-2.44-2.44-3.74   c-0.25-0.45-0.5-0.9-0.76-1.36c-0.76-1.37-1.54-2.78-2.51-4.25c-4.31-6.53-8.93-17.14-10.7-21.61L72.91,169.86z"></path>
	<path class="st1" d="M74.73,171.1h219.56c-1.62,2.97-3.18,5.86-4.75,8.75c-3.13,5.78-6.27,11.56-9.8,17.97   c-1.04,1.89-2.2,3.43-3.42,4.69H91.61c-1.48-1.6-2.55-3.54-3.73-5.67c-0.76-1.38-1.57-2.85-2.57-4.36   C81.08,186.06,76.49,175.55,74.73,171.1z"></path>
</g>
<path class="st11" d="M319.19,298.82H53.7c-28.41,0-51.44-23.03-51.44-51.44V53.43c0-28.41,23.03-51.44,51.44-51.44h265.5  c28.41,0,51.44,23.03,51.44,51.44v193.95C370.63,275.79,347.6,298.82,319.19,298.82z"></path>
<rect x="21.52" y="240.99" class="st25" width="329.86" height="23.56"></rect>
<text transform="matrix(1 0 0 1 29.3146 256.8049)" class="st26 st27">Úsalo como aceite para cocinar. </text>
<line class="st11" x1="2.04" y1="204.02" x2="370.63" y2="204.02"></line>
</svg>
