<?xml version="1.0" encoding="UTF-8"?>
<!-- Generator: Adobe Illustrator 27.7.0, SVG Export Plug-In . SVG Version: 6.00 Build 0)  -->
<svg xmlns="http://www.w3.org/2000/svg" xmlns:xlink="http://www.w3.org/1999/xlink" version="1.1" id="Layer_2_00000044865749085454710640000003512089499593516979_" x="0px" y="0px" viewBox="0 0 372.5 300.7" style="enable-background:new 0 0 372.5 300.7;" xml:space="preserve">
<style type="text/css">
	.st0{fill:none;stroke:#EC1D2B;stroke-width:3;stroke-miterlimit:10;}
	.st1{fill:#231F20;}
	.st2{fill-rule:evenodd;clip-rule:evenodd;fill:#231F20;}
	.st3{fill:url(#SVGID_1_);}
	.st4{fill:none;}
	.st5{font-family:'Helvetica';}
	.st6{font-size:22px;}
</style>
<path class="st0" d="M319.2,298.8H53.7c-28.4,0-51.4-23-51.4-51.4v-194C2.3,25,25.3,2,53.7,2h265.5c28.4,0,51.4,23,51.4,51.4v194  C370.6,275.8,347.6,298.8,319.2,298.8z"></path>
<g>
	<path class="st1" d="M64.7,172.5h243.5v8.3H64.7V172.5z"></path>
	<path class="st2" d="M271.1,64.5H257v13h14.2V64.5z M254.4,61.9V80h19.3V61.9H254.4z"></path>
	<path class="st2" d="M262.8,163.9V79.4h2.6v84.5L262.8,163.9L262.8,163.9z"></path>
	<path class="st2" d="M237.7,140.6h52.4v2.6h-52.4V140.6z"></path>
	<path class="st2" d="M268.4,97.1h-8.7c-10.9,0-19.6,8.8-19.6,19.7v50.6c0,2.4,1.9,4.3,4.3,4.3h39.4c2.4,0,4.3-1.9,4.3-4.3v-50.6   C288,105.9,279.2,97.1,268.4,97.1z M259.7,94.5c-12.3,0-22.2,9.9-22.2,22.2v50.6c0,3.8,3.1,6.8,6.8,6.8h39.4c3.8,0,6.8-3.1,6.8-6.8   v-50.6c0-12.3-9.9-22.2-22.2-22.2C268.4,94.5,259.7,94.5,259.7,94.5z"></path>
	<path class="st2" d="M258.1,86.7c-4,0-7.3,3.2-7.3,7.3v2.3h-2.6V94c0-5.4,4.4-9.8,9.8-9.8h13.1c5.4,0,9.8,4.4,9.8,9.8v2.3h-2.6V94   c0-4-3.2-7.3-7.3-7.3H258.1z"></path>
	<path class="st1" d="M259.2,78.8h9.6v7.2h-9.6V78.8z"></path>
	<path class="st1" d="M273.7,65.6h14.5v9.7h-14.5V65.6z"></path>
	<path class="st2" d="M287.5,77.6V63.1h2.6v14.5L287.5,77.6L287.5,77.6z"></path>
	<path class="st2" d="M284.1,79.7c1,1.7,2.3,2.9,3.1,3.5l-1.6,2c-1-0.8-2.5-2.3-3.7-4.2c-1.2-1.9-2.2-4.4-2.2-7.1h2.6   C282.2,76.1,283,78.1,284.1,79.7z"></path>
	<path class="st2" d="M111.5,108.3L79,106.6v3.1c-1.5,0.5-2.5,1.9-2.5,3.6v47.8c0,2.9,0.3,5.3,1.4,7.1c1.1,1.9,2.8,3.2,5.1,3.9   c2.3,0.8,5.3,1.1,9.1,1.2c3.8,0.2,8.6,0.1,14.3,0.1h0c2.3,0,4.7,0,7.3,0c2.7,0,5.2,0,7.5,0h0c5.9,0,10.7,0.1,14.5-0.1   c3.8-0.2,6.8-0.5,9-1.3c2.3-0.8,3.9-2,4.9-4c0.9-1.9,1.2-4.2,1.2-7.1v-47.8c0-1.7-1.1-3.1-2.5-3.6v-3.1L111.5,108.3z M114.1,109.2   H81.6v2.8h-1.3c-0.7,0-1.2,0.6-1.2,1.2v47.8c0,2.8,0.3,4.6,1.1,5.9c0.7,1.2,1.8,2.1,3.7,2.7c2,0.6,4.7,1,8.4,1.1   c3.8,0.2,8.4,0.1,14.3,0.1h0c2.3,0,4.7,0,7.4,0l0,0c2.7,0,5.2,0,7.5,0l0,0c6,0,10.7,0.1,14.4-0.1c3.8-0.2,6.4-0.5,8.3-1.1   c1.8-0.6,2.9-1.5,3.5-2.7c0.7-1.3,1-3.2,1-5.9v-47.8c0-0.7-0.6-1.2-1.2-1.2H146v-2.8L114.1,109.2z"></path>
	<path class="st2" d="M76.9,95h73.7v14l-1,0.2c-2,0.4-6.5,0.7-12.6,0.9c-6.1,0.2-14,0.3-22.8,0.3c-7.1,0-15-0.3-21.8-0.6   c-2-0.1-3.8-0.2-5.6-0.3c-4.1-0.2-7.3-0.3-8.7-0.3h-1.3V95z M79.5,97.6v9.1c1.8,0.1,4.4,0.2,7.7,0.3c1.7,0.1,3.5,0.2,5.4,0.2   c6.7,0.3,14.7,0.6,21.7,0.6c8.8,0,16.6-0.1,22.7-0.3c5.2-0.2,9-0.4,11.1-0.7v-9.3H79.5z"></path>
	<path class="st2" d="M84.6,116.7l1.4,0.1c5.4,0.4,18.6,1.1,27.9,1.1s22.6-0.7,28.2-1.1l1.4-0.1v47.1l-1.1,0.1   c-2.6,0.3-7.2,0.4-12.3,0.4c-2.7,0-5.6,0-8.5,0c-2.6,0-5.2,0-7.7,0c-5.3,0-11-0.1-16.1-0.3c-5.1-0.2-9.5-0.5-12.1-1l-1-0.2   L84.6,116.7L84.6,116.7z M140.8,119.4c-6.2,0.4-18.4,1-27,1c-8.6,0-20.6-0.6-26.7-1v41.3c2.5,0.4,6.3,0.6,10.7,0.8   c5,0.2,10.8,0.3,16,0.3c2.5,0,5.1,0,7.7,0c2.9,0,5.8,0,8.5,0c4.4,0,8.3-0.1,10.8-0.3L140.8,119.4L140.8,119.4z"></path>
	<path class="st2" d="M142.3,148.3c-16.5,2.9-44.7,1.2-56.6,0l0.3-2.6c11.9,1.2,39.8,2.9,55.9,0L142.3,148.3z"></path>
	<path class="st1" d="M202.3,22.1c-1.9-0.2-7.1-0.2-9.5-0.2c-2.2,0.1-6.4,0.4-8.5,0.4s-2.7,1-2.7,1.6l0.1,5l23.6-0.1   c0-2.3-0.4-4.5-0.4-5.1C205,23,204.7,22.3,202.3,22.1z"></path>
	<path class="st2" d="M193,20.6L193,20.6c2.3,0,7.6,0.1,9.6,0.3c1.3,0.2,2.3,0.5,2.9,1.2c0.7,0.7,0.8,1.6,0.8,2.1v10   c0,0.5-0.1,0.9-0.3,1.2c-0.1,0.2-0.2,0.5-0.3,0.8c0,0.1-0.1,0.2-0.1,0.2c-0.3,0.7-0.5,1.2-0.5,1.6c0,0.3,0,0.7,0,0.9   c0,0.9-0.1,1.6,0.5,3.1c0.7,2,2.6,5.2,6.9,11.4c4.4,6.2,6.9,10.9,8.3,14.8c1.4,3.9,1.6,6.8,1.6,9.4v80.7c0.1,1.9-0.5,6.5-3.4,10.7   c-0.7,0.9-1.8,1.6-3,2c-1.2,0.5-2.7,0.9-4.4,1.2c-3.3,0.6-7.4,0.9-11.4,1.1c-6.4,0.3-12.9,0.1-15.9,0.1c-0.7,0-1.2,0-1.5,0   c-1.5,0-4.7-0.1-7.7-0.7c-1.5-0.3-3.1-0.7-4.4-1.2c-1.3-0.5-2.6-1.3-3.3-2.4c-2.2-3.4-3.1-6.6-3.1-10.6V77.5l0,0   c0-2.7,0.1-5.4,1.4-9.2c1.3-3.7,3.8-8.4,8.5-15l0,0l0,0c1.2-1.6,3.1-4.3,4.6-7.3c1.6-3,2.7-5.9,2.7-8c0,0,0-0.1-0.1-0.3   c-0.1-0.2-0.2-0.5-0.4-0.8c0,0-0.1-0.1-0.1-0.2c-0.2-0.3-0.4-0.8-0.6-1.2c-0.2-0.4-0.3-0.9-0.3-1.4v-10c0-0.6,0.2-1.5,0.9-2.1   c0.7-0.7,1.7-1.2,3.1-1.2C186,20.9,190.8,20.7,193,20.6L193,20.6z M193.1,23.2c-2.1,0.1-7,0.3-9.1,0.3c-0.8,0-1.1,0.2-1.2,0.4   c-0.1,0.2-0.2,0.4-0.2,0.4v10c0,0,0,0.2,0.1,0.5c0.1,0.3,0.3,0.6,0.4,0.9c0,0,0.1,0.1,0.1,0.1c0.2,0.3,0.3,0.6,0.5,0.9   c0.1,0.3,0.3,0.8,0.3,1.3c0,2.8-1.4,6.2-3,9.2c-1.6,3.1-3.6,5.9-4.9,7.6c-4.6,6.5-7,11-8.2,14.3c-1.2,3.3-1.2,5.7-1.2,8.3v80.8   c0,3.6,0.8,6.2,2.7,9.3c0.3,0.5,1,1,2.1,1.5c1.1,0.5,2.4,0.8,3.9,1.1c2.9,0.5,5.9,0.7,7.3,0.7c0.3,0,0.9,0,1.7,0   c3.1,0.1,9.3,0.2,15.6-0.1c4-0.2,7.9-0.5,11-1.1c1.6-0.3,2.9-0.6,3.9-1c1.1-0.4,1.6-0.8,1.8-1.1c2.6-3.7,3.1-7.7,3-9.1v0V77.5   c0-2.4-0.2-5-1.5-8.5c-1.3-3.6-3.6-8-8-14.1c-4.4-6.2-6.4-9.6-7.3-12c-0.7-2-0.7-3.2-0.6-4.2c0-0.2,0-0.5,0-0.7c0-1,0.4-2,0.7-2.6   c0.1-0.1,0.1-0.2,0.1-0.3c0.1-0.2,0.2-0.4,0.2-0.6c0.1-0.2,0.1-0.3,0.1-0.3l0,0v-10c0-0.3,0-0.3-0.1-0.3l0,0   c-0.1-0.1-0.4-0.3-1.4-0.4C200.5,23.2,195.4,23.2,193.1,23.2z"></path>
	<path class="st2" d="M193.6,77.9c-18,0-26.2,0.6-27.9,0.9l-0.4-2.5c2-0.3,10.3-0.9,28.3-0.9c18,0,25.9,0.6,27.7,0.9l-0.4,2.5   C219.4,78.5,211.7,77.9,193.6,77.9z"></path>
	<path class="st2" d="M205,32.8h-23.7v-2.6H205V32.8z"></path>
	<path class="st2" d="M194.2,153.7c-14.1,0-25-0.6-28.8-0.9l0.2-2.6c3.7,0.3,14.6,0.9,28.6,0.9s23.7-0.6,26.8-0.9l0.2,2.6   C218.1,153.1,208.3,153.7,194.2,153.7z"></path>
	<path class="st1" d="M202,97.2c2.8,0.6,5.5,1.4,8.1,2.6l-0.1-4.3l3.2-2.9c-1.2-0.5-2.5-1-3.8-1.5l-1.8,5.3c-1.6-0.6-3.4-1-5.1-1.4   L202,97.2z"></path>
	<path class="st1" d="M185.3,95.1c-1.7,0.4-3.4,0.8-5.1,1.4l-1.8-5.4c-1.3,0.4-2.5,0.9-3.8,1.5l3.2,2.9l-0.1,4.3   c2.6-1.1,5.3-2,8.1-2.6L185.3,95.1z"></path>
	<path class="st2" d="M180.5,95.9l-2.2-6.5c4.9-1.6,10.2-2.5,15.6-2.5c5.4,0,10.7,0.9,15.6,2.5l-2.2,6.5c-4.2-1.4-8.7-2.1-13.4-2.1   C189.2,93.7,184.7,94.5,180.5,95.9z M185.3,92c0-0.1-0.1-0.3-0.1-0.4s-0.1-0.2-0.2-0.3s-0.2-0.1-0.4-0.2c-0.1,0-0.3-0.1-0.5-0.1   c0.1-0.2,0.2-0.3,0.3-0.5c0.1-0.2,0.1-0.4,0-0.6c-0.1-0.4-0.3-0.7-0.5-0.8c-0.3-0.2-0.6-0.2-1-0.1l-1.9,0.4l-0.1,1l0.4-0.1l0.9,3.6   l1.9-0.4c0.2-0.1,0.5-0.1,0.6-0.2c0.2-0.1,0.3-0.2,0.4-0.4c0.1-0.2,0.2-0.3,0.2-0.5C185.4,92.4,185.4,92.2,185.3,92z M182.4,90.2   l0.2-0.1c0.4-0.1,0.6,0,0.7,0.3s-0.1,0.5-0.5,0.6l-0.2,0.1L182.4,90.2z M184,92.6c-0.1,0.1-0.3,0.2-0.6,0.3l-0.3,0.1l-0.2-1   l0.3-0.1c0.3-0.1,0.5-0.1,0.7,0c0.1,0.1,0.2,0.2,0.3,0.3C184.1,92.4,184.1,92.5,184,92.6z M188.7,91l1.7,1.7l-1.5,0.2l-1.4-1.7   l0.2,1.8l-1.2,0.2l-0.5-3.7l-0.5,0.1l0.2-1l2-0.2c0.3,0,0.5,0,0.7,0c0.2,0.1,0.4,0.1,0.5,0.3s0.3,0.3,0.3,0.4   c0.1,0.2,0.1,0.3,0.2,0.5c0.1,0.4,0,0.7-0.1,0.9C189.3,90.7,189.1,90.9,188.7,91z M187.7,90.4c0.2,0,0.4-0.1,0.5-0.2   c0.1-0.1,0.2-0.3,0.1-0.4c0-0.2-0.1-0.3-0.2-0.4s-0.3-0.1-0.6-0.1l-0.2,0l0.1,1.2L187.7,90.4z M194,87.9l-1.8,0l-0.4,1h0.5   l-1.4,3.8l1.3,0l0.3-0.8l1.7,0l0.3,0.8l1.3,0L194,87.9z M192.8,90.9l0.5-1.6l0.6,1.6L192.8,90.9z M201.2,90.5l-2.4-0.3l-0.1,0.9   l1,0.1c0,0.1-0.1,0.2-0.2,0.3s-0.2,0.2-0.2,0.2c-0.1,0.1-0.2,0.1-0.3,0.1c-0.1,0-0.2,0-0.4,0c-0.2,0-0.4-0.1-0.5-0.2   c-0.1-0.1-0.3-0.2-0.4-0.3c-0.1-0.1-0.1-0.3-0.2-0.5c0-0.2,0-0.4,0-0.6c0-0.2,0.1-0.4,0.2-0.6c0.1-0.2,0.2-0.3,0.3-0.4   c0.1-0.1,0.3-0.2,0.4-0.2c0.2-0.1,0.3-0.1,0.5-0.1c0.2,0,0.4,0.1,0.6,0.2c0.2,0.1,0.3,0.3,0.4,0.6l1.2-0.4   c-0.2-0.5-0.4-0.8-0.8-1.1c-0.3-0.2-0.8-0.4-1.2-0.4c-0.4,0-0.7,0-1.1,0.1c-0.3,0.1-0.6,0.2-0.8,0.4c-0.2,0.2-0.4,0.4-0.6,0.7   s-0.2,0.6-0.3,1c0,0.4,0,0.7,0.1,1s0.2,0.6,0.4,0.8s0.4,0.4,0.7,0.6c0.3,0.2,0.6,0.2,1,0.3c0.3,0,0.5,0,0.8,0   c0.2-0.1,0.5-0.1,0.7-0.2c0.2-0.1,0.4-0.2,0.6-0.4c0.2-0.2,0.3-0.4,0.4-0.6c0.1-0.2,0.1-0.3,0.2-0.6   C201.1,91,201.1,90.7,201.2,90.5z M204.5,91.2l2.4,0.6c-0.1,0.2-0.1,0.5-0.2,0.7s-0.2,0.4-0.3,0.5c-0.1,0.2-0.3,0.4-0.5,0.6   c-0.2,0.2-0.4,0.3-0.6,0.3s-0.5,0.1-0.7,0.1c-0.2,0-0.5,0-0.8-0.1c-0.4-0.1-0.7-0.2-0.9-0.4s-0.5-0.4-0.6-0.7s-0.3-0.6-0.3-0.9   s0-0.7,0.1-1c0.1-0.4,0.2-0.7,0.4-0.9c0.2-0.3,0.4-0.5,0.7-0.6c0.3-0.2,0.6-0.3,0.9-0.3c0.3-0.1,0.7,0,1.1,0.1   c0.5,0.1,0.9,0.3,1.2,0.6c0.3,0.3,0.5,0.7,0.6,1.2l-1.2,0.2c0-0.3-0.1-0.5-0.3-0.6s-0.3-0.2-0.5-0.3c-0.2-0.1-0.4-0.1-0.5,0   c-0.2,0-0.3,0.1-0.4,0.2c-0.1,0.1-0.2,0.2-0.4,0.4c-0.1,0.2-0.2,0.3-0.2,0.6c-0.1,0.2-0.1,0.4-0.1,0.6c0,0.2,0.1,0.3,0.1,0.5   c0.1,0.2,0.2,0.3,0.3,0.4c0.1,0.1,0.3,0.2,0.5,0.2c0.1,0,0.2,0.1,0.4,0.1c0.1,0,0.2,0,0.3-0.1s0.2-0.1,0.3-0.2   c0.1-0.1,0.1-0.2,0.2-0.3l-1-0.2L204.5,91.2z M208.1,90.9c0.3,0,0.5-0.2,0.5-0.5s-0.2-0.5-0.5-0.5s-0.5,0.2-0.5,0.5   C207.6,90.7,207.9,90.9,208.1,90.9z M208.1,90.8c-0.2,0-0.4-0.2-0.4-0.4s0.2-0.4,0.4-0.4c0.2,0,0.4,0.2,0.4,0.4   S208.4,90.8,208.1,90.8z M207.9,90.6h0.1v-0.2h0.1c0.1,0,0.1,0,0.1,0.1c0,0.1,0,0.1,0,0.1h0.1c0,0,0-0.1,0-0.1c0-0.1,0-0.1-0.1-0.1   v0c0.1,0,0.1-0.1,0.1-0.1c0-0.1,0-0.1-0.1-0.1c0,0-0.1,0-0.2,0c-0.1,0-0.1,0-0.2,0L207.9,90.6L207.9,90.6z M208.1,90.3L208.1,90.3   l-0.1-0.1c0,0,0,0,0.1,0c0.1,0,0.1,0,0.1,0.1C208.2,90.3,208.2,90.3,208.1,90.3z"></path>
	
		<linearGradient id="SVGID_1_" gradientUnits="userSpaceOnUse" x1="204.3476" y1="-66.2915" x2="204.4843" y2="-66.2915" gradientTransform="matrix(1 0 0 1 0 163.8515)">
		<stop offset="0" style="stop-color:#ED1C24"></stop>
		<stop offset="0.2361" style="stop-color:#E91C24"></stop>
		<stop offset="0.4038" style="stop-color:#E11B22"></stop>
		<stop offset="0.5501" style="stop-color:#D41920"></stop>
		<stop offset="0.6844" style="stop-color:#C3161D"></stop>
		<stop offset="0.8103" style="stop-color:#AD1116"></stop>
		<stop offset="0.9285" style="stop-color:#92080B"></stop>
		<stop offset="1" style="stop-color:#810101"></stop>
	</linearGradient>
	<path class="st3" d="M204.4,97.5c0.1,0,0.1,0,0.1,0v0C204.4,97.6,204.4,97.5,204.4,97.5z"></path>
</g>
<rect x="48.3" y="229" class="st4" width="276.2" height="46.8"></rect>
<text transform="matrix(1 0 0 1 59.27 244.7895)" class="st5 st6">Úsalo como tónico para la </text>
<text transform="matrix(1 0 0 1 54.97 271.1895)" class="st5 st6">piel en tu rutina de belleza. </text>
<line class="st0" x1="2" y1="204" x2="370.6" y2="204"></line>
</svg>
