<?xml version="1.0" encoding="UTF-8"?>
<!-- Generator: Adobe Illustrator 27.0.0, SVG Export Plug-In . SVG Version: 6.00 Build 0)  -->
<svg xmlns="http://www.w3.org/2000/svg" xmlns:xlink="http://www.w3.org/1999/xlink" version="1.1" id="Layer_2" x="0px" y="0px" viewBox="0 0 372.45 300.74" style="enable-background:new 0 0 372.45 300.74;" xml:space="preserve">
<style type="text/css">
	.st0{clip-path:url(#SVGID_00000052098459746387982640000007916942755338842012_);}
	.st1{fill-rule:evenodd;clip-rule:evenodd;fill:#231F20;}
	.st2{fill:#231F20;}
	.st3{fill:none;stroke:#231F20;stroke-width:1.5;}
	.st4{fill:#FFFFFF;}
	.st5{fill:url(#SVGID_00000130618162277342836450000006633692640891075718_);}
	.st6{fill:#2E2A2B;}
	.st7{clip-path:url(#SVGID_00000085967784877957750120000007720806217445882809_);}
	.st8{clip-path:url(#SVGID_00000022545073859489860400000004610505499284649918_);}
	.st9{fill:url(#SVGID_00000176754566435182572120000011695243848033594524_);}
	.st10{fill:url(#SVGID_00000150071121314855634260000011768058467116773022_);}
	.st11{fill:none;stroke:#EC1D2B;stroke-width:3;stroke-miterlimit:10;}
	.st12{clip-path:url(#SVGID_00000155842640363487946950000005690278354368545954_);}
	.st13{fill:url(#SVGID_00000076591788332206133630000010459909052881876624_);}
	.st14{fill:#231F20;stroke:#231F20;stroke-width:1.5;}
	.st15{fill:url(#SVGID_00000131359554492723945930000010405844712532485022_);}
	.st16{clip-path:url(#SVGID_00000062159480929496041570000016235336837386380426_);}
	.st17{fill:url(#SVGID_00000046319067053357417470000010499937878712534941_);}
	.st18{clip-path:url(#SVGID_00000099636033695479752840000000868634994157381526_);}
	.st19{clip-path:url(#SVGID_00000092457065225241488490000016401399342548646286_);}
	.st20{fill:url(#SVGID_00000008111511743631584260000004650496477402645632_);}
	.st21{fill:url(#SVGID_00000073712470593011511540000001629092694105698200_);}
	.st22{fill-rule:evenodd;clip-rule:evenodd;}
	.st23{clip-path:url(#SVGID_00000082370676770241856660000009998821951871448454_);}
	.st24{fill:url(#SVGID_00000072963012449713820680000003813827290492813464_);}
	.st25{clip-path:url(#SVGID_00000151530316459244378940000008665300385729227455_);}
	.st26{clip-path:url(#SVGID_00000143581219001109503560000016484411509822129080_);}
	.st27{fill:none;}
	.st28{font-family:'Helvetica';}
	.st29{font-size:22px;}
	.st30{fill:url(#SVGID_00000067198141667990427100000012593674213912799389_);}
	.st31{fill:url(#SVGID_00000111178687021762755750000012715410907208396731_);}
	.st32{clip-path:url(#SVGID_00000062168944853670501710000013499836777708587403_);}
	.st33{fill:#272324;}
	.st34{fill:#2D292A;}
	.st35{fill:#2C2829;}
	.st36{clip-path:url(#SVGID_00000110435934065987678770000013310017795595430050_);}
	.st37{fill:none;stroke:#231F20;stroke-width:1.25;}
	.st38{clip-path:url(#SVGID_00000123407600265672207780000008969334480454906006_);}
</style>
<g>
	<g>
		<defs>
			<rect id="SVGID_00000176737150534687543400000003843680146832513665_" x="3.7" y="4.3" width="366.43" height="199.72"></rect>
		</defs>
		<clipPath id="SVGID_00000183250368602556437660000001367935230796027579_">
			<use xlink:href="#SVGID_00000176737150534687543400000003843680146832513665_" style="overflow:visible;"></use>
		</clipPath>
		<g style="clip-path:url(#SVGID_00000183250368602556437660000001367935230796027579_);">
			<path class="st1" d="M178.19,37.31h1.03l0.46,0h0l0.46,0h1.03v0.01c7.08,0.06,11.51,0.48,14.36,1.02h0.04v0.01     c0.34,0.06,0.65,0.13,0.94,0.2c1.45,0.34,2.43,0.72,3.14,1.11c0.72,0.4,1.12,0.8,1.39,1.07c0.1,0.1,0.15,0.15,0.19,0.19     c0.46,0.38,0.73,0.9,0.92,1.41c0.18,0.51,0.31,1.1,0.38,1.69c0.16,1.18,0.18,2.55,0.18,3.77c0,1.85,0.72,7.23,1.1,9.75l0.23,1.52     l0.01,0.02l0.11,0.31l-0.05,0.17l0,0.02l0,0l-0.04,0.13v0l0,0.01l-0.01,0.03l-0.02,0.08l0,0.02c-0.07,0.31-0.24,1.03-0.53,1.68     c-0.14,0.31-0.32,0.66-0.58,0.96c0.23,0.53,0.39,1.21,0.34,2.02c-0.07,1.19-1.03,1.95-1.73,2.37c-0.47,0.28-0.98,0.5-1.44,0.67     v11.07l0.53,10.61c0.64,0.58,1.32,1.62,1.24,3.11c-0.03,0.64-0.31,1.2-0.66,1.61c-0.16,0.19-0.35,0.37-0.58,0.51     c-0.03,1.34-0.05,3.21-0.01,5.09c0.05,2.23,0.19,4.38,0.47,5.7c0.11,0.51,0.39,1.25,0.85,2.18c0.45,0.92,1.04,1.96,1.71,3.08     c1.34,2.23,2.96,4.68,4.4,6.84l0.01,0.02c1.09,1.64,2.07,3.13,2.71,4.19c2.32,3.86,5.49,10.33,4.72,21.06     c-0.59,8.3-0.25,19.56,0,24.15l0,0.03l-0.25,36.01h-2.15v-2.06h0.1l0.23-33.9c-0.22-4.18-0.53-13.77-0.15-21.78h-66.96     c0.38,8.01,0.07,17.6-0.15,21.78l0.15,21.72h-0.06v14.24h-1.9l-0.25-36.01l0-0.03c0.25-4.59,0.59-15.85,0-24.15     c-0.77-10.73,2.41-17.2,4.72-21.06c0.63-1.06,1.62-2.54,2.71-4.18l0.02-0.02c1.43-2.16,3.06-4.61,4.4-6.84     c0.67-1.11,1.26-2.16,1.71-3.08c0.46-0.93,0.74-1.67,0.85-2.18c0.28-1.32,0.42-3.47,0.47-5.7c0.05-1.88,0.03-3.75-0.01-5.09     c-0.22-0.15-0.42-0.32-0.58-0.51c-0.35-0.41-0.62-0.97-0.66-1.61c-0.08-1.48,0.6-2.53,1.24-3.11l0.53-10.61V67.54     c-0.46-0.16-0.97-0.38-1.44-0.67c-0.7-0.42-1.66-1.19-1.73-2.37c-0.05-0.81,0.1-1.49,0.34-2.02c-0.25-0.3-0.44-0.65-0.58-0.96     c-0.29-0.65-0.46-1.37-0.53-1.68l0-0.02l-0.02-0.08l-0.01-0.03l0-0.01l0,0l-0.07-0.25l-0.22,0.12l0.3-2.04     c0.37-2.52,1.1-7.9,1.1-9.75c0-1.21,0.02-2.58,0.18-3.77c0.08-0.59,0.2-1.18,0.39-1.69c0.18-0.5,0.46-1.03,0.91-1.41     c0.04-0.04,0.09-0.08,0.2-0.19c0.27-0.27,0.66-0.66,1.39-1.07c0.71-0.39,1.69-0.77,3.14-1.11     C165.63,37.91,170.23,37.39,178.19,37.31L178.19,37.31z M201.53,56.12c-0.56-0.15-1.18-0.28-1.83-0.39V42.3     c0.06,0.06,0.14,0.13,0.22,0.2c0.05,0.04,0.17,0.18,0.29,0.52c0.12,0.32,0.21,0.75,0.28,1.27c0.14,1.03,0.16,2.28,0.16,3.49     C200.65,49.42,201.14,53.37,201.53,56.12z M196.04,40.56c0.65,0.15,1.17,0.31,1.59,0.46v14.41c-0.66-0.08-1.35-0.15-2.06-0.22     V40.46C195.73,40.49,195.89,40.52,196.04,40.56z M193.51,40.1v14.94c-0.21-0.01-0.42-0.03-0.62-0.04     c-0.2-0.01-0.41-0.03-0.61-0.04V39.94C192.71,39.99,193.12,40.05,193.51,40.1z M188.97,39.65c0.43,0.03,0.84,0.06,1.24,0.09     v15.11c-0.41-0.02-0.83-0.04-1.24-0.05V39.65z M186.91,39.53v15.2c-0.42-0.01-0.83-0.02-1.24-0.03V39.48     C186.09,39.5,186.51,39.52,186.91,39.53z M182.37,39.4c0.42,0.01,0.84,0.01,1.24,0.02v15.26c-0.42,0-0.84-0.01-1.24-0.01V39.4z      M180.3,39.38v15.29l-0.17,0l-0.45,0l-0.45,0l-0.16,0V39.38l0.16,0l0.36,0l0.09,0h0l0.09,0l0.36,0L180.3,39.38z M175.76,39.42     c0.4-0.01,0.81-0.02,1.24-0.02v15.27c-0.4,0-0.82,0-1.24,0.01V39.42z M173.7,39.48v15.23c-0.41,0.01-0.82,0.02-1.24,0.03v-15.2     C172.86,39.52,173.27,39.5,173.7,39.48z M169.16,39.74c0.39-0.03,0.81-0.06,1.24-0.09V54.8c-0.41,0.02-0.83,0.03-1.24,0.05V39.74     z M167.1,39.94v15.02c-0.21,0.01-0.41,0.03-0.62,0.04c-0.21,0.01-0.42,0.03-0.62,0.04V40.1     C166.25,40.05,166.66,39.99,167.1,39.94z M163.8,40.46v14.75c-0.71,0.07-1.4,0.14-2.06,0.22V41.01c0.42-0.15,0.94-0.3,1.59-0.45     C163.47,40.52,163.63,40.49,163.8,40.46z M157.84,56.12c0.56-0.15,1.18-0.28,1.83-0.39V42.3c-0.07,0.06-0.14,0.13-0.22,0.2     c-0.05,0.04-0.17,0.18-0.29,0.52c-0.12,0.32-0.21,0.75-0.28,1.27c-0.14,1.03-0.16,2.28-0.16,3.49     C158.72,49.42,158.22,53.37,157.84,56.12z M213.44,142.44c-0.01,0.18-0.02,0.36-0.04,0.54h-67.2c-0.01-0.18-0.02-0.36-0.04-0.54     c-0.73-10.19,2.26-16.24,4.43-19.85c0.61-1.01,1.57-2.46,2.67-4.13l0.01-0.01c1.43-2.15,3.08-4.64,4.44-6.91     c0.68-1.14,1.3-2.24,1.79-3.23c0.48-0.97,0.86-1.89,1.02-2.66c0.32-1.52,0.46-3.85,0.51-6.07c0.05-2.25,0.02-4.48-0.03-5.85     l-0.03-0.84l-0.83-0.14c0,0-0.02-0.01-0.05-0.02c-0.04-0.03-0.09-0.07-0.15-0.13c-0.11-0.13-0.16-0.27-0.17-0.38     c-0.05-0.95,0.53-1.47,0.7-1.57l0.49-0.28l0.59-11.7v-12.7l-0.79-0.19c-0.44-0.11-1.11-0.34-1.66-0.67     c-0.61-0.37-0.73-0.64-0.73-0.73c-0.05-0.9,0.31-1.32,0.35-1.36l0,0l2.12-1.65l-2.59-0.19l-0.01-0.01     c-0.08-0.09-0.18-0.24-0.28-0.48c-0.11-0.25-0.2-0.52-0.27-0.77c0.08-0.03,0.17-0.05,0.27-0.08c0.69-0.2,1.8-0.42,3.48-0.62     c3.36-0.41,8.86-0.76,17.51-0.8l0.68,0l0.14,0h0l0.14,0l0.68,0c8.65,0.04,14.15,0.39,17.51,0.8c1.68,0.21,2.8,0.43,3.48,0.62     c0.1,0.03,0.19,0.06,0.27,0.08c-0.07,0.25-0.16,0.52-0.27,0.77c-0.1,0.24-0.2,0.39-0.28,0.48l-0.01,0.01l-2.59,0.19l2.12,1.65     l0,0c0.03,0.04,0.4,0.46,0.35,1.36c0,0.08-0.12,0.36-0.73,0.73c-0.54,0.33-1.21,0.56-1.66,0.67l-0.79,0.19v12.7l0.59,11.7     l0.49,0.28c0.17,0.1,0.75,0.62,0.69,1.57c0,0.11-0.06,0.25-0.17,0.38c-0.05,0.06-0.1,0.1-0.15,0.13     c-0.03,0.02-0.04,0.02-0.05,0.02l-0.83,0.14l-0.03,0.84c-0.05,1.37-0.08,3.6-0.03,5.85c0.05,2.22,0.19,4.55,0.51,6.07     c0.16,0.77,0.54,1.69,1.02,2.66c0.49,0.99,1.1,2.09,1.79,3.23c1.36,2.28,3.02,4.77,4.44,6.91l0.01,0.01     c1.11,1.67,2.07,3.11,2.67,4.13C211.18,126.21,214.17,132.25,213.44,142.44z M200.61,173.68c-3.29-1.43-6.77-2.54-10.37-3.27     l0.69-2.68c2.22,0.46,4.4,1.05,6.52,1.77l2.33-6.86c1.65,0.55,3.26,1.18,4.84,1.87l-4.13,3.71L200.61,173.68z M168.82,167.74     c-2.22,0.46-4.4,1.06-6.52,1.78l-2.33-6.87c-1.65,0.56-3.26,1.19-4.84,1.88l4.12,3.69l-0.11,5.47c3.29-1.45,6.77-2.55,10.37-3.28     L168.82,167.74z M159.85,160.4l2.84,8.35c5.41-1.78,11.2-2.74,17.21-2.74c5.99,0,11.76,0.95,17.16,2.72l2.84-8.35     c-6.29-2.07-13.01-3.19-20-3.19C172.9,157.19,166.15,158.32,159.85,160.4z M168.68,163.32c0.07,0.14,0.14,0.31,0.18,0.48     c0.07,0.27,0.07,0.53,0.03,0.76c-0.05,0.24-0.14,0.45-0.28,0.64c-0.14,0.18-0.33,0.34-0.56,0.47c-0.22,0.13-0.51,0.24-0.81,0.31     l-2.46,0.56l-1.08-4.67l-0.58,0.14l0.18-1.32l2.4-0.55c0.54-0.13,0.98-0.09,1.32,0.11c0.34,0.19,0.56,0.54,0.68,1.02     c0.07,0.29,0.07,0.55,0.01,0.78c-0.07,0.22-0.19,0.42-0.38,0.61c0.22-0.01,0.42,0.01,0.6,0.06c0.18,0.05,0.32,0.12,0.45,0.22     C168.51,163.05,168.6,163.17,168.68,163.32z M165.5,161.41l-0.28,0.07l0.26,1.13l0.28-0.07c0.48-0.11,0.67-0.35,0.59-0.73     C166.26,161.43,165.98,161.3,165.5,161.41z M166.37,164.93c0.38-0.09,0.65-0.2,0.79-0.34c0.14-0.14,0.19-0.32,0.14-0.54     c-0.06-0.21-0.18-0.35-0.36-0.41c-0.19-0.06-0.47-0.05-0.86,0.05l-0.33,0.08l0.29,1.25L166.37,164.93z M175.45,164.69l-2.19-2.22     c0.41-0.15,0.72-0.39,0.91-0.69c0.19-0.31,0.25-0.69,0.19-1.15c-0.03-0.26-0.11-0.48-0.21-0.69c-0.11-0.21-0.26-0.39-0.44-0.54     c-0.19-0.15-0.4-0.26-0.67-0.33c-0.26-0.07-0.55-0.08-0.89-0.04l-2.55,0.32l-0.31,1.29l0.6-0.08l0.59,4.75l1.55-0.19l-0.28-2.31     l1.77,2.12L175.45,164.69z M172.59,161.48c-0.15,0.15-0.38,0.24-0.68,0.28l-0.29,0.04l-0.18-1.48l0.29-0.04     c0.31-0.04,0.55,0,0.73,0.11c0.18,0.11,0.28,0.28,0.32,0.52C172.8,161.14,172.74,161.34,172.59,161.48z M177.7,158.55l2.28-0.02     l2.38,6.01l-1.67,0.02l-0.38-1.05l-2.23,0.04l-0.34,1.05l-1.67,0.02l1.76-4.82h-0.59L177.7,158.55z M179.15,160.33l-0.68,2.01     l1.41-0.01L179.15,160.33z M186.12,161.5l3.09,0.33c-0.04,0.32-0.08,0.6-0.13,0.86c-0.06,0.26-0.13,0.49-0.23,0.71     c-0.14,0.31-0.33,0.56-0.54,0.79c-0.21,0.22-0.46,0.4-0.74,0.53c-0.27,0.13-0.56,0.22-0.88,0.28c-0.32,0.05-0.65,0.06-0.99,0.02     c-0.47-0.05-0.88-0.18-1.25-0.36c-0.36-0.2-0.67-0.45-0.92-0.75c-0.25-0.31-0.42-0.66-0.54-1.07c-0.12-0.41-0.14-0.85-0.09-1.32     c0.05-0.47,0.18-0.88,0.36-1.26c0.19-0.38,0.45-0.68,0.75-0.93c0.31-0.25,0.67-0.42,1.07-0.54c0.41-0.12,0.86-0.14,1.34-0.09     c0.62,0.07,1.17,0.26,1.6,0.58c0.45,0.32,0.78,0.78,0.99,1.38l-1.54,0.46c-0.11-0.34-0.26-0.6-0.46-0.76s-0.45-0.27-0.73-0.29     c-0.24-0.02-0.45,0-0.65,0.06c-0.2,0.07-0.38,0.18-0.53,0.32c-0.15,0.15-0.28,0.33-0.38,0.55c-0.11,0.22-0.17,0.47-0.2,0.75     c-0.02,0.26-0.02,0.49,0.02,0.72c0.05,0.22,0.12,0.42,0.24,0.6c0.12,0.18,0.27,0.32,0.46,0.42c0.19,0.11,0.41,0.18,0.67,0.2     c0.15,0.01,0.31,0.01,0.45,0c0.14-0.02,0.28-0.06,0.4-0.13c0.12-0.06,0.22-0.15,0.32-0.27c0.08-0.12,0.15-0.26,0.2-0.44     l-1.28-0.14L186.12,161.5z M196.47,163.45l-3.03-0.72l-0.34,1.18l1.26,0.29c-0.06,0.16-0.14,0.29-0.25,0.4     c-0.09,0.09-0.21,0.18-0.34,0.22c-0.13,0.05-0.26,0.07-0.41,0.07c-0.15,0-0.3-0.02-0.45-0.06c-0.25-0.06-0.46-0.15-0.64-0.28     c-0.18-0.14-0.31-0.29-0.4-0.48c-0.09-0.19-0.15-0.4-0.16-0.62c-0.01-0.24,0.01-0.47,0.07-0.72c0.07-0.27,0.17-0.52,0.3-0.72     c0.13-0.2,0.28-0.36,0.45-0.49c0.16-0.12,0.35-0.21,0.56-0.25c0.21-0.04,0.43-0.04,0.66,0.02c0.27,0.07,0.51,0.2,0.68,0.39     c0.19,0.2,0.31,0.47,0.36,0.82l1.59-0.26c-0.13-0.62-0.4-1.12-0.8-1.49c-0.4-0.38-0.91-0.64-1.52-0.78     c-0.47-0.12-0.92-0.14-1.34-0.08c-0.41,0.06-0.79,0.2-1.13,0.4c-0.33,0.2-0.62,0.48-0.86,0.82c-0.24,0.34-0.41,0.74-0.52,1.2     c-0.11,0.46-0.13,0.91-0.07,1.32c0.06,0.41,0.2,0.79,0.4,1.13c0.21,0.34,0.48,0.64,0.82,0.87c0.34,0.24,0.74,0.41,1.2,0.52     c0.33,0.08,0.66,0.12,0.98,0.11c0.32-0.01,0.62-0.07,0.92-0.16c0.29-0.09,0.55-0.25,0.8-0.44c0.25-0.19,0.46-0.42,0.64-0.71     c0.13-0.2,0.25-0.42,0.33-0.67C196.32,164.03,196.4,163.75,196.47,163.45z M198.79,161.69c0,0.36-0.28,0.65-0.66,0.65     c-0.36,0-0.66-0.28-0.66-0.65c0-0.35,0.3-0.65,0.66-0.65C198.51,161.04,198.79,161.33,198.79,161.69z M197.64,161.69     c0,0.28,0.21,0.52,0.51,0.52c0.28,0,0.5-0.22,0.5-0.51c0-0.28-0.21-0.52-0.5-0.52C197.85,161.17,197.64,161.41,197.64,161.69z      M198.04,162.02h-0.15v-0.65c0.06-0.01,0.14-0.02,0.25-0.02c0.12,0,0.18,0.02,0.22,0.05c0.03,0.02,0.06,0.08,0.06,0.14     c0,0.07-0.06,0.13-0.13,0.15v0.01c0.06,0.02,0.09,0.07,0.12,0.15c0.02,0.09,0.03,0.14,0.05,0.16h-0.17     c-0.02-0.02-0.03-0.08-0.05-0.15c-0.01-0.07-0.05-0.11-0.13-0.11h-0.07V162.02z M198.04,161.66h0.07c0.08,0,0.15-0.02,0.15-0.09     c0-0.06-0.05-0.09-0.14-0.09c-0.04,0-0.07,0-0.08,0.01V161.66z"></path>
			<path class="st1" d="M298.25,106.75c-8.53-5.5-17.88-7.44-24.27-7.55v84.33h20.62c-0.31-2.07-0.47-4.19-0.47-6.34     c0-17.06,9.99-31.8,24.45-38.66l-0.32,0.05C315.47,122.46,307.3,112.58,298.25,106.75z M271.5,148.03v35.5h-48.36     c-0.97-2.93-1.91-7.26-1.7-11.81c0.22-4.74,1.67-9.62,5.5-13.46c3.98-3.99,7.36-5.64,10.05-6.33c2.17-0.56,2.26-0.5,3.74-0.46     c0.38,0.01,0.75,0.02,1.1,0.02h0.89l0.28-0.85c2.31-6.9,6.95-12.66,15.05-12.66C266.23,137.98,270.51,143.28,271.5,148.03z      M218.96,171.61c-0.21,4.53,0.63,8.82,1.58,11.92h-7.22v35.34h2.48V186h154.33v-2.48h-0.54c0.27-1.41,0.46-2.85,0.54-4.32v-4.04     c-1.04-17.44-15.52-31.25-33.21-31.25c-18.38,0-33.28,14.9-33.28,33.27c0,2.17,0.21,4.29,0.6,6.34h-7.14     c-0.33-2.06-0.5-4.18-0.5-6.34c0-22.26,18.04-40.3,40.3-40.3c13.78,0,25.95,6.92,33.22,17.47v-4.13     c-7.84-9.65-19.81-15.82-33.22-15.82c-5.77,0-11.28,1.14-16.3,3.22c-3-16.53-11.52-26.83-21.01-32.96     c-9.56-6.17-20.06-8.08-26.88-7.94l-1.21,0.02v45.26c-2.58-3.64-7.03-6.5-13.44-6.5c-9.27,0-14.52,6.45-17.1,13.49l-0.04,0     c-1.49-0.05-2-0.12-4.55,0.54c-3.17,0.82-6.93,2.72-11.18,6.98C220.79,160.91,219.2,166.45,218.96,171.61z M367.71,177.19     c0,2.17-0.23,4.29-0.65,6.34h-7.23c0.56-2.02,0.85-4.14,0.85-6.34c0-13.13-10.64-23.77-23.77-23.77     c-13.13,0-23.77,10.64-23.77,23.77c0,2.2,0.3,4.32,0.85,6.34h-7.23c-0.43-2.05-0.65-4.17-0.65-6.34c0-17.01,13.79-30.8,30.8-30.8     C353.92,146.39,367.71,160.18,367.71,177.19z M358.21,177.19c0,2.21-0.34,4.34-0.96,6.34h-7.55c0.95-1.91,1.48-4.06,1.48-6.34     c0-7.88-6.38-14.26-14.26-14.26c-7.88,0-14.26,6.38-14.26,14.26c0,2.28,0.53,4.43,1.48,6.34h-7.55c-0.62-2-0.96-4.13-0.96-6.34     c0-11.76,9.53-21.29,21.29-21.29S358.21,165.43,358.21,177.19z M348.7,177.19c0,2.33-0.68,4.51-1.85,6.34h-19.87     c-1.17-1.83-1.85-4.01-1.85-6.34c0-6.51,5.28-11.78,11.78-11.78C343.42,165.4,348.7,170.68,348.7,177.19z"></path>
			<path class="st1" d="M84.57,184.41h11.55v2.06H84.57V184.41z"></path>
			<path class="st1" d="M132.44,189.36h13.2v2.06h-13.2V189.36z"></path>
			<path class="st1" d="M132.45,95.21c-4.71,1.78-10.3,5.13-14.78,11.11c-7.91,10.56-6.03,20.62-3.14,27.81     c3.46,0.05,11.78-1.99,20.37-11.41c4.46-4.9,6.41-10.89,7.01-16.43c0.56-5.17-0.06-9.89-0.84-12.86     c-0.12-0.01-0.27-0.01-0.44-0.01c-0.53,0.01-1.22,0.06-2.04,0.18C136.93,93.82,134.8,94.32,132.45,95.21z M140.6,91.35     c0.61-0.01,1.17,0.03,1.58,0.16l0.53,0.16l0.16,0.53c0.94,3.15,1.73,8.47,1.1,14.31c-0.63,5.85-2.7,12.29-7.54,17.6     c-9.47,10.39-18.91,12.43-22.71,12.04l-0.61-0.06l-0.24-0.57c-3.15-7.56-5.6-18.76,3.15-30.44c4.76-6.35,10.7-9.91,15.7-11.8     c2.5-0.95,4.77-1.48,6.56-1.73C139.18,91.41,139.96,91.35,140.6,91.35z"></path>
			<path class="st1" d="M95.29,113.64c4.85-0.35,11.69,0.96,15.15,6.47l1.75-1.1c-4.3-6.84-12.81-7.95-17.98-7.34l-0.83,0.1     l-0.08,0.83c-0.89,9.25,2.2,15.06,6.59,18.48c4.32,3.37,9.75,4.31,13.45,4.16l-0.08-2.06c-3.35,0.13-8.26-0.74-12.09-3.72     C97.52,126.62,94.72,121.77,95.29,113.64z"></path>
			<path class="st1" d="M107.26,163.07c4.07-0.11,7.64-0.92,9.65-1.61l0.68,1.95c-2.2,0.76-5.98,1.61-10.27,1.73     c-4.28,0.12-9.16-0.49-13.5-2.72l0.94-1.83C98.69,162.59,103.19,163.18,107.26,163.07z"></path>
			<path class="st1" d="M119.27,201.31c-3.29,0.04-6.21-0.48-7.93-1l0.59-1.98c1.52,0.45,4.22,0.95,7.31,0.91     c3.08-0.04,6.47-0.62,9.39-2.23l1,1.8C126.32,200.65,122.57,201.26,119.27,201.31z"></path>
			<path class="st2" d="M214.97,185.44h155.16v33.01H214.97V185.44z"></path>
			<path class="st2" d="M3.7,185.44h141.95v33.01H3.7V185.44z"></path>
			<path class="st2" d="M130.79,185.44h14.03v33.01h-18.16L130.79,185.44z"></path>
			<path class="st1" d="M145.65,185.44H3.7v-1.65h141.95V185.44z"></path>
			<path class="st1" d="M46.2,154.9v37.14h-2.48V154.9H46.2z"></path>
			<path class="st1" d="M76.16,169.55l-18.57,32.16l-2.14-1.24l18.57-32.16L76.16,169.55z"></path>
			<path class="st1" d="M40.64,199.02l-26.26-26.26l1.75-1.75l26.26,26.26L40.64,199.02z"></path>
			<path class="st1" d="M95.31,160.17c-0.43-3.98,0.03-9.94,2.77-14.89c2.7-4.87,7.65-8.85,16.45-8.95     c4.43-0.05,7.83,0.9,10.43,2.44c2.6,1.53,4.46,3.68,5.75,6.1c2.61,4.88,2.93,10.82,2.39,14.82l0,0.01l-6.5,58.65l2.05,0.23     l6.5-58.62c0.57-4.27,0.26-10.68-2.62-16.05c-1.45-2.7-3.55-5.15-6.52-6.9c-2.97-1.75-6.75-2.78-11.5-2.72     c-9.55,0.11-15.17,4.51-18.23,10.02c-3.01,5.42-3.49,11.83-3.02,16.1l0.02,0.31h2.07l-0.03-0.49L95.31,160.17z M98.39,218.45     h-1.03l0.01,0.07L98.39,218.45z"></path>
			<path class="st1" d="M63.33,202.77l-1.16-0.68l-1.2,0.6c-4.32,2.16-9.2,3.37-14.36,3.37c-6.18,0-11.95-1.74-16.85-4.76     l-1.41-0.87l-1.34,0.98c-4.03,2.93-8.94,4.65-14.24,4.65c-2.58,0-5.08-0.41-7.43-1.17v2.59c2.36,0.69,4.85,1.06,7.43,1.06     c5.84,0,11.26-1.9,15.69-5.12c5.28,3.25,11.49,5.12,18.15,5.12c5.56,0,10.81-1.31,15.47-3.63c3.96,2.31,8.54,3.63,13.42,3.63     c15.04,0,27.23-12.56,27.23-28.06s-12.19-28.06-27.23-28.06c-0.54,0-1.09,0.02-1.62,0.05c-6.35-8.07-16.2-13.25-27.26-13.25     c-11.36,0-21.44,5.46-27.76,13.91c-1.95-0.46-3.99-0.7-6.07-0.7c-2.58,0-5.07,0.37-7.43,1.06v2.59c2.35-0.76,4.84-1.17,7.43-1.17     c1.9,0,3.74,0.22,5.51,0.64l1.58,0.37l0.97-1.3c5.87-7.84,15.24-12.91,25.78-12.91c10.27,0,19.42,4.81,25.32,12.31l0.8,1.02     l1.29-0.08c0.49-0.03,0.98-0.04,1.47-0.04c13.6,0,24.76,11.38,24.76,25.58c0,14.2-11.15,25.58-24.76,25.58     C71.07,206.07,66.92,204.87,63.33,202.77z"></path>
		</g>
	</g>
</g>
<path class="st11" d="M319.19,298.82H53.7c-28.41,0-51.44-23.03-51.44-51.44V53.43c0-28.41,23.03-51.44,51.44-51.44h265.5  c28.41,0,51.44,23.03,51.44,51.44v193.95C370.63,275.79,347.6,298.82,319.19,298.82z"></path>
<rect x="57.82" y="230.83" class="st27" width="257.25" height="46.82"></rect>
<text transform="matrix(1 0 0 1 58.0237 246.6471)"><tspan x="0" y="0" class="st28 st29">Vierte sobre una ensalada</tspan><tspan x="47.71" y="26.4" class="st28 st29">de hojas verdes. </tspan></text>
<line class="st11" x1="2.04" y1="204.02" x2="370.63" y2="204.02"></line>
</svg>
