<?xml version="1.0" encoding="UTF-8"?>
<!-- Generator: Adobe Illustrator 27.0.0, SVG Export Plug-In . SVG Version: 6.00 Build 0)  -->
<svg xmlns="http://www.w3.org/2000/svg" xmlns:xlink="http://www.w3.org/1999/xlink" version="1.1" id="Layer_2" x="0px" y="0px" viewBox="0 0 372.45 300.74" style="enable-background:new 0 0 372.45 300.74;" xml:space="preserve">
<style type="text/css">
	.st0{clip-path:url(#SVGID_00000044890739521188349350000003728821957980818354_);}
	.st1{fill-rule:evenodd;clip-rule:evenodd;fill:#231F20;}
	.st2{fill:#231F20;}
	.st3{fill:none;stroke:#231F20;stroke-width:1.5;}
	.st4{fill:#FFFFFF;}
	.st5{fill:url(#SVGID_00000119812111565428197780000015915036533176362405_);}
	.st6{fill:#2E2A2B;}
	.st7{clip-path:url(#SVGID_00000101798164346707704830000010773179712771217292_);}
	.st8{clip-path:url(#SVGID_00000026846510805078299030000016815260571987588259_);}
	.st9{fill:url(#SVGID_00000175289167719442389070000011601993650620681128_);}
	.st10{fill:url(#SVGID_00000071536531991058260250000015563550958472844447_);}
	.st11{fill:none;stroke:#EC1D2B;stroke-width:3;stroke-miterlimit:10;}
	.st12{clip-path:url(#SVGID_00000139979096622886393040000005666410182784930186_);}
	.st13{fill:url(#SVGID_00000178893104418837163090000011958917788764173440_);}
	.st14{fill:#231F20;stroke:#231F20;stroke-width:1.5;}
	.st15{fill:url(#SVGID_00000127733794335397291990000008378650949148265660_);}
	.st16{clip-path:url(#SVGID_00000145775182599630681180000012216280307873143455_);}
	.st17{fill:url(#SVGID_00000054248105527257905420000014201274473246912190_);}
	.st18{clip-path:url(#SVGID_00000045598234256020805810000005284685500157884591_);}
	.st19{clip-path:url(#SVGID_00000119086777935156755840000012726222746120138887_);}
	.st20{fill:url(#SVGID_00000014592264290870319670000016618083907979200402_);}
	.st21{fill:url(#SVGID_00000002354374058375629920000001336249588581905336_);}
	.st22{fill-rule:evenodd;clip-rule:evenodd;}
	.st23{clip-path:url(#SVGID_00000093884508000575714220000015169731215003833767_);}
	.st24{fill:url(#SVGID_00000159432818569932548340000013029297069831616936_);}
	.st25{clip-path:url(#SVGID_00000011735185028049723810000017450658665820075926_);}
	.st26{clip-path:url(#SVGID_00000145741121123729077120000016969901411812269746_);}
	.st27{fill:none;}
	.st28{font-family:'Helvetica';}
	.st29{font-size:22px;}
	.st30{fill:url(#SVGID_00000072263540069125132260000000610572145713895856_);}
	.st31{fill:url(#SVGID_00000132799669209420571440000010605512302965201550_);}
	.st32{clip-path:url(#SVGID_00000078020779888302228220000003470895577614058139_);}
	.st33{fill:#272324;}
	.st34{fill:#2D292A;}
	.st35{fill:#2C2829;}
	.st36{clip-path:url(#SVGID_00000152261509452673884450000011815036167334163860_);}
	.st37{fill:none;stroke:#231F20;stroke-width:1.25;}
	.st38{clip-path:url(#SVGID_00000030484308649183287260000009922860840952135309_);}
</style>
<g>
	<path class="st1" d="M119.42,29.7l-0.96,0.55l0,0.01c-7.33,4.32-11.32,7.26-13.54,9.34c-1.16,1.09-1.87,1.96-2.31,2.7   c-0.46,0.76-0.61,1.33-0.71,1.73c-0.04,0.15-0.06,0.22-0.08,0.28c-0.22,0.59-0.2,1.23-0.1,1.79c0.1,0.58,0.3,1.18,0.55,1.77   c0.49,1.18,1.2,2.46,1.85,3.59c0.99,1.71,3.19,7.08,4.2,9.61l0.81,2.05l0.14-0.23l0.2,0.2l0,0l0.01,0.01l0.02,0.02l0.06,0.07   l0.01,0.01c0.24,0.25,0.78,0.82,1.39,1.27c0.29,0.21,0.65,0.44,1.05,0.58c0.07,0.62,0.29,1.33,0.77,2.05c0.7,1.06,2,1.26,2.87,1.27   c0.59,0.01,1.18-0.06,1.69-0.15l5.92,10.25l5.18,10.11c-0.28,0.87-0.35,2.21,0.51,3.54c0.37,0.57,0.92,0.94,1.47,1.14   c0.25,0.09,0.52,0.15,0.81,0.17c0.75,1.22,1.76,2.94,2.72,4.71c1.14,2.09,2.16,4.16,2.61,5.53c0.17,0.53,0.3,1.37,0.38,2.47   c0.07,1.09,0.09,2.37,0.06,3.76c-0.05,2.78-0.24,5.92-0.41,8.69l0,0.03c-0.13,2.1-0.25,4-0.27,5.32   c-0.08,4.81,0.44,12.5,6.89,22.03c4.99,7.37,10.69,17.98,12.91,22.37l0.02,0.03l19.48,33.22h2.62l-8.47-14.2l0.06-0.03   l-11.75-20.04c-2.03-3.99-6.87-13.04-11.51-20.25l62.01-35.8c3.93,7.62,9.34,16.34,11.78,20.09l17.91,31.51l-0.09,0.05l21.6,38.67   h2.65l-40.18-71.38l-0.02-0.03c-2.69-4.12-9.02-14.36-12.92-22.37c-5.03-10.35-11.42-14.64-15.63-16.98   c-1.15-0.64-2.86-1.49-4.75-2.43l-0.03-0.01c-2.48-1.23-5.3-2.64-7.73-3.99c-1.22-0.68-2.32-1.33-3.22-1.94   c-0.92-0.62-1.58-1.15-1.95-1.56c-0.96-1.07-2.24-2.99-3.48-5.03c-1.05-1.72-2.03-3.45-2.71-4.71c0.13-0.25,0.21-0.52,0.26-0.78   c0.1-0.57,0.06-1.23-0.25-1.84c-0.72-1.41-1.91-2.02-2.81-2.21l-6.17-9.54l-5.92-10.25c0.34-0.4,0.7-0.88,0.98-1.39   c0.42-0.76,0.9-1.99,0.33-3.12c-0.39-0.77-0.89-1.32-1.39-1.69c0.07-0.41,0.06-0.84,0.02-1.2c-0.08-0.76-0.31-1.51-0.41-1.84   l0-0.02l-0.03-0.09l-0.01-0.03l0-0.01l0,0L154.36,37l0.01,0l-0.01-0.01l-0.05-0.18l-0.27-0.23l-0.02-0.01L153,35.27   c-1.7-2.14-5.24-6.73-6.23-8.44c-0.65-1.12-1.4-2.38-2.18-3.39c-0.39-0.51-0.81-0.98-1.26-1.36c-0.44-0.37-0.98-0.71-1.6-0.81   c-0.06-0.01-0.13-0.03-0.28-0.07c-0.39-0.11-0.97-0.26-1.85-0.25c-0.86,0.01-1.97,0.19-3.5,0.65c-0.31,0.09-0.63,0.2-0.98,0.32   l0-0.01l-0.04,0.02c-2.92,1.02-7.25,3-13.84,6.73l0-0.01l-0.96,0.55l-0.43,0.25l0,0L119.42,29.7z M148.23,35.81   c0.67-0.24,1.31-0.45,1.9-0.62c-1.82-2.34-4.39-5.73-5.27-7.26c-0.65-1.12-1.34-2.26-2.02-3.15c-0.34-0.44-0.66-0.78-0.94-1.02   c-0.29-0.25-0.47-0.31-0.55-0.32c-0.11-0.02-0.21-0.04-0.31-0.07L148.23,35.81z M138.45,23.28c-0.47,0.08-1.03,0.22-1.72,0.43   c-0.16,0.05-0.32,0.1-0.49,0.16l7.89,13.66c0.7-0.32,1.38-0.62,2.03-0.9L138.45,23.28z M142.13,38.48l-7.99-13.84   c-0.39,0.16-0.8,0.33-1.23,0.52l8.03,13.91c0.2-0.1,0.39-0.2,0.59-0.29C141.73,38.67,141.93,38.58,142.13,38.48z M130.89,26.08   c-0.38,0.18-0.78,0.37-1.2,0.58l8.1,14.03c0.39-0.21,0.78-0.41,1.17-0.61L130.89,26.08z M135.85,41.73l-8.13-14.08   c-0.38,0.2-0.77,0.4-1.17,0.61l8.14,14.1C135.07,42.15,135.46,41.94,135.85,41.73z M124.61,29.31c-0.38,0.21-0.76,0.42-1.16,0.64   l8.16,14.14c0.37-0.21,0.76-0.43,1.15-0.65L124.61,29.31z M129.7,45.2l-8.18-14.16l-0.15,0.09l-0.34,0.19l-0.08,0.05l0,0   l-0.08,0.05l-0.34,0.2l-0.15,0.09l8.18,14.16l0.15-0.09l0.42-0.24l0.42-0.25L129.7,45.2z M118.48,32.82   c-0.39,0.23-0.77,0.46-1.13,0.68l8.16,14.13c0.39-0.23,0.77-0.45,1.14-0.67L118.48,32.82z M123.61,48.76l-8.14-14.1   c-0.39,0.24-0.76,0.48-1.12,0.71l8.13,14.08C122.86,49.22,123.23,48.99,123.61,48.76z M112.5,36.58c-0.38,0.26-0.75,0.51-1.1,0.75   l8.08,13.99c0.37-0.24,0.75-0.47,1.12-0.71L112.5,36.58z M117.63,52.52l-8.03-13.91c-0.38,0.28-0.73,0.55-1.06,0.81l7.99,13.84   c0.18-0.12,0.37-0.25,0.55-0.37C117.26,52.77,117.44,52.65,117.63,52.52z M114.7,54.52l-7.89-13.66c-0.13,0.12-0.26,0.24-0.38,0.35   c-0.52,0.49-0.92,0.91-1.23,1.27l7.71,13.35C113.48,55.4,114.08,54.96,114.7,54.52z M111.16,57.21c-0.55,0.46-1.05,0.91-1.49,1.34   c-1.12-2.75-2.77-6.67-3.65-8.2c-0.65-1.12-1.29-2.29-1.72-3.32c-0.21-0.52-0.35-0.96-0.42-1.32c-0.07-0.38-0.03-0.57-0.01-0.63   c0.04-0.1,0.07-0.21,0.1-0.3L111.16,57.21z M207.57,109.27c-0.08-0.17-0.17-0.35-0.25-0.52c-4.77-9.82-10.78-13.83-14.72-16.01   c-1.1-0.61-2.77-1.44-4.68-2.39l-0.01-0.01c-2.47-1.23-5.33-2.65-7.81-4.03c-1.24-0.69-2.4-1.38-3.38-2.03   c-0.96-0.64-1.81-1.3-2.37-1.92c-1.11-1.24-2.48-3.32-3.72-5.35c-1.25-2.05-2.41-4.13-3.1-5.43l-0.42-0.8l0.69-0.57   c0,0,0.01-0.02,0.03-0.05c0.02-0.05,0.05-0.11,0.07-0.2c0.03-0.17,0.01-0.33-0.05-0.44c-0.46-0.91-1.27-1.08-1.48-1.08l-0.6,0   l-6.8-10.52l-6.79-11.76l0.63-0.6c0.35-0.34,0.85-0.91,1.18-1.5c0.37-0.67,0.33-0.98,0.29-1.06c-0.43-0.87-1-1.06-1.05-1.08l0,0   l-2.85-0.39l2.3-1.56l0-0.02c0.03-0.12,0.03-0.32,0-0.59c-0.03-0.29-0.09-0.59-0.16-0.86c-0.09,0.02-0.18,0.04-0.29,0.07   c-0.74,0.19-1.89,0.58-3.56,1.29c-3.33,1.41-8.61,4.03-16.64,8.62l-0.63,0.36l-0.13,0.08l0,0l-0.13,0.08l-0.63,0.36   c-7.99,4.66-12.9,7.92-15.79,10.1c-1.45,1.09-2.36,1.89-2.89,2.44c-0.08,0.08-0.15,0.15-0.2,0.22c0.2,0.19,0.43,0.4,0.66,0.57   c0.22,0.16,0.4,0.26,0.52,0.3l0.02,0.01l2.5-1.22l-1.08,2.66l0,0c-0.01,0.05-0.13,0.64,0.41,1.45c0.05,0.07,0.3,0.27,1.07,0.28   c0.68,0.01,1.42-0.13,1.89-0.27l0.83-0.24l6.79,11.76l5.71,11.15l-0.3,0.52c-0.11,0.18-0.36,0.97,0.2,1.83   c0.07,0.1,0.19,0.2,0.36,0.26c0.08,0.03,0.15,0.04,0.2,0.04c0.03,0,0.05,0,0.06,0l0.84-0.31l0.48,0.77c0.78,1.24,2,3.29,3.15,5.4   c1.14,2.09,2.25,4.32,2.77,5.9c0.26,0.8,0.4,1.86,0.48,3.01c0.08,1.17,0.09,2.52,0.07,3.94c-0.05,2.84-0.25,6.02-0.42,8.78v0   l0,0.01c-0.13,2.14-0.25,3.99-0.27,5.25c-0.08,4.51,0.39,11.7,6.51,20.75c0.11,0.16,0.21,0.32,0.32,0.48L207.57,109.27z    M200.79,147.06c3.72-1.25,7.53-2.08,11.35-2.51l-3.03-5l1.84-5.64c-1.83,0.2-3.66,0.48-5.48,0.85l1.51,7.6   c-2.34,0.47-4.68,1.09-6.98,1.85L200.79,147.06z M174.43,161.17c1.58-1.8,3.27-3.52,5.09-5.13l2.07,2.1   c-2.94,2.6-5.57,5.48-7.84,8.58l-2.83-5.12l-5.79-1.22c1.09-1.49,2.25-2.93,3.47-4.33L174.43,161.17z M174.39,160.25l-7.1-6.21   c4.72-5.29,10.37-9.95,16.85-13.69c6.47-3.74,13.3-6.29,20.23-7.74l1.83,9.25c-5.95,1.25-11.8,3.45-17.35,6.65   C183.29,151.72,178.45,155.7,174.39,160.25z M177.45,152.37c-0.13-0.14-0.28-0.26-0.42-0.35c-0.15-0.09-0.31-0.16-0.48-0.19   s-0.35-0.02-0.53,0.03c-0.19,0.05-0.39,0.14-0.59,0.27c0.07-0.28,0.08-0.52,0.02-0.77c-0.07-0.24-0.2-0.48-0.43-0.71   c-0.37-0.38-0.76-0.59-1.18-0.58c-0.42,0-0.84,0.2-1.28,0.61l-1.93,1.8l0.54,1.31l0.46-0.44l3.5,3.75l1.98-1.84   c0.25-0.23,0.45-0.48,0.59-0.72c0.15-0.25,0.23-0.5,0.27-0.74c0.03-0.25,0.01-0.5-0.08-0.74   C177.8,152.82,177.66,152.58,177.45,152.37z M172.83,152.17l0.22-0.22c0.39-0.36,0.72-0.39,1-0.08c0.28,0.3,0.23,0.63-0.16,0.99   l-0.22,0.22L172.83,152.17z M176.29,154.01c-0.06,0.21-0.25,0.45-0.55,0.74l-0.26,0.25l-0.94-1l0.26-0.25   c0.31-0.29,0.56-0.46,0.77-0.5c0.2-0.05,0.39,0.02,0.56,0.19C176.3,153.62,176.35,153.81,176.29,154.01z M180.81,148.79l3.21,0.89   l-1.67,1.26l-2.77-1.02l1.49,1.98l-1.34,1l-3.09-4.09l-0.51,0.4l-0.41-1.36l2.2-1.66c0.29-0.23,0.57-0.37,0.85-0.45   c0.29-0.08,0.54-0.09,0.8-0.05c0.25,0.05,0.48,0.13,0.69,0.27c0.21,0.14,0.4,0.31,0.57,0.53c0.3,0.39,0.45,0.78,0.44,1.17   C181.27,148.04,181.11,148.42,180.81,148.79z M179.18,148.86c0.26-0.21,0.42-0.4,0.48-0.63c0.07-0.21,0.01-0.43-0.13-0.63   c-0.16-0.2-0.35-0.31-0.57-0.31c-0.22,0-0.47,0.1-0.73,0.29l-0.25,0.19l0.96,1.28L179.18,148.86z M184.93,141.54l-2.1,1.24   l0.24,1.4l0.54-0.31l0.95,5.41l1.53-0.92l-0.24-1.15l2.05-1.23l0.91,0.77l1.53-0.91L184.93,141.54z M185.57,145.88l-0.44-2.23   l1.75,1.46L185.57,145.88z M195.25,139.67l-3.04,1.35l0.53,1.16l1.26-0.56c0.05,0.19,0.06,0.36,0.05,0.51   c-0.02,0.16-0.07,0.3-0.15,0.42c-0.07,0.13-0.18,0.24-0.3,0.33c-0.12,0.09-0.27,0.17-0.41,0.24c-0.25,0.12-0.5,0.17-0.73,0.17   c-0.23,0-0.45-0.05-0.65-0.15c-0.2-0.1-0.38-0.25-0.54-0.43c-0.16-0.18-0.29-0.4-0.41-0.65c-0.12-0.28-0.2-0.54-0.22-0.8   c-0.03-0.26-0.01-0.49,0.05-0.71c0.07-0.21,0.17-0.4,0.32-0.58c0.16-0.16,0.34-0.3,0.57-0.4c0.27-0.13,0.56-0.16,0.83-0.12   c0.27,0.05,0.55,0.2,0.83,0.46l1.18-1.25c-0.52-0.44-1.07-0.69-1.65-0.75c-0.57-0.06-1.18,0.05-1.79,0.32   c-0.47,0.21-0.87,0.48-1.19,0.8c-0.31,0.32-0.55,0.68-0.7,1.07c-0.15,0.39-0.23,0.81-0.2,1.26c0.03,0.45,0.13,0.9,0.34,1.36   s0.46,0.85,0.79,1.17c0.33,0.32,0.68,0.55,1.07,0.7c0.39,0.15,0.81,0.22,1.25,0.21c0.44-0.02,0.89-0.12,1.35-0.33   c0.34-0.15,0.63-0.34,0.9-0.55c0.26-0.22,0.48-0.47,0.67-0.73c0.19-0.27,0.33-0.57,0.4-0.89c0.08-0.32,0.11-0.66,0.08-1.02   c-0.02-0.25-0.08-0.51-0.16-0.78C195.49,140.27,195.38,139.98,195.25,139.67z M199.64,138.23l3.18-0.95   c0.1,0.32,0.17,0.63,0.23,0.9c0.05,0.27,0.07,0.54,0.05,0.8c-0.01,0.36-0.08,0.69-0.21,0.99c-0.13,0.31-0.29,0.59-0.51,0.83   c-0.22,0.24-0.47,0.46-0.76,0.64c-0.29,0.18-0.61,0.32-0.96,0.42c-0.48,0.15-0.95,0.2-1.39,0.16c-0.44-0.04-0.85-0.16-1.23-0.37   c-0.37-0.21-0.7-0.48-0.97-0.83c-0.28-0.35-0.49-0.78-0.64-1.26c-0.15-0.48-0.2-0.95-0.16-1.39c0.04-0.44,0.16-0.86,0.35-1.22   c0.21-0.37,0.48-0.7,0.83-0.97c0.36-0.28,0.79-0.5,1.28-0.64c0.64-0.2,1.25-0.23,1.82-0.09c0.57,0.14,1.09,0.45,1.54,0.96   l-1.33,1.09c-0.24-0.3-0.5-0.48-0.78-0.57c-0.26-0.08-0.55-0.07-0.84,0.01c-0.24,0.06-0.45,0.18-0.62,0.33   c-0.18,0.15-0.3,0.33-0.39,0.53c-0.08,0.21-0.14,0.44-0.15,0.7c-0.01,0.25,0.03,0.53,0.11,0.82c0.08,0.26,0.18,0.49,0.32,0.7   c0.13,0.2,0.3,0.37,0.49,0.49c0.19,0.12,0.39,0.2,0.63,0.23c0.23,0.03,0.48,0,0.74-0.08c0.16-0.05,0.3-0.1,0.45-0.18   c0.14-0.08,0.25-0.17,0.34-0.29c0.1-0.11,0.16-0.25,0.2-0.39c0.04-0.15,0.05-0.32,0.02-0.5l-1.32,0.4L199.64,138.23z    M203.78,135.37c0.35-0.2,0.46-0.61,0.26-0.95c-0.2-0.34-0.61-0.45-0.96-0.25c-0.34,0.2-0.45,0.62-0.26,0.95   C203.02,135.46,203.44,135.56,203.78,135.37z M203.72,135.24c-0.27,0.16-0.59,0.05-0.74-0.21c-0.15-0.26-0.08-0.59,0.2-0.74   c0.26-0.15,0.58-0.05,0.73,0.22C204.06,134.77,203.98,135.09,203.72,135.24z M203.38,135.2l0.14-0.08l-0.14-0.24l0.07-0.04   c0.08-0.04,0.13-0.03,0.18,0.03c0.05,0.06,0.09,0.11,0.13,0.12l0.15-0.09c-0.02-0.02-0.06-0.05-0.13-0.13v0   c-0.07-0.06-0.12-0.09-0.19-0.08l-0.01-0.01c0.05-0.06,0.08-0.15,0.04-0.21c-0.03-0.05-0.08-0.1-0.13-0.1   c-0.06,0-0.12,0.01-0.23,0.08c-0.1,0.06-0.17,0.11-0.22,0.15L203.38,135.2z M203.39,134.75l-0.07,0.04l-0.09-0.16   c0-0.02,0.04-0.04,0.07-0.05c0.09-0.05,0.15-0.04,0.18,0.01C203.52,134.64,203.47,134.7,203.39,134.75z M105.59,121.06   c0.42,0.6,1.25,0.74,1.84,0.32c0.6-0.42,0.74-1.25,0.32-1.84L73.71,71.25c-0.42-0.6-1.25-0.74-1.84-0.32   c-0.6,0.42-0.74,1.25-0.32,1.84L105.59,121.06z M266.16,118.9c0.61-0.41,1.43-0.25,1.84,0.35l20.49,30.29   c0.41,0.61,0.25,1.43-0.35,1.84c-0.61,0.41-1.43,0.25-1.84-0.35l-20.49-30.29C265.4,120.13,265.56,119.31,266.16,118.9z    M249.12,120.51c0.6-0.42,1.42-0.28,1.84,0.32L285,169.11c0.42,0.6,0.28,1.42-0.32,1.84c-0.6,0.42-1.42,0.28-1.84-0.32   l-34.04-48.28C248.38,121.75,248.52,120.93,249.12,120.51z M90.38,122.99c-0.61,0.41-1.43,0.25-1.84-0.35L68.05,92.34   c-0.41-0.61-0.25-1.43,0.35-1.84s1.43-0.25,1.84,0.35l20.49,30.29C91.15,121.75,90.99,122.58,90.38,122.99z"></path>
</g>
<path class="st11" d="M319.19,298.82H53.7c-28.41,0-51.44-23.03-51.44-51.44V53.43c0-28.41,23.03-51.44,51.44-51.44h265.5  c28.41,0,51.44,23.03,51.44,51.44v193.95C370.63,275.79,347.6,298.82,319.19,298.82z"></path>
<rect x="76.04" y="242.53" class="st27" width="220.82" height="23.41"></rect>
<text transform="matrix(1 0 0 1 80.0451 258.351)" class="st28 st29">Agita antes de usarlo. </text>
<line class="st11" x1="2.04" y1="204.02" x2="370.63" y2="204.02"></line>
</svg>
