<?xml version="1.0" encoding="UTF-8"?>
<!-- Generator: Adobe Illustrator 27.0.0, SVG Export Plug-In . SVG Version: 6.00 Build 0)  -->
<svg xmlns="http://www.w3.org/2000/svg" xmlns:xlink="http://www.w3.org/1999/xlink" version="1.1" id="Layer_2" x="0px" y="0px" viewBox="0 0 372.45 300.74" style="enable-background:new 0 0 372.45 300.74;" xml:space="preserve">
<style type="text/css">
	.st0{clip-path:url(#SVGID_00000035495335133819886050000012427020193831751347_);}
	.st1{fill-rule:evenodd;clip-rule:evenodd;fill:#231F20;}
	.st2{fill:#231F20;}
	.st3{fill:none;stroke:#231F20;stroke-width:1.5;}
	.st4{fill:#FFFFFF;}
	.st5{fill:url(#SVGID_00000005269080231807094260000001165452316594375842_);}
	.st6{fill:#2E2A2B;}
	.st7{clip-path:url(#SVGID_00000140716273411057680530000007091149987140382863_);}
	.st8{clip-path:url(#SVGID_00000150812778296688689100000018139623695346299580_);}
	.st9{fill:url(#SVGID_00000070114957237481707000000001266159675921164963_);}
	.st10{fill:url(#SVGID_00000143587686909074783910000013640806542743329697_);}
	.st11{fill:none;stroke:#EC1D2B;stroke-width:3;stroke-miterlimit:10;}
	.st12{clip-path:url(#SVGID_00000137125740561848175750000017733268262900874392_);}
	.st13{fill:url(#SVGID_00000145032318498015123230000010691470754134427293_);}
	.st14{fill:none;}
	.st15{font-family:'Helvetica';}
	.st16{font-size:22px;}
	.st17{fill:#231F20;stroke:#231F20;stroke-width:1.5;}
	.st18{fill:url(#SVGID_00000063601403221361204550000006451667042615701382_);}
	.st19{clip-path:url(#SVGID_00000051365667348593460970000009366774464378874020_);}
	.st20{fill:url(#SVGID_00000152980114483365607600000000312919823799701926_);}
	.st21{clip-path:url(#SVGID_00000082351858485755094380000009367979807521578941_);}
	.st22{clip-path:url(#SVGID_00000017491938369729645190000011031739607042287548_);}
	.st23{fill:url(#SVGID_00000067220611861535610010000011915312156080193965_);}
	.st24{fill:url(#SVGID_00000161601776039314835100000013827864740069500602_);}
	.st25{fill-rule:evenodd;clip-rule:evenodd;}
	.st26{clip-path:url(#SVGID_00000014635983679750364680000006582602394119231904_);}
	.st27{fill:url(#SVGID_00000043422689779625805850000006975875398375167935_);}
	.st28{clip-path:url(#SVGID_00000182519677178179945440000016568675929422262453_);}
	.st29{clip-path:url(#SVGID_00000049933737737753610110000001522327690124590247_);}
	.st30{fill:url(#SVGID_00000121961819153190906340000014136835165002116797_);}
	.st31{fill:url(#SVGID_00000017513773702810413410000009199922518782297238_);}
	.st32{clip-path:url(#SVGID_00000073711239451411837140000016739026658859548082_);}
	.st33{fill:#272324;}
	.st34{fill:#2D292A;}
	.st35{fill:#2C2829;}
	.st36{clip-path:url(#SVGID_00000054966392333739078980000009814571392684896684_);}
	.st37{fill:none;stroke:#231F20;stroke-width:1.25;}
	.st38{clip-path:url(#SVGID_00000031911024629782348260000001109797045227765688_);}
</style>
<g>
	<g>
		<defs>
			<rect id="SVGID_00000165921607304003300980000017629715036219200424_" x="0.79" y="2.22" width="371.66" height="200.3"></rect>
		</defs>
		<clipPath id="SVGID_00000025428721839333719150000008491889488570403463_">
			<use xlink:href="#SVGID_00000165921607304003300980000017629715036219200424_" style="overflow:visible;"></use>
		</clipPath>
		<g style="clip-path:url(#SVGID_00000025428721839333719150000008491889488570403463_);">
			<g>
				<path class="st2" d="M242.4,121.95c5.28,1.07,10.37,2.69,15.2,4.8l-0.17-8.02l6.06-5.44c-2.31-1.02-4.68-1.93-7.09-2.74      l-3.42,10.06c-3.11-1.05-6.3-1.92-9.56-2.59L242.4,121.95z"></path>
				<path class="st2" d="M210.98,118.03c-3.26,0.67-6.45,1.55-9.56,2.61L198,110.56c-2.42,0.83-4.78,1.74-7.09,2.76l6.04,5.42      l-0.16,8.02c4.83-2.12,9.92-3.74,15.2-4.81L210.98,118.03z"></path>
				<path class="st1" d="M202,119.51l-4.17-12.24c9.24-3.05,19.14-4.71,29.4-4.71c10.25,0,20.11,1.64,29.33,4.67l-4.17,12.24      c-7.92-2.59-16.37-3.99-25.16-3.99C218.43,115.48,209.94,116.9,202,119.51z M236.35,108.89l4.54,0.48      c-0.05,0.47-0.12,0.88-0.19,1.26c-0.09,0.38-0.19,0.72-0.35,1.04c-0.21,0.45-0.48,0.83-0.79,1.16      c-0.31,0.33-0.67,0.59-1.09,0.78c-0.4,0.19-0.83,0.33-1.29,0.41c-0.47,0.07-0.95,0.09-1.45,0.03c-0.69-0.07-1.29-0.26-1.83-0.53      c-0.53-0.29-0.98-0.66-1.35-1.1c-0.36-0.45-0.62-0.97-0.79-1.57c-0.17-0.6-0.21-1.24-0.14-1.93c0.07-0.69,0.26-1.29,0.53-1.85      c0.28-0.55,0.66-1,1.1-1.36c0.45-0.36,0.98-0.62,1.57-0.79c0.6-0.17,1.26-0.21,1.97-0.14c0.91,0.1,1.71,0.38,2.35,0.85      c0.66,0.47,1.14,1.14,1.45,2.02l-2.26,0.67c-0.16-0.5-0.38-0.88-0.67-1.12c-0.29-0.24-0.66-0.4-1.07-0.43      c-0.34-0.03-0.65,0-0.95,0.09c-0.29,0.1-0.55,0.26-0.78,0.47c-0.22,0.22-0.41,0.48-0.55,0.81c-0.16,0.33-0.24,0.69-0.29,1.1      c-0.03,0.38-0.03,0.72,0.03,1.05c0.07,0.33,0.17,0.62,0.35,0.88c0.17,0.26,0.4,0.47,0.67,0.62c0.28,0.16,0.6,0.26,0.98,0.29      c0.22,0.02,0.45,0.02,0.66,0c0.21-0.03,0.41-0.09,0.59-0.19c0.17-0.09,0.33-0.22,0.47-0.4c0.12-0.17,0.22-0.38,0.29-0.64      l-1.88-0.21L236.35,108.89z M251.53,111.73l-4.43-1.05l-0.5,1.73l1.85,0.43c-0.09,0.24-0.21,0.43-0.36,0.59      c-0.14,0.14-0.31,0.26-0.5,0.33c-0.19,0.07-0.38,0.1-0.6,0.1c-0.22,0-0.43-0.03-0.66-0.09c-0.36-0.09-0.67-0.22-0.93-0.41      c-0.26-0.21-0.45-0.43-0.59-0.71c-0.14-0.28-0.22-0.59-0.24-0.91c-0.02-0.35,0.02-0.69,0.1-1.05c0.1-0.4,0.24-0.76,0.43-1.05      c0.19-0.29,0.41-0.53,0.66-0.72c0.24-0.17,0.52-0.31,0.83-0.36c0.31-0.05,0.64-0.05,0.97,0.03c0.4,0.1,0.74,0.29,1,0.57      c0.28,0.29,0.45,0.69,0.53,1.21l2.33-0.38c-0.19-0.91-0.59-1.64-1.17-2.19c-0.59-0.55-1.33-0.93-2.22-1.14      c-0.69-0.17-1.35-0.21-1.97-0.12c-0.6,0.09-1.16,0.29-1.66,0.59c-0.48,0.29-0.91,0.71-1.26,1.21c-0.35,0.5-0.6,1.09-0.76,1.76      c-0.16,0.67-0.19,1.33-0.1,1.93c0.09,0.6,0.29,1.16,0.59,1.66c0.31,0.5,0.71,0.93,1.21,1.28c0.5,0.35,1.09,0.6,1.76,0.76      c0.48,0.12,0.97,0.17,1.43,0.16c0.47-0.02,0.91-0.1,1.35-0.24c0.43-0.14,0.81-0.36,1.17-0.64c0.36-0.28,0.67-0.62,0.93-1.04      c0.19-0.29,0.36-0.62,0.48-0.98C251.31,112.6,251.43,112.18,251.53,111.73z M211.05,112.25c-0.05-0.26-0.16-0.5-0.26-0.71      c-0.12-0.21-0.26-0.4-0.45-0.55c-0.19-0.16-0.4-0.26-0.66-0.33c-0.26-0.07-0.55-0.1-0.88-0.09c0.28-0.28,0.45-0.57,0.55-0.9      c0.09-0.33,0.09-0.71-0.02-1.14c-0.17-0.71-0.5-1.23-1-1.5c-0.5-0.29-1.14-0.34-1.93-0.16l-3.52,0.81l-0.26,1.93l0.85-0.21      l1.59,6.85l3.61-0.83c0.45-0.1,0.86-0.26,1.19-0.45c0.34-0.19,0.62-0.43,0.83-0.69c0.21-0.28,0.35-0.59,0.41-0.93      C211.15,113.03,211.15,112.65,211.05,112.25z M205.7,108.85l0.41-0.1c0.71-0.16,1.12,0.03,1.24,0.59      c0.12,0.55-0.16,0.91-0.86,1.07l-0.41,0.1L205.7,108.85z M208.54,113.41c-0.21,0.21-0.6,0.36-1.16,0.5l-0.48,0.12l-0.43-1.83      l0.48-0.12c0.57-0.14,0.98-0.16,1.26-0.07c0.28,0.09,0.45,0.29,0.53,0.6C208.82,112.94,208.75,113.2,208.54,113.41z       M217.5,110.3l3.21,3.26l-2.85,0.35l-2.59-3.11l0.41,3.38l-2.28,0.28l-0.86-6.97l-0.88,0.12l0.45-1.9l3.74-0.47      c0.5-0.07,0.93-0.05,1.31,0.05c0.4,0.1,0.71,0.26,0.98,0.48c0.26,0.22,0.48,0.48,0.64,0.79c0.16,0.31,0.26,0.64,0.31,1.02      c0.09,0.67,0,1.24-0.28,1.69C218.55,109.73,218.1,110.08,217.5,110.3z M215.51,109.27c0.45-0.07,0.78-0.19,1-0.41      c0.22-0.21,0.31-0.5,0.28-0.85c-0.05-0.35-0.21-0.6-0.47-0.76c-0.26-0.16-0.62-0.21-1.07-0.16l-0.43,0.05l0.26,2.17      L215.51,109.27z M227.35,104.52l-3.35,0.03l-0.67,1.83h0.86l-2.59,7.07l2.45-0.03l0.5-1.54l3.28-0.05l0.55,1.54l2.45-0.03      L227.35,104.52z M225.14,110.11l1-2.95l1.07,2.93L225.14,110.11z M253.97,110.11c0.55,0,0.97-0.41,0.97-0.95      s-0.41-0.95-0.97-0.95c-0.53,0-0.97,0.43-0.97,0.95C253.01,109.7,253.44,110.11,253.97,110.11z M253.99,109.92      c-0.43,0-0.74-0.35-0.74-0.76s0.31-0.76,0.74-0.74c0.41,0,0.72,0.35,0.72,0.76C254.71,109.59,254.4,109.92,253.99,109.92z       M253.61,109.65h0.22v-0.38h0.1c0.12,0,0.17,0.05,0.19,0.16c0.02,0.1,0.03,0.19,0.07,0.22h0.24c-0.02-0.03-0.03-0.1-0.07-0.24      c-0.03-0.12-0.09-0.19-0.17-0.22v-0.02c0.1-0.03,0.19-0.12,0.19-0.22c0-0.09-0.03-0.17-0.09-0.21      c-0.07-0.03-0.15-0.07-0.33-0.07c-0.16,0-0.28,0.02-0.36,0.03V109.65z M253.94,109.11h-0.1v-0.26c0.02-0.02,0.07-0.02,0.12-0.02      c0.14,0,0.21,0.05,0.21,0.14C254.16,109.08,254.06,109.11,253.94,109.11z"></path>
				
					<linearGradient id="SVGID_00000160912314567149266480000005314119581349177521_" gradientUnits="userSpaceOnUse" x1="246.8565" y1="-550.3948" x2="247.1151" y2="-550.3948" gradientTransform="matrix(1 0 0 -1 0 -427.7363)">
					<stop offset="0" style="stop-color:#ED1C24"></stop>
					<stop offset="0.2361" style="stop-color:#E91C24"></stop>
					<stop offset="0.4038" style="stop-color:#E11B22"></stop>
					<stop offset="0.5501" style="stop-color:#D41920"></stop>
					<stop offset="0.6844" style="stop-color:#C3161D"></stop>
					<stop offset="0.8103" style="stop-color:#AD1116"></stop>
					<stop offset="0.9285" style="stop-color:#92080B"></stop>
					<stop offset="1" style="stop-color:#810101"></stop>
				</linearGradient>
				<path style="fill:url(#SVGID_00000160912314567149266480000005314119581349177521_);" d="M246.86,122.62      c0.09,0.02,0.17,0.03,0.26,0.07v-0.03C247.03,122.64,246.95,122.62,246.86,122.62z"></path>
			</g>
			<path class="st2" d="M199.82,29.09c0.1,2.48,1.87,2.47,2.75,2.15c1.55-3.22,15.52-2.87,26.99-2.87c11.46,0,18.99,0.72,20.66,1.31     c1.34,0.48,2.31,1.71,2.63,2.27c2.87-0.29,3.05-1.63,3.29-2.27v-5.61c0-1.55,1.01-4.66-2.69-5.97     c-9.79-3.58-39.41-2.15-46.21-1.07c-5.45,0.86-7.21,3.38-7.4,4.54C199.78,23.04,199.72,26.61,199.82,29.09z"></path>
			<path class="st1" d="M229.22,17.11c-9.46,0.04-18.48,0.67-21.79,1.19c-4.95,0.78-6.17,2.91-6.32,3.43     c-0.04,1.53-0.09,4.94,0,7.32c0.02,0.47,0.11,0.73,0.18,0.85c0.06,0.11,0.12,0.15,0.16,0.17c0.08,0.04,0.2,0.05,0.33,0.05     c0.36-0.44,0.83-0.78,1.31-1.04c0.69-0.37,1.52-0.65,2.43-0.88c1.82-0.45,4.16-0.71,6.75-0.87c4.24-0.26,9.32-0.25,14.16-0.23     c1.06,0,2.11,0.01,3.13,0.01c5.76,0,10.54,0.18,14.09,0.44c1.78,0.13,3.26,0.28,4.42,0.43c1.12,0.15,2.02,0.32,2.58,0.52     c1.25,0.45,2.2,1.35,2.79,2.09c0.7-0.15,0.99-0.38,1.11-0.5c0.15-0.15,0.18-0.26,0.27-0.51c0.01-0.03,0.02-0.06,0.03-0.09v-5.39     c0-0.3,0.04-0.71,0.07-1.06c0.01-0.16,0.03-0.31,0.04-0.43c0.03-0.49,0.04-0.94-0.04-1.35c-0.07-0.39-0.22-0.73-0.47-1.03     c-0.25-0.3-0.68-0.62-1.43-0.89l-0.01,0c-2.28-0.83-5.82-1.41-10.06-1.76C238.72,17.21,233.93,17.09,229.22,17.11z M253.87,16.9     c-2.62-0.96-6.45-1.55-10.72-1.9c-4.31-0.36-9.18-0.48-13.94-0.46c-9.5,0.04-18.68,0.67-22.18,1.22     c-5.72,0.9-8.14,3.66-8.47,5.59l-0.02,0.09l0,0.09c-0.04,1.48-0.1,5.08,0,7.61c0.06,1.57,0.7,2.71,1.82,3.24     c0.98,0.46,2.03,0.3,2.65,0.07l0.49-0.18l0.23-0.47c0.03-0.06,0.16-0.24,0.59-0.48c0.42-0.23,1.02-0.45,1.82-0.64     c1.59-0.39,3.75-0.64,6.29-0.8c4.15-0.25,9.13-0.24,13.96-0.23c1.07,0,2.13,0.01,3.17,0.01c5.71,0,10.42,0.18,13.91,0.43     c1.74,0.13,3.17,0.27,4.26,0.42c1.12,0.15,1.78,0.29,2.06,0.39c0.93,0.33,1.7,1.28,1.94,1.7l0.41,0.72l0.83-0.08     c1.62-0.16,2.71-0.65,3.43-1.39c0.59-0.61,0.83-1.36,0.91-1.62c0.01-0.04,0.02-0.06,0.03-0.08l0.08-0.22v-5.85     c0-0.2,0.02-0.39,0.04-0.65c0.02-0.18,0.04-0.39,0.05-0.66c0.04-0.57,0.06-1.27-0.08-2c-0.14-0.74-0.44-1.52-1.04-2.23     C255.8,17.84,254.96,17.29,253.87,16.9z"></path>
			<path class="st1" d="M225.45,26.23c1.21,0.01,2.36,0.03,3.39,0.03c4.18,0,9.29,0.15,13.61,0.48c2.15,0.17,4.13,0.38,5.71,0.64     c0.79,0.13,1.5,0.28,2.09,0.46c0.56,0.16,1.14,0.38,1.57,0.7c1.41,1.06,2.36,2.45,2.68,4.02c0.33,1.58,0,3.22-0.93,4.73     c-0.21,0.34-0.35,0.9-0.35,1.71c0.01,0.79,0.16,1.71,0.41,2.66c0.51,1.92,1.37,3.72,2.02,4.56c0.07,0.09,0.29,0.3,0.8,0.67     c0.48,0.34,1.09,0.74,1.84,1.21c0.39,0.25,0.82,0.51,1.27,0.79c1.23,0.77,2.66,1.65,4.11,2.62c3.94,2.63,8.45,6.09,10.71,10.15     c3.5,6.29,3.87,14.24,3.62,17.51v147.66c0,0.64,0.03,1.6,0.06,2.81c0.09,3.14,0.23,7.93,0.04,12.96     c-0.25,6.94-1.12,14.75-3.7,19.92c-1.43,2.86-4.28,4.81-7.69,6.17c-3.43,1.37-7.62,2.21-11.99,2.74     c-7.69,0.93-16.2,0.9-22.7,0.88c-0.9,0-1.77-0.01-2.59-0.01c-6.78,0-17.13-0.33-26.34-1.41c-4.61-0.54-8.97-1.27-12.47-2.26     c-1.75-0.49-3.33-1.06-4.62-1.72c-1.28-0.65-2.39-1.44-3.1-2.42c-1.89-2.63-3.01-6.47-3.66-10.04c-0.66-3.62-0.88-7.15-0.88-9.33     v0l-0.6-153.32v0c0-15.99,1.84-24.85,5.41-30.73c3.08-5.08,7.4-7.82,12.36-10.97c0.78-0.5,1.58-1,2.39-1.53     c3.11-2.02,4.57-4.63,5.11-6.85c0.27-1.12,0.31-2.13,0.21-2.91c-0.05-0.39-0.13-0.7-0.21-0.93c-0.04-0.11-0.09-0.2-0.12-0.26     c-0.02-0.03-0.03-0.05-0.04-0.06c0,0,0,0-0.01-0.01c-2.86-2.54-2.07-5.76-1.28-7.08l0.03-0.05l0.04-0.05     c1.08-1.45,2.95-2.33,4.98-2.89c2.07-0.58,4.56-0.89,7.14-1.07C217.62,26.14,221.85,26.19,225.45,26.23z M203.76,31.84     c-0.39,0.7-0.78,2.39,0.85,3.81l0.03,0.03l0.03,0.03c0.66,0.66,1,1.72,1.13,2.77c0.14,1.11,0.08,2.43-0.26,3.83     c-0.69,2.82-2.51,6-6.21,8.4c-0.85,0.55-1.67,1.08-2.46,1.58c-4.98,3.17-8.75,5.57-11.5,10.1c-3.18,5.25-5.04,13.5-5.04,29.4     c0,0,0,0,0,0l0.6,153.32c0,2.04,0.21,5.43,0.84,8.87c0.64,3.49,1.67,6.85,3.22,9c0.37,0.51,1.06,1.07,2.18,1.63     c1.09,0.56,2.5,1.07,4.16,1.54c3.32,0.94,7.53,1.65,12.08,2.18c9.08,1.07,19.33,1.39,26.05,1.39c0.83,0,1.7,0,2.61,0.01     c6.52,0.02,14.86,0.04,22.37-0.86c4.28-0.52,8.21-1.33,11.35-2.58c3.15-1.26,5.32-2.89,6.34-4.93     c2.31-4.62,3.18-11.92,3.43-18.86c0.18-4.94,0.05-9.49-0.04-12.63c-0.04-1.27-0.07-2.3-0.07-3.04V79.08l0.01-0.05     c0.23-2.97-0.13-10.4-3.31-16.11c-1.92-3.46-5.95-6.63-9.89-9.26c-1.42-0.95-2.79-1.8-4.01-2.56c-0.46-0.28-0.9-0.56-1.31-0.82     c-0.75-0.47-1.43-0.91-1.97-1.3c-0.51-0.37-1.02-0.77-1.35-1.19c-0.91-1.19-1.89-3.33-2.46-5.47c-0.29-1.08-0.48-2.22-0.49-3.3     c-0.01-1.05,0.16-2.17,0.73-3.08c0.62-1,0.78-1.98,0.6-2.85c-0.18-0.88-0.73-1.75-1.71-2.49c0,0-0.01,0-0.01-0.01     c-0.01-0.01-0.02-0.01-0.04-0.02c-0.04-0.02-0.09-0.04-0.15-0.07c-0.13-0.06-0.31-0.12-0.54-0.19c-0.46-0.13-1.07-0.27-1.8-0.39     c-1.47-0.25-3.36-0.45-5.48-0.62c-4.23-0.33-9.27-0.47-13.41-0.47c-1.09,0-2.27-0.01-3.51-0.03c-3.58-0.04-7.64-0.09-11.38,0.17     c-2.51,0.17-4.8,0.47-6.63,0.98C205.48,30.46,204.32,31.11,203.76,31.84z"></path>
			<path class="st1" d="M182.73,93.19c-2.04,0.26-3.02,0.5-3.32,0.62l-0.99-2.37c0.66-0.28,1.98-0.54,3.97-0.8     c2.05-0.27,4.96-0.54,8.9-0.79c7.89-0.5,19.98-0.9,37.77-0.9s29.48,0.4,36.88,0.9c3.7,0.25,6.34,0.53,8.14,0.79     c0.9,0.13,1.61,0.27,2.14,0.4c0.47,0.12,0.99,0.27,1.35,0.53l-1.49,2.09c0.02,0.01,0.03,0.02,0.03,0.02c0,0-0.13-0.06-0.51-0.15     c-0.42-0.11-1.04-0.23-1.9-0.35c-1.71-0.25-4.27-0.52-7.94-0.77c-7.32-0.49-18.95-0.89-36.7-0.89c-17.75,0-29.78,0.4-37.6,0.89     C187.56,92.66,184.71,92.93,182.73,93.19z"></path>
			<path class="st1" d="M59.03,141.29h99.34v2.57H59.03V141.29z"></path>
			<path class="st1" d="M91.57,117.31h66.8v2.57h-66.8V117.31z"></path>
			<path class="st1" d="M69.3,91.61h89.07v2.57H69.3V91.61z"></path>
		</g>
	</g>
</g>
<path class="st11" d="M319.19,298.82H53.7c-28.41,0-51.44-23.03-51.44-51.44V53.43c0-28.41,23.03-51.44,51.44-51.44h265.5  c28.41,0,51.44,23.03,51.44,51.44v193.95C370.63,275.79,347.6,298.82,319.19,298.82z"></path>
<rect x="104.21" y="229.36" class="st14" width="164.48" height="46.82"></rect>
<text transform="matrix(1 0 0 1 107.5613 245.1782)"><tspan x="0" y="0" class="st15 st16">Llévalos contigo</tspan><tspan x="-3.07" y="26.4" class="st15 st16">a donde quieras.</tspan></text>
<line class="st11" x1="2.04" y1="204.02" x2="370.63" y2="204.02"></line>
</svg>
