<svg xmlns="http://www.w3.org/2000/svg" xmlns:xlink="http://www.w3.org/1999/xlink" id="Layer_1" x="0px" y="0px" width="250px" height="96px" viewBox="0 0 250 96" style="enable-background:new 0 0 250 96;" xml:space="preserve"><style type="text/css">	.st0{fill:#ED1C24;}	.st1{fill:url(#SVGID_1_);}	.st2{fill:url(#SVGID_2_);}	.st3{fill:#FFFFFF;}	.st4{fill:url(#SVGID_3_);}</style><path class="st0" d="M36.2,70.1c27.8-9.6,57.8-14.7,88.9-14.7s60.7,5.2,88.7,14.5l16.2-47.8C197,10.8,161.8,4.8,125,4.8 S52.7,10.8,19.8,22.1L36.2,70.1L36.2,70.1z"></path><linearGradient id="SVGID_1_" gradientUnits="userSpaceOnUse" x1="242.6241" y1="761.1198" x2="153.1641" y2="730.644" gradientTransform="matrix(1 0 0 1 0 -692)">	<stop offset="0" style="stop-color:#ED1C24"></stop>	<stop offset="4.600000e-02" style="stop-color:#E71C23"></stop>	<stop offset="0.103" style="stop-color:#DA1A21"></stop>	<stop offset="0.166" style="stop-color:#C6171D"></stop>	<stop offset="0.233" style="stop-color:#AB1116"></stop>	<stop offset="0.303" style="stop-color:#890406"></stop>	<stop offset="0.32" style="stop-color:#810101"></stop></linearGradient><path class="st1" d="M177.3,74.7c18.2,3.7,35.7,9.2,52.4,16.6l-0.6-27.6L250,44.9c-7.9-3.5-16.2-6.6-24.5-9.4l-11.8,34.6 c-10.7-3.7-21.7-6.6-32.9-8.8C180.8,61.1,177.3,74.7,177.3,74.7z"></path><linearGradient id="SVGID_2_" gradientUnits="userSpaceOnUse" x1="11.3066" y1="758.7368" x2="81.1506" y2="737.2474" gradientTransform="matrix(1 0 0 1 0 -692)">	<stop offset="1.200000e-02" style="stop-color:#ED1C24"></stop>	<stop offset="5.700000e-02" style="stop-color:#E71C23"></stop>	<stop offset="0.112" style="stop-color:#DA1A21"></stop>	<stop offset="0.172" style="stop-color:#C6171D"></stop>	<stop offset="0.236" style="stop-color:#AB1116"></stop>	<stop offset="0.303" style="stop-color:#890406"></stop>	<stop offset="0.32" style="stop-color:#810101"></stop></linearGradient><path class="st2" d="M69.1,61.3c-11.2,2.4-22.3,5.3-32.9,9L24.4,35.5c-8.3,2.8-16.6,5.9-24.5,9.4l20.8,18.8l-0.6,27.6 c16.6-7.4,34.2-12.9,52.4-16.6L69.1,61.3L69.1,61.3z"></path><path d="M99.5,66v1.5h-4.2v2.4h4v1.5h-4v2.6h4.2v1.5h-6.1v-9.2L99.5,66C99.5,66.2,99.5,66,99.5,66z M105.2,66c0.9,0,1.8,0.2,2.6,0.7 v1.7c-0.9-0.6-1.8-0.9-2.6-0.9c-0.6,0-0.9,0-1.1,0.2s-0.4,0.4-0.4,0.7s0.2,0.7,0.7,0.9c0.2,0,0.7,0.4,1.5,0.7s1.3,0.7,1.7,1.1 c0.4,0.4,0.6,0.9,0.6,1.7c0,0.7-0.4,1.5-0.9,1.8c-0.6,0.6-1.3,0.7-2.2,0.7c-0.6,0-1.1,0-1.5-0.2c-0.4-0.2-0.9-0.4-1.5-0.7v-1.8 c0.9,0.9,1.8,1.3,2.8,1.3c0.4,0,0.7-0.2,1.1-0.4c0.4-0.2,0.4-0.4,0.4-0.7c0-0.4-0.2-0.7-0.7-1.1c-0.4-0.2-0.9-0.6-1.5-0.7 c-0.7-0.4-1.3-0.7-1.7-1.1c-0.4-0.4-0.6-0.9-0.6-1.5c0-0.7,0.4-1.5,0.9-1.8C103.5,66.2,104.2,66,105.2,66L105.2,66z M118.6,66v1.5 h-3.3v7.9h-1.8v-7.9h-3.1V66H118.6z M120.6,73.4c0.4,0,0.6,0.2,0.7,0.4c0.2,0.2,0.4,0.4,0.4,0.7c0,0.4-0.2,0.6-0.4,0.7 c-0.2,0.2-0.4,0.4-0.7,0.4s-0.6-0.2-0.7-0.4c-0.2-0.4-0.4-0.6-0.4-0.7c0-0.4,0.2-0.6,0.4-0.7S120.3,73.4,120.6,73.4L120.6,73.4z  M130.2,66v9.2h-1.7V66H130.2z M137.4,66c0.6,0,1.1,0.2,1.5,0.4c0.6,0.4,0.9,0.7,1.1,1.1c0.2,0.6,0.4,1.1,0.4,1.7 c0,0.9-0.4,2-0.9,3.1c-0.6,1.1-1.3,2.2-2.4,3.1h-2c0.6-0.6,1.1-1.1,1.7-1.8c0.6-0.7,1.1-1.5,1.3-2c-0.4,0.2-0.7,0.2-1.1,0.2 c-0.7,0-1.3-0.2-1.8-0.7c-0.6-0.6-0.7-1.1-0.7-2c0-0.6,0.2-0.9,0.4-1.5c0.2-0.6,0.6-0.9,1.1-1.1C136.3,66,136.8,66,137.4,66z  M136.1,69c0,0.4,0.2,0.7,0.4,0.9c0.2,0.2,0.6,0.4,0.9,0.4c0.4,0,0.7-0.2,0.9-0.4c0.2-0.4,0.4-0.6,0.4-0.9c0-0.4-0.2-0.7-0.4-1.1 c-0.2-0.4-0.6-0.4-0.9-0.4c-0.4,0-0.7,0.2-0.9,0.4C136.3,68.1,136.1,68.4,136.1,69L136.1,69z M146.2,66v9.2h-1.7V66H146.2z  M152.8,66c0.9,0,1.7,0.2,2,0.7c0.6,0.6,0.7,1.1,0.7,2c0,0.7-0.2,1.3-0.6,2c-0.4,0.7-1.1,1.7-2,2.9h3.1v1.7h-6.1v-0.2 c0.7-0.9,1.3-1.7,1.8-2.4c0.6-0.7,0.9-1.3,1.1-1.7c0.4-0.6,0.6-0.9,0.6-1.1c0.2-0.4,0.2-0.7,0.2-0.9c0-0.4-0.2-0.7-0.4-1.1 c-0.4-0.4-0.6-0.4-0.9-0.4c-0.7,0-1.5,0.4-2.2,1.1V67C151,66.2,151.9,66,152.8,66z"></path><path class="st3" d="M156.5,29.6l15.6,1.7c-0.2,1.7-0.4,2.9-0.7,4.4c-0.4,1.3-0.7,2.6-1.1,3.5c-0.7,1.5-1.7,2.8-2.8,4 c-1.1,1.1-2.4,2-3.7,2.8s-2.9,1.1-4.4,1.5c-1.7,0.2-3.3,0.4-5,0.2c-2.4-0.2-4.4-0.9-6.3-1.8c-1.8-0.9-3.3-2.2-4.6-3.9 c-1.3-1.5-2.2-3.3-2.8-5.3c-0.6-2-0.7-4.2-0.6-6.6c0.2-2.4,0.9-4.4,1.8-6.4c0.9-1.8,2.2-3.5,3.9-4.8c1.5-1.3,3.3-2.2,5.3-2.8 c2-0.6,4.4-0.7,6.8-0.6c3.1,0.4,5.9,1.3,8.1,2.9c2.2,1.7,3.9,3.9,5,7l-7.7,2.4c-0.6-1.7-1.3-2.9-2.4-3.9c-0.9-0.9-2.2-1.3-3.7-1.5 c-1.1-0.2-2.2,0-3.3,0.4c-1.1,0.4-1.8,0.9-2.8,1.7c-0.7,0.7-1.5,1.7-1.8,2.8c-0.6,1.1-0.9,2.4-0.9,3.9c-0.2,1.3-0.2,2.6,0.2,3.7 c0.2,1.1,0.6,2.2,1.1,2.9c0.6,0.9,1.3,1.7,2.4,2.2c0.9,0.6,2,0.9,3.3,0.9c0.7,0,1.5,0,2.2,0c0.7-0.2,1.5-0.4,2-0.7 c0.6-0.4,1.1-0.7,1.7-1.3c0.4-0.6,0.7-1.3,1.1-2.2l-6.4-0.7C156,35.7,156.5,29.6,156.5,29.6z M193.5,35.9l15.3,3.7 c-0.4,1.5-0.7,2.9-1.1,4.2s-1.1,2.4-1.7,3.3c-0.9,1.5-2,2.6-3.1,3.5c-1.3,0.9-2.6,1.7-4,2.2c-1.5,0.6-2.9,0.7-4.6,0.9 c-1.7,0-3.3-0.2-5-0.6c-2.4-0.6-4.4-1.5-6.1-2.6c-1.7-1.1-3.1-2.8-4.2-4.4c-0.9-1.7-1.7-3.7-2-5.7s-0.2-4.4,0.4-6.6 c0.6-2.4,1.5-4.4,2.6-6.1c1.1-1.7,2.8-3.1,4.4-4.2c1.7-1.1,3.7-1.7,5.7-2c2.2-0.4,4.4-0.2,6.8,0.4c3.1,0.7,5.7,2,7.7,3.9 c2,1.8,3.3,4.4,4,7.5l-8.1,1.3c-0.4-1.8-0.9-3.1-1.8-4.2c-0.9-0.9-2-1.7-3.5-2c-1.1-0.4-2.2-0.4-3.3-0.2c-1.1,0.2-2,0.7-2.9,1.3 c-0.9,0.7-1.7,1.5-2.2,2.6c-0.7,0.9-1.1,2.2-1.5,3.7c-0.4,1.3-0.4,2.4-0.4,3.7c0,1.1,0.4,2.2,0.9,3.1c0.6,0.9,1.1,1.7,2,2.4 c0.9,0.7,2,1.1,3.1,1.5c0.7,0.2,1.5,0.4,2.2,0.4s1.5-0.2,2-0.4c0.7-0.2,1.3-0.7,1.7-1.1c0.6-0.6,0.9-1.1,1.3-2l-6.4-1.5 C191.8,41.7,193.5,35.9,193.5,35.9z M69.3,41.2c-0.2-0.9-0.6-1.7-0.9-2.4c-0.4-0.7-0.9-1.3-1.5-1.8c-0.7-0.6-1.3-0.9-2.2-1.1 c-0.9-0.2-1.8-0.4-2.9-0.4c0.9-0.9,1.5-2,1.8-3.1c0.4-1.1,0.4-2.4,0-3.9c-0.6-2.4-1.7-4.2-3.5-5.2c-1.7-1.1-3.9-1.1-6.6-0.6 l-12.1,2.8l-0.9,6.6l2.9-0.7L48.9,55l12.5-2.8c1.5-0.4,2.9-0.9,4-1.5c1.1-0.7,2.2-1.5,2.8-2.4c0.7-0.9,1.1-2,1.5-3.1 C69.6,44,69.6,42.7,69.3,41.2L69.3,41.2z M50.9,29.6l1.5-0.4c2.4-0.6,3.9,0.2,4.2,2c0.4,1.8-0.6,3.1-2.9,3.7l-1.5,0.4L50.9,29.6 L50.9,29.6z M60.6,45.2c-0.7,0.7-2,1.3-4,1.7l-1.7,0.4L53.5,41l1.7-0.4c2-0.6,3.3-0.6,4.4-0.2c0.9,0.4,1.5,0.9,1.8,2 C61.6,43.6,61.4,44.5,60.6,45.2z M102.6,45.8l-11-11.2c2-0.7,3.7-2,4.6-3.5c0.9-1.5,1.3-3.5,0.9-5.9c-0.2-1.3-0.6-2.4-1.1-3.5 c-0.6-1.1-1.3-2-2.2-2.8c-0.9-0.7-2-1.3-3.3-1.7s-2.8-0.4-4.6-0.2L73,18.7l-1.5,6.6l2.9-0.4l2.9,23.9l7.9-0.9l-1.5-11.6l8.8,10.7 L102.6,45.8L102.6,45.8z M88.1,29.6c-0.7,0.7-1.8,1.1-3.5,1.5l-1.5,0.2l-0.9-7.5l1.5-0.2c1.5-0.2,2.8,0,3.7,0.6 c0.9,0.6,1.5,1.5,1.7,2.6C89.2,27.8,89,28.9,88.1,29.6z M125.4,14.7H114l-2.4,6.3h2.9l-8.8,24.3l8.5-0.2l1.7-5.3l11.2-0.2l1.8,5.3 l8.5-0.2C137.4,45.1,125.4,14.7,125.4,14.7z M117.9,33.8l3.5-10.1l3.7,10.1H117.9z M220.6,30.7c0,1.8-1.5,3.3-3.3,3.3 c-1.8,0-3.3-1.5-3.3-3.3c0-1.8,1.5-3.3,3.3-3.3C219.1,27.4,220.6,28.7,220.6,30.7z M214.7,30.7c0,1.5,1.1,2.6,2.6,2.6 c1.5,0,2.6-1.1,2.6-2.6c0-1.5-1.1-2.6-2.6-2.6C215.8,27.9,214.7,29.2,214.7,30.7z M216.7,32.4H216V29c0.4,0,0.7-0.2,1.3-0.2 s0.9,0.2,1.1,0.2c0.2,0.2,0.4,0.4,0.4,0.7s-0.4,0.7-0.7,0.7l0,0c0.4,0.2,0.6,0.4,0.6,0.7c0.2,0.6,0.2,0.7,0.2,0.9h-0.9 c-0.2-0.2-0.2-0.4-0.2-0.7c0-0.4-0.2-0.6-0.7-0.6h-0.4C216.7,30.9,216.7,32.4,216.7,32.4z M216.7,30.5h0.4c0.4,0,0.7-0.2,0.7-0.6 c0-0.4-0.2-0.6-0.7-0.6c-0.2,0-0.4,0-0.4,0C216.7,29.6,216.7,30.5,216.7,30.5z"></path><linearGradient id="SVGID_3_" gradientUnits="userSpaceOnUse" x1="192.661" y1="768.9851" x2="193.5536" y2="768.9851" gradientTransform="matrix(1 0 0 1 0 -692)">	<stop offset="0" style="stop-color:#ED1C24"></stop>	<stop offset="0.236" style="stop-color:#E91C24"></stop>	<stop offset="0.404" style="stop-color:#E11B22"></stop>	<stop offset="0.55" style="stop-color:#D41920"></stop>	<stop offset="0.684" style="stop-color:#C3161D"></stop>	<stop offset="0.81" style="stop-color:#AD1116"></stop>	<stop offset="0.928" style="stop-color:#92080B"></stop>	<stop offset="1" style="stop-color:#810101"></stop></linearGradient><path class="st4" d="M192.8,76.9c0.4,0,0.6,0.2,0.9,0.2v-0.2C193.3,77.1,192.9,76.9,192.8,76.9z"></path></svg>