<?xml version="1.0" encoding="UTF-8"?>
<!-- Generator: Adobe Illustrator 27.0.0, SVG Export Plug-In . SVG Version: 6.00 Build 0)  -->
<svg xmlns="http://www.w3.org/2000/svg" xmlns:xlink="http://www.w3.org/1999/xlink" version="1.1" id="Layer_2" x="0px" y="0px" viewBox="0 0 372.45 300.74" style="enable-background:new 0 0 372.45 300.74;" xml:space="preserve">
<style type="text/css">
	.st0{clip-path:url(#SVGID_00000039123388894574935350000017117477401753983898_);}
	.st1{fill-rule:evenodd;clip-rule:evenodd;fill:#231F20;}
	.st2{fill:#231F20;}
	.st3{fill:none;stroke:#231F20;stroke-width:1.5;}
	.st4{fill:#FFFFFF;}
	.st5{fill:url(#SVGID_00000036959301616532550420000018342315414106878340_);}
	.st6{fill:#2E2A2B;}
	.st7{clip-path:url(#SVGID_00000130636898454734599530000005480727327986407835_);}
	.st8{clip-path:url(#SVGID_00000103971505633761869790000015277650290028276874_);}
	.st9{fill:url(#SVGID_00000182507641130909742150000008632740795122211980_);}
	.st10{fill:url(#SVGID_00000013154238197842410550000005079325868152100752_);}
	.st11{fill:none;stroke:#EC1D2B;stroke-width:3;stroke-miterlimit:10;}
	.st12{clip-path:url(#SVGID_00000096740869651011722950000005337549457038218386_);}
	.st13{fill:url(#SVGID_00000021083079613475823080000015034348331949155759_);}
	.st14{fill:#231F20;stroke:#231F20;stroke-width:1.5;}
	.st15{fill:url(#SVGID_00000000908643858740817490000002033849494639186325_);}
	.st16{clip-path:url(#SVGID_00000109714192957119165820000006601615218546713493_);}
	.st17{fill:url(#SVGID_00000174570063829784124990000011225749456547430060_);}
	.st18{clip-path:url(#SVGID_00000118382303239735489840000003193200295021512590_);}
	.st19{clip-path:url(#SVGID_00000090999782505649902850000001153810929836724404_);}
	.st20{fill:url(#SVGID_00000116233357457958884390000016014260672443492233_);}
	.st21{fill:url(#SVGID_00000006685760544265222830000005875148689676625803_);}
	.st22{fill-rule:evenodd;clip-rule:evenodd;}
	.st23{clip-path:url(#SVGID_00000148655119749740917230000004045360720409458092_);}
	.st24{fill:url(#SVGID_00000064354859054635040200000002532474540225084314_);}
	.st25{fill:none;}
	.st26{font-family:'Helvetica';}
	.st27{font-size:22px;}
	.st28{clip-path:url(#SVGID_00000081646836404170714110000012818226433606120628_);}
	.st29{clip-path:url(#SVGID_00000102523423737347439790000006086952641211925913_);}
	.st30{fill:url(#SVGID_00000036956826755676299900000007546719889353009553_);}
	.st31{fill:url(#SVGID_00000082365300755654068620000013825770705334194334_);}
	.st32{clip-path:url(#SVGID_00000137822169819706498370000005719299419209588666_);}
	.st33{fill:#272324;}
	.st34{fill:#2D292A;}
	.st35{fill:#2C2829;}
	.st36{clip-path:url(#SVGID_00000102521107161362999790000015685446480883529375_);}
	.st37{fill:none;stroke:#231F20;stroke-width:1.25;}
	.st38{clip-path:url(#SVGID_00000026128729990659769730000009017787895894208424_);}
</style>
<g>
	<g>
		<defs>
			<rect id="SVGID_00000111185968959756650440000011977733463282122672_" x="1.13" y="2.25" width="370.19" height="201.77"></rect>
		</defs>
		<clipPath id="SVGID_00000111910202633648505670000012036623894911016582_">
			<use xlink:href="#SVGID_00000111185968959756650440000011977733463282122672_" style="overflow:visible;"></use>
		</clipPath>
		<g style="clip-path:url(#SVGID_00000111910202633648505670000012036623894911016582_);">
			<path class="st1" d="M1.13,101.05h158.41v2.5H1.13V101.05z"></path>
			<path class="st1" d="M213.29,101.05H371.7v2.5H213.29V101.05z"></path>
			<path class="st1" d="M186.34,75.3c-14.83,0-26.81,11.76-26.81,26.21h-2.5c0-15.88,13.15-28.71,29.31-28.71     s29.31,12.83,29.31,28.71h-2.5C213.15,87.06,201.17,75.3,186.34,75.3z"></path>
			<path class="st1" d="M184.49,74.04V40.61h2.5v33.43H184.49z"></path>
			<path class="st1" d="M143.74,57.14l23.78,23.78l-1.77,1.77L141.97,58.9L143.74,57.14z"></path>
			<path class="st1" d="M230.71,58.9l-23.78,23.78l-1.77-1.77l23.78-23.78L230.71,58.9z"></path>
			<path class="st1" d="M211.24,45.26l-13,31.05l-2.31-0.97l13-31.05L211.24,45.26z"></path>
			<path class="st1" d="M174.37,76.31L161.3,45.32l2.3-0.97l13.07,30.99L174.37,76.31z"></path>
			<path class="st1" d="M211.53,89.46l30.94-13.13l0.98,2.3L212.5,91.76L211.53,89.46z"></path>
			<path class="st1" d="M130.01,76.81l31.14,12.9l-0.96,2.31l-31.14-12.9L130.01,76.81z"></path>
			<path class="st1" d="M188.32,132.32v53.36h-2.5v-53.36H188.32z"></path>
			<path class="st1" d="M212.83,129.03l0.04,1.15c0.15,4.78-0.89,11.8-4.61,17.28c-1.87,2.76-4.44,5.14-7.87,6.61     c-3.43,1.47-7.65,2-12.78,1.19l-0.85-0.13l-0.18-0.84c-1.13-5.19-0.7-9.47,0.81-12.95c1.51-3.47,4.04-6.05,6.93-7.91     c5.74-3.7,13.06-4.7,17.36-4.47L212.83,129.03z M188.86,152.92c4.34,0.56,7.8,0.04,10.55-1.14c2.93-1.26,5.14-3.29,6.79-5.72     c3.04-4.48,4.13-10.25,4.19-14.62c-4.01,0.02-10,1.08-14.7,4.11c-2.57,1.65-4.72,3.87-5.99,6.8     C188.5,145.1,188.05,148.56,188.86,152.92z"></path>
			<path class="st1" d="M212.83,149.85l0.04,1.15c0.15,4.78-0.89,11.8-4.61,17.28c-1.87,2.76-4.44,5.14-7.87,6.61     c-3.43,1.47-7.65,2-12.78,1.19l-0.85-0.13l-0.18-0.84c-1.13-5.19-0.7-9.47,0.81-12.95c1.51-3.47,4.04-6.05,6.93-7.91     c5.74-3.7,13.06-4.7,17.36-4.47L212.83,149.85z M188.86,173.74c4.34,0.56,7.8,0.04,10.55-1.14c2.93-1.26,5.14-3.29,6.79-5.72     c3.04-4.48,4.13-10.25,4.19-14.62c-4.01,0.02-10,1.08-14.7,4.11c-2.57,1.66-4.72,3.87-5.99,6.8     C188.5,165.92,188.05,169.38,188.86,173.74z"></path>
			<path class="st1" d="M161.31,129.03l-0.04,1.15c-0.15,4.78,0.89,11.8,4.61,17.28c1.87,2.76,4.44,5.14,7.87,6.61     c3.43,1.47,7.65,2,12.78,1.19l0.85-0.13l0.18-0.84c1.13-5.19,0.7-9.47-0.81-12.95c-1.51-3.47-4.04-6.05-6.93-7.91     c-5.74-3.7-13.06-4.7-17.36-4.47L161.31,129.03z M185.28,152.92c-4.34,0.56-7.8,0.04-10.55-1.14c-2.93-1.26-5.14-3.29-6.79-5.72     c-3.04-4.48-4.13-10.25-4.19-14.62c4.01,0.02,10,1.08,14.7,4.11c2.57,1.65,4.72,3.87,5.99,6.8     C185.64,145.1,186.1,148.56,185.28,152.92z"></path>
			<path class="st1" d="M161.31,149.85l-0.04,1.15c-0.15,4.78,0.89,11.8,4.61,17.28c1.87,2.76,4.44,5.14,7.87,6.61     c3.43,1.47,7.65,2,12.78,1.19l0.85-0.13l0.18-0.84c1.13-5.19,0.7-9.47-0.81-12.95c-1.51-3.47-4.04-6.05-6.93-7.91     c-5.74-3.7-13.06-4.7-17.36-4.47L161.31,149.85z M185.28,173.74c-4.34,0.56-7.8,0.04-10.55-1.14c-2.93-1.26-5.14-3.29-6.79-5.72     c-3.04-4.48-4.13-10.25-4.19-14.62c4.01,0.02,10,1.08,14.7,4.11c2.57,1.66,4.72,3.87,5.99,6.8     C185.64,165.92,186.1,169.38,185.28,173.74z"></path>
			<path class="st1" d="M185.16,102.34c0.84-1.06,2.44-1.05,3.26,0.03c1.88,2.46,4.43,6.1,6.51,9.76c1.04,1.83,1.98,3.69,2.66,5.42     c0.67,1.71,1.14,3.4,1.14,4.86c0,3.72-1.88,6.54-4.27,8.39c-2.36,1.82-5.3,2.77-7.67,2.77c-2.36,0-5.37-0.95-7.8-2.76     c-2.46-1.84-4.44-4.65-4.44-8.4c0-1.56,0.47-3.31,1.17-5.05c0.7-1.76,1.67-3.62,2.75-5.43     C180.61,108.31,183.23,104.77,185.16,102.34z M186.77,104.34c-1.85,2.36-4.21,5.59-6.16,8.87c-1.03,1.74-1.93,3.47-2.57,5.08     c-0.65,1.62-0.99,3.02-0.99,4.13c0,2.77,1.44,4.9,3.43,6.4c2.03,1.51,4.51,2.26,6.3,2.26c1.79,0,4.19-0.75,6.14-2.25     c1.92-1.48,3.3-3.62,3.3-6.41c0-1-0.33-2.34-0.96-3.94c-0.62-1.58-1.5-3.33-2.51-5.1C190.87,110.05,188.56,106.72,186.77,104.34z     "></path>
			<path class="st1" d="M122.21,153.26c-0.35-1.72-1.28-3.98-2.75-6.33c-1.47-2.34-3.11-4.16-4.51-5.22     c-0.7-0.54-1.25-0.81-1.61-0.92c-0.06,0.37-0.05,0.99,0.13,1.85c0.35,1.72,1.28,3.98,2.75,6.33c1.47,2.34,3.11,4.16,4.51,5.22     c0.7,0.54,1.25,0.81,1.61,0.92C122.39,154.74,122.38,154.12,122.21,153.26z M122.26,155.36c0,0,0,0,0.01-0.01     C122.27,155.36,122.26,155.36,122.26,155.36z M122.58,155.16c0.01,0,0.01,0,0.01,0C122.59,155.16,122.58,155.16,122.58,155.16z      M113.4,140.54c0,0,0,0-0.01,0.01C113.4,140.55,113.4,140.54,113.4,140.54z M113.09,140.75c-0.01,0-0.01,0-0.01,0     C113.08,140.75,113.08,140.75,113.09,140.75z M123.51,156.99c1.87-1.18,0.85-6.18-2.29-11.17c-3.14-4.99-7.2-8.08-9.07-6.91     c-1.87,1.18-0.85,6.18,2.29,11.17C117.58,155.08,121.64,158.17,123.51,156.99z"></path>
			<path class="st1" d="M138.11,178.56c-0.35-1.72-1.28-3.99-2.75-6.32c-1.47-2.34-3.11-4.16-4.51-5.22     c-0.7-0.54-1.25-0.81-1.61-0.92c-0.06,0.37-0.05,0.99,0.13,1.85c0.35,1.72,1.28,3.98,2.75,6.33c1.47,2.34,3.11,4.16,4.51,5.22     c0.7,0.54,1.25,0.81,1.61,0.92C138.3,180.05,138.29,179.43,138.11,178.56z M138.17,180.67c0,0,0-0.01,0.01-0.01     C138.17,180.67,138.17,180.67,138.17,180.67z M138.48,180.47c0.01,0,0.01,0,0.01,0C138.5,180.47,138.49,180.47,138.48,180.47z      M129.31,165.85c0,0,0,0-0.01,0.01C129.31,165.86,129.31,165.85,129.31,165.85z M129,166.06c-0.01,0-0.01,0-0.01,0     C128.99,166.06,128.99,166.06,129,166.06z M139.42,182.3c1.87-1.18,0.85-6.18-2.29-11.17c-3.14-4.99-7.2-8.08-9.07-6.91     c-1.87,1.18-0.85,6.18,2.29,11.17C133.49,180.38,137.55,183.48,139.42,182.3z"></path>
			<path class="st1" d="M103.54,173.73c-8.21-13.06-2.11-28.01,8.66-34.79l1.11,1.76c-10.02,6.3-15.48,20.03-8.01,31.91     c4.5,7.15,9.93,10.85,15.53,11.94c5.62,1.1,11.59-0.39,17.21-3.93l1.11,1.77c-5.95,3.74-12.45,5.43-18.72,4.21     C114.16,185.38,108.28,181.26,103.54,173.73z"></path>
			<path class="st1" d="M104.86,154.97c1.51-4.75,4.63-8.33,7.08-10.2l1.27,1.66c-2.17,1.66-5,4.9-6.36,9.18     c-1.34,4.23-1.27,9.51,2.43,15.39c3.7,5.88,8.45,8.28,12.88,8.95c4.48,0.67,8.67-0.42,11.12-1.62l0.91,1.87     c-2.77,1.35-7.39,2.55-12.35,1.8c-5-0.75-10.3-3.49-14.34-9.9C103.47,165.68,103.33,159.76,104.86,154.97z"></path>
			<path class="st1" d="M109.91,157.01c0.89-3.52,2.94-6.16,4.6-7.56l1.34,1.6c-1.37,1.14-3.15,3.43-3.92,6.47     c-0.76,3-0.54,6.8,2.14,11.08c2.09,3.33,5.3,5.05,8.43,5.72c3.17,0.68,6.09,0.23,7.51-0.57l1.03,1.81     c-1.99,1.13-5.47,1.55-8.97,0.8c-3.55-0.76-7.3-2.75-9.76-6.65C109.32,164.95,109.01,160.57,109.91,157.01z"></path>
			<path class="st1" d="M114.86,158.35c0.61-2.26,1.93-4.04,2.99-5l1.4,1.54c-0.81,0.74-1.89,2.17-2.38,4     c-0.48,1.79-0.41,3.98,1.07,6.33c2.96,4.71,7.79,4.62,9.8,4l0.61,1.99c-2.57,0.79-8.55,0.89-12.18-4.88     C114.36,163.44,114.24,160.65,114.86,158.35z"></path>
			<path class="st1" d="M119.99,158.75c0.41-1.5,1.25-2.87,2.17-3.52l1.21,1.7c-0.39,0.28-1.04,1.16-1.36,2.37     c-0.32,1.17-0.28,2.42,0.37,3.45c0.62,0.99,1.78,1.52,3.11,1.69c1.35,0.18,2.58-0.06,3.08-0.29l0.91,1.88     c-0.96,0.46-2.63,0.7-4.26,0.49c-1.64-0.21-3.52-0.92-4.61-2.65C119.56,162.18,119.58,160.29,119.99,158.75z"></path>
			<path class="st1" d="M251.86,153.26c0.35-1.72,1.28-3.98,2.75-6.33c1.47-2.34,3.11-4.16,4.51-5.22c0.7-0.54,1.25-0.81,1.62-0.92     c0.06,0.37,0.05,0.99-0.13,1.85c-0.35,1.72-1.28,3.98-2.75,6.33c-1.47,2.34-3.11,4.16-4.51,5.22c-0.7,0.54-1.25,0.81-1.61,0.92     C251.67,154.74,251.68,154.12,251.86,153.26z M251.8,155.36c0,0,0,0-0.01-0.01C251.8,155.36,251.8,155.36,251.8,155.36z      M251.49,155.16c-0.01,0-0.01,0-0.01,0C251.47,155.16,251.48,155.16,251.49,155.16z M260.66,140.54c0,0,0,0,0.01,0.01     C260.66,140.55,260.66,140.54,260.66,140.54z M260.97,140.75c0.01,0,0.01,0,0.01,0C260.98,140.75,260.98,140.75,260.97,140.75z      M250.55,156.99c-1.87-1.18-0.85-6.18,2.29-11.17c3.14-4.99,7.2-8.08,9.07-6.91c1.87,1.18,0.85,6.18-2.29,11.17     C256.48,155.08,252.42,158.17,250.55,156.99z"></path>
			<path class="st1" d="M235.95,178.56c0.35-1.72,1.28-3.99,2.75-6.32c1.47-2.34,3.11-4.16,4.51-5.22c0.7-0.54,1.25-0.81,1.62-0.92     c0.06,0.37,0.05,0.99-0.13,1.85c-0.35,1.72-1.28,3.98-2.75,6.33c-1.47,2.34-3.11,4.16-4.51,5.22c-0.7,0.54-1.25,0.81-1.61,0.92     C235.76,180.05,235.77,179.43,235.95,178.56z M235.89,180.67c0,0,0-0.01-0.01-0.01C235.89,180.67,235.89,180.67,235.89,180.67z      M235.58,180.47c-0.01,0-0.01,0-0.01,0C235.56,180.47,235.57,180.47,235.58,180.47z M244.75,165.85c0,0,0,0,0.01,0.01     C244.75,165.86,244.75,165.85,244.75,165.85z M245.06,166.06c0.01,0,0.01,0,0.01,0C245.07,166.06,245.07,166.06,245.06,166.06z      M234.64,182.3c-1.87-1.18-0.85-6.18,2.29-11.17c3.14-4.99,7.2-8.08,9.07-6.91c1.87,1.18,0.85,6.18-2.29,11.17     C240.57,180.38,236.51,183.48,234.64,182.3z"></path>
			<path class="st1" d="M270.52,173.73c8.21-13.06,2.11-28.01-8.66-34.79l-1.11,1.76c10.02,6.3,15.48,20.03,8.01,31.91     c-4.5,7.15-9.93,10.85-15.53,11.94c-5.62,1.1-11.59-0.39-17.21-3.93l-1.11,1.77c5.95,3.74,12.45,5.43,18.72,4.21     C259.91,185.38,265.78,181.26,270.52,173.73z"></path>
			<path class="st1" d="M269.2,154.97c-1.51-4.75-4.63-8.33-7.08-10.2l-1.27,1.66c2.17,1.66,5,4.9,6.36,9.18     c1.34,4.23,1.27,9.51-2.43,15.39c-3.7,5.88-8.45,8.28-12.88,8.95c-4.48,0.67-8.67-0.42-11.12-1.62l-0.92,1.87     c2.77,1.35,7.39,2.55,12.35,1.8c5-0.75,10.3-3.49,14.34-9.9C270.59,165.68,270.73,159.76,269.2,154.97z"></path>
			<path class="st1" d="M264.15,157.01c-0.89-3.52-2.94-6.16-4.6-7.56l-1.34,1.6c1.37,1.14,3.15,3.43,3.92,6.47     c0.76,3,0.55,6.8-2.14,11.08c-2.09,3.33-5.3,5.05-8.43,5.72c-3.17,0.68-6.09,0.23-7.51-0.57l-1.03,1.81     c1.99,1.13,5.47,1.55,8.97,0.8c3.55-0.76,7.3-2.75,9.75-6.65C264.74,164.95,265.05,160.57,264.15,157.01z"></path>
			<path class="st1" d="M259.2,158.35c-0.61-2.26-1.93-4.04-2.99-5l-1.4,1.54c0.81,0.74,1.89,2.17,2.38,4     c0.48,1.79,0.41,3.98-1.07,6.33c-2.96,4.71-7.79,4.62-9.8,4l-0.61,1.99c2.57,0.79,8.55,0.89,12.18-4.88     C259.7,163.44,259.82,160.65,259.2,158.35z"></path>
			<path class="st1" d="M254.07,158.75c-0.41-1.5-1.25-2.87-2.17-3.52l-1.21,1.7c0.39,0.28,1.03,1.16,1.36,2.37     c0.32,1.17,0.28,2.42-0.37,3.45c-0.62,0.99-1.78,1.52-3.11,1.69c-1.35,0.18-2.58-0.06-3.08-0.29l-0.91,1.88     c0.96,0.46,2.63,0.7,4.26,0.49c1.64-0.21,3.52-0.92,4.61-2.65C254.5,162.18,254.48,160.29,254.07,158.75z"></path>
			<path class="st1" d="M54.56,122.43l0.77,0.86c1.64,1.82,3.59,5.01,4.16,8.75c0.58,3.8-0.27,8.14-4.2,12.06l-0.74,0.74l-0.74-0.74     c-1.66-1.66-3.62-4.66-4.2-8.35c-0.58-3.75,0.28-8.15,4.16-12.46L54.56,122.43z M54.57,141.82c2.77-3.18,3.32-6.52,2.86-9.47     c-0.41-2.69-1.66-5.09-2.89-6.74c-2.78,3.52-3.31,6.93-2.86,9.81C52.1,138.08,53.35,140.33,54.57,141.82z"></path>
			<path class="st1" d="M47.39,149.97l0.77,0.86c1.64,1.82,3.59,5.01,4.16,8.75c0.58,3.8-0.27,8.14-4.2,12.06l-0.74,0.74l-0.74-0.74     c-1.66-1.66-3.62-4.66-4.2-8.35c-0.58-3.75,0.28-8.15,4.16-12.46L47.39,149.97z M47.4,169.37c2.77-3.18,3.32-6.52,2.86-9.47     c-0.41-2.69-1.66-5.09-2.89-6.74c-2.78,3.52-3.31,6.93-2.86,9.81C44.92,165.62,46.18,167.87,47.4,169.37z"></path>
			<path class="st1" d="M75.26,148.96l-0.04,1.16c-0.08,2.44-0.89,6.09-3.08,9.19c-2.22,3.14-5.84,5.68-11.4,5.78l-1.04,0.02     l-0.02-1.04c-0.05-2.34,0.62-5.86,2.77-8.93c2.18-3.11,5.86-5.68,11.65-6.09L75.26,148.96z M61.8,162.95     c4.21-0.37,6.92-2.4,8.64-4.84c1.57-2.23,2.34-4.82,2.6-6.86c-4.45,0.61-7.2,2.7-8.88,5.09     C62.61,158.54,61.95,161.03,61.8,162.95z"></path>
			<path class="st1" d="M89.5,136.8l-0.86,0.78c-1.82,1.63-5.01,3.58-8.76,4.16c-3.81,0.58-8.15-0.27-12.08-4.19l-0.74-0.74     l0.74-0.74c1.66-1.66,4.66-3.62,8.36-4.19c3.76-0.58,8.16,0.27,12.48,4.16L89.5,136.8z M70.07,136.81     c3.19,2.77,6.53,3.31,9.49,2.86c2.7-0.41,5.1-1.66,6.75-2.88c-3.52-2.78-6.94-3.31-9.83-2.86     C73.82,134.34,71.56,135.6,70.07,136.81z"></path>
			<path class="st1" d="M43.86,180.06L43,180.83c-1.82,1.63-5.01,3.58-8.76,4.16c-3.81,0.58-8.15-0.27-12.08-4.2l-0.74-0.74     l0.74-0.74c1.66-1.66,4.66-3.62,8.36-4.19c3.76-0.58,8.16,0.28,12.48,4.16L43.86,180.06z M24.44,180.07     c3.19,2.77,6.53,3.31,9.49,2.86c2.7-0.41,5.1-1.66,6.75-2.88c-3.52-2.77-6.94-3.31-9.83-2.86     C28.19,177.6,25.93,178.86,24.44,180.07z"></path>
			<path class="st1" d="M39.2,151.03l-1.16-0.03c-2.45-0.05-6.11-0.82-9.24-2.96c-3.17-2.18-5.75-5.77-5.93-11.32l-0.03-1.04     l1.04-0.03c2.35-0.07,5.88,0.55,8.97,2.66c3.14,2.14,5.76,5.78,6.24,11.56L39.2,151.03z M25.04,137.76     c0.42,4.2,2.49,6.88,4.95,8.57c2.25,1.54,4.86,2.28,6.9,2.51c-0.66-4.43-2.79-7.16-5.2-8.8     C29.46,138.52,26.96,137.89,25.04,137.76z"></path>
			<path class="st1" d="M73.64,190.68l-1.16-0.03c-2.45-0.05-6.11-0.82-9.24-2.96c-3.17-2.18-5.75-5.77-5.93-11.32l-0.03-1.04     l1.04-0.03c2.35-0.07,5.88,0.55,8.97,2.66c3.14,2.14,5.76,5.78,6.24,11.56L73.64,190.68z M59.48,177.41     c0.42,4.2,2.49,6.88,4.95,8.57c2.25,1.54,4.86,2.28,6.9,2.51c-0.66-4.43-2.79-7.16-5.2-8.8C63.9,178.17,61.4,177.54,59.48,177.41     z"></path>
			<path class="st1" d="M319.5,122.43l-0.77,0.86c-1.64,1.82-3.59,5.01-4.16,8.75c-0.58,3.8,0.27,8.14,4.2,12.06l0.74,0.74     l0.74-0.74c1.66-1.66,3.62-4.66,4.2-8.35c0.58-3.75-0.28-8.15-4.16-12.46L319.5,122.43z M319.49,141.82     c-2.77-3.18-3.32-6.52-2.86-9.47c0.41-2.69,1.66-5.09,2.89-6.74c2.78,3.52,3.31,6.93,2.86,9.81     C321.96,138.08,320.71,140.33,319.49,141.82z"></path>
			<path class="st1" d="M326.68,149.97l-0.77,0.86c-1.64,1.82-3.59,5.01-4.16,8.75c-0.58,3.8,0.27,8.14,4.2,12.06l0.74,0.74     l0.74-0.74c1.66-1.66,3.62-4.66,4.2-8.35c0.59-3.75-0.28-8.15-4.16-12.46L326.68,149.97z M326.66,169.37     c-2.77-3.18-3.32-6.52-2.86-9.47c0.41-2.69,1.66-5.09,2.89-6.74c2.78,3.52,3.31,6.93,2.86,9.81     C329.14,165.62,327.88,167.87,326.66,169.37z"></path>
			<path class="st1" d="M298.8,148.96l0.04,1.16c0.08,2.44,0.89,6.09,3.08,9.19c2.22,3.14,5.84,5.68,11.4,5.78l1.04,0.02l0.02-1.04     c0.05-2.34-0.62-5.86-2.77-8.93c-2.18-3.11-5.86-5.68-11.65-6.09L298.8,148.96z M312.27,162.95c-4.21-0.37-6.92-2.4-8.64-4.84     c-1.57-2.23-2.34-4.82-2.6-6.86c4.45,0.61,7.2,2.7,8.88,5.09C311.45,158.54,312.11,161.03,312.27,162.95z"></path>
			<path class="st1" d="M284.57,136.8l0.86,0.78c1.82,1.63,5.01,3.58,8.76,4.16c3.81,0.58,8.15-0.27,12.08-4.19l0.74-0.74     l-0.74-0.74c-1.66-1.66-4.66-3.62-8.37-4.19c-3.76-0.58-8.16,0.27-12.47,4.16L284.57,136.8z M303.99,136.81     c-3.19,2.77-6.53,3.31-9.49,2.86c-2.7-0.41-5.1-1.66-6.75-2.88c3.53-2.78,6.94-3.31,9.83-2.86     C300.24,134.34,302.5,135.6,303.99,136.81z"></path>
			<path class="st1" d="M330.2,180.06l0.86,0.78c1.82,1.63,5.01,3.58,8.76,4.16c3.81,0.58,8.15-0.27,12.08-4.2l0.74-0.74l-0.74-0.74     c-1.66-1.66-4.66-3.62-8.36-4.19c-3.76-0.58-8.16,0.28-12.48,4.16L330.2,180.06z M349.62,180.07c-3.19,2.77-6.53,3.31-9.49,2.86     c-2.7-0.41-5.1-1.66-6.75-2.88c3.52-2.77,6.94-3.31,9.83-2.86C345.87,177.6,348.13,178.86,349.62,180.07z"></path>
			<path class="st1" d="M334.86,151.03l1.16-0.03c2.45-0.05,6.11-0.82,9.24-2.96c3.17-2.18,5.75-5.77,5.93-11.32l0.03-1.04     l-1.04-0.03c-2.35-0.07-5.88,0.55-8.97,2.66c-3.14,2.14-5.76,5.78-6.24,11.56L334.86,151.03z M349.03,137.76     c-0.43,4.2-2.49,6.88-4.95,8.57c-2.25,1.54-4.86,2.28-6.9,2.51c0.66-4.43,2.79-7.16,5.2-8.8     C344.6,138.52,347.1,137.89,349.03,137.76z"></path>
			<path class="st1" d="M300.42,190.68l1.16-0.03c2.45-0.05,6.11-0.82,9.24-2.96c3.17-2.18,5.75-5.77,5.93-11.32l0.03-1.04     l-1.04-0.03c-2.35-0.07-5.88,0.55-8.97,2.66c-3.14,2.14-5.76,5.78-6.24,11.56L300.42,190.68z M314.58,177.41     c-0.42,4.2-2.49,6.88-4.95,8.57c-2.25,1.54-4.86,2.28-6.9,2.51c0.67-4.43,2.79-7.16,5.2-8.8     C310.16,178.17,312.66,177.54,314.58,177.41z"></path>
		</g>
	</g>
</g>
<path class="st11" d="M319.19,298.82H53.7c-28.41,0-51.44-23.03-51.44-51.44V53.43c0-28.41,23.03-51.44,51.44-51.44h265.5  c28.41,0,51.44,23.03,51.44,51.44v193.95C370.63,275.79,347.6,298.82,319.19,298.82z"></path>
<rect x="74.07" y="230.83" class="st25" width="224.75" height="46.82"></rect>
<text transform="matrix(1 0 0 1 74.5343 246.6471)"><tspan x="0" y="0" class="st26 st27">Añade a sopas, pastas </tspan><tspan x="26.92" y="26.4" class="st26 st27">y granos enteros. </tspan></text>
<line class="st11" x1="2.04" y1="204.02" x2="370.63" y2="204.02"></line>
</svg>
