<?xml version="1.0" encoding="UTF-8"?>
<!-- Generator: Adobe Illustrator 27.0.0, SVG Export Plug-In . SVG Version: 6.00 Build 0)  -->
<svg xmlns="http://www.w3.org/2000/svg" xmlns:xlink="http://www.w3.org/1999/xlink" version="1.1" id="Layer_2" x="0px" y="0px" viewBox="0 0 372.45 300.74" style="enable-background:new 0 0 372.45 300.74;" xml:space="preserve">
<style type="text/css">
	.st0{clip-path:url(#SVGID_00000163788627597013190000000003410411311502466737_);}
	.st1{fill-rule:evenodd;clip-rule:evenodd;fill:#231F20;}
	.st2{fill:#231F20;}
	.st3{fill:none;stroke:#231F20;stroke-width:1.5;}
	.st4{fill:#FFFFFF;}
	.st5{fill:url(#SVGID_00000061470189206050126710000008735550560460143788_);}
	.st6{fill:#2E2A2B;}
	.st7{clip-path:url(#SVGID_00000101801297980444872960000000432276219118752904_);}
	.st8{clip-path:url(#SVGID_00000029017856334152000970000017349509377294708897_);}
	.st9{fill:url(#SVGID_00000145021240527772744110000003367055830444253604_);}
	.st10{fill:url(#SVGID_00000001652282121817353490000017306087815888715954_);}
	.st11{fill:none;stroke:#EC1D2B;stroke-width:3;stroke-miterlimit:10;}
	.st12{clip-path:url(#SVGID_00000094617539408548157540000011182784756658814867_);}
	.st13{fill:url(#SVGID_00000147920525456922452520000010706233272276557489_);}
	.st14{fill:#231F20;stroke:#231F20;stroke-width:1.5;}
	.st15{fill:url(#SVGID_00000123405440564170729540000004582773391933196693_);}
	.st16{clip-path:url(#SVGID_00000147929717978442039800000009624085055744753286_);}
	.st17{fill:url(#SVGID_00000119109367959548019200000005394734582843987849_);}
	.st18{clip-path:url(#SVGID_00000134249460699912320960000007212289495112923533_);}
	.st19{clip-path:url(#SVGID_00000020383527202908669020000000021357509556884362_);}
	.st20{fill:url(#SVGID_00000136402829689461316720000008165622917577433520_);}
	.st21{fill:url(#SVGID_00000030480072348427957590000012258628561906499733_);}
	.st22{fill-rule:evenodd;clip-rule:evenodd;}
	.st23{clip-path:url(#SVGID_00000069372171775001639870000000427200239508192128_);}
	.st24{fill:url(#SVGID_00000163766513078439955840000007191950628458405784_);}
	.st25{clip-path:url(#SVGID_00000013162100377442146790000002399280426345220264_);}
	.st26{clip-path:url(#SVGID_00000177446963823174001800000000353188797439009180_);}
	.st27{fill:url(#SVGID_00000132081136829551048750000007955650744895094195_);}
	.st28{fill:none;}
	.st29{font-family:'Helvetica';}
	.st30{font-size:22px;}
	.st31{fill:url(#SVGID_00000017508879870257838780000017968368442313073542_);}
	.st32{clip-path:url(#SVGID_00000078023808638348258520000012751162026371691672_);}
	.st33{fill:#272324;}
	.st34{fill:#2D292A;}
	.st35{fill:#2C2829;}
	.st36{clip-path:url(#SVGID_00000124152701224649913390000002645437158483659944_);}
	.st37{fill:none;stroke:#231F20;stroke-width:1.25;}
	.st38{clip-path:url(#SVGID_00000137113460381532091100000018223074395555111603_);}
</style>
<path class="st11" d="M319.19,298.82H53.7c-28.41,0-51.44-23.03-51.44-51.44V53.43c0-28.41,23.03-51.44,51.44-51.44h265.5  c28.41,0,51.44,23.03,51.44,51.44v193.95C370.63,275.79,347.6,298.82,319.19,298.82z"></path>
<rect x="43.51" y="229.36" class="st28" width="285.66" height="46.82"></rect>
<text transform="matrix(1 0 0 1 77.506 245.1789)"><tspan x="0" y="0" class="st29 st30">Úsala sobre palomitas </tspan><tspan x="-27.53" y="26.4" class="st29 st30">de maíz con aceite de oliva. </tspan></text>
<line class="st11" x1="2.04" y1="204.02" x2="370.63" y2="204.02"></line>
<g>
	<path class="st35" d="M97.64,26.24c-7.75,0.41-11.57-7.01-9.06-12.59c1.22-2.71,3.55-4.03,6.03-5.23c1.4,0,2.79,0,4.19,0   c3.72,1.5,6.39,3.91,6.84,8.14c0.1,0.94,0.76,0.98,1.43,1.21c5.89,2.06,9.22,7.26,8.28,12.85c-1,5.9-5.61,9.74-11.95,9.82   c-1.14,0.01-1.53,0.39-1.98,1.38c-1.42,3.2-3.98,4.89-7.5,4.83c-3.65-0.06-6.14-1.96-7.39-5.33c-0.41-1.11-0.78-1.28-1.95-1.06   c-6.59,1.19-12.76-3.31-13.63-9.81C70.07,23.96,74.88,18,81.5,17.32c1.53-0.16,2.17,0.01,2,1.87c-0.36,4.01,1.62,7.38,5.02,8.85   c3.38,1.46,6.61,1.22,9.43-1.4c0.17-0.08,0.46-0.13,0.27-0.38C98.15,26.16,97.84,26.25,97.64,26.24z M106.21,21.29   c0.07,0.17,0.14,0.33,0.21,0.5c-1.84,2.06-3.62,4.18-5.55,6.15c-3.3,3.38-7.3,4.57-11.88,3.25c-4.49-1.29-7.31-4.39-8.14-8.91   c-0.39-2.11-1.06-1.89-2.44-1.18c-3.94,2.03-5.77,6.97-4.08,11.11c1.76,4.32,6.42,6.38,11.14,4.94c2.86-0.88,2.86-0.88,3.36,1.77   c0.61,3.22,2.39,4.92,5.16,4.93c2.81,0.02,4.63-1.55,5.26-4.82c0.3-1.54,0.83-1.98,2.44-1.66c5.45,1.08,9.88-1.9,10.85-7.11   c0.88-4.71-2.47-9.26-7.7-10.05c-1.74-0.26-2.04-0.82-2.02-2.44c0.03-4.44-3.71-7.44-7.65-6.34c-3.3,0.92-5.12,4-4.34,7.36   c0.76,3.33,3.84,5.19,7.52,4.42C101,22.66,103.59,21.94,106.21,21.29z"></path>
	<path class="st35" d="M15.09,98.54c1.66-3.1,3.53-6.16,7.37-6.63c2.39-0.3,3.86-1.08,5.38-3.13c2.87-3.9,8.92-2.84,10.8,1.64   c0.54,1.28,0.97,1.45,2.29,1.26c5.29-0.74,9.87,2.87,10.73,8.27c0.76,4.81-2.89,9.67-7.97,10.56c-1.42,0.25-2.65,0.55-2.33-1.87   c0.39-2.94-1.54-5.69-4.18-6.87c-2.68-1.2-5.59-0.73-7.75,1.37c3.85,0.14,6.82,1.51,8.03,5.37c1.22,3.89-1.02,7.97-4.96,9.1   c-3.93,1.13-8.1-1.15-9.03-5.08c-0.33-1.41-0.84-2.17-2.33-2.62c-3.09-0.94-4.61-3.61-6.04-6.26   C15.09,101.95,15.09,100.24,15.09,98.54z M17.9,101.83c0.08,1.26,0.77,2.84,2.1,4.16c0.99,0.99,1.81,1.19,2.82-0.09   c1.24-1.58,2.62-3.05,4.04-4.47c5.66-5.65,14.91-3.35,16.97,4.33c0.6,2.24,1.37,1.45,2.4,0.67c2.59-1.97,3.38-5.44,1.94-8.32   c-1.49-2.97-4.7-4.32-8.04-3.39c-3.09,0.86-3.06,0.86-3.71-2.12c-0.42-1.94-1.56-3.25-3.63-3.3c-2.03-0.04-3.47,1.04-3.79,3.05   c-0.33,2.1-1.01,2.67-3.28,2.2C21.51,93.65,17.82,97.01,17.9,101.83z M24.3,107.47c2.24,0.23,1.54,1.95,1.65,3.23   c0.23,2.76,2.38,4.66,4.93,4.38c2.6-0.29,4.49-2.72,4.05-5.22c-0.45-2.56-2.83-4.17-5.49-3.63   C27.71,106.59,26.01,107.06,24.3,107.47z"></path>
	<path class="st35" d="M88.98,162.49c-8.76-6.44-11.22-15.67-6.5-24.46c2.51-4.68,6.46-7.64,11.63-8.86   c1.35-0.32,2.08-0.82,2.35-2.28c0.58-3.2,2.2-5.93,4.42-8.26c0.81-0.84,0.79-1.36,0.2-2.34c-4.17-6.91-4.13-13.89,0.57-20.43   c4.72-6.56,11.38-8.75,19.25-7.01c1.29,0.29,1.84,0.09,2.53-1.03c2.64-4.28,6.51-6.98,11.41-8.08c1.12-0.25,1.6-0.65,1.9-1.8   c2.72-10.6,12.19-16.31,22.68-13.66c1.33,0.34,1.57,0.23,1.81-1.15c1.48-8.38,8.26-14.55,16.46-15.19   c8.47-0.66,15.82,4.19,18.79,12.5c0.43,1.2,0.89,1.44,2.14,1.21c7.7-1.4,15.26,2.3,19.1,9.33c0.56,1.02,1.01,1.59,2.37,1.62   c8.45,0.2,15.45,5.94,17.25,14.18c0.36,1.62,0.9,1.77,2.42,1.62c7.2-0.7,13.17,1.74,17.28,7.77c4.1,6,4.3,12.4,1.07,18.89   c-0.45,0.9-0.72,1.41,0.29,2.25c3.14,2.59,5.12,5.97,5.94,9.97c0.2,0.97,0.52,1.44,1.51,1.67c7.84,1.88,12.86,6.74,14.28,14.66   c1.5,8.38-2.03,14.72-9.22,19.32c3.36,1.57,5.78,3.94,6.49,7.63c1.09,5.71-2.5,11-8.26,11.93c-1.5,0.24-1.67,0.79-1.66,2.04   c0.05,5.73,0,11.46,0.04,17.18c0.01,1.13-0.02,1.86-1.54,1.85c-1.55-0.01-1.3-0.91-1.3-1.81c0-5.73-0.05-11.46,0.03-17.18   c0.02-1.47-0.32-1.98-1.9-1.97c-7.83,0.09-15.65,0.08-23.48,0c-1.55-0.02-1.94,0.45-1.91,1.95c0.08,5.73,0.04,11.46,0.03,17.18   c0,0.88,0.31,1.82-1.27,1.82c-1.48,0-1.57-0.64-1.56-1.81c0.04-5.73-0.02-11.46,0.05-17.18c0.02-1.44-0.26-1.99-1.87-1.97   c-7.52,0.09-15.03,0.09-22.55,0c-1.68-0.02-2.04,0.53-2.01,2.09c0.09,5.65,0.03,11.3,0.04,16.95c0,1.01,0.22,1.93-1.43,1.92   c-1.68-0.01-1.4-0.99-1.4-1.97c0-5.73-0.05-11.46,0.03-17.18c0.02-1.44-0.41-1.81-1.83-1.8c-7.52,0.07-15.04,0.09-22.55-0.01   c-1.75-0.02-1.99,0.63-1.97,2.13c0.08,5.57,0.03,11.15,0.03,16.72c0,1.04,0.33,2.14-1.5,2.11c-1.76-0.02-1.32-1.11-1.32-2.01   c-0.02-5.57-0.07-11.15,0.03-16.72c0.03-1.63-0.26-2.27-2.11-2.24c-7.44,0.12-14.88,0.1-22.32,0.01c-1.67-0.02-2.04,0.47-2.02,2.06   c0.1,5.65,0.04,11.3,0.04,16.95c0,0.98,0.27,1.93-1.4,1.95c-1.69,0.02-1.41-0.96-1.41-1.93c0-5.73-0.04-11.46,0.03-17.18   c0.02-1.37-0.27-1.87-1.77-1.86c-7.67,0.08-15.34,0.07-23.02,0.01c-1.36-0.01-1.65,0.43-1.64,1.7c0.06,5.8,0.03,11.61,0.02,17.42   c0,0.86,0.35,1.84-1.25,1.83c-1.45,0-1.59-0.62-1.58-1.8c0.05-5.73-0.02-11.46,0.05-17.18c0.02-1.44-0.26-2-1.88-1.98   c-7.05,0.1-14.1,0.08-21.16,0.01c-1.51-0.02-1.98,0.38-1.95,1.93c0.09,5.73,0.02,11.46,0.05,17.18c0.01,1.12,0,1.87-1.54,1.84   c-1.52-0.03-1.32-0.9-1.32-1.82c0-5.81-0.01-11.61,0.01-17.42c0-0.99-0.08-1.62-1.28-2.01c-4.91-1.63-7.64-5.12-7.74-9.56   c-0.1-4.5,2.44-7.92,7.32-9.9C88.61,162.81,88.72,162.69,88.98,162.49z M163.81,69.29c-0.5-0.26-0.83-0.42-1.15-0.6   c-10.96-6.38-22.99,1.53-23.45,11.91c-0.05,1.22-0.61,1.51-1.72,1.62c-6.09,0.57-10.35,3.8-12.85,9.29   c-0.56,1.22-1.01,1.33-2.18,0.86c-7.07-2.81-14.35-0.77-18.6,5.12c-4.18,5.8-3.87,13.36,0.94,19.06c1.04,1.23,0.81,1.74-0.32,2.62   c-3.39,2.65-5.33,6.19-5.64,10.49c-0.1,1.4-0.58,1.76-1.92,1.88c-8.19,0.73-14.21,7.71-13.91,16c0.3,8.07,7.08,14.64,15.37,14.65   c54.71,0.03,109.43,0.03,164.14,0c8.25,0,14.89-6.73,15.16-15.1c0.25-7.88-5.97-14.89-13.92-15.53c-1.4-0.11-1.76-0.55-1.9-1.88   c-0.49-4.61-2.52-8.45-6.43-11.04c-1.64-1.08-2.02-1.7-0.73-3.53c5.96-8.46,1.82-20.23-8.03-23.32c-3.91-1.23-7.71-0.73-11.45,0.71   c-0.08-0.35-0.16-0.5-0.15-0.65c0.36-10.87-8.85-17.58-17.32-16.35c-1.25,0.18-1.39-0.58-1.7-1.36   c-3.23-7.98-11.2-11.79-19.29-9.09c-1.67,0.56-2.05,0.38-2.37-1.46c-1.32-7.51-7.53-12.75-14.85-12.87   c-7.45-0.12-13.82,4.93-15.43,12.21C163.64,64.96,163.98,67.03,163.81,69.29z M179.48,165.3c-28.67,0-57.35,0-86.02,0   c-1.01,0-2.02,0.01-3.02,0.09c-2.05,0.15-3.69,1.11-4.89,2.75c-1.74,2.38-2.14,4.95-0.76,7.62c1.45,2.81,3.8,4.06,6.98,4.06   c57.66-0.02,115.31-0.01,172.97-0.01c1.01,0,2.02,0.07,3.02,0.01c3.06-0.19,5.3-1.67,6.44-4.53c1.12-2.82,0.62-5.44-1.44-7.73   c-1.84-2.05-4.24-2.28-6.79-2.28C237.14,165.31,208.31,165.3,179.48,165.3z"></path>
	<path class="st35" d="M266.66,49.28c6.33,0.17,10.15,3.38,10.39,8.51c0.21,4.59-3.01,8.58-7.42,9.21c-4.73,0.68-8.99-1.98-10-6.57   c-0.38-1.74-1.11-2.42-2.73-3.01c-5.23-1.89-8.34-7.54-7.31-12.8c1.1-5.64,6.05-9.74,11.74-9.52c1.27,0.05,1.69-0.3,2.17-1.37   c1.43-3.17,3.97-4.91,7.5-4.84c3.52,0.07,6.1,1.86,7.25,5.14c0.64,1.82,1.64,1.32,2.82,1.15c6.27-0.91,12.29,3.97,12.93,10.48   c0.62,6.28-4.41,12.16-10.67,12.54c-1.45,0.09-2.15,0.08-1.91-1.85c0.49-3.79-1.71-7.34-5.05-8.86   C273.05,45.97,269.39,46.59,266.66,49.28z M257.61,54.69c0.43,0.17,0.86,0.48,1.29,0.48c2.44,0.01,3.32,0.95,3.28,3.6   c-0.05,3.55,3.32,5.92,6.92,5.46c3.41-0.44,5.72-3.8,5.02-7.3c-0.65-3.29-3.96-5.36-7.4-4.63c-2.93,0.63-5.77,1.68-8.78,1.98   c1.97-2.17,3.91-4.38,5.93-6.51c3.11-3.29,6.93-4.58,11.37-3.58c4.35,0.98,7.12,3.77,8.62,7.93c0.35,0.96-0.23,2.6,1.16,2.78   c1.19,0.16,2.28-0.85,3.2-1.68c0.62-0.56,1.2-1.22,1.64-1.93c2.02-3.24,1.75-7.15-0.63-10.17c-2.27-2.86-6.01-3.88-9.84-2.68   c-2.86,0.9-2.86,0.9-3.4-2.11c-0.5-2.77-2.38-4.57-4.92-4.67c-2.65-0.11-4.9,1.57-5.33,4.46c-0.31,2.1-1.21,2.3-3.04,2   c-4.71-0.77-8.72,1.66-10.02,5.84C251.33,48.38,253.21,52.47,257.61,54.69z"></path>
	<path class="st35" d="M342.42,142.14c-1.62-0.32-3.25-0.27-4.7-1.16c-2.9-1.78-4.35-5.18-3.4-8.37c0.95-3.21,3.98-5.39,7.34-5.28   c3.23,0.1,6.2,2.4,6.78,5.62c0.25,1.38,0.85,1.88,2.04,2.3c4.19,1.47,6.85,5.83,6.23,10c-0.71,4.8-4.27,8.21-9.05,8.38   c-1.43,0.05-2.16,0.42-2.78,1.73c-1.13,2.4-3.31,3.46-5.87,3.42c-2.59-0.04-4.75-1.3-5.7-3.71c-0.65-1.64-1.37-1.66-2.86-1.47   c-5.02,0.65-9.8-3.41-10.29-8.53c-0.5-5.17,3.4-9.93,8.45-10.36c1.31-0.11,2.09-0.19,1.87,1.71c-0.36,3.08,1.48,5.81,4.23,7.07   C337.34,144.7,340.26,144.21,342.42,142.14z M347.8,150.86c2.3-0.04,4.83-1.84,5.76-4.42c0.89-2.48,0.14-5.47-1.78-7.24   c-0.95-0.88-1.73-1.12-2.66,0.07c-1,1.28-2.18,2.41-3.23,3.65c-2.73,3.24-6.19,4.68-10.34,3.78c-4.03-0.88-6.7-3.45-7.64-7.54   c-0.33-1.46-0.89-1.29-1.87-0.69c-2.76,1.72-3.88,5.35-2.55,8.35c1.39,3.13,4.67,4.65,8.08,3.73c3.13-0.84,3.15-0.85,3.88,2.36   c0.42,1.83,1.63,2.83,3.38,3.02c1.79,0.2,3.57-0.69,3.78-2.39c0.37-2.96,1.71-3.53,4.24-2.7   C347.01,150.9,347.17,150.86,347.8,150.86z M347.07,137.91c-1.73-0.72-1.16-2.12-1.23-3.27c-0.16-2.77-2.22-4.7-4.81-4.49   c-2.53,0.2-4.36,2.38-4.14,4.93c0.22,2.59,2.48,4.37,5.22,3.96C343.78,138.78,345.42,138.29,347.07,137.91z"></path>
	<path class="st35" d="M149.21,140.36c1.94,0.69,2.85-0.28,3.83-2.01c3.56-6.31,12.8-6.87,17.52-0.9c1.83,2.32,3.39,2.72,6.21,2.35   c6.98-0.91,12.74,1.72,16.93,7.44c0.37,0.51,1.8,1.28,0.26,2.18c-1.03,0.61-1.7,0.73-2.58-0.54c-3.98-5.76-10.71-7.84-18.14-5.61   c-1.64,0.49-2.25,0.4-2.97-1.3c-1.53-3.63-4.41-5.72-8.47-5.81c-3.54-0.08-6.45,2.08-7.23,5.64c-0.39,1.78-1.13,1.96-2.66,1.71   c-3.49-0.57-6.94-0.22-10.3,0.91c-2.5,0.85-4.66,2.22-5.82,4.65c-0.68,1.43-1.47,0.63-2.24,0.41c-1.29-0.36-0.63-1.16-0.29-1.78   c2.35-4.22,6.3-5.98,10.78-6.84C145.72,140.58,147.43,140.54,149.21,140.36z"></path>
	<path class="st35" d="M216.77,123.01c2.71,1.37,4.49-0.38,6.66-2.54c4.22-4.22,10.64-3.09,13.57,2.05c0.61,1.07,1.3,1.26,2.39,1.25   c3.77-0.02,7.4,0.55,10.51,2.95c1.07,0.82,1.87,1.84,2.5,3.01c0.29,0.52,0.79,1.12-0.2,1.46c-0.73,0.25-1.54,1.12-2.21,0.02   c-2.79-4.58-7.29-4.81-11.84-4.47c-1.94,0.14-2.79-0.02-3.29-2.11c-0.54-2.23-2.3-3.62-4.75-3.77c-3.06-0.2-5.41,1.23-6.56,3.87   c-0.93,2.13-1.84,2.28-3.9,1.7c-5.38-1.5-9.98-0.02-13.26,4.62c-0.9,1.27-1.53,0.48-2.29,0.18c-1.34-0.53-0.41-1.24-0.04-1.78   C206.99,125.15,211.15,123.17,216.77,123.01z"></path>
	<path class="st35" d="M140.2,94.14c2.14,1.02,3.53-0.36,5.24-2.07c3.48-3.5,8.73-2.71,11.26,1.5c0.65,1.09,1.31,1.22,2.37,1.23   c3.85,0.04,7.38,0.92,9.74,4.31c0.41,0.59,1.46,1.37,0.17,2.07c-0.81,0.44-1.58,0.88-2.48-0.39c-2.42-3.47-6.17-3.34-9.85-3.06   c-0.9,0.07-1.53,0.39-1.76-0.93c-0.37-2.12-1.47-3.73-3.88-3.96c-2.24-0.21-4.34,0.92-5.21,3.39c-0.65,1.83-1.43,1.8-2.99,1.29   c-4.15-1.35-7.92-0.25-10.46,3.29c-1.03,1.43-1.85,0.77-2.64,0.29c-1.25-0.76,0-1.49,0.37-2C132.47,95.81,135.78,94.25,140.2,94.14   z"></path>
</g>
</svg>
