<?xml version="1.0" encoding="UTF-8"?>
<!-- Generator: Adobe Illustrator 27.0.0, SVG Export Plug-In . SVG Version: 6.00 Build 0)  -->
<svg xmlns="http://www.w3.org/2000/svg" xmlns:xlink="http://www.w3.org/1999/xlink" version="1.1" id="Layer_2" x="0px" y="0px" viewBox="0 0 372.45 300.74" style="enable-background:new 0 0 372.45 300.74;" xml:space="preserve">
<style type="text/css">
	.st0{clip-path:url(#SVGID_00000142146759076580588670000003726791085926144942_);}
	.st1{fill-rule:evenodd;clip-rule:evenodd;fill:#231F20;}
	.st2{fill:#231F20;}
	.st3{fill:none;stroke:#231F20;stroke-width:1.5;}
	.st4{fill:#FFFFFF;}
	.st5{fill:url(#SVGID_00000057831198847293065670000014692653179138386066_);}
	.st6{fill:#2E2A2B;}
	.st7{clip-path:url(#SVGID_00000054259112887603438490000016609161619245166493_);}
	.st8{clip-path:url(#SVGID_00000068649011784783843280000009377509075770858423_);}
	.st9{fill:url(#SVGID_00000015317327754967560460000014835641754375068301_);}
	.st10{fill:url(#SVGID_00000136411659894994657400000010855834327202174607_);}
	.st11{fill:none;stroke:#EC1D2B;stroke-width:3;stroke-miterlimit:10;}
	.st12{clip-path:url(#SVGID_00000130608142274207601410000007590521929029561756_);}
	.st13{fill:url(#SVGID_00000166658984056252007060000011596397726069914035_);}
	.st14{fill:#231F20;stroke:#231F20;stroke-width:1.5;}
	.st15{fill:url(#SVGID_00000031885584939100063650000003417070475300185259_);}
	.st16{clip-path:url(#SVGID_00000032636760995761161030000017744017671220506769_);}
	.st17{fill:url(#SVGID_00000109747469888236818940000001283850857582933647_);}
	.st18{clip-path:url(#SVGID_00000182502186525717384990000013632846424680430781_);}
	.st19{clip-path:url(#SVGID_00000035522241863942868990000004770343134331458953_);}
	.st20{fill:url(#SVGID_00000104682744846166011590000015675435401691278769_);}
	.st21{fill:url(#SVGID_00000044896279229392168900000010093539058007545277_);}
	.st22{fill-rule:evenodd;clip-rule:evenodd;}
	.st23{clip-path:url(#SVGID_00000134961419768024290310000013806222236788286090_);}
	.st24{fill:url(#SVGID_00000001639706079288666830000006881407108627558556_);}
	.st25{clip-path:url(#SVGID_00000163755119481577250770000002177581739938959011_);}
	.st26{clip-path:url(#SVGID_00000079473348368672744350000011631307488824345986_);}
	.st27{fill:none;}
	.st28{font-family:'Helvetica';}
	.st29{font-size:22px;}
	.st30{fill:url(#SVGID_00000158019899705487920970000013015792740519365515_);}
	.st31{fill:url(#SVGID_00000085238756847193933050000003741154857681352873_);}
	.st32{clip-path:url(#SVGID_00000110461447565318877590000012465435024101130635_);}
	.st33{fill:#272324;}
	.st34{fill:#2D292A;}
	.st35{fill:#2C2829;}
	.st36{clip-path:url(#SVGID_00000074423499666246594160000011250403925938003586_);}
	.st37{fill:none;stroke:#231F20;stroke-width:1.25;}
	.st38{clip-path:url(#SVGID_00000107574728666286690420000007527342748065224863_);}
</style>
<g>
	<defs>
		<path id="SVGID_00000067938409171958962300000011065090919619652494_" d="M56.98,6.15L37.37,4.78L4.69,37.77l-2.43,26.1    l11.79,17.97l-15.44,87.96l62.03,36.58c0,0,179.67,1.69,180.51,1.27c0.85-0.42,14.8-9.73,14.8-9.73l113.76-55.4v-46.1l-88.6-66.82    L56.98,6.15z"></path>
	</defs>
	<clipPath id="SVGID_00000020379258831027660450000017632062709852113058_">
		<use xlink:href="#SVGID_00000067938409171958962300000011065090919619652494_" style="overflow:visible;"></use>
	</clipPath>
	<g style="clip-path:url(#SVGID_00000020379258831027660450000017632062709852113058_);">
		<g>
			<defs>
				<rect id="SVGID_00000100379397388092411750000007302922048681400711_" x="-1.38" y="-0.25" width="372.52" height="203.04"></rect>
			</defs>
			<clipPath id="SVGID_00000109714480377555672900000007452309852790008216_">
				<use xlink:href="#SVGID_00000100379397388092411750000007302922048681400711_" style="overflow:visible;"></use>
			</clipPath>
			<g style="clip-path:url(#SVGID_00000109714480377555672900000007452309852790008216_);">
				<g>
					<path class="st2" d="M123.92,67.48c-0.03-0.16-0.1-0.4-0.29-0.62l-0.21-0.26l-0.32-0.08l-0.01,0l-0.02-0.01l-0.08-0.02l-0.01,0       c-0.29-0.09-0.95-0.28-1.62-0.36c-0.3-0.03-0.66-0.05-1.02,0.01c-0.33-0.43-0.81-0.86-1.47-1.2c-1.03-0.52-2.13-0.08-2.8,0.29       c-0.43,0.24-0.84,0.54-1.18,0.82l-8.86-5.12l-8.27-5.35c-0.18-0.8-0.73-1.84-1.97-2.47c-0.55-0.28-1.15-0.32-1.66-0.23       c-0.22,0.04-0.45,0.11-0.66,0.21c-1.09-0.59-2.58-1.44-4.06-2.34c-1.77-1.08-3.43-2.19-4.36-3.02       c-0.35-0.32-0.81-0.88-1.34-1.68c-0.53-0.79-1.09-1.74-1.68-2.8c-1.17-2.11-2.39-4.56-3.46-6.72l0-0.01l-0.01-0.03l0,0       c-0.81-1.64-1.55-3.13-2.11-4.13c-2.04-3.67-5.79-9.25-14.81-13.64c-6.96-3.38-15.87-8.9-19.46-11.23L42.15,7.5l-4.78-2.71       l-1.34,1.65l5.03,2.86c3.63,2.36,12.59,7.91,19.66,11.35c8.53,4.14,12,9.35,13.9,12.77c0.53,0.96,1.25,2.4,2.08,4.06       l10.66,14.49c0.33,0.21,0.65,0.41,0.98,0.61c1.79,1.09,3.6,2.1,4.73,2.7l0.76,0.4l0.53-0.65c0,0,0.01-0.01,0.02-0.01       c0.03-0.02,0.08-0.04,0.15-0.05c0.14-0.02,0.25,0,0.33,0.03c0.76,0.38,0.89,1.06,0.89,1.21l0,0.57l9.2,5.95l10.3,5.94l0.57-0.6       c0.29-0.3,0.78-0.73,1.29-1.01c0.58-0.32,0.82-0.26,0.84-0.25c0.68,0.34,0.86,0.77,0.89,0.84l0,0c0,0.01,0,0.01,0,0.01       l0.37,2.71l1.47-2.17c0.1-0.02,0.25-0.02,0.47,0c0.22,0.02,0.44,0.07,0.65,0.12c-0.01,0.05-0.02,0.11-0.04,0.17       c-0.16,0.64-0.5,1.63-1.11,3.08c-1.23,2.89-3.51,7.49-7.5,14.47l-0.3,0.53l-0.07,0.11l-0.07,0.12l-0.33,0.56       c-4.05,6.95-6.89,11.22-8.78,13.73c-0.95,1.26-1.64,2.05-2.11,2.51c-0.04,0.04-0.09,0.08-0.12,0.12       c-0.15-0.16-0.3-0.33-0.43-0.51c-0.13-0.18-0.2-0.32-0.24-0.41l1.14-2.35l-2.53,1.03c0,0,0,0-0.01,0h0       c-0.07,0.01-0.54,0.08-1.17-0.34c-0.03-0.02-0.19-0.2-0.21-0.85c-0.01-0.58,0.11-1.22,0.23-1.62l0.23-0.79l-10.3-5.94       l-9.75-4.99l-0.5,0.29c-0.14,0.08-0.79,0.29-1.5-0.17c-0.07-0.04-0.15-0.14-0.19-0.27c-0.02-0.06-0.03-0.11-0.03-0.15       c0-0.01,0-0.02,0-0.03l0.3-0.79l-0.73-0.45c-1.08-0.68-2.87-1.74-4.71-2.74c-1.82-0.99-3.76-1.97-5.15-2.42       c-0.71-0.23-1.64-0.36-2.64-0.42c-1.02-0.07-2.2-0.08-3.44-0.06c-2.47,0.04-5.25,0.21-7.64,0.36l0,0l-0.01,0l0,0       c-1.86,0.12-3.47,0.22-4.57,0.23c-3.91,0.07-10.15-0.33-18.01-5.65C23,70.29,13.71,65.3,9.85,63.34l-10.04-5.89l-1.19,1.73       l10.22,6l0.03,0.01c3.82,1.94,13.04,6.89,19.46,11.23c8.31,5.62,15.02,6.08,19.22,6.01c1.15-0.02,2.81-0.12,4.63-0.24l0.03,0       l0,0c2.41-0.15,5.14-0.32,7.56-0.36c1.21-0.02,2.32-0.01,3.27,0.06c0.96,0.06,1.68,0.18,2.13,0.32       c1.18,0.39,2.98,1.27,4.8,2.27c1.51,0.83,2.99,1.7,4.05,2.34c0.02,0.24,0.07,0.47,0.15,0.68c0.17,0.49,0.51,0.99,1.02,1.32       c1.17,0.76,2.34,0.71,3.12,0.47l8.76,4.49l8.86,5.12c-0.08,0.44-0.13,0.94-0.12,1.43c0.01,0.76,0.18,1.94,1.15,2.57       c0.62,0.41,1.23,0.61,1.77,0.67c0.13,0.34,0.32,0.64,0.5,0.88c0.4,0.54,0.9,1.02,1.12,1.22l0.01,0.01l0.06,0.05l0.02,0.02       l0.01,0.01l0.23,0.24l0.33,0.06c0.28,0.05,0.52-0.01,0.68-0.06c0.16-0.06,0.31-0.14,0.44-0.22c0.25-0.16,0.53-0.39,0.82-0.67       c0.58-0.57,1.35-1.45,2.33-2.75c1.88-2.49,4.6-6.58,8.39-13.03l0.01,0.01l0.52-0.91c0.08-0.14,0.17-0.29,0.25-0.43       c0.05-0.09,0.1-0.17,0.15-0.26l0.11-0.19l0.79-1.36l-0.01,0c3.7-6.52,5.87-10.92,7.09-13.79c0.63-1.5,1.02-2.6,1.22-3.39       c0.1-0.39,0.16-0.74,0.17-1.04C123.96,67.82,123.96,67.65,123.92,67.48z"></path>
					<path class="st2" d="M76.7,37.49L76.7,37.49c1.07,2.15,2.31,4.64,3.51,6.8c0.6,1.08,1.2,2.1,1.77,2.95       c0.56,0.84,1.13,1.58,1.69,2.08c0.88,0.79,2.25,1.73,3.68,2.64L76.69,37.48L76.7,37.49z"></path>
				</g>
				<path class="st1" d="M129.54,96.98c-0.07,0.13-0.15,0.26-0.22,0.38l-0.52,0.91l-0.01,0c-3.48,5.88-5.89,9.1-7.61,10.89      c-0.91,0.95-1.66,1.52-2.3,1.88c-0.66,0.37-1.16,0.49-1.5,0.57c-0.13,0.03-0.18,0.04-0.22,0.06c-0.53,0.18-1.09,0.14-1.57,0.04      c-0.5-0.1-1.02-0.28-1.53-0.5c-1.02-0.43-2.14-1.05-3.11-1.61c-1.48-0.86-6.12-2.81-8.31-3.69l-1.98-0.8l1.85-1.07      c0.51-0.3,1.28-1.05,2.26-2.23c0.95-1.15,2-2.61,3.06-4.19c1.89-2.81,3.8-5.97,5.21-8.43L113,89.15l0.55-0.91      c0.06-0.11,0.13-0.21,0.19-0.33c0.07-0.12,0.13-0.23,0.19-0.34l0.52-0.93l0.03,0.02c1.42-2.45,3.2-5.69,4.69-8.73      c0.84-1.72,1.58-3.35,2.1-4.75c0.54-1.44,0.81-2.48,0.81-3.07l0-2.14l1.69,1.32c1.87,1.45,5.87,4.49,7.35,5.35      c0.98,0.56,2.07,1.22,2.95,1.89c0.44,0.34,0.86,0.7,1.2,1.08c0.32,0.37,0.64,0.84,0.75,1.38c0.01,0.04,0.02,0.1,0.06,0.22      c0.1,0.33,0.25,0.82,0.26,1.58c0.01,0.73-0.12,1.67-0.48,2.93c-0.69,2.39-2.27,6.08-5.63,12.04l0.01,0L129.54,96.98z       M127.76,95.87l0.14-0.25c3.68-6.45,5.29-10.22,5.95-12.49c0.33-1.13,0.4-1.85,0.4-2.33c-0.01-0.45-0.09-0.72-0.17-0.99      c0-0.01,0-0.01-0.01-0.02c-0.03-0.1-0.08-0.25-0.11-0.4c-0.01-0.03-0.05-0.17-0.27-0.42c-0.21-0.24-0.51-0.5-0.89-0.79      c-0.77-0.58-1.76-1.18-2.73-1.74c-1.3-0.75-4.17-2.89-6.21-4.44c-0.16,0.6-0.38,1.25-0.63,1.91c-0.56,1.48-1.33,3.19-2.18,4.93      c-1.71,3.49-3.79,7.22-5.29,9.77l-0.2,0.35l-0.19,0.33c-1.46,2.58-3.64,6.24-5.82,9.47c-1.09,1.61-2.18,3.13-3.18,4.35      c-0.45,0.55-0.9,1.06-1.34,1.51c2.37,0.99,5.65,2.41,6.95,3.16c0.98,0.56,1.99,1.12,2.88,1.5c0.44,0.19,0.82,0.31,1.13,0.37      c0.32,0.06,0.47,0.04,0.5,0.03c0.15-0.05,0.3-0.08,0.4-0.11l0.02,0c0.28-0.06,0.55-0.13,0.94-0.35c0.41-0.23,1-0.66,1.81-1.51      c1.64-1.7,4.1-4.98,7.84-11.4l0.18-0.31c0.01-0.02,0.03-0.05,0.04-0.07l0,0L127.76,95.87z"></path>
				<path class="st1" d="M109.72,107.23c10.19-11.6,16.63-26.29,18.56-32.14l1.99,0.66c-1.99,6.04-8.54,21-18.97,32.87      L109.72,107.23z"></path>
				<path class="st1" d="M26.62,74.91l31.99-55.4l1.82,1.05l-31.99,55.4L26.62,74.91z"></path>
				<path class="st1" d="M135.53,100.7c0.74-1.12,2.39-1.11,3.11,0.03c0.74,1.17,1.63,2.7,2.34,4.21c0.69,1.46,1.29,3.07,1.29,4.32      c0,1.79-0.79,3.17-1.82,4.09c-1,0.89-2.28,1.39-3.37,1.39c-1.09,0-2.39-0.49-3.41-1.38c-1.06-0.91-1.89-2.3-1.89-4.1      c0-1.35,0.62-2.97,1.33-4.42C133.85,103.34,134.77,101.84,135.53,100.7z M137.07,102.17c-0.68,1.05-1.45,2.33-2.07,3.59      c-0.7,1.43-1.12,2.68-1.12,3.5c0,1.11,0.49,1.94,1.16,2.51c0.7,0.6,1.52,0.87,2.04,0.87c0.52,0,1.31-0.26,1.97-0.86      c0.64-0.57,1.12-1.4,1.12-2.53c0-0.74-0.41-1.97-1.09-3.43C138.48,104.56,137.73,103.24,137.07,102.17z"></path>
				<path class="st2" d="M17.47,43.86c-2.26,2.56-4.76,4.83-7.44,6.81l4.45,2.44l1.06,5.04c1.29-0.95,2.54-1.95,3.75-3.02      l-4.43-5.06c1.56-1.37,3.04-2.85,4.44-4.42L17.47,43.86z"></path>
				<path class="st2" d="M29.56,27.87c0.66-2,1.19-4.03,1.6-6.06l6.6,1.32c0.31-1.59,0.56-3.17,0.73-4.76l-4.88,1.6l-4.35-2.62      c-0.37,3.32-1.09,6.62-2.17,9.85L29.56,27.87z"></path>
				<path class="st1" d="M31.59,22.49l8.03,1.59c-1.25,6.03-3.48,11.98-6.72,17.6c-3.24,5.62-7.26,10.5-11.84,14.6l-5.39-6.16      c3.93-3.52,7.37-7.71,10.15-12.53C28.6,32.76,30.51,27.66,31.59,22.49z M32.71,29.74c0.16,0.05,0.32,0.07,0.47,0.08      c0.15,0,0.3-0.02,0.44-0.07c0.15-0.05,0.27-0.14,0.39-0.26c0.12-0.12,0.23-0.27,0.33-0.46c0.06,0.24,0.17,0.43,0.32,0.59      c0.15,0.15,0.36,0.27,0.63,0.35c0.44,0.13,0.83,0.11,1.14-0.07c0.32-0.18,0.55-0.51,0.7-1.01l0.67-2.19l-0.98-0.75l-0.15,0.53      l-4.26-1.3l-0.69,2.24c-0.09,0.28-0.13,0.55-0.13,0.79c-0.01,0.25,0.04,0.48,0.12,0.67c0.09,0.2,0.21,0.37,0.38,0.52      C32.25,29.55,32.46,29.67,32.71,29.74z M36.26,27.88l-0.07,0.26c-0.14,0.44-0.37,0.6-0.71,0.5c-0.34-0.11-0.45-0.37-0.31-0.81      l0.07-0.26L36.26,27.88z M32.86,28c-0.05-0.18-0.01-0.45,0.09-0.79l0.09-0.3l1.14,0.34l-0.09,0.3c-0.1,0.36-0.23,0.59-0.36,0.71      c-0.13,0.12-0.3,0.15-0.5,0.1C33.03,28.3,32.91,28.18,32.86,28z M31.73,33.89l-2.8,0.73l0.71-1.67l2.52-0.44l-1.98-0.84      l0.57-1.34l4.09,1.73l0.21-0.52l0.9,0.85l-0.93,2.2c-0.12,0.3-0.27,0.53-0.44,0.7c-0.18,0.18-0.37,0.31-0.58,0.39      c-0.2,0.07-0.42,0.11-0.64,0.1c-0.22-0.01-0.43-0.06-0.66-0.15c-0.4-0.17-0.68-0.39-0.84-0.69      C31.71,34.65,31.67,34.29,31.73,33.89z M32.93,33.13c-0.1,0.27-0.14,0.49-0.09,0.68c0.04,0.19,0.18,0.33,0.38,0.42      c0.21,0.08,0.4,0.08,0.56-0.02c0.17-0.09,0.31-0.27,0.42-0.54l0.11-0.25l-1.27-0.55L32.93,33.13z M31.79,41.12l1.04-1.85      l-0.79-0.95l-0.27,0.47l-3.06-3.66l-0.76,1.35l0.68,0.76l-1.01,1.81l-1.02-0.18l-0.76,1.35L31.79,41.12z M29.42,38.14l1.3,1.48      l-1.95-0.34L29.42,38.14z M24.84,47.01l1.7-2.33l-0.9-0.65l-0.71,0.97c-0.12-0.12-0.2-0.24-0.26-0.36      c-0.05-0.13-0.08-0.26-0.07-0.38c0-0.13,0.03-0.26,0.08-0.38c0.06-0.12,0.13-0.24,0.21-0.36c0.14-0.2,0.3-0.34,0.47-0.45      c0.17-0.1,0.36-0.16,0.55-0.17c0.2-0.01,0.39,0.02,0.59,0.09c0.2,0.07,0.39,0.18,0.59,0.31c0.21,0.16,0.38,0.32,0.51,0.51      c0.14,0.18,0.22,0.37,0.27,0.56c0.04,0.19,0.05,0.38,0.01,0.57c-0.05,0.19-0.12,0.37-0.25,0.55c-0.15,0.22-0.35,0.37-0.57,0.45      c-0.23,0.08-0.5,0.09-0.83,0.01l-0.35,1.45c0.58,0.11,1.1,0.06,1.56-0.16c0.46-0.2,0.86-0.55,1.21-1.02      c0.26-0.37,0.45-0.74,0.55-1.12c0.09-0.38,0.12-0.75,0.06-1.11c-0.06-0.36-0.18-0.71-0.4-1.04c-0.22-0.33-0.49-0.62-0.84-0.88      c-0.36-0.26-0.72-0.44-1.1-0.54c-0.39-0.1-0.75-0.12-1.11-0.06c-0.36,0.06-0.7,0.19-1.03,0.39c-0.32,0.21-0.62,0.48-0.87,0.83      c-0.19,0.26-0.33,0.53-0.44,0.81c-0.1,0.28-0.16,0.56-0.18,0.84c-0.03,0.29,0,0.57,0.08,0.84c0.08,0.27,0.2,0.55,0.38,0.8      c0.12,0.18,0.28,0.35,0.46,0.52C24.4,46.66,24.6,46.83,24.84,47.01z M22.16,49.99l-1.98,2.1c-0.21-0.2-0.4-0.4-0.56-0.58      c-0.16-0.18-0.29-0.38-0.39-0.58c-0.14-0.27-0.24-0.55-0.27-0.84c-0.04-0.29-0.04-0.57,0.02-0.85c0.06-0.28,0.16-0.55,0.29-0.81      c0.14-0.26,0.32-0.51,0.54-0.74c0.3-0.32,0.63-0.56,0.97-0.72c0.35-0.16,0.71-0.25,1.08-0.26c0.37,0,0.74,0.06,1.09,0.2      c0.36,0.14,0.71,0.37,1.03,0.67c0.32,0.3,0.56,0.63,0.72,0.97c0.16,0.35,0.26,0.71,0.26,1.07c0,0.37-0.06,0.74-0.2,1.09      c-0.15,0.37-0.38,0.72-0.69,1.04c-0.4,0.43-0.84,0.71-1.33,0.86c-0.49,0.15-1.01,0.13-1.57-0.05l0.53-1.4      c0.31,0.12,0.58,0.15,0.83,0.09c0.23-0.05,0.45-0.18,0.63-0.37c0.15-0.15,0.25-0.33,0.32-0.52c0.07-0.19,0.08-0.38,0.06-0.57      c-0.03-0.19-0.09-0.39-0.19-0.59c-0.1-0.2-0.26-0.39-0.44-0.57c-0.17-0.16-0.35-0.29-0.54-0.39c-0.19-0.09-0.38-0.15-0.58-0.16      c-0.19-0.01-0.38,0.02-0.57,0.1c-0.19,0.08-0.36,0.21-0.52,0.38c-0.1,0.11-0.18,0.21-0.25,0.33c-0.07,0.12-0.11,0.24-0.13,0.36      c-0.02,0.13-0.01,0.26,0.02,0.38c0.04,0.13,0.1,0.26,0.21,0.38l0.82-0.88L22.16,49.99z M20.3,53.94      c-0.18,0.3-0.08,0.66,0.21,0.83c0.29,0.17,0.65,0.07,0.83-0.23c0.17-0.29,0.07-0.67-0.21-0.83      C20.83,53.55,20.46,53.65,20.3,53.94z M20.39,54.01c0.14-0.24,0.42-0.3,0.65-0.17c0.23,0.13,0.32,0.41,0.17,0.64      c-0.13,0.23-0.42,0.29-0.65,0.16C20.34,54.52,20.26,54.24,20.39,54.01z M20.66,53.89l-0.07,0.12l0.21,0.12l-0.03,0.06      c-0.04,0.07-0.08,0.08-0.15,0.05c-0.06-0.02-0.12-0.04-0.14-0.03l-0.08,0.13c0.02,0,0.07,0.01,0.15,0.04      c0.08,0.02,0.13,0.01,0.18-0.02l0.01,0.01c-0.01,0.07,0.01,0.14,0.06,0.17c0.05,0.03,0.11,0.04,0.14,0.02      c0.04-0.03,0.09-0.06,0.14-0.16c0.05-0.08,0.08-0.16,0.1-0.21L20.66,53.89z M20.85,54.24l0.03-0.06l0.14,0.08      c0,0.02-0.01,0.04-0.03,0.07c-0.04,0.08-0.09,0.1-0.14,0.07C20.8,54.38,20.82,54.31,20.85,54.24z"></path>
				<path class="st1" d="M198.93,78.33c9.28,3.16,19.27,8.18,24.94,11.93l0.02,0.01l0.02,0.01c6.56,3.9,16.23,10.46,23.47,17.16      c3.63,3.36,6.59,6.69,8.26,9.7c1.69,3.03,1.92,5.44,0.71,7.24c-1.23,1.83-3.69,2.67-7.35,2.51c-3.62-0.15-8.09-1.27-12.87-2.96      c-9.52-3.36-19.95-8.86-26.49-12.81v0c-6.97-4.21-16.02-11.18-22.59-17.99c-3.29-3.41-5.91-6.73-7.35-9.6      c-1.47-2.93-1.54-5.01-0.49-6.36c1.09-1.4,3.47-2.04,7.12-1.78C189.89,75.65,194.29,76.74,198.93,78.33z M186.48,73.31      c-3.73-0.27-7.12,0.28-8.92,2.59c-1.84,2.36-1.28,5.5,0.27,8.59c1.58,3.15,4.36,6.64,7.71,10.12      c6.71,6.95,15.91,14.03,23.02,18.33c6.62,4,17.17,9.58,26.88,13c4.84,1.71,9.55,2.91,13.47,3.07c3.88,0.17,7.33-0.67,9.19-3.44      c1.88-2.79,1.2-6.15-0.62-9.43c-1.83-3.3-4.98-6.81-8.67-10.22c-7.38-6.83-17.17-13.46-23.8-17.41      c-5.84-3.85-15.98-8.94-25.4-12.15C194.89,74.73,190.3,73.58,186.48,73.31z"></path>
				<g>
					<path class="st2" d="M257.66,116.03c-1.85-3.33-5.02-6.86-8.71-10.28c-7.4-6.84-17.2-13.48-23.83-17.44       c-5.85-3.86-16.01-8.96-25.45-12.17c-4.72-1.61-9.34-2.77-13.18-3.05c-3.74-0.27-7.23,0.27-9.1,2.67       c-1.92,2.46-1.31,5.7,0.25,8.81c1.59,3.18,4.39,6.69,7.75,10.17c6.72,6.97,15.93,14.06,23.06,18.36       c6.63,4.01,17.19,9.59,26.92,13.02c4.85,1.71,9.58,2.92,13.53,3.09c3.9,0.17,7.45-0.67,9.37-3.53       C260.22,122.78,259.5,119.32,257.66,116.03z M257.93,125.44c-1.79,2.67-5.14,3.51-9,3.34c-3.89-0.17-8.57-1.36-13.41-3.06       c-9.69-3.42-20.23-8.98-26.84-12.98c-7.1-4.29-16.28-11.36-22.98-18.29c-3.34-3.46-6.11-6.94-7.68-10.06       c-1.54-3.07-2.06-6.11-0.29-8.36c1.73-2.21,5.01-2.77,8.74-2.51c3.79,0.27,8.37,1.42,13.08,3.02       c9.41,3.2,19.53,8.29,25.36,12.13l0.01,0.01c6.62,3.94,16.4,10.57,23.77,17.39c3.68,3.41,6.81,6.9,8.63,10.17       C259.11,119.48,259.74,122.75,257.93,125.44z"></path>
					<path class="st2" d="M247.53,107.29c-7.26-6.71-16.94-13.28-23.51-17.19l-0.02-0.01l-0.02-0.01       c-5.69-3.76-15.7-8.79-24.99-11.96c-4.65-1.58-9.07-2.68-12.66-2.94c-1.84-0.13-3.37-0.04-4.58,0.28       c-1.22,0.31-2.13,0.84-2.71,1.59c-1.13,1.44-1.01,3.63,0.47,6.58c1.45,2.9,4.08,6.23,7.38,9.65       c6.59,6.83,15.65,13.8,22.64,18.02c6.55,3.96,16.99,9.47,26.53,12.83c4.78,1.68,9.28,2.81,12.93,2.97       c3.69,0.16,6.25-0.68,7.54-2.6c1.28-1.9,1-4.4-0.7-7.46C254.14,114.01,251.17,110.65,247.53,107.29z M256.18,124.27       c-1.17,1.74-3.53,2.57-7.17,2.42c-3.59-0.15-8.04-1.27-12.8-2.95c-9.51-3.35-19.91-8.84-26.45-12.8       c-6.96-4.2-16-11.16-22.55-17.96c-3.29-3.41-5.88-6.71-7.31-9.55c-1.46-2.91-1.48-4.89-0.51-6.13       c0.51-0.65,1.33-1.14,2.49-1.44c1.16-0.3,2.64-0.39,4.45-0.26c3.53,0.25,7.92,1.34,12.55,2.92c9.26,3.15,19.24,8.17,24.9,11.91       l0.03,0.02l0.02,0.01c6.55,3.9,16.21,10.45,23.44,17.14c3.62,3.35,6.56,6.67,8.22,9.65       C257.14,120.26,257.33,122.57,256.18,124.27z"></path>
				</g>
				<path class="st1" d="M237.68,54.95c2.36-0.22,4.73-0.43,7.6,1.18c1.35,0.76,2.42,2.15,3.2,3.67c0.78,1.52,1.22,3.06,1.38,3.99      l0.05,0.27l0.17,0.21c20,24.55,13.2,50.81,5.91,60.53l1.68,1.26c7.79-10.38,14.67-37.59-5.79-62.91      c-0.23-1.12-0.72-2.72-1.53-4.31c-0.87-1.71-2.18-3.5-4.03-4.55c-3.5-1.97-6.66-1.67-9.07-1.44c-0.52,0.05-1,0.1-1.44,0.12      c-10.97-3.38-38.59-2.2-58.41,23.14l1.65,1.29c19.33-24.72,46.19-25.59,56.3-22.38l0.17,0.05l0.18-0.01      C236.35,55.07,237.01,55.01,237.68,54.95z"></path>
				<path class="st1" d="M237.22,52.66L237.22,52.66c-0.51,0.05-0.98,0.09-1.4,0.12c-11.07-3.39-38.74-2.17-58.6,23.23l-0.13,0.17      l1.98,1.55l0.13-0.17c19.27-24.65,46.04-25.5,56.07-22.31l0.2,0.06l0.21-0.01c0.68-0.02,1.35-0.08,2.01-0.14l0,0      c2.35-0.22,4.66-0.43,7.47,1.16c1.3,0.73,2.34,2.08,3.11,3.59c0.77,1.5,1.2,3.02,1.36,3.93l0.06,0.32l0.21,0.25      c19.93,24.47,13.15,50.62,5.9,60.28l-0.13,0.17l2.01,1.51l0.13-0.17c7.83-10.44,14.73-37.74-5.76-63.13      c-0.23-1.13-0.73-2.73-1.54-4.31c-0.88-1.72-2.21-3.56-4.12-4.63C242.85,52.12,239.63,52.43,237.22,52.66z M237.25,53.08      c2.41-0.23,5.51-0.53,8.95,1.41c1.81,1.02,3.09,2.77,3.95,4.46c0.8,1.56,1.29,3.15,1.51,4.25l0.01,0.05l0.03,0.04      c20.29,25.1,13.6,52.05,5.91,62.49l-1.34-1.01c7.3-9.93,13.91-36.13-6.04-60.62l-0.14-0.17l-0.04-0.21      c-0.17-0.95-0.62-2.51-1.4-4.05c-0.79-1.55-1.88-2.97-3.28-3.76c-2.93-1.65-5.35-1.43-7.71-1.21l-0.01,0      c-0.66,0.06-1.32,0.12-1.99,0.14l-0.14,0l-0.14-0.04c-10.16-3.23-37.02-2.35-56.4,22.29l-1.32-1.03      c19.75-25.11,47.18-26.26,58.06-22.91l0.04,0.01l0.04,0C236.25,53.18,236.73,53.13,237.25,53.08L237.25,53.08z"></path>
				<path class="st1" d="M224.24,88.94l-14.95,22.38l1.74,1.16l14.95-22.38L224.24,88.94z"></path>
				<path class="st1" d="M178.09,77.83l78.43,48.5l1.1-1.78l-78.43-48.5L178.09,77.83z"></path>
				<path class="st1" d="M233.16,122.75l-29.75-44.87l-1.75,1.16l29.75,44.87L233.16,122.75z"></path>
				<path class="st1" d="M190.7,99.64l52.86,4.2l0.17-2.09l-52.86-4.2L190.7,99.64z"></path>
				<path class="st1" d="M200.98,107.82l-6.4,29.28c-0.62,2.85,1.18,5.67,4.03,6.29c2.85,0.62,5.67-1.18,6.29-4.03l2.2-10.09      c0.36-1.63,1.96-2.66,3.59-2.3c1.63,0.36,2.66,1.96,2.3,3.59l-3.33,15.22c-0.68,3.12,1.3,6.21,4.42,6.89      c3.12,0.68,6.21-1.3,6.89-4.42l3.62-16.54c0.36-1.63,1.96-2.66,3.59-2.3c1.63,0.36,2.66,1.96,2.3,3.59l-0.65,2.98      c-0.64,2.94,1.22,5.85,4.16,6.49c2.94,0.64,5.85-1.22,6.49-4.16l2.31-10.59l-2.05-0.45l-2.32,10.59      c-0.39,1.81-2.18,2.96-3.99,2.56c-1.81-0.4-2.96-2.18-2.56-3.99l0.65-2.98c0.6-2.76-1.14-5.48-3.9-6.09      c-2.76-0.6-5.48,1.14-6.09,3.9l-3.62,16.54c-0.43,1.99-2.4,3.25-4.39,2.82c-1.99-0.44-3.25-2.4-2.82-4.4l3.33-15.22      c0.6-2.76-1.14-5.48-3.9-6.09c-2.76-0.6-5.48,1.14-6.09,3.9l-2.21,10.09c-0.37,1.72-2.07,2.81-3.79,2.43      c-1.72-0.38-2.81-2.07-2.43-3.79l6.4-29.28L200.98,107.82z"></path>
				<path class="st1" d="M203.27,108.11l-2.46-0.54l-6.45,29.48c-0.65,2.96,1.23,5.89,4.19,6.54c2.96,0.65,5.89-1.23,6.54-4.19      l2.21-10.09c0.33-1.51,1.83-2.47,3.34-2.14c1.51,0.33,2.47,1.83,2.14,3.34l-3.33,15.22c-0.71,3.24,1.34,6.43,4.58,7.14      c3.24,0.71,6.44-1.34,7.14-4.58l3.62-16.54c0.33-1.51,1.83-2.47,3.34-2.14c1.51,0.33,2.47,1.83,2.14,3.34l-0.65,2.98      c-0.67,3.05,1.27,6.07,4.32,6.74c3.06,0.67,6.07-1.27,6.74-4.32l2.36-10.79l-2.46-0.54l-2.36,10.79      c-0.37,1.7-2.05,2.77-3.74,2.4s-2.77-2.05-2.4-3.74l0.65-2.98c0.63-2.87-1.19-5.71-4.06-6.34c-2.87-0.63-5.71,1.19-6.34,4.06      l-3.62,16.54c-0.41,1.88-2.27,3.07-4.14,2.66c-1.88-0.41-3.07-2.27-2.66-4.15l3.33-15.22c0.63-2.87-1.19-5.71-4.06-6.34      c-2.87-0.63-5.71,1.19-6.34,4.06l-2.21,10.09c-0.35,1.6-1.93,2.62-3.54,2.27c-1.6-0.35-2.62-1.94-2.27-3.54L203.27,108.11z       M202.78,108.43l-6.36,29.07c-0.4,1.83,0.76,3.64,2.59,4.04c1.83,0.4,3.64-0.76,4.04-2.59l2.2-10.09      c0.58-2.65,3.19-4.32,5.84-3.74c2.64,0.58,4.32,3.19,3.74,5.84l-3.33,15.22c-0.46,2.11,0.87,4.19,2.98,4.65      c2.11,0.46,4.19-0.87,4.65-2.98l3.62-16.54c0.58-2.65,3.19-4.32,5.84-3.74c2.65,0.58,4.32,3.19,3.74,5.84l-0.65,2.98      c-0.42,1.92,0.8,3.82,2.72,4.24c1.92,0.42,3.82-0.8,4.24-2.72l2.27-10.38l1.64,0.36l-2.27,10.38c-0.62,2.83-3.41,4.62-6.24,4      c-2.83-0.62-4.62-3.41-4-6.24l0.65-2.98c0.38-1.74-0.72-3.46-2.46-3.84c-1.74-0.38-3.46,0.72-3.84,2.46l-3.62,16.54      c-0.66,3.01-3.63,4.92-6.64,4.26c-3.01-0.66-4.92-3.63-4.26-6.64l3.33-15.22c0.38-1.74-0.72-3.46-2.46-3.84      c-1.74-0.38-3.46,0.72-3.84,2.46l-2.2,10.09c-0.6,2.74-3.3,4.47-6.04,3.87c-2.74-0.6-4.47-3.3-3.87-6.04l6.36-29.07      L202.78,108.43z"></path>
				<path class="st1" d="M199.06,124.02c-15.74-1.32-35.22-1.79-59.17-0.93c-46.97,1.69-75.21,8.07-91.41,15.3      c-8.1,3.61-13.13,7.41-16.01,10.88c-2.87,3.46-3.55,6.53-3.13,8.81c4.96,21.74,19.07,36.75,36.9,46.92l-1.04,1.82      c-18.21-10.38-32.8-25.83-37.92-48.29l0-0.02l0-0.02c-0.58-3.06,0.42-6.75,3.58-10.55c3.15-3.8,8.49-7.76,16.77-11.45      c16.56-7.38,45.1-13.79,92.19-15.48c24.02-0.86,43.59-0.39,59.42,0.94L199.06,124.02z M254.94,138.76      c-2.9-2.35-7.46-4.84-14.18-7.14l0.68-1.98c6.86,2.35,11.66,4.94,14.82,7.49c3.13,2.53,4.75,5.12,5,7.48      c2.02,15.75-4.93,43.15-37.22,62.2l-1.07-1.81c31.58-18.63,38.12-45.23,36.2-60.14l0-0.01l0-0.01      C259.01,143.25,257.86,141.12,254.94,138.76z"></path>
				<path class="st1" d="M370.4,109.91c-2.61,0.24-4.97,1.02-6.62,1.85l-0.08,0.04l-104.66,30.59l-0.59-2.01l104.48-30.54      c1.86-0.91,4.43-1.75,7.28-2.02L370.4,109.91z M368.35,135.94c0.56-0.16,1.11-0.33,1.64-0.49l0.63,2      c-0.55,0.17-1.11,0.34-1.69,0.51c-3.81,1.1-9.23,2.51-15.69,4.13c-3.94,0.99-8.27,2.05-12.86,3.16      c-10.51,2.54-22.39,5.34-34.1,8.07c-10.71,2.49-21.27,4.93-30.52,7.05c-2.59,0.6-5.08,1.17-7.43,1.71      c-3.41,0.78-6.55,1.51-9.35,2.15l-0.47-2.04c2.8-0.64,5.94-1.37,9.36-2.15c2.35-0.54,4.84-1.11,7.42-1.7      c9.25-2.13,19.81-4.56,30.51-7.05c11.71-2.73,23.58-5.52,34.08-8.07c4.59-1.11,8.91-2.17,12.84-3.16      C359.18,138.43,364.57,137.02,368.35,135.94z"></path>
				<path class="st1" d="M369.88,117.88c-3.13-0.07-5.72,2.42-5.78,5.54c-0.07,3.13,2.41,5.72,5.54,5.78l-0.05,2.1      c-4.28-0.09-7.69-3.64-7.59-7.92c0.09-4.29,3.64-7.69,7.92-7.6L369.88,117.88z"></path>
				<path class="st1" d="M144.19,155.66c1.24-0.01,2.5-0.01,3.78-0.01c1.28,0,2.54,0,3.78,0.01v16.58      c-2.57,0.05-5.08,0.09-7.55,0.12V155.66z M141.67,155.69c-2.59,0.04-5.11,0.09-7.55,0.17v16.57c2.46-0.01,4.98-0.02,7.55-0.04      V155.69z M131.61,172.43v-16.48c-2.6,0.1-5.12,0.22-7.55,0.36v16.09C126.5,172.41,129.02,172.42,131.61,172.43z M121.54,172.36      v-15.9c-2.62,0.17-5.14,0.37-7.55,0.58v15.19C116.41,172.29,118.93,172.33,121.54,172.36z M111.47,172.18v-14.9      c-2.65,0.26-5.17,0.55-7.55,0.86v13.82C106.32,172.04,108.83,172.11,111.47,172.18z M101.4,171.86v-13.39      c-2.71,0.38-5.22,0.79-7.55,1.22v11.84C96.2,171.65,98.72,171.76,101.4,171.86z M91.33,171.4v-11.23      c-2.83,0.57-5.34,1.16-7.55,1.77v8.98C86,171.08,88.53,171.25,91.33,171.4z M81.26,170.73v-8.06c-10.77,3.35-12.3,6.8-5.33,7.56      C77.33,170.39,79.11,170.56,81.26,170.73z M154.26,172.18c2.47-0.06,4.99-0.12,7.55-0.2v-16.23c-2.43-0.04-4.94-0.06-7.55-0.08      V172.18z M164.33,155.79v16.11c2.67-0.09,5.18-0.18,7.55-0.29v-15.65C169.47,155.89,166.95,155.83,164.33,155.79z M174.4,156.04      v15.46c2.72-0.13,5.23-0.27,7.55-0.41v-14.75C179.56,156.23,177.04,156.13,174.4,156.04z M184.46,156.47v14.46      c2.81-0.19,5.31-0.39,7.55-0.6v-13.39C189.66,156.77,187.15,156.61,184.46,156.47z M194.53,157.13v12.95      c3.06-0.32,5.54-0.64,7.55-0.96v-11.25C199.79,157.6,197.28,157.36,194.53,157.13z M204.6,158.17v10.5      c4.9-0.95,5.9-1.79,6.25-2.09c0.02-0.01,0.03-0.02,0.04-0.03c0.42-0.11,0.84-0.2,1.26-0.28v-6.88      C210.01,158.96,207.5,158.55,204.6,158.17z M214.67,159.94v5.94c2.02-0.23,3.85-0.27,5.31-0.29c2.17-0.04,3.53-0.06,3.5-0.71      C223.39,163.23,221.01,161.47,214.67,159.94z"></path>
				<path class="st1" d="M236.48,162.01c-17.62,5.95-46.67,10.67-92.7,10.67c-46.01,0-74.98-2.45-92.48-5.58      c-8.74-1.56-14.68-3.3-18.45-5.02c-1.88-0.86-3.29-1.74-4.23-2.62c-0.94-0.88-1.54-1.88-1.54-2.97h2.18      c0,0.24,0.14,0.71,0.85,1.38c0.71,0.66,1.87,1.42,3.64,2.23c3.54,1.61,9.26,3.31,17.93,4.86c17.32,3.1,46.15,5.54,92.1,5.54      c45.92,0,74.71-4.71,92.01-10.56c8.65-2.92,14.38-6.12,17.94-9.1c3.58-3,4.86-5.7,4.91-7.64l2.18,0.06      c-0.08,2.82-1.88,6.04-5.69,9.25C251.28,155.73,245.28,159.03,236.48,162.01z"></path>
			</g>
		</g>
	</g>
</g>
<path class="st11" d="M319.19,298.82H53.7c-28.41,0-51.44-23.03-51.44-51.44V53.43c0-28.41,23.03-51.44,51.44-51.44h265.5  c28.41,0,51.44,23.03,51.44,51.44v193.95C370.63,275.79,347.6,298.82,319.19,298.82z"></path>
<rect x="56.98" y="230.83" class="st27" width="258.94" height="46.82"></rect>
<text transform="matrix(1 0 0 1 79.4539 246.6471)"><tspan x="0" y="0" class="st28 st29">Úsalo como marinado</tspan><tspan x="-19.58" y="26.4" class="st28 st29">en tus proteínas favoritas. </tspan></text>
<line class="st11" x1="2.04" y1="204.02" x2="370.63" y2="204.02"></line>
</svg>
