<?xml version="1.0" encoding="UTF-8"?>
<!-- Generator: Adobe Illustrator 25.2.1, SVG Export Plug-In . SVG Version: 6.00 Build 0)  -->
<svg xmlns="http://www.w3.org/2000/svg" xmlns:xlink="http://www.w3.org/1999/xlink" version="1.1" id="Layer_2_1_" x="0px" y="0px" viewBox="0 0 372.5 300.7" style="enable-background:new 0 0 372.5 300.7;" xml:space="preserve">
<style type="text/css">
	.st0{clip-path:url(#SVGID_2_);}
	.st1{clip-path:url(#SVGID_4_);}
	.st2{fill:#231F20;}
	.st3{fill-rule:evenodd;clip-rule:evenodd;fill:#231F20;}
	.st4{fill:none;stroke:#EC1D2B;stroke-width:3;stroke-miterlimit:10;}
	.st5{fill:none;}
	.st6{font-family:'Helvetica';}
	.st7{font-size:22px;}
</style>
<g>
	<g>
		<defs>
			<path id="SVGID_1_" d="M57,6.2L37.4,4.8l-32.7,33L2.3,63.9l11.8,18l-15.4,88l62,36.6c0,0,179.7,1.7,180.5,1.3     c0.9-0.4,14.8-9.7,14.8-9.7l113.8-55.4V96.4l-88.6-66.8L57,6.2z"></path>
		</defs>
		<clipPath id="SVGID_2_">
			<use xlink:href="#SVGID_1_" style="overflow:visible;"></use>
		</clipPath>
		<g class="st0">
			<g>
				<g>
					<defs>
						<rect id="SVGID_3_" x="-1.4" y="-0.2" width="372.5" height="203"></rect>
					</defs>
					<clipPath id="SVGID_4_">
						<use xlink:href="#SVGID_3_" style="overflow:visible;"></use>
					</clipPath>
					<g class="st1">
						<g>
							<path class="st2" d="M123.9,67.5c0-0.2-0.1-0.4-0.3-0.6l-0.2-0.3l-0.3-0.1h0l0,0l-0.1,0h0c-0.3-0.1-0.9-0.3-1.6-0.4         c-0.3,0-0.7-0.1-1,0c-0.3-0.4-0.8-0.9-1.5-1.2c-1-0.5-2.1-0.1-2.8,0.3c-0.4,0.2-0.8,0.5-1.2,0.8l-8.9-5.1l-8.3-5.3         c-0.2-0.8-0.7-1.8-2-2.5c-0.6-0.3-1.2-0.3-1.7-0.2c-0.2,0-0.4,0.1-0.7,0.2c-1.1-0.6-2.6-1.4-4.1-2.3c-1.8-1.1-3.4-2.2-4.4-3         c-0.3-0.3-0.8-0.9-1.3-1.7c-0.5-0.8-1.1-1.7-1.7-2.8c-1.2-2.1-2.4-4.6-3.5-6.7v0l0,0l0,0c-0.8-1.6-1.6-3.1-2.1-4.1         c-2-3.7-5.8-9.2-14.8-13.6c-7-3.4-15.9-8.9-19.5-11.2l0,0l-4.8-2.7L36,6.4l5,2.9c3.6,2.4,12.6,7.9,19.7,11.4         c8.5,4.1,12,9.4,13.9,12.8c0.5,1,1.2,2.4,2.1,4.1L87.4,52c0.3,0.2,0.7,0.4,1,0.6c1.8,1.1,3.6,2.1,4.7,2.7l0.8,0.4l0.5-0.7         c0,0,0,0,0,0c0,0,0.1,0,0.2,0c0.1,0,0.2,0,0.3,0c0.8,0.4,0.9,1.1,0.9,1.2v0.6l9.2,6l10.3,5.9l0.6-0.6c0.3-0.3,0.8-0.7,1.3-1         c0.6-0.3,0.8-0.3,0.8-0.2c0.7,0.3,0.9,0.8,0.9,0.8l0,0c0,0,0,0,0,0l0.4,2.7l1.5-2.2c0.1,0,0.2,0,0.5,0s0.4,0.1,0.7,0.1         c0,0.1,0,0.1,0,0.2c-0.2,0.6-0.5,1.6-1.1,3.1c-1.2,2.9-3.5,7.5-7.5,14.5l-0.3,0.5l-0.1,0.1l-0.1,0.1l-0.3,0.6         c-4.1,6.9-6.9,11.2-8.8,13.7c-0.9,1.3-1.6,2.1-2.1,2.5c0,0-0.1,0.1-0.1,0.1c-0.2-0.2-0.3-0.3-0.4-0.5s-0.2-0.3-0.2-0.4         l1.1-2.3l-2.5,1c0,0,0,0,0,0l0,0c-0.1,0-0.5,0.1-1.2-0.3c0,0-0.2-0.2-0.2-0.8c0-0.6,0.1-1.2,0.2-1.6l0.2-0.8l-10.3-5.9         l-9.8-5l-0.5,0.3c-0.1,0.1-0.8,0.3-1.5-0.2c-0.1,0-0.2-0.1-0.2-0.3c0-0.1,0-0.1,0-0.2c0,0,0,0,0,0l0.3-0.8l-0.7-0.4         c-1.1-0.7-2.9-1.7-4.7-2.7c-1.8-1-3.8-2-5.2-2.4c-0.7-0.2-1.6-0.4-2.6-0.4c-1-0.1-2.2-0.1-3.4-0.1c-2.5,0-5.2,0.2-7.6,0.4         l0,0h0l0,0c-1.9,0.1-3.5,0.2-4.6,0.2c-3.9,0.1-10.2-0.3-18-5.7C23,70.3,13.7,65.3,9.9,63.3l-10-5.9l-1.2,1.7l10.2,6l0,0         c3.8,1.9,13,6.9,19.5,11.2c8.3,5.6,15,6.1,19.2,6c1.2,0,2.8-0.1,4.6-0.2h0l0,0c2.4-0.2,5.1-0.3,7.6-0.4c1.2,0,2.3,0,3.3,0.1         c1,0.1,1.7,0.2,2.1,0.3c1.2,0.4,3,1.3,4.8,2.3c1.5,0.8,3,1.7,4.1,2.3c0,0.2,0.1,0.5,0.2,0.7c0.2,0.5,0.5,1,1,1.3         c1.2,0.8,2.3,0.7,3.1,0.5l8.8,4.5l8.9,5.1c-0.1,0.4-0.1,0.9-0.1,1.4c0,0.8,0.2,1.9,1.2,2.6c0.6,0.4,1.2,0.6,1.8,0.7         c0.1,0.3,0.3,0.6,0.5,0.9c0.4,0.5,0.9,1,1.1,1.2l0,0l0.1,0.1l0,0l0,0l0.2,0.2l0.3,0.1c0.3,0.1,0.5,0,0.7-0.1         c0.2-0.1,0.3-0.1,0.4-0.2c0.2-0.2,0.5-0.4,0.8-0.7c0.6-0.6,1.3-1.4,2.3-2.8c1.9-2.5,4.6-6.6,8.4-13l0,0l0.5-0.9         c0.1-0.1,0.2-0.3,0.2-0.4c0.1-0.1,0.1-0.2,0.2-0.3l0.1-0.2l0.8-1.4h0c3.7-6.5,5.9-10.9,7.1-13.8c0.6-1.5,1-2.6,1.2-3.4         c0.1-0.4,0.2-0.7,0.2-1C124,67.8,124,67.7,123.9,67.5z"></path>
							<path class="st2" d="M76.7,37.5L76.7,37.5c1.1,2.2,2.3,4.6,3.5,6.8c0.6,1.1,1.2,2.1,1.8,3c0.6,0.8,1.1,1.6,1.7,2.1         c0.9,0.8,2.2,1.7,3.7,2.6L76.7,37.5L76.7,37.5z"></path>
						</g>
						<path class="st3" d="M129.5,97c-0.1,0.1-0.1,0.3-0.2,0.4l-0.5,0.9h0c-3.5,5.9-5.9,9.1-7.6,10.9c-0.9,0.9-1.7,1.5-2.3,1.9        c-0.7,0.4-1.2,0.5-1.5,0.6c-0.1,0-0.2,0-0.2,0.1c-0.5,0.2-1.1,0.1-1.6,0c-0.5-0.1-1-0.3-1.5-0.5c-1-0.4-2.1-1.1-3.1-1.6        c-1.5-0.9-6.1-2.8-8.3-3.7l-2-0.8l1.8-1.1c0.5-0.3,1.3-1.1,2.3-2.2c0.9-1.2,2-2.6,3.1-4.2c1.9-2.8,3.8-6,5.2-8.4l0,0l0.6-0.9        c0.1-0.1,0.1-0.2,0.2-0.3c0.1-0.1,0.1-0.2,0.2-0.3l0.5-0.9l0,0c1.4-2.4,3.2-5.7,4.7-8.7c0.8-1.7,1.6-3.3,2.1-4.8        c0.5-1.4,0.8-2.5,0.8-3.1V68l1.7,1.3c1.9,1.4,5.9,4.5,7.4,5.3c1,0.6,2.1,1.2,2.9,1.9c0.4,0.3,0.9,0.7,1.2,1.1        c0.3,0.4,0.6,0.8,0.8,1.4c0,0,0,0.1,0.1,0.2c0.1,0.3,0.2,0.8,0.3,1.6c0,0.7-0.1,1.7-0.5,2.9c-0.7,2.4-2.3,6.1-5.6,12h0        L129.5,97z M127.8,95.9l0.1-0.2c3.7-6.4,5.3-10.2,6-12.5c0.3-1.1,0.4-1.8,0.4-2.3c0-0.4-0.1-0.7-0.2-1c0,0,0,0,0,0        c0-0.1-0.1-0.2-0.1-0.4c0,0-0.1-0.2-0.3-0.4c-0.2-0.2-0.5-0.5-0.9-0.8c-0.8-0.6-1.8-1.2-2.7-1.7c-1.3-0.8-4.2-2.9-6.2-4.4        c-0.2,0.6-0.4,1.2-0.6,1.9c-0.6,1.5-1.3,3.2-2.2,4.9c-1.7,3.5-3.8,7.2-5.3,9.8l-0.2,0.3l-0.2,0.3c-1.5,2.6-3.6,6.2-5.8,9.5        c-1.1,1.6-2.2,3.1-3.2,4.3c-0.4,0.6-0.9,1.1-1.3,1.5c2.4,1,5.7,2.4,6.9,3.2c1,0.6,2,1.1,2.9,1.5c0.4,0.2,0.8,0.3,1.1,0.4        c0.3,0.1,0.5,0,0.5,0c0.2-0.1,0.3-0.1,0.4-0.1h0c0.3-0.1,0.6-0.1,0.9-0.3c0.4-0.2,1-0.7,1.8-1.5c1.6-1.7,4.1-5,7.8-11.4        l0.2-0.3C127.7,96,127.7,96,127.8,95.9L127.8,95.9L127.8,95.9z"></path>
						<path class="st3" d="M109.7,107.2c10.2-11.6,16.6-26.3,18.6-32.1l2,0.7c-2,6-8.5,21-19,32.9L109.7,107.2z"></path>
						<path class="st3" d="M26.6,74.9l32-55.4l1.8,1L28.4,76L26.6,74.9z"></path>
						<path class="st3" d="M135.5,100.7c0.7-1.1,2.4-1.1,3.1,0c0.7,1.2,1.6,2.7,2.3,4.2c0.7,1.5,1.3,3.1,1.3,4.3        c0,1.8-0.8,3.2-1.8,4.1c-1,0.9-2.3,1.4-3.4,1.4s-2.4-0.5-3.4-1.4c-1.1-0.9-1.9-2.3-1.9-4.1c0-1.3,0.6-3,1.3-4.4        C133.9,103.3,134.8,101.8,135.5,100.7z M137.1,102.2c-0.7,1.1-1.4,2.3-2.1,3.6c-0.7,1.4-1.1,2.7-1.1,3.5        c0,1.1,0.5,1.9,1.2,2.5c0.7,0.6,1.5,0.9,2,0.9c0.5,0,1.3-0.3,2-0.9c0.6-0.6,1.1-1.4,1.1-2.5c0-0.7-0.4-2-1.1-3.4        C138.5,104.6,137.7,103.2,137.1,102.2z"></path>
						<path class="st2" d="M17.5,43.9c-2.3,2.6-4.8,4.8-7.4,6.8l4.4,2.4l1.1,5c1.3-1,2.5-2,3.8-3l-4.4-5.1c1.6-1.4,3-2.8,4.4-4.4        L17.5,43.9z"></path>
						<path class="st2" d="M29.6,27.9c0.7-2,1.2-4,1.6-6.1l6.6,1.3c0.3-1.6,0.6-3.2,0.7-4.8L33.6,20l-4.4-2.6        c-0.4,3.3-1.1,6.6-2.2,9.9L29.6,27.9z"></path>
						<path class="st3" d="M31.6,22.5l8,1.6c-1.2,6-3.5,12-6.7,17.6s-7.3,10.5-11.8,14.6l-5.4-6.2c3.9-3.5,7.4-7.7,10.1-12.5        C28.6,32.8,30.5,27.7,31.6,22.5z M32.7,29.7c0.2,0,0.3,0.1,0.5,0.1c0.2,0,0.3,0,0.4-0.1c0.2,0,0.3-0.1,0.4-0.3        s0.2-0.3,0.3-0.5c0.1,0.2,0.2,0.4,0.3,0.6c0.2,0.1,0.4,0.3,0.6,0.4c0.4,0.1,0.8,0.1,1.1-0.1c0.3-0.2,0.5-0.5,0.7-1l0.7-2.2        l-1-0.8l-0.2,0.5l-4.3-1.3l-0.7,2.2c-0.1,0.3-0.1,0.5-0.1,0.8c0,0.2,0,0.5,0.1,0.7c0.1,0.2,0.2,0.4,0.4,0.5        C32.2,29.5,32.5,29.7,32.7,29.7z M36.3,27.9l-0.1,0.3c-0.1,0.4-0.4,0.6-0.7,0.5c-0.3-0.1-0.5-0.4-0.3-0.8l0.1-0.3L36.3,27.9z         M32.9,28c0-0.2,0-0.5,0.1-0.8l0.1-0.3l1.1,0.3l-0.1,0.3c-0.1,0.4-0.2,0.6-0.4,0.7c-0.1,0.1-0.3,0.1-0.5,0.1        C33,28.3,32.9,28.2,32.9,28z M31.7,33.9l-2.8,0.7l0.7-1.7l2.5-0.4l-2-0.8l0.6-1.3l4.1,1.7l0.2-0.5l0.9,0.8L35,34.6        c-0.1,0.3-0.3,0.5-0.4,0.7c-0.2,0.2-0.4,0.3-0.6,0.4c-0.2,0.1-0.4,0.1-0.6,0.1c-0.2,0-0.4-0.1-0.7-0.2        c-0.4-0.2-0.7-0.4-0.8-0.7C31.7,34.7,31.7,34.3,31.7,33.9z M32.9,33.1c-0.1,0.3-0.1,0.5-0.1,0.7c0,0.2,0.2,0.3,0.4,0.4        c0.2,0.1,0.4,0.1,0.6,0c0.2-0.1,0.3-0.3,0.4-0.5l0.1-0.2L33,32.9L32.9,33.1z M31.8,41.1l1-1.8l-0.8-1l-0.3,0.5l-3.1-3.7        L28,36.5l0.7,0.8l-1,1.8l-1-0.2l-0.8,1.3L31.8,41.1z M29.4,38.1l1.3,1.5l-2-0.3L29.4,38.1z M24.8,47l1.7-2.3L25.6,44l-0.7,1        c-0.1-0.1-0.2-0.2-0.3-0.4c0-0.1-0.1-0.3-0.1-0.4c0-0.1,0-0.3,0.1-0.4c0.1-0.1,0.1-0.2,0.2-0.4c0.1-0.2,0.3-0.3,0.5-0.5        c0.2-0.1,0.4-0.2,0.5-0.2c0.2,0,0.4,0,0.6,0.1s0.4,0.2,0.6,0.3c0.2,0.2,0.4,0.3,0.5,0.5c0.1,0.2,0.2,0.4,0.3,0.6        c0,0.2,0,0.4,0,0.6c0,0.2-0.1,0.4-0.2,0.5c-0.1,0.2-0.4,0.4-0.6,0.5c-0.2,0.1-0.5,0.1-0.8,0l-0.4,1.5c0.6,0.1,1.1,0.1,1.6-0.2        c0.5-0.2,0.9-0.5,1.2-1c0.3-0.4,0.5-0.7,0.5-1.1c0.1-0.4,0.1-0.8,0.1-1.1c-0.1-0.4-0.2-0.7-0.4-1s-0.5-0.6-0.8-0.9        c-0.4-0.3-0.7-0.4-1.1-0.5c-0.4-0.1-0.8-0.1-1.1-0.1c-0.4,0.1-0.7,0.2-1,0.4c-0.3,0.2-0.6,0.5-0.9,0.8        c-0.2,0.3-0.3,0.5-0.4,0.8c-0.1,0.3-0.2,0.6-0.2,0.8c0,0.3,0,0.6,0.1,0.8s0.2,0.5,0.4,0.8c0.1,0.2,0.3,0.3,0.5,0.5        C24.4,46.7,24.6,46.8,24.8,47z M22.2,50l-2,2.1c-0.2-0.2-0.4-0.4-0.6-0.6s-0.3-0.4-0.4-0.6c-0.1-0.3-0.2-0.5-0.3-0.8        c0-0.3,0-0.6,0-0.8c0.1-0.3,0.2-0.5,0.3-0.8c0.1-0.3,0.3-0.5,0.5-0.7c0.3-0.3,0.6-0.6,1-0.7c0.4-0.2,0.7-0.2,1.1-0.3        c0.4,0,0.7,0.1,1.1,0.2c0.4,0.1,0.7,0.4,1,0.7c0.3,0.3,0.6,0.6,0.7,1c0.2,0.3,0.3,0.7,0.3,1.1c0,0.4-0.1,0.7-0.2,1.1        c-0.1,0.4-0.4,0.7-0.7,1c-0.4,0.4-0.8,0.7-1.3,0.9s-1,0.1-1.6,0l0.5-1.4c0.3,0.1,0.6,0.2,0.8,0.1c0.2,0,0.5-0.2,0.6-0.4        c0.1-0.2,0.2-0.3,0.3-0.5s0.1-0.4,0.1-0.6c0-0.2-0.1-0.4-0.2-0.6s-0.3-0.4-0.4-0.6c-0.2-0.2-0.4-0.3-0.5-0.4        c-0.2-0.1-0.4-0.2-0.6-0.2c-0.2,0-0.4,0-0.6,0.1c-0.2,0.1-0.4,0.2-0.5,0.4c-0.1,0.1-0.2,0.2-0.2,0.3c-0.1,0.1-0.1,0.2-0.1,0.4        c0,0.1,0,0.3,0,0.4c0,0.1,0.1,0.3,0.2,0.4l0.8-0.9L22.2,50z M20.3,53.9c-0.2,0.3-0.1,0.7,0.2,0.8c0.3,0.2,0.6,0.1,0.8-0.2        c0.2-0.3,0.1-0.7-0.2-0.8C20.8,53.5,20.5,53.7,20.3,53.9z M20.4,54c0.1-0.2,0.4-0.3,0.6-0.2s0.3,0.4,0.2,0.6        c-0.1,0.2-0.4,0.3-0.6,0.2C20.3,54.5,20.3,54.2,20.4,54z M20.7,53.9L20.6,54l0.2,0.1l0,0.1c0,0.1-0.1,0.1-0.1,0        c-0.1,0-0.1,0-0.1,0l-0.1,0.1c0,0,0.1,0,0.1,0c0.1,0,0.1,0,0.2,0l0,0c0,0.1,0,0.1,0.1,0.2s0.1,0,0.1,0c0,0,0.1-0.1,0.1-0.2        c0-0.1,0.1-0.2,0.1-0.2L20.7,53.9z M20.9,54.2L20.9,54.2l0.2,0c0,0,0,0,0,0.1c0,0.1-0.1,0.1-0.1,0.1        C20.8,54.4,20.8,54.3,20.9,54.2z"></path>
						<path class="st3" d="M198.9,78.3c9.3,3.2,19.3,8.2,24.9,11.9l0,0l0,0c6.6,3.9,16.2,10.5,23.5,17.2c3.6,3.4,6.6,6.7,8.3,9.7        c1.7,3,1.9,5.4,0.7,7.2c-1.2,1.8-3.7,2.7-7.4,2.5c-3.6-0.2-8.1-1.3-12.9-3c-9.5-3.4-19.9-8.9-26.5-12.8l0,0        c-7-4.2-16-11.2-22.6-18c-3.3-3.4-5.9-6.7-7.4-9.6c-1.5-2.9-1.5-5-0.5-6.4c1.1-1.4,3.5-2,7.1-1.8        C189.9,75.7,194.3,76.7,198.9,78.3z M186.5,73.3c-3.7-0.3-7.1,0.3-8.9,2.6c-1.8,2.4-1.3,5.5,0.3,8.6c1.6,3.2,4.4,6.6,7.7,10.1        c6.7,6.9,15.9,14,23,18.3c6.6,4,17.2,9.6,26.9,13c4.8,1.7,9.6,2.9,13.5,3.1c3.9,0.2,7.3-0.7,9.2-3.4c1.9-2.8,1.2-6.2-0.6-9.4        c-1.8-3.3-5-6.8-8.7-10.2c-7.4-6.8-17.2-13.5-23.8-17.4c-5.8-3.8-16-8.9-25.4-12.2C194.9,74.7,190.3,73.6,186.5,73.3z"></path>
						<g>
							<path class="st2" d="M257.7,116c-1.9-3.3-5-6.9-8.7-10.3c-7.4-6.8-17.2-13.5-23.8-17.4c-5.9-3.9-16-9-25.4-12.2         c-4.7-1.6-9.3-2.8-13.2-3.1c-3.7-0.3-7.2,0.3-9.1,2.7c-1.9,2.5-1.3,5.7,0.2,8.8c1.6,3.2,4.4,6.7,7.8,10.2         c6.7,7,15.9,14.1,23.1,18.4c6.6,4,17.2,9.6,26.9,13c4.9,1.7,9.6,2.9,13.5,3.1c3.9,0.2,7.4-0.7,9.4-3.5         C260.2,122.8,259.5,119.3,257.7,116z M257.9,125.4c-1.8,2.7-5.1,3.5-9,3.3c-3.9-0.2-8.6-1.4-13.4-3.1         c-9.7-3.4-20.2-9-26.8-13c-7.1-4.3-16.3-11.4-23-18.3c-3.3-3.5-6.1-6.9-7.7-10.1c-1.5-3.1-2.1-6.1-0.3-8.4         c1.7-2.2,5-2.8,8.7-2.5c3.8,0.3,8.4,1.4,13.1,3c9.4,3.2,19.5,8.3,25.4,12.1l0,0c6.6,3.9,16.4,10.6,23.8,17.4         c3.7,3.4,6.8,6.9,8.6,10.2C259.1,119.5,259.7,122.8,257.9,125.4z"></path>
							<path class="st2" d="M247.5,107.3c-7.3-6.7-16.9-13.3-23.5-17.2l0,0l0,0c-5.7-3.8-15.7-8.8-25-12c-4.6-1.6-9.1-2.7-12.7-2.9         c-1.8-0.1-3.4,0-4.6,0.3c-1.2,0.3-2.1,0.8-2.7,1.6c-1.1,1.4-1,3.6,0.5,6.6c1.4,2.9,4.1,6.2,7.4,9.7         c6.6,6.8,15.6,13.8,22.6,18c6.6,4,17,9.5,26.5,12.8c4.8,1.7,9.3,2.8,12.9,3c3.7,0.2,6.2-0.7,7.5-2.6c1.3-1.9,1-4.4-0.7-7.5         C254.1,114,251.2,110.7,247.5,107.3z M256.2,124.3c-1.2,1.7-3.5,2.6-7.2,2.4c-3.6-0.2-8-1.3-12.8-2.9         c-9.5-3.3-19.9-8.8-26.4-12.8c-7-4.2-16-11.2-22.6-18c-3.3-3.4-5.9-6.7-7.3-9.6c-1.5-2.9-1.5-4.9-0.5-6.1         c0.5-0.7,1.3-1.1,2.5-1.4s2.6-0.4,4.4-0.3c3.5,0.2,7.9,1.3,12.6,2.9c9.3,3.2,19.2,8.2,24.9,11.9l0,0l0,0         c6.6,3.9,16.2,10.4,23.4,17.1c3.6,3.3,6.6,6.7,8.2,9.7C257.1,120.3,257.3,122.6,256.2,124.3z"></path>
						</g>
						<path class="st3" d="M237.7,55c2.4-0.2,4.7-0.4,7.6,1.2c1.4,0.8,2.4,2.2,3.2,3.7s1.2,3.1,1.4,4l0.1,0.3l0.2,0.2        c20,24.6,13.2,50.8,5.9,60.5l1.7,1.3c7.8-10.4,14.7-37.6-5.8-62.9c-0.2-1.1-0.7-2.7-1.5-4.3c-0.9-1.7-2.2-3.5-4-4.5        c-3.5-2-6.7-1.7-9.1-1.4c-0.5,0-1,0.1-1.4,0.1c-11-3.4-38.6-2.2-58.4,23.1l1.6,1.3c19.3-24.7,46.2-25.6,56.3-22.4l0.2,0l0.2,0        C236.4,55.1,237,55,237.7,55z"></path>
						<path class="st3" d="M237.2,52.7L237.2,52.7c-0.5,0-1,0.1-1.4,0.1c-11.1-3.4-38.7-2.2-58.6,23.2l-0.1,0.2l2,1.6l0.1-0.2        c19.3-24.7,46-25.5,56.1-22.3l0.2,0.1l0.2,0c0.7,0,1.4-0.1,2-0.1l0,0c2.4-0.2,4.7-0.4,7.5,1.2c1.3,0.7,2.3,2.1,3.1,3.6        c0.8,1.5,1.2,3,1.4,3.9l0.1,0.3l0.2,0.2c19.9,24.5,13.1,50.6,5.9,60.3l-0.1,0.2l2,1.5l0.1-0.2c7.8-10.4,14.7-37.7-5.8-63.1        c-0.2-1.1-0.7-2.7-1.5-4.3c-0.9-1.7-2.2-3.6-4.1-4.6C242.9,52.1,239.6,52.4,237.2,52.7z M237.2,53.1c2.4-0.2,5.5-0.5,8.9,1.4        c1.8,1,3.1,2.8,3.9,4.5c0.8,1.6,1.3,3.2,1.5,4.2l0,0l0,0c20.3,25.1,13.6,52,5.9,62.5l-1.3-1c7.3-9.9,13.9-36.1-6-60.6        l-0.1-0.2l0-0.2c-0.2-1-0.6-2.5-1.4-4c-0.8-1.5-1.9-3-3.3-3.8c-2.9-1.7-5.4-1.4-7.7-1.2h0c-0.7,0.1-1.3,0.1-2,0.1h-0.1l-0.1,0        c-10.2-3.2-37-2.3-56.4,22.3l-1.3-1c19.8-25.1,47.2-26.3,58.1-22.9l0,0h0C236.2,53.2,236.7,53.1,237.2,53.1L237.2,53.1z"></path>
						<path class="st3" d="M224.2,88.9l-14.9,22.4l1.7,1.2L226,90.1L224.2,88.9z"></path>
						<path class="st3" d="M178.1,77.8l78.4,48.5l1.1-1.8l-78.4-48.5L178.1,77.8z"></path>
						<path class="st3" d="M233.2,122.8l-29.8-44.9l-1.8,1.2l29.8,44.9L233.2,122.8z"></path>
						<path class="st3" d="M190.7,99.6l52.9,4.2l0.2-2.1l-52.9-4.2L190.7,99.6z"></path>
						<path class="st3" d="M201,107.8l-6.4,29.3c-0.6,2.9,1.2,5.7,4,6.3s5.7-1.2,6.3-4l2.2-10.1c0.4-1.6,2-2.7,3.6-2.3        c1.6,0.4,2.7,2,2.3,3.6l-3.3,15.2c-0.7,3.1,1.3,6.2,4.4,6.9s6.2-1.3,6.9-4.4l3.6-16.5c0.4-1.6,2-2.7,3.6-2.3        c1.6,0.4,2.7,2,2.3,3.6l-0.6,3c-0.6,2.9,1.2,5.9,4.2,6.5s5.9-1.2,6.5-4.2l2.3-10.6l-2.1-0.4l-2.3,10.6c-0.4,1.8-2.2,3-4,2.6        c-1.8-0.4-3-2.2-2.6-4l0.6-3c0.6-2.8-1.1-5.5-3.9-6.1c-2.8-0.6-5.5,1.1-6.1,3.9l-3.6,16.5c-0.4,2-2.4,3.2-4.4,2.8        c-2-0.4-3.2-2.4-2.8-4.4L215,131c0.6-2.8-1.1-5.5-3.9-6.1c-2.8-0.6-5.5,1.1-6.1,3.9l-2.2,10.1c-0.4,1.7-2.1,2.8-3.8,2.4        c-1.7-0.4-2.8-2.1-2.4-3.8l6.4-29.3L201,107.8z"></path>
						<path class="st3" d="M203.3,108.1l-2.5-0.5l-6.4,29.5c-0.6,3,1.2,5.9,4.2,6.5s5.9-1.2,6.5-4.2l2.2-10.1        c0.3-1.5,1.8-2.5,3.3-2.1s2.5,1.8,2.1,3.3l-3.3,15.2c-0.7,3.2,1.3,6.4,4.6,7.1s6.4-1.3,7.1-4.6l3.6-16.5        c0.3-1.5,1.8-2.5,3.3-2.1s2.5,1.8,2.1,3.3l-0.6,3c-0.7,3.1,1.3,6.1,4.3,6.7c3.1,0.7,6.1-1.3,6.7-4.3l2.4-10.8l-2.5-0.5        l-2.4,10.8c-0.4,1.7-2.1,2.8-3.7,2.4s-2.8-2.1-2.4-3.7l0.6-3c0.6-2.9-1.2-5.7-4.1-6.3s-5.7,1.2-6.3,4.1l-3.6,16.5        c-0.4,1.9-2.3,3.1-4.1,2.7c-1.9-0.4-3.1-2.3-2.7-4.1l3.3-15.2c0.6-2.9-1.2-5.7-4.1-6.3s-5.7,1.2-6.3,4.1l-2.2,10.1        c-0.4,1.6-1.9,2.6-3.5,2.3c-1.6-0.4-2.6-1.9-2.3-3.5L203.3,108.1z M202.8,108.4l-6.4,29.1c-0.4,1.8,0.8,3.6,2.6,4        s3.6-0.8,4-2.6l2.2-10.1c0.6-2.7,3.2-4.3,5.8-3.7c2.6,0.6,4.3,3.2,3.7,5.8l-3.3,15.2c-0.5,2.1,0.9,4.2,3,4.6        c2.1,0.5,4.2-0.9,4.6-3l3.6-16.5c0.6-2.6,3.2-4.3,5.8-3.7c2.6,0.6,4.3,3.2,3.7,5.8l-0.6,3c-0.4,1.9,0.8,3.8,2.7,4.2        s3.8-0.8,4.2-2.7l2.3-10.4l1.6,0.4l-2.3,10.4c-0.6,2.8-3.4,4.6-6.2,4s-4.6-3.4-4-6.2l0.6-3c0.4-1.7-0.7-3.5-2.5-3.8        c-1.7-0.4-3.5,0.7-3.8,2.5l-3.6,16.5c-0.7,3-3.6,4.9-6.6,4.3s-4.9-3.6-4.3-6.6l3.3-15.2c0.4-1.7-0.7-3.5-2.5-3.8        s-3.5,0.7-3.8,2.5l-2.2,10.1c-0.6,2.7-3.3,4.5-6,3.9c-2.7-0.6-4.5-3.3-3.9-6l6.4-29.1L202.8,108.4z"></path>
						<path class="st3" d="M199.1,124c-15.7-1.3-35.2-1.8-59.2-0.9c-47,1.7-75.2,8.1-91.4,15.3c-8.1,3.6-13.1,7.4-16,10.9        c-2.9,3.5-3.5,6.5-3.1,8.8c5,21.7,19.1,36.8,36.9,46.9l-1,1.8C47,196.4,32.4,181,27.3,158.5v0v0c-0.6-3.1,0.4-6.8,3.6-10.6        c3.1-3.8,8.5-7.8,16.8-11.4c16.6-7.4,45.1-13.8,92.2-15.5c24-0.9,43.6-0.4,59.4,0.9L199.1,124z M254.9,138.8        c-2.9-2.4-7.5-4.8-14.2-7.1l0.7-2c6.9,2.4,11.7,4.9,14.8,7.5c3.1,2.5,4.8,5.1,5,7.5c2,15.8-4.9,43.2-37.2,62.2L223,205        c31.6-18.6,38.1-45.2,36.2-60.1v0v0C259,143.2,257.9,141.1,254.9,138.8z"></path>
						<path class="st3" d="M370.4,109.9c-2.6,0.2-5,1-6.6,1.8l-0.1,0L259,142.4l-0.6-2l104.5-30.5c1.9-0.9,4.4-1.8,7.3-2        L370.4,109.9z M368.4,135.9c0.6-0.2,1.1-0.3,1.6-0.5l0.6,2c-0.5,0.2-1.1,0.3-1.7,0.5c-3.8,1.1-9.2,2.5-15.7,4.1        c-3.9,1-8.3,2.1-12.9,3.2c-10.5,2.5-22.4,5.3-34.1,8.1c-10.7,2.5-21.3,4.9-30.5,7.1c-2.6,0.6-5.1,1.2-7.4,1.7        c-3.4,0.8-6.5,1.5-9.4,2.1l-0.5-2c2.8-0.6,5.9-1.4,9.4-2.1c2.4-0.5,4.8-1.1,7.4-1.7c9.2-2.1,19.8-4.6,30.5-7.1        c11.7-2.7,23.6-5.5,34.1-8.1c4.6-1.1,8.9-2.2,12.8-3.2C359.2,138.4,364.6,137,368.4,135.9z"></path>
						<path class="st3" d="M369.9,117.9c-3.1-0.1-5.7,2.4-5.8,5.5c-0.1,3.1,2.4,5.7,5.5,5.8l0,2.1c-4.3-0.1-7.7-3.6-7.6-7.9        c0.1-4.3,3.6-7.7,7.9-7.6L369.9,117.9z"></path>
						<path class="st3" d="M144.2,155.7c1.2,0,2.5,0,3.8,0s2.5,0,3.8,0v16.6c-2.6,0.1-5.1,0.1-7.6,0.1L144.2,155.7L144.2,155.7z         M141.7,155.7c-2.6,0-5.1,0.1-7.6,0.2v16.6c2.5,0,5,0,7.6,0V155.7z M131.6,172.4v-16.5c-2.6,0.1-5.1,0.2-7.6,0.4v16.1        C126.5,172.4,129,172.4,131.6,172.4z M121.5,172.4v-15.9c-2.6,0.2-5.1,0.4-7.6,0.6v15.2C116.4,172.3,118.9,172.3,121.5,172.4z         M111.5,172.2v-14.9c-2.7,0.3-5.2,0.6-7.6,0.9V172C106.3,172,108.8,172.1,111.5,172.2z M101.4,171.9v-13.4        c-2.7,0.4-5.2,0.8-7.6,1.2v11.8C96.2,171.6,98.7,171.8,101.4,171.9z M91.3,171.4v-11.2c-2.8,0.6-5.3,1.2-7.6,1.8v9        C86,171.1,88.5,171.2,91.3,171.4z M81.3,170.7v-8.1c-10.8,3.4-12.3,6.8-5.3,7.6C77.3,170.4,79.1,170.6,81.3,170.7z         M154.3,172.2c2.5-0.1,5-0.1,7.6-0.2v-16.2c-2.4,0-4.9-0.1-7.6-0.1V172.2z M164.3,155.8v16.1c2.7-0.1,5.2-0.2,7.6-0.3V156        C169.5,155.9,166.9,155.8,164.3,155.8z M174.4,156v15.5c2.7-0.1,5.2-0.3,7.6-0.4v-14.8C179.6,156.2,177,156.1,174.4,156z         M184.5,156.5v14.5c2.8-0.2,5.3-0.4,7.6-0.6v-13.4C189.7,156.8,187.1,156.6,184.5,156.5z M194.5,157.1v12.9        c3.1-0.3,5.5-0.6,7.6-1v-11.2C199.8,157.6,197.3,157.4,194.5,157.1z M204.6,158.2v10.5c4.9-0.9,5.9-1.8,6.2-2.1c0,0,0,0,0,0        c0.4-0.1,0.8-0.2,1.3-0.3v-6.9C210,159,207.5,158.6,204.6,158.2z M214.7,159.9v5.9c2-0.2,3.9-0.3,5.3-0.3        c2.2,0,3.5-0.1,3.5-0.7C223.4,163.2,221,161.5,214.7,159.9z"></path>
						<path class="st3" d="M236.5,162c-17.6,5.9-46.7,10.7-92.7,10.7c-46,0-75-2.4-92.5-5.6c-8.7-1.6-14.7-3.3-18.5-5        c-1.9-0.9-3.3-1.7-4.2-2.6c-0.9-0.9-1.5-1.9-1.5-3h2.2c0,0.2,0.1,0.7,0.9,1.4c0.7,0.7,1.9,1.4,3.6,2.2        c3.5,1.6,9.3,3.3,17.9,4.9c17.3,3.1,46.2,5.5,92.1,5.5c45.9,0,74.7-4.7,92-10.6c8.6-2.9,14.4-6.1,17.9-9.1        c3.6-3,4.9-5.7,4.9-7.6l2.2,0.1c-0.1,2.8-1.9,6-5.7,9.2C251.3,155.7,245.3,159,236.5,162z"></path>
					</g>
				</g>
			</g>
		</g>
	</g>
</g>
<path class="st4" d="M319.2,298.8H53.7c-28.4,0-51.4-23-51.4-51.4v-194C2.3,25,25.3,2,53.7,2h265.5c28.4,0,51.4,23,51.4,51.4v194  C370.6,275.8,347.6,298.8,319.2,298.8z"></path>
<rect x="57" y="230.8" class="st5" width="258.9" height="46.8"></rect>
<text transform="matrix(1 0 0 1 79.4539 246.6471)" class="st6 st7">Úsala como marinado</text>
<text transform="matrix(1 0 0 1 59.8739 273.0471)" class="st6 st7">en tus proteínas favoritas. </text>
<line class="st4" x1="2" y1="204" x2="370.6" y2="204"></line>
</svg>
