<?xml version="1.0" encoding="UTF-8"?>
<!-- Generator: Adobe Illustrator 27.0.0, SVG Export Plug-In . SVG Version: 6.00 Build 0)  -->
<svg xmlns="http://www.w3.org/2000/svg" xmlns:xlink="http://www.w3.org/1999/xlink" version="1.1" id="Layer_2" x="0px" y="0px" viewBox="0 0 372.45 300.74" style="enable-background:new 0 0 372.45 300.74;" xml:space="preserve">
<style type="text/css">
	.st0{clip-path:url(#SVGID_00000168074635672461180360000010304066989775483292_);}
	.st1{fill-rule:evenodd;clip-rule:evenodd;fill:#231F20;}
	.st2{fill:#231F20;}
	.st3{fill:none;stroke:#231F20;stroke-width:1.5;}
	.st4{fill:#FFFFFF;}
	.st5{fill:url(#SVGID_00000075865794442558990400000017631526958187551872_);}
	.st6{fill:#2E2A2B;}
	.st7{clip-path:url(#SVGID_00000012470613994045759340000007108046535588394919_);}
	.st8{clip-path:url(#SVGID_00000163036946837147679220000010296751118964684192_);}
	.st9{fill:url(#SVGID_00000116195759997002976330000016193228594461893254_);}
	.st10{fill:url(#SVGID_00000060716649572222976720000018227239284828220830_);}
	.st11{fill:none;stroke:#EC1D2B;stroke-width:3;stroke-miterlimit:10;}
	.st12{clip-path:url(#SVGID_00000056391301822850000710000002292118406181014158_);}
	.st13{fill:url(#SVGID_00000176765290121341112740000003381777423400733314_);}
	.st14{fill:#231F20;stroke:#231F20;stroke-width:1.5;}
	.st15{fill:url(#SVGID_00000129188235732010675730000002223748942653412236_);}
	.st16{clip-path:url(#SVGID_00000131358421345866296460000001007641742861816230_);}
	.st17{fill:url(#SVGID_00000111169699998417266450000001268821850230238869_);}
	.st18{clip-path:url(#SVGID_00000135654238456363558440000012828193123670120112_);}
	.st19{clip-path:url(#SVGID_00000132775145284253897890000002398905470429078440_);}
	.st20{fill:url(#SVGID_00000060733282889034647780000002123014617113107635_);}
	.st21{fill:url(#SVGID_00000057850407704561389680000004966594258872943029_);}
	.st22{fill-rule:evenodd;clip-rule:evenodd;}
	.st23{clip-path:url(#SVGID_00000005972564835955319990000006482725296209333391_);}
	.st24{fill:url(#SVGID_00000000208163619023873410000007710754296851765901_);}
	.st25{clip-path:url(#SVGID_00000093165049042320129500000001562701065909572488_);}
	.st26{clip-path:url(#SVGID_00000029758044242070247150000009448783875481048766_);}
	.st27{fill:url(#SVGID_00000062161776003811364090000007667810408654035606_);}
	.st28{fill:url(#SVGID_00000036250071965409683190000001068359290445304486_);}
	.st29{clip-path:url(#SVGID_00000099629499910994302710000007329981526159937969_);}
	.st30{fill:#272324;}
	.st31{fill:#2D292A;}
	.st32{fill:none;}
	.st33{font-family:'Helvetica';}
	.st34{font-size:22px;}
	.st35{fill:#2C2829;}
	.st36{clip-path:url(#SVGID_00000027605161836247801650000017069985805189189054_);}
	.st37{fill:none;stroke:#231F20;stroke-width:1.25;}
	.st38{clip-path:url(#SVGID_00000142156845657896450810000012945834170470624900_);}
</style>
<g>
	<path class="st30" d="M227.03,203.93c0.01-9.34,0.06-18.68,0.02-28.02c-0.15-30.8-0.34-61.59-0.5-92.39   c-0.01-1.35-0.29-2.58-0.69-3.89c-1.59-5.18-1.04-10.74,4.46-14.46c0.59-0.4,1.42-0.64,1.26-1.63c-0.17-1.03-1.08-0.57-1.63-0.76   c-1.61-0.56-2.54-1.7-2.59-3.31c-0.21-7.62-0.44-15.24,0-22.86c0.13-2.27,1.73-3.66,4.14-4c0.66-0.09,1.34-0.06,2.02-0.06   c25.68,0,51.36,0,77.05,0c4.81,0,6.31,1.42,6.34,6.23c0.04,6.58,0,13.16,0,19.74c0,2.05-0.69,3.62-2.84,4.28   c-1.53,0.47-1.25,1.38-0.19,2.02c2.39,1.43,3.94,3.54,5.28,5.88c0,2.99,0,5.98,0,8.97c-1.1,0.97-0.91,2.28-0.92,3.52   c-0.1,13.3-0.21,26.59-0.28,39.89c-0.11,21.29-0.17,42.58-0.29,63.87c-0.03,5.67-0.2,11.34-0.31,17.01c-0.9,0-1.8,0-2.7,0   c0.1-5.6,0.16-11.2,0.32-16.8c0.05-1.75-0.95-1.41-2.04-1.32c-13.28,1.08-26.58,1.73-39.92,1.63c-13.93-0.11-27.83-0.8-41.72-1.69   c-1.27-0.08-1.54,0.31-1.5,1.46c0.07,2.17-0.09,4.34,0.05,6.5c0.21,3.41-0.36,6.84,0.34,10.23   C229.13,203.93,228.08,203.93,227.03,203.93z M229.28,135.74c0.16,0,0.32,0,0.48,0c0,14.95,0.05,29.9-0.06,44.85   c-0.01,2.01,0.6,2.51,2.45,2.59c8.75,0.36,17.49,0.9,26.24,1.25c18.05,0.74,36.07,0.21,54.07-1.24c1.91-0.15,2.54-0.71,2.55-2.76   c0.1-29.83,0.3-59.65,0.54-89.48c0.01-1.85-0.26-2.52-2.37-2.51c-27.33,0.09-54.66,0.07-81.99,0.02c-1.61,0-1.95,0.45-1.94,1.99   C229.31,105.54,229.28,120.64,229.28,135.74z M272.42,85.79c13.55,0,27.1-0.04,40.65,0.04c1.87,0.01,2.75-0.28,2.51-2.4   c-0.14-1.21-0.25-2.49,0.29-3.74c2.41-5.52,1.04-9.77-4.1-13c-0.55-0.34-1.46-0.53-1.34-1.33c0.34-2.37-1.25-2-2.64-2   c-23.65,0-47.31,0-70.96,0c-0.52,0-1.05,0.01-1.57,0.01c-0.63,0-1.06,0.26-0.92,0.92c0.34,1.67-0.9,2.15-1.98,2.81   c-4.28,2.61-5.49,6.5-3.92,11.45c0.56,1.76,0.94,3.43,0.79,5.18c-0.15,1.72,0.44,2.1,2.11,2.09   C245.02,85.76,258.72,85.79,272.42,85.79z"></path>
	<path class="st31" d="M36.96,203.93c1.57-13.88,3.13-27.76,4.7-41.63c1.57-13.88,3.15-27.75,4.73-41.63   c1.74-15.29,3.5-30.57,5.24-45.86c0.33-2.89,0.82-5.78,0.93-8.68c0.07-1.92,0.92-2.11,2.5-2.09C60.97,64.11,66.89,64,72.8,64.1   c1.59,0.03,1.95-0.42,1.97-1.97c0.06-5.3-0.56-10.63,0.35-15.89c1.37-7.94,8.49-14.08,16.54-14.13c14.97-0.1,29.95-0.11,44.93,0.01   c9.08,0.07,16.64,7.72,16.83,16.8c0.09,4.33,0.12,8.68-0.03,13.01c-0.06,1.85,0.58,2.21,2.27,2.18c6.66-0.09,13.33,0.01,19.99-0.07   c1.51-0.02,2.01,0.37,2.16,1.91c1.22,12.49,2.55,24.97,3.83,37.46c1.61,15.61,3.21,31.21,4.8,46.82   c1.26,12.34,2.49,24.68,3.75,37.01c0.57,5.57,1.19,11.14,1.79,16.71c-1.05,0-2.1,0-3.15,0c0.45-2.9-0.26-5.75-0.55-8.6   c-2.48-24.9-5.05-49.78-7.6-74.68c-1.78-17.39-3.6-34.77-5.31-52.16c-0.18-1.82-1.16-1.71-2.41-1.71   c-22.46,0.01-44.92,0.01-67.37,0.01c-16.02,0-32.04,0.03-48.06-0.04c-1.79-0.01-2.4,0.46-2.6,2.3   c-2.15,19.52-4.41,39.03-6.63,58.54c-1.87,16.47-3.69,32.95-5.56,49.42c-1.01,8.98-2.07,17.95-3.1,26.93   C38.76,203.93,37.86,203.93,36.96,203.93z M114.03,64.06c11.53,0,23.05-0.03,34.58,0.04c1.6,0.01,2.21-0.27,2.14-2.04   c-0.15-4.11-0.03-8.22-0.05-12.33c-0.04-8.49-6.39-14.91-14.87-14.93c-14.52-0.04-29.04-0.04-43.56,0   C84,34.83,77.54,41.32,77.45,49.63c-0.04,4.11,0.11,8.23-0.06,12.33c-0.08,1.9,0.65,2.15,2.28,2.14   C91.13,64.04,102.58,64.06,114.03,64.06z"></path>
	<path class="st30" d="M163.11,151.02c-3.58-0.04-6.55-3.07-6.49-6.6c0.06-3.56,3.08-6.49,6.66-6.45c3.6,0.04,6.52,3.03,6.47,6.62   C169.69,148.21,166.74,151.07,163.11,151.02z"></path>
	<path class="st30" d="M93.43,103.19c-0.03-3.67,2.77-6.51,6.46-6.56c3.6-0.04,6.61,2.88,6.63,6.45c0.02,3.54-2.98,6.57-6.53,6.6   C96.38,109.71,93.47,106.84,93.43,103.19z"></path>
	<path class="st30" d="M137.03,103.05c0.05,3.58-2.87,6.58-6.46,6.63c-3.57,0.05-6.61-2.89-6.65-6.46   c-0.05-3.61,2.83-6.54,6.48-6.59C134.04,96.58,136.98,99.42,137.03,103.05z"></path>
	<path class="st30" d="M161.06,109.68c-3.58,0.01-6.59-2.95-6.6-6.5c-0.01-3.61,2.88-6.52,6.52-6.56c3.6-0.03,6.57,2.87,6.61,6.47   C167.63,106.62,164.61,109.67,161.06,109.68z"></path>
	<path class="st30" d="M69.4,96.63c3.6-0.02,6.57,2.91,6.59,6.49c0.01,3.53-3.03,6.57-6.56,6.56c-3.59-0.01-6.55-2.97-6.54-6.54   C62.88,99.49,65.73,96.65,69.4,96.63z"></path>
	<path class="st30" d="M130.31,151.02c-3.61-0.06-6.47-3.05-6.37-6.68c0.1-3.63,3.07-6.46,6.7-6.37c3.58,0.09,6.52,3.17,6.39,6.71   C136.9,148.3,133.95,151.08,130.31,151.02z"></path>
	<path class="st30" d="M95.3,192.38c-3.67-0.14-6.37-3.08-6.25-6.77c0.12-3.57,3.25-6.47,6.79-6.29c3.57,0.18,6.4,3.27,6.27,6.84   C101.99,189.76,98.96,192.53,95.3,192.38z"></path>
	<path class="st30" d="M137.03,185.97c-0.06,3.64-2.96,6.46-6.62,6.44c-3.61-0.02-6.54-3-6.49-6.58c0.05-3.55,3.12-6.55,6.64-6.5   C134.11,179.38,137.09,182.43,137.03,185.97z"></path>
	<path class="st30" d="M165.22,192.4c-3.61-0.1-6.53-3.13-6.41-6.66c0.12-3.57,3.19-6.5,6.73-6.41c3.58,0.09,6.43,3.1,6.35,6.72   C171.8,189.69,168.86,192.5,165.22,192.4z"></path>
	<path class="st30" d="M64.98,151.02c-3.61-0.02-6.52-2.97-6.48-6.57c0.04-3.62,2.99-6.51,6.59-6.48c3.63,0.03,6.48,2.95,6.47,6.59   C71.55,148.17,68.62,151.05,64.98,151.02z"></path>
	<path class="st30" d="M97.76,137.97c3.58-0.01,6.58,2.97,6.57,6.53c0,3.61-2.94,6.53-6.56,6.52c-3.67,0-6.51-2.84-6.52-6.5   C91.24,140.89,94.14,137.98,97.76,137.97z"></path>
	<path class="st30" d="M67.19,185.94c-0.01,3.64-2.93,6.51-6.56,6.47c-3.62-0.05-6.57-3.02-6.52-6.56c0.06-3.56,3.06-6.52,6.61-6.52   C64.28,179.33,67.2,182.32,67.19,185.94z"></path>
	<g>
		<path class="st1" d="M301.05,121.01c-4.65-2.02-9.55-3.58-14.62-4.61l0.98-3.79c3.14,0.65,6.21,1.48,9.2,2.49l3.29-9.68    c2.32,0.78,4.6,1.66,6.82,2.64l-5.83,5.23L301.05,121.01z"></path>
		<path class="st1" d="M256.19,112.62c-3.14,0.65-6.21,1.49-9.2,2.51l-3.29-9.7c-2.32,0.8-4.6,1.68-6.82,2.66l5.81,5.21l-0.15,7.72    c4.65-2.04,9.54-3.6,14.62-4.63L256.19,112.62z"></path>
		<g>
			<path class="st1" d="M271.83,97.74c-9.88,0-19.39,1.59-28.29,4.53l4.01,11.78c7.64-2.51,15.8-3.87,24.28-3.87     c8.46,0,16.59,1.35,24.21,3.84l4.01-11.78C291.18,99.31,281.69,97.74,271.83,97.74z M256.31,108.14c-0.07,0.33-0.2,0.63-0.4,0.9     c-0.2,0.25-0.46,0.48-0.8,0.66c-0.32,0.18-0.71,0.33-1.15,0.43l-3.47,0.8l-1.53-6.59l-0.81,0.2l0.25-1.86l3.39-0.78     c0.76-0.18,1.38-0.13,1.86,0.15c0.48,0.27,0.8,0.76,0.96,1.44c0.1,0.42,0.1,0.78,0.02,1.1c-0.1,0.32-0.27,0.6-0.53,0.86     c0.32-0.02,0.6,0.02,0.85,0.08c0.25,0.07,0.45,0.17,0.63,0.32c0.18,0.15,0.32,0.33,0.43,0.53c0.1,0.2,0.2,0.43,0.25,0.68     C256.35,107.44,256.35,107.81,256.31,108.14z M262.81,108.66l-2.49-2.99l0.4,3.25l-2.19,0.27l-0.83-6.71l-0.85,0.12l0.43-1.83     l3.6-0.45c0.48-0.07,0.9-0.05,1.26,0.05c0.38,0.1,0.68,0.25,0.95,0.46c0.25,0.22,0.46,0.46,0.61,0.76     c0.15,0.3,0.25,0.61,0.3,0.98c0.08,0.65,0,1.2-0.27,1.63c-0.27,0.43-0.7,0.76-1.28,0.98l3.09,3.14L262.81,108.66z M272.93,108.14     l-0.53-1.48l-3.15,0.05l-0.48,1.48l-2.36,0.03l2.49-6.81h-0.83l0.65-1.76l3.22-0.03l3.35,8.48L272.93,108.14z M284.79,105.5     c-0.08,0.37-0.18,0.7-0.33,1c-0.2,0.43-0.47,0.8-0.76,1.11c-0.3,0.32-0.65,0.56-1.05,0.75c-0.38,0.18-0.8,0.32-1.25,0.4     c-0.45,0.07-0.91,0.08-1.39,0.03c-0.66-0.07-1.24-0.25-1.76-0.51c-0.51-0.28-0.95-0.63-1.29-1.06c-0.35-0.43-0.6-0.93-0.76-1.51     c-0.17-0.58-0.2-1.2-0.13-1.86c0.07-0.66,0.25-1.25,0.51-1.78c0.27-0.53,0.63-0.96,1.06-1.31c0.43-0.35,0.95-0.6,1.51-0.76     c0.58-0.17,1.21-0.2,1.89-0.13c0.88,0.1,1.64,0.37,2.26,0.81c0.63,0.45,1.09,1.1,1.39,1.94l-2.18,0.65     c-0.15-0.48-0.37-0.85-0.65-1.08c-0.28-0.23-0.63-0.38-1.03-0.41c-0.33-0.03-0.63,0-0.91,0.08c-0.28,0.1-0.53,0.25-0.75,0.45     c-0.22,0.22-0.4,0.46-0.53,0.78c-0.15,0.32-0.23,0.66-0.28,1.06c-0.03,0.37-0.03,0.7,0.03,1.01c0.07,0.32,0.17,0.6,0.33,0.85     c0.17,0.25,0.38,0.45,0.65,0.6c0.27,0.15,0.58,0.25,0.95,0.28c0.22,0.02,0.43,0.02,0.63,0c0.2-0.03,0.4-0.08,0.56-0.18     c0.17-0.08,0.32-0.22,0.45-0.38c0.12-0.17,0.21-0.37,0.28-0.61l-1.81-0.2l0.17-1.68l4.37,0.46     C284.92,104.74,284.85,105.14,284.79,105.5z M294.87,107.74c-0.12,0.35-0.28,0.66-0.46,0.95c-0.25,0.4-0.55,0.73-0.9,1     c-0.35,0.27-0.71,0.48-1.13,0.61c-0.42,0.13-0.85,0.22-1.29,0.23c-0.45,0.02-0.91-0.03-1.38-0.15c-0.65-0.15-1.21-0.4-1.69-0.73     c-0.48-0.33-0.86-0.75-1.16-1.23c-0.28-0.48-0.48-1.01-0.56-1.59c-0.08-0.58-0.05-1.21,0.1-1.86c0.15-0.65,0.4-1.21,0.73-1.69     c0.33-0.48,0.75-0.88,1.21-1.16c0.48-0.28,1.01-0.48,1.6-0.56c0.6-0.08,1.23-0.05,1.89,0.12c0.86,0.2,1.57,0.56,2.14,1.1     c0.56,0.53,0.95,1.23,1.13,2.11l-2.24,0.37c-0.08-0.5-0.25-0.88-0.51-1.16c-0.25-0.27-0.58-0.45-0.96-0.55     c-0.32-0.08-0.63-0.08-0.93-0.03c-0.3,0.05-0.57,0.18-0.8,0.35c-0.23,0.18-0.45,0.41-0.63,0.7c-0.18,0.28-0.32,0.63-0.42,1.01     c-0.08,0.35-0.11,0.68-0.1,1.01c0.02,0.32,0.1,0.61,0.23,0.88c0.13,0.27,0.32,0.48,0.57,0.68c0.25,0.18,0.55,0.32,0.9,0.4     c0.21,0.05,0.41,0.08,0.63,0.08c0.21,0,0.4-0.03,0.58-0.1c0.18-0.07,0.35-0.18,0.48-0.32c0.15-0.15,0.27-0.33,0.35-0.56     l-1.78-0.42l0.48-1.66l4.27,1.01C295.1,107,294.99,107.39,294.87,107.74z M297.56,105c-0.51,0-0.93-0.4-0.93-0.91     c0-0.5,0.42-0.91,0.93-0.91c0.53,0,0.93,0.4,0.93,0.91C298.49,104.61,298.09,105,297.56,105z"></path>
			<path class="st1" d="M252.7,104.26c-0.12-0.53-0.51-0.71-1.2-0.56l-0.4,0.1l0.37,1.59l0.4-0.1     C252.55,105.14,252.82,104.79,252.7,104.26z"></path>
			<path class="st1" d="M253.53,106.83c-0.27-0.08-0.66-0.07-1.21,0.07l-0.46,0.12l0.41,1.76l0.47-0.12     c0.53-0.13,0.91-0.28,1.11-0.48c0.2-0.2,0.27-0.45,0.2-0.76C253.97,107.11,253.8,106.91,253.53,106.83z"></path>
			<path class="st1" d="M261.33,102.25c-0.25-0.15-0.6-0.2-1.03-0.15l-0.41,0.05l0.25,2.09l0.41-0.05c0.43-0.07,0.75-0.18,0.96-0.4     c0.21-0.2,0.3-0.48,0.27-0.81C261.73,102.65,261.58,102.4,261.33,102.25z"></path>
			<polygon class="st1" points="269.81,105 271.81,104.98 270.78,102.16    "></polygon>
			<path class="st1" d="M297.57,103.38c-0.41-0.02-0.71,0.32-0.71,0.71c0,0.4,0.3,0.73,0.71,0.73c0.4,0,0.7-0.32,0.7-0.71     S297.97,103.38,297.57,103.38z M297.77,104.56c-0.03-0.03-0.05-0.12-0.07-0.22c-0.02-0.1-0.07-0.15-0.18-0.15h-0.1v0.37h-0.22     v-0.91c0.08-0.02,0.2-0.03,0.35-0.03c0.17,0,0.25,0.03,0.32,0.07c0.05,0.03,0.08,0.12,0.08,0.2c0,0.1-0.08,0.18-0.18,0.22v0.02     c0.08,0.03,0.13,0.1,0.17,0.22c0.03,0.13,0.05,0.2,0.07,0.23H297.77z"></path>
			<path class="st1" d="M297.54,103.78c-0.05,0-0.1,0-0.12,0.02v0.25h0.1c0.12,0,0.22-0.03,0.22-0.13     C297.74,103.83,297.67,103.78,297.54,103.78z"></path>
		</g>
	</g>
</g>
<path class="st11" d="M319.19,298.82H53.7c-28.41,0-51.44-23.03-51.44-51.44V53.43c0-28.41,23.03-51.44,51.44-51.44h265.5  c28.41,0,51.44,23.03,51.44,51.44v193.95C370.63,275.79,347.6,298.82,319.19,298.82z"></path>
<rect x="54.61" y="229.36" class="st32" width="263.45" height="46.82"></rect>
<text transform="matrix(1 0 0 1 55.5065 245.1784)"><tspan x="0" y="0" class="st33 st34">Úsala de la misma manera</tspan><tspan x="1.19" y="26.4" class="st33 st34">que usarías queso rallado. </tspan></text>
<line class="st11" x1="2.04" y1="204.02" x2="370.63" y2="204.02"></line>
</svg>
