<?xml version="1.0" encoding="UTF-8"?>
<!-- Generator: Adobe Illustrator 27.0.0, SVG Export Plug-In . SVG Version: 6.00 Build 0)  -->
<svg xmlns="http://www.w3.org/2000/svg" xmlns:xlink="http://www.w3.org/1999/xlink" version="1.1" id="Layer_2" x="0px" y="0px" viewBox="0 0 372.45 300.74" style="enable-background:new 0 0 372.45 300.74;" xml:space="preserve">
<style type="text/css">
	.st0{clip-path:url(#SVGID_00000179644007086991394410000015480223716240043161_);}
	.st1{fill-rule:evenodd;clip-rule:evenodd;fill:#231F20;}
	.st2{fill:#231F20;}
	.st3{fill:none;stroke:#231F20;stroke-width:1.5;}
	.st4{fill:#FFFFFF;}
	.st5{fill:url(#SVGID_00000054257941739392321370000016366711701275899570_);}
	.st6{fill:#2E2A2B;}
	.st7{clip-path:url(#SVGID_00000063617866914451606270000017329142542483513016_);}
	.st8{clip-path:url(#SVGID_00000129883826309570962860000014467555462213211315_);}
	.st9{fill:url(#SVGID_00000122700903820190706040000011841040547760499600_);}
	.st10{fill:url(#SVGID_00000090272689909078157340000014658292155754522757_);}
	.st11{fill:none;stroke:#EC1D2B;stroke-width:3;stroke-miterlimit:10;}
	.st12{clip-path:url(#SVGID_00000134953570912818649090000003837226812221964972_);}
	.st13{fill:url(#SVGID_00000104674002292881672300000009291321676953972385_);}
	.st14{fill:#231F20;stroke:#231F20;stroke-width:1.5;}
	.st15{fill:url(#SVGID_00000173161730957142708070000008796866408612611229_);}
	.st16{clip-path:url(#SVGID_00000150102151400140717300000000551990733876666779_);}
	.st17{fill:url(#SVGID_00000105425328639230037680000018003149166131541951_);}
	.st18{clip-path:url(#SVGID_00000134214743953451255560000006154259789062262149_);}
	.st19{clip-path:url(#SVGID_00000090276457870006787620000013903827458754071971_);}
	.st20{fill:url(#SVGID_00000010993498772697574830000005746220578068282023_);}
	.st21{fill:none;}
	.st22{font-family:'Helvetica';}
	.st23{font-size:22px;}
	.st24{fill:url(#SVGID_00000020360420920217630330000017337343848714511003_);}
	.st25{fill-rule:evenodd;clip-rule:evenodd;}
	.st26{clip-path:url(#SVGID_00000163060170966040375600000016449716860296343954_);}
	.st27{fill:url(#SVGID_00000065780656446531830150000000982707659674881198_);}
	.st28{clip-path:url(#SVGID_00000144337194805615886930000006441977086445735052_);}
	.st29{clip-path:url(#SVGID_00000084529612174485227590000007165830901366691263_);}
	.st30{fill:url(#SVGID_00000126314646021365171390000007522781606597416331_);}
	.st31{fill:url(#SVGID_00000038400054611809514840000005348876507862671791_);}
	.st32{clip-path:url(#SVGID_00000035531533977367016630000016641611198840852352_);}
	.st33{fill:#272324;}
	.st34{fill:#2D292A;}
	.st35{fill:#2C2829;}
	.st36{clip-path:url(#SVGID_00000182516610121373748010000011208185246008588683_);}
	.st37{fill:none;stroke:#231F20;stroke-width:1.25;}
	.st38{clip-path:url(#SVGID_00000013155624790357035470000007861718201198740371_);}
</style>
<path class="st11" d="M319.19,298.82H53.7c-28.41,0-51.44-23.03-51.44-51.44V53.43c0-28.41,23.03-51.44,51.44-51.44h265.5  c28.41,0,51.44,23.03,51.44,51.44v193.95C370.63,275.79,347.6,298.82,319.19,298.82z"></path>
<rect x="82.76" y="227.05" class="st21" width="207.15" height="46.82"></rect>
<text transform="matrix(1 0 0 1 84.2362 242.869)"><tspan x="0" y="0" class="st22 st23">Úsalo como sustituto </tspan><tspan x="16.49" y="26.4" class="st22 st23">de salsa de soya. </tspan></text>
<g>
	<path class="st1" d="M104.28,143.56v-1.87c0.16-2.88,1.08-9.4,3.51-12.39c0.8-0.98,1.66-1.87,2.53-2.76   c2.42-2.49,4.85-4.98,5.88-9.63c1.4-6.31,1.64-8.41,2.1-21.97c0.37-10.84,1.09-26.8,1.4-33.42c0.23-1.71,0.28-5.52-1.4-7.01   c-1.94-1.72-1-3.14-0.2-4.36c0.07-0.11,0.14-0.21,0.2-0.31c0.12-0.19,0.23-0.36,0.34-0.52c0.63-0.96,1.06-1.6,1.06-3.1V34.06   c0-1.25,0.98-3.83,4.91-4.21c2.94-0.28,7.46-0.45,10.75-0.53v-0.06c0.4,0.01,0.87,0.01,1.4,0.02c0.53-0.01,1-0.02,1.4-0.02l0,0.06   c3.3,0.08,7.81,0.25,10.75,0.53c3.93,0.37,4.91,2.96,4.91,4.21v12.15c0,1.5,0.43,2.14,1.06,3.1c0.11,0.16,0.22,0.33,0.34,0.52   c0.07,0.1,0.13,0.21,0.2,0.31c0.8,1.22,1.73,2.64-0.2,4.36c-1.68,1.5-1.64,5.3-1.4,7.01c0.31,6.62,1.03,22.58,1.4,33.42   c0.47,13.56,0.7,15.66,2.1,21.97c1.03,4.65,3.46,7.14,5.88,9.63c0.87,0.89,1.73,1.78,2.53,2.76c2.43,2.99,3.35,9.5,3.51,12.39v1.87   H104.28z"></path>
	<g>
		<g>
			<path class="st2" d="M149.51,168.68c4.42,0.9,8.68,2.25,12.73,4.02l-0.14-6.72l5.07-4.55c-1.94-0.85-3.92-1.62-5.94-2.3     l-2.86,8.42c-2.6-0.88-5.27-1.6-8.01-2.17L149.51,168.68z"></path>
		</g>
		<g>
			<path class="st2" d="M123.19,165.4c-2.73,0.56-5.4,1.3-8,2.18l-2.86-8.44c-2.02,0.69-4,1.46-5.94,2.31l5.06,4.54l-0.13,6.72     c4.05-1.78,8.31-3.13,12.73-4.03L123.19,165.4z"></path>
		</g>
		<g>
			<path class="st1" d="M115.67,166.63l-3.49-10.25c7.74-2.55,16.03-3.94,24.62-3.94c8.58,0,16.84,1.37,24.56,3.91l-3.49,10.25     c-6.63-2.17-13.71-3.34-21.07-3.34C129.43,163.26,122.32,164.45,115.67,166.63z M123.24,160.56c-0.04-0.22-0.13-0.42-0.22-0.59     c-0.1-0.17-0.22-0.33-0.38-0.46c-0.16-0.13-0.33-0.22-0.55-0.27c-0.22-0.06-0.46-0.09-0.74-0.07c0.23-0.23,0.38-0.48,0.46-0.75     c0.07-0.27,0.07-0.59-0.01-0.95c-0.14-0.59-0.42-1.03-0.84-1.26c-0.42-0.25-0.95-0.29-1.62-0.13l-2.95,0.68l-0.22,1.62l0.71-0.17     l1.33,5.74l3.02-0.69c0.38-0.09,0.72-0.22,1-0.38c0.29-0.16,0.52-0.36,0.69-0.58c0.17-0.23,0.29-0.49,0.35-0.78     C123.33,161.21,123.33,160.89,123.24,160.56z M118.77,157.71l0.35-0.09c0.59-0.13,0.94,0.03,1.04,0.49     c0.1,0.46-0.13,0.77-0.72,0.9l-0.35,0.09L118.77,157.71z M121.15,161.53c-0.17,0.17-0.51,0.3-0.97,0.42l-0.4,0.1l-0.36-1.53     l0.4-0.1c0.48-0.12,0.82-0.13,1.05-0.06c0.23,0.07,0.38,0.25,0.45,0.51C121.38,161.14,121.32,161.35,121.15,161.53z      M128.65,158.93l2.69,2.73l-2.38,0.29l-2.17-2.6l0.35,2.83l-1.91,0.23l-0.72-5.84l-0.74,0.1l0.38-1.59l3.14-0.39     c0.42-0.06,0.78-0.04,1.1,0.04c0.33,0.09,0.59,0.22,0.82,0.4c0.22,0.19,0.4,0.4,0.53,0.66c0.13,0.26,0.22,0.53,0.26,0.85     c0.07,0.56,0,1.04-0.23,1.42C129.53,158.45,129.15,158.74,128.65,158.93z M126.99,158.06c0.38-0.06,0.65-0.16,0.84-0.35     c0.19-0.17,0.26-0.42,0.23-0.71c-0.04-0.29-0.17-0.51-0.39-0.64c-0.22-0.13-0.52-0.17-0.9-0.13l-0.36,0.04l0.22,1.82     L126.99,158.06z M136.9,154.08l-2.8,0.03l-0.56,1.53h0.72l-2.17,5.92l2.05-0.03l0.42-1.29l2.75-0.04l0.46,1.29l2.05-0.03     L136.9,154.08z M135.05,158.76l0.84-2.47l0.9,2.46L135.05,158.76z M148.24,158.15l-3.8-0.4l-0.14,1.46l1.57,0.17     c-0.06,0.22-0.14,0.39-0.25,0.53c-0.12,0.14-0.25,0.26-0.39,0.33c-0.14,0.09-0.32,0.13-0.49,0.16c-0.17,0.01-0.36,0.01-0.55,0     c-0.32-0.03-0.59-0.12-0.82-0.25c-0.23-0.13-0.42-0.3-0.56-0.52c-0.14-0.22-0.23-0.46-0.29-0.74c-0.06-0.27-0.06-0.56-0.03-0.88     c0.04-0.35,0.12-0.65,0.25-0.92c0.12-0.27,0.27-0.49,0.46-0.68c0.19-0.17,0.4-0.3,0.65-0.39c0.25-0.07,0.51-0.1,0.79-0.07     c0.35,0.03,0.65,0.16,0.9,0.36c0.25,0.2,0.43,0.52,0.56,0.94l1.89-0.56c-0.26-0.74-0.66-1.3-1.21-1.69     c-0.53-0.39-1.2-0.62-1.97-0.71c-0.59-0.06-1.14-0.03-1.65,0.12c-0.49,0.14-0.94,0.36-1.32,0.66c-0.38,0.3-0.69,0.68-0.92,1.14     c-0.23,0.46-0.39,0.97-0.45,1.55c-0.06,0.58-0.03,1.11,0.12,1.62c0.14,0.51,0.36,0.94,0.66,1.31c0.3,0.38,0.68,0.68,1.13,0.92     c0.45,0.23,0.95,0.39,1.53,0.45c0.42,0.04,0.82,0.03,1.21-0.03c0.39-0.07,0.75-0.19,1.08-0.35c0.35-0.16,0.65-0.38,0.91-0.65     c0.26-0.27,0.49-0.59,0.66-0.97c0.13-0.26,0.22-0.55,0.29-0.87C148.14,158.88,148.2,158.54,148.24,158.15z M153.44,159.24     l3.71,0.88c-0.09,0.38-0.19,0.72-0.29,1.03s-0.25,0.58-0.4,0.82c-0.22,0.35-0.48,0.64-0.78,0.87c-0.3,0.23-0.62,0.42-0.98,0.53     c-0.36,0.12-0.74,0.19-1.13,0.2c-0.39,0.01-0.79-0.03-1.2-0.13c-0.56-0.13-1.05-0.35-1.47-0.64c-0.42-0.29-0.75-0.65-1.01-1.07     c-0.25-0.42-0.42-0.88-0.49-1.39c-0.07-0.51-0.04-1.05,0.09-1.62c0.13-0.56,0.35-1.05,0.64-1.47c0.29-0.42,0.65-0.77,1.05-1.01     c0.42-0.25,0.88-0.42,1.39-0.49c0.52-0.07,1.07-0.04,1.65,0.1c0.75,0.17,1.37,0.49,1.86,0.95c0.49,0.46,0.82,1.07,0.98,1.84     l-1.95,0.32c-0.07-0.43-0.22-0.77-0.45-1.01c-0.22-0.23-0.51-0.39-0.84-0.48c-0.27-0.07-0.55-0.07-0.81-0.03     c-0.26,0.04-0.49,0.16-0.69,0.3c-0.2,0.16-0.39,0.36-0.55,0.61c-0.16,0.25-0.27,0.55-0.36,0.88c-0.07,0.3-0.1,0.59-0.09,0.88     c0.01,0.27,0.09,0.53,0.2,0.77c0.12,0.23,0.27,0.42,0.49,0.59c0.22,0.16,0.48,0.27,0.78,0.35c0.19,0.04,0.36,0.07,0.55,0.07     s0.35-0.03,0.51-0.09c0.16-0.06,0.3-0.16,0.42-0.27c0.13-0.13,0.23-0.29,0.3-0.49l-1.55-0.36L153.44,159.24z M159.2,158.77     c0.46,0,0.81-0.35,0.81-0.79s-0.35-0.79-0.81-0.79c-0.45,0-0.81,0.36-0.81,0.79C158.39,158.42,158.75,158.77,159.2,158.77z      M159.21,158.61c-0.36,0-0.62-0.29-0.62-0.64c0-0.35,0.26-0.64,0.62-0.62c0.35,0,0.61,0.29,0.61,0.64     C159.82,158.33,159.56,158.61,159.21,158.61z M158.89,158.38h0.19v-0.32h0.09c0.1,0,0.14,0.04,0.16,0.13     c0.01,0.09,0.03,0.16,0.06,0.19h0.2c-0.01-0.03-0.03-0.09-0.06-0.2c-0.03-0.1-0.07-0.16-0.14-0.19v-0.01     c0.09-0.03,0.16-0.1,0.16-0.19c0-0.07-0.03-0.14-0.07-0.17c-0.06-0.03-0.13-0.06-0.27-0.06c-0.13,0-0.23,0.01-0.3,0.03V158.38z      M159.17,157.93h-0.09v-0.22c0.01-0.01,0.06-0.01,0.1-0.01c0.12,0,0.17,0.04,0.17,0.12C159.35,157.9,159.27,157.93,159.17,157.93     z"></path>
		</g>
		
			<linearGradient id="SVGID_00000142156738297156841840000004162579029532676481_" gradientUnits="userSpaceOnUse" x1="153.2359" y1="-1329.7212" x2="153.4525" y2="-1329.7212" gradientTransform="matrix(1 0 0 -1 0 -1160.448)">
			<stop offset="0" style="stop-color:#ED1C24"></stop>
			<stop offset="0.2361" style="stop-color:#E91C24"></stop>
			<stop offset="0.4038" style="stop-color:#E11B22"></stop>
			<stop offset="0.5501" style="stop-color:#D41920"></stop>
			<stop offset="0.6844" style="stop-color:#C3161D"></stop>
			<stop offset="0.8103" style="stop-color:#AD1116"></stop>
			<stop offset="0.9285" style="stop-color:#92080B"></stop>
			<stop offset="1" style="stop-color:#810101"></stop>
		</linearGradient>
		<path style="fill:url(#SVGID_00000142156738297156841840000004162579029532676481_);" d="M153.24,169.24    c0.07,0.01,0.14,0.03,0.22,0.06v-0.03C153.38,169.26,153.31,169.24,153.24,169.24z"></path>
	</g>
	<path class="st2" d="M220.68,120.59c-5.13,0-9.42-4.84-9.42-10.32c0,5.41-3.9,10.32-9.42,10.32c5.52,0,9.42,4.63,9.42,10.4   C211.26,125.22,215.61,120.59,220.68,120.59z"></path>
	<path class="st1" d="M201.84,121.75v-2.32c4.74,0,8.26-4.24,8.26-9.16h2.32c0,4.96,3.87,9.16,8.26,9.16v2.32   c-4.33,0-8.26,4.01-8.26,9.24h-2.32C210.1,125.73,206.59,121.75,201.84,121.75z M211.3,125.68c1.06-2.2,2.76-4,4.81-5.1   c-2.07-1.12-3.77-2.96-4.82-5.15c-1,2.17-2.62,4.01-4.71,5.14C208.67,121.66,210.3,123.47,211.3,125.68z"></path>
	<path class="st2" d="M250.82,139.43c-5.13,0-9.42-4.84-9.42-10.32c0,5.41-3.9,10.32-9.42,10.32c5.52,0,9.42,4.63,9.42,10.4   C241.4,144.06,245.75,139.43,250.82,139.43z"></path>
	<path class="st1" d="M231.98,140.59v-2.32c4.74,0,8.26-4.24,8.26-9.16h2.32c0,4.96,3.88,9.16,8.26,9.16v2.32   c-4.33,0-8.26,4.01-8.26,9.24h-2.32C240.24,144.56,236.73,140.59,231.98,140.59z M241.44,144.52c1.06-2.2,2.76-4,4.81-5.1   c-2.07-1.12-3.77-2.96-4.82-5.15c-1,2.17-2.62,4.01-4.71,5.14C238.81,140.5,240.44,142.31,241.44,144.52z"></path>
	<path class="st1" d="M135.38,28.11l-1.18-0.02l0,0.1c-3.15,0.09-7.05,0.25-9.7,0.5c-2.22,0.21-3.74,1.07-4.69,2.17   c-0.93,1.07-1.27,2.3-1.27,3.19v12.15c0,0.63-0.09,1.02-0.21,1.32c-0.13,0.34-0.33,0.64-0.66,1.14l0,0   c-0.11,0.16-0.23,0.34-0.35,0.54c-0.06,0.09-0.12,0.19-0.19,0.3l-0.05,0.07c-0.37,0.56-0.93,1.42-1.06,2.41   c-0.15,1.19,0.33,2.33,1.51,3.38c0.51,0.45,0.88,1.41,1.04,2.7c0.15,1.23,0.09,2.51-0.02,3.29l-0.01,0.05l0,0.05   c-0.31,6.62-1.03,22.58-1.4,33.44c-0.47,13.54-0.7,15.55-2.08,21.76c-0.96,4.3-3.17,6.59-5.58,9.07l-0.02,0.02   c-0.85,0.88-1.75,1.8-2.58,2.82c-1.39,1.71-2.27,4.3-2.84,6.7c-0.57,2.44-0.85,4.85-0.93,6.35l0,0.03v60.86h2.32v-60.8   c0.08-1.39,0.34-3.65,0.87-5.92c0.54-2.33,1.34-4.49,2.38-5.77c0.76-0.94,1.59-1.79,2.46-2.68l0.03-0.03   c2.42-2.49,5.05-5.18,6.15-10.15c1.43-6.42,1.66-8.61,2.13-22.18c0.37-10.81,1.09-26.71,1.4-33.36c0.12-0.94,0.19-2.39,0.01-3.84   c-0.18-1.41-0.63-3.1-1.8-4.15c-0.75-0.67-0.78-1.1-0.75-1.36c0.05-0.41,0.31-0.84,0.74-1.5l0,0l0,0c0.07-0.1,0.14-0.21,0.21-0.32   c0.11-0.18,0.22-0.34,0.33-0.5l0.03-0.04v0c0.3-0.45,0.62-0.94,0.85-1.52c0.25-0.63,0.37-1.31,0.37-2.18V34.06   c0-0.36,0.15-1.04,0.7-1.67c0.52-0.6,1.46-1.22,3.16-1.38c2.89-0.28,7.37-0.44,10.67-0.52l1.13-0.03v-0.01l0.22,0l0.02,0l0.02,0   l0.22,0v0.01l1.13,0.03c3.3,0.08,7.78,0.25,10.67,0.52c1.7,0.16,2.64,0.78,3.16,1.38c0.54,0.63,0.7,1.31,0.7,1.67v12.15   c0,0.87,0.13,1.55,0.37,2.18c0.23,0.58,0.55,1.07,0.85,1.52l0.03,0.04c0.11,0.16,0.22,0.33,0.33,0.5c0.07,0.11,0.14,0.22,0.21,0.32   l0,0l0,0c0.43,0.66,0.69,1.09,0.74,1.5c0.03,0.26,0.01,0.69-0.75,1.36c-1.17,1.04-1.62,2.74-1.8,4.15   c-0.18,1.44-0.11,2.9,0.01,3.84c0.31,6.65,1.03,22.55,1.4,33.36c0.47,13.57,0.7,15.76,2.13,22.18c1.1,4.97,3.73,7.66,6.15,10.15   l0.03,0.03c0.87,0.89,1.7,1.74,2.46,2.68c1.04,1.28,1.83,3.44,2.38,5.77c0.53,2.27,0.79,4.53,0.87,5.92v60.8h2.32v-60.86l0-0.03   c-0.08-1.5-0.36-3.92-0.93-6.35c-0.56-2.4-1.45-4.99-2.84-6.7c-0.83-1.02-1.73-1.94-2.58-2.82l-0.02-0.02   c-2.41-2.48-4.63-4.77-5.58-9.07c-1.38-6.2-1.61-8.22-2.08-21.76c-0.37-10.85-1.09-26.81-1.4-33.44l0-0.05l-0.01-0.05   c-0.11-0.78-0.17-2.05-0.02-3.29c0.16-1.29,0.53-2.25,1.04-2.7c1.18-1.05,1.66-2.19,1.51-3.38c-0.13-0.99-0.69-1.85-1.06-2.41   l-0.05-0.07c-0.07-0.11-0.13-0.2-0.19-0.3c-0.12-0.2-0.24-0.37-0.35-0.54l0,0c-0.33-0.5-0.52-0.8-0.66-1.14   c-0.12-0.31-0.21-0.7-0.21-1.32V34.06c0-0.89-0.34-2.12-1.27-3.19c-0.95-1.1-2.47-1.96-4.69-2.17c-2.65-0.25-6.55-0.41-9.7-0.5   l0-0.1l-1.18,0.02c-0.4,0.01-0.86,0.01-1.39,0.02C136.25,28.12,135.78,28.11,135.38,28.11z"></path>
	<path class="st25" d="M197.69,169.17c5.2-2.85,14.8-4.93,32.52-4.93c16.2,0,26.01,1.59,31.8,4.15c2.92,1.29,4.88,2.85,6.11,4.65   c1.23,1.81,1.66,3.74,1.66,5.65c0,6.53-0.75,15.5-4.04,23.84h-2.5c2.62-6.25,3.7-13.01,4.07-18.82c-4.36,4.6-19.09,7.99-36.58,7.99   c-17.53,0-32.29-3.4-36.61-8.02c0.3,5.82,1.24,12.59,3.71,18.85h-2.48c-3.09-8.34-3.67-17.32-3.67-23.84   c0-1.31,0.13-2.97,0.99-4.68C193.51,172.28,195.05,170.61,197.69,169.17z M193.98,178.19c4.17-4.68,19.03-8.15,36.73-8.15   c17.69,0,32.55,3.46,36.73,8.14c-0.07-1.36-0.42-2.65-1.24-3.84c-0.92-1.35-2.49-2.67-5.13-3.84c-5.32-2.35-14.72-3.95-30.86-3.95   c-17.65,0-26.75,2.09-31.4,4.65c-2.29,1.26-3.47,2.61-4.09,3.84C194.18,176.11,194.02,177.17,193.98,178.19z M266.29,180.87   c0,0.32-0.24,1.13-1.96,2.29c-1.63,1.1-4.15,2.19-7.46,3.13c-6.6,1.89-15.85,3.08-26.16,3.08c-10.31,0-19.56-1.2-26.16-3.08   c-3.31-0.95-5.83-2.03-7.46-3.13c-1.71-1.16-1.96-1.97-1.96-2.29c0-0.32,0.24-1.14,1.96-2.29c1.63-1.1,4.15-2.19,7.46-3.13   c6.6-1.88,15.85-3.08,26.16-3.08c10.31,0,19.56,1.2,26.16,3.08c3.32,0.95,5.83,2.03,7.46,3.13   C266.05,179.73,266.29,180.55,266.29,180.87z M239.97,180.27l-2.66-2.66l-5.33,5.33l2.66,2.66L239.97,180.27z M220.68,180.27   l2.67-2.66l5.33,5.33l-2.66,2.66L220.68,180.27z"></path>
</g>
<line class="st11" x1="2.04" y1="204.02" x2="370.63" y2="204.02"></line>
</svg>
