<?xml version="1.0" encoding="UTF-8"?>
<!-- Generator: Adobe Illustrator 27.0.0, SVG Export Plug-In . SVG Version: 6.00 Build 0)  -->
<svg xmlns="http://www.w3.org/2000/svg" xmlns:xlink="http://www.w3.org/1999/xlink" version="1.1" id="Layer_2" x="0px" y="0px" viewBox="0 0 372.45 300.74" style="enable-background:new 0 0 372.45 300.74;" xml:space="preserve">
<style type="text/css">
	.st0{clip-path:url(#SVGID_00000067227675240795012640000008384261346742946197_);}
	.st1{fill-rule:evenodd;clip-rule:evenodd;fill:#231F20;}
	.st2{fill:#231F20;}
	.st3{fill:none;stroke:#231F20;stroke-width:1.5;}
	.st4{fill:#FFFFFF;}
	.st5{fill:url(#SVGID_00000052081717106510123030000011992056534625300374_);}
	.st6{fill:#2E2A2B;}
	.st7{clip-path:url(#SVGID_00000176721715069273750240000006702693924657163915_);}
	.st8{clip-path:url(#SVGID_00000176750383074213250910000016097507225343808156_);}
	.st9{fill:url(#SVGID_00000129184185520154681860000013094554328106115515_);}
	.st10{fill:url(#SVGID_00000077317096098091121240000011247895041336541625_);}
	.st11{fill:none;stroke:#EC1D2B;stroke-width:3;stroke-miterlimit:10;}
	.st12{clip-path:url(#SVGID_00000090291460193708694050000003662812806876202943_);}
	.st13{fill:url(#SVGID_00000142882760547487411640000006370681571627922067_);}
	.st14{fill:#231F20;stroke:#231F20;stroke-width:1.5;}
	.st15{fill:url(#SVGID_00000101816939533271565060000002312850191869091996_);}
	.st16{clip-path:url(#SVGID_00000041297046763691230410000016327879782239211956_);}
	.st17{fill:url(#SVGID_00000122688906179446568500000015292555624545760690_);}
	.st18{clip-path:url(#SVGID_00000059279059936638785240000010440274590108543915_);}
	.st19{clip-path:url(#SVGID_00000117663736792014433970000003206972050160147362_);}
	.st20{fill:url(#SVGID_00000031173611096400561240000005671064913190882986_);}
	.st21{fill:url(#SVGID_00000072988546819250185670000001027866849676693945_);}
	.st22{fill-rule:evenodd;clip-rule:evenodd;}
	.st23{clip-path:url(#SVGID_00000134928799127304266070000000773604166914395040_);}
	.st24{fill:url(#SVGID_00000095316918206744773860000005690556798259042973_);}
	.st25{clip-path:url(#SVGID_00000176728959623358637800000007983302579100522427_);}
	.st26{clip-path:url(#SVGID_00000045605930494881769900000005511435344855941804_);}
	.st27{fill:none;}
	.st28{font-family:'Helvetica';}
	.st29{font-size:22px;}
	.st30{fill:url(#SVGID_00000075840899711205356850000011439024386972752533_);}
	.st31{fill:url(#SVGID_00000039105251969808737680000003899201548253899679_);}
	.st32{clip-path:url(#SVGID_00000111151319059096424150000007452732489235047560_);}
	.st33{fill:#272324;}
	.st34{fill:#2D292A;}
	.st35{fill:#2C2829;}
	.st36{clip-path:url(#SVGID_00000068650284999814791990000004309027046832476593_);}
	.st37{fill:none;stroke:#231F20;stroke-width:1.25;}
	.st38{clip-path:url(#SVGID_00000088117351406701061040000015896363235375716493_);}
</style>
<path class="st11" d="M319.19,298.82H53.7c-28.41,0-51.44-23.03-51.44-51.44V53.43c0-28.41,23.03-51.44,51.44-51.44h265.5  c28.41,0,51.44,23.03,51.44,51.44v193.95C370.63,275.79,347.6,298.82,319.19,298.82z"></path>
<rect x="58.82" y="227.05" class="st27" width="255.03" height="46.82"></rect>
<text transform="matrix(1 0 0 1 73.8326 242.8701)"><tspan x="0" y="0" class="st28 st29">Úsalo como sazonador </tspan><tspan x="-4.28" y="26.4" class="st28 st29">en tu mesa o al cocinar.</tspan></text>
<g>
	<path class="st1" d="M240.22,60.67l1.21,0.02c0.16,0,0.35,0.01,0.55,0.01c0.21,0,0.39-0.01,0.55-0.01l1.21-0.02v0.07   c1.13,0.04,2.37,0.1,3.28,0.18c1.06,0.1,1.86,0.52,2.38,1.13c0.5,0.57,0.69,1.24,0.69,1.77v4.93c0,0.18,0.02,0.24,0.03,0.27   c0.02,0.06,0.06,0.12,0.2,0.33l0,0c0.04,0.06,0.09,0.14,0.15,0.23c0.02,0.03,0.04,0.07,0.07,0.11c0.01,0.01,0.02,0.03,0.03,0.04   c0.14,0.22,0.46,0.69,0.54,1.27c0.1,0.77-0.23,1.46-0.85,2c0,0-0.03,0.04-0.07,0.14c-0.05,0.12-0.09,0.29-0.12,0.51   c-0.05,0.43-0.03,0.88,0.01,1.15l0.01,0.05l0,0.05c0.13,2.69,0.42,9.16,0.57,13.57c0.19,5.48,0.28,6.24,0.83,8.69   c0.34,1.53,1.1,2.33,2.08,3.33l0.01,0.02c0.34,0.35,0.72,0.74,1.08,1.18c0.67,0.83,1.06,2.02,1.29,3.01   c0.24,1.03,0.36,2.06,0.39,2.7l0,0.03v43.73c0,1.77-1.03,4.55-4.7,5.78c-1.34,0.45-3.21,0.66-4.96,0.77   c-1.76,0.11-3.51,0.1-4.7,0.06c-1.2,0.04-2.95,0.04-4.71-0.06c-1.75-0.1-3.62-0.32-4.96-0.77c-3.68-1.23-4.7-4-4.7-5.78v-43.73   l0-0.03c0.04-0.65,0.15-1.67,0.4-2.7c0.23-0.99,0.62-2.18,1.29-3.01c0.36-0.44,0.74-0.83,1.08-1.18l0.02-0.02   c0.97-1,1.74-1.8,2.08-3.33c0.54-2.45,0.64-3.21,0.83-8.69c0.15-4.41,0.44-10.88,0.57-13.57l0-0.05l0.01-0.05   c0.04-0.27,0.06-0.72,0-1.15c-0.03-0.21-0.07-0.38-0.11-0.51c-0.04-0.1-0.07-0.14-0.07-0.14c-0.61-0.54-0.94-1.23-0.84-2   c0.07-0.58,0.39-1.06,0.53-1.27c0.01-0.01,0.02-0.03,0.03-0.04c0.03-0.04,0.05-0.08,0.07-0.11c0.05-0.08,0.11-0.16,0.15-0.23l0,0   c0.14-0.21,0.18-0.27,0.2-0.33c0.01-0.03,0.04-0.09,0.04-0.27v-4.93c0-0.52,0.19-1.19,0.69-1.77c0.52-0.6,1.32-1.03,2.38-1.13   c0.9-0.09,2.15-0.15,3.28-0.18V60.67z M241.96,63.08l-0.51,0.01c-1.34,0.03-3.13,0.1-4.28,0.21c-0.53,0.05-0.73,0.23-0.8,0.31   c-0.08,0.09-0.1,0.18-0.11,0.2c0,0,0,0.01,0,0v4.93c0,0.43-0.06,0.8-0.2,1.15c-0.12,0.31-0.29,0.56-0.41,0.74   c-0.01,0.01-0.01,0.02-0.02,0.03c-0.04,0.07-0.08,0.13-0.13,0.19c-0.03,0.05-0.06,0.1-0.09,0.14l0,0c-0.04,0.06-0.07,0.11-0.1,0.16   c-0.01,0.02-0.02,0.03-0.03,0.05c0,0,0.01,0.01,0.01,0.01c0.68,0.61,0.89,1.52,0.97,2.13c0.08,0.64,0.05,1.28,0,1.71   c-0.13,2.71-0.42,9.13-0.57,13.49c-0.19,5.52-0.29,6.46-0.88,9.13c-0.49,2.22-1.68,3.44-2.66,4.45l-0.03,0.03   c-0.36,0.37-0.67,0.69-0.95,1.04c-0.31,0.39-0.61,1.13-0.82,2.05c-0.2,0.86-0.3,1.73-0.33,2.26v43.67c0,0.88,0.49,2.65,3.07,3.51   c1.03,0.34,2.63,0.55,4.35,0.65c1.69,0.1,3.38,0.1,4.52,0.06l0.04,0l0.04,0c1.14,0.04,2.83,0.04,4.52-0.06   c1.72-0.1,3.33-0.31,4.35-0.65c2.58-0.86,3.07-2.63,3.07-3.51v-43.67c-0.03-0.53-0.13-1.39-0.33-2.26   c-0.22-0.92-0.51-1.66-0.82-2.05c-0.29-0.35-0.6-0.67-0.95-1.04l-0.03-0.03c-0.99-1.01-2.17-2.23-2.67-4.45   c-0.59-2.67-0.69-3.61-0.88-9.13c-0.15-4.36-0.44-10.78-0.57-13.49c-0.05-0.43-0.08-1.07,0-1.71c0.08-0.61,0.29-1.53,0.97-2.13   c0,0,0.01-0.01,0.01-0.01c-0.01-0.01-0.02-0.03-0.03-0.05c-0.03-0.05-0.06-0.1-0.11-0.16l0,0c-0.03-0.04-0.06-0.09-0.09-0.14   c-0.04-0.07-0.08-0.13-0.13-0.19c-0.01-0.01-0.01-0.02-0.02-0.03c-0.12-0.18-0.29-0.43-0.41-0.74c-0.14-0.35-0.2-0.72-0.2-1.15   v-4.93c0,0,0,0,0,0c0-0.02-0.02-0.11-0.11-0.2c-0.07-0.09-0.27-0.26-0.8-0.31c-1.15-0.11-2.94-0.18-4.28-0.21l-0.51-0.01   c0,0,0,0,0,0l-0.02,0L241.96,63.08C241.96,63.08,241.96,63.08,241.96,63.08z"></path>
	<path class="st1" d="M251.28,155.82c-2.37,0.79-6.95,0.85-9.29,0.77c-2.34,0.08-6.92,0.02-9.29-0.77   c-3.13-1.04-3.89-3.32-3.89-4.64v-1.99c3.86,0.51,9.49,1.14,13.08,1.14c3.85,0,9.69-0.72,13.27-1.25v2.11   C255.16,152.5,254.41,154.78,251.28,155.82z M255.16,108.23h-26.35v-0.76c0.06-1.17,0.44-3.81,1.42-5.02   c0.32-0.4,0.68-0.76,1.03-1.12c0.98-1.01,1.97-2.02,2.39-3.9c0.57-2.56,0.66-3.41,0.85-8.91c0.15-4.4,0.44-10.87,0.57-13.56   c0.09-0.7,0.11-2.24-0.57-2.84c-0.79-0.7-0.41-1.28-0.08-1.77c0.03-0.04,0.06-0.09,0.08-0.13c0.05-0.08,0.09-0.15,0.14-0.21   c0.26-0.39,0.43-0.65,0.43-1.26v-4.93c0-0.51,0.4-1.55,1.99-1.71c1.19-0.11,3.02-0.18,4.36-0.21v-0.02c0.16,0,0.36,0.01,0.57,0.01   c0.22,0,0.41-0.01,0.57-0.01v0.02c1.34,0.03,3.17,0.1,4.36,0.21c1.59,0.15,1.99,1.2,1.99,1.71v4.93c0,0.61,0.17,0.87,0.43,1.26   c0.04,0.07,0.09,0.14,0.14,0.21c0.03,0.04,0.05,0.08,0.08,0.13c0.32,0.49,0.7,1.07-0.08,1.77c-0.68,0.61-0.66,2.15-0.57,2.84   c0.13,2.69,0.42,9.16,0.57,13.56c0.19,5.5,0.28,6.35,0.85,8.91c0.42,1.89,1.4,2.9,2.39,3.9c0.35,0.36,0.7,0.72,1.03,1.12   c0.99,1.21,1.36,3.85,1.42,5.02V108.23z"></path>
	<g>
		<g>
			<path class="st2" d="M246.98,118.9c1.74,0.35,3.41,0.89,5,1.58l-0.06-2.64l1.99-1.79c-0.76-0.33-1.54-0.64-2.33-0.9l-1.12,3.31     c-1.02-0.35-2.07-0.63-3.15-0.85L246.98,118.9z"></path>
		</g>
		<g>
			<path class="st2" d="M236.65,117.61c-1.07,0.22-2.12,0.51-3.15,0.86l-1.12-3.32c-0.79,0.27-1.57,0.57-2.33,0.91l1.99,1.78     l-0.05,2.64c1.59-0.7,3.27-1.23,5-1.58L236.65,117.61z"></path>
		</g>
		<g>
			<path class="st1" d="M233.69,118.09l-1.37-4.03c3.04-1,6.3-1.55,9.67-1.55c3.37,0,6.62,0.54,9.65,1.54l-1.37,4.03     c-2.61-0.85-5.39-1.31-8.28-1.31C239.1,116.77,236.3,117.23,233.69,118.09z M236.67,115.71c-0.02-0.09-0.05-0.16-0.08-0.23     c-0.04-0.07-0.09-0.13-0.15-0.18c-0.06-0.05-0.13-0.09-0.22-0.11c-0.09-0.02-0.18-0.03-0.29-0.03c0.09-0.09,0.15-0.19,0.18-0.3     c0.03-0.11,0.03-0.23-0.01-0.37c-0.06-0.23-0.16-0.4-0.33-0.49c-0.17-0.1-0.38-0.11-0.64-0.05l-1.16,0.27l-0.08,0.64l0.28-0.07     l0.52,2.25l1.19-0.27c0.15-0.03,0.29-0.09,0.39-0.15c0.11-0.06,0.21-0.14,0.27-0.23c0.07-0.09,0.11-0.19,0.14-0.31     C236.7,115.96,236.7,115.84,236.67,115.71z M234.91,114.59l0.14-0.03c0.23-0.05,0.37,0.01,0.41,0.19     c0.04,0.18-0.05,0.3-0.29,0.35l-0.14,0.03L234.91,114.59z M235.84,116.09c-0.07,0.07-0.2,0.12-0.38,0.16l-0.16,0.04l-0.14-0.6     l0.16-0.04c0.19-0.05,0.32-0.05,0.41-0.02c0.09,0.03,0.15,0.1,0.18,0.2C235.93,115.93,235.91,116.02,235.84,116.09z      M238.79,115.06l1.06,1.07l-0.94,0.11l-0.85-1.02l0.14,1.11l-0.75,0.09l-0.28-2.29l-0.29,0.04l0.15-0.62l1.23-0.15     c0.17-0.02,0.31-0.02,0.43,0.02c0.13,0.03,0.23,0.09,0.32,0.16c0.09,0.07,0.16,0.16,0.21,0.26c0.05,0.1,0.09,0.21,0.1,0.33     c0.03,0.22,0,0.41-0.09,0.56C239.14,114.88,238.99,114.99,238.79,115.06z M238.14,114.72c0.15-0.02,0.25-0.06,0.33-0.14     c0.07-0.07,0.1-0.16,0.09-0.28c-0.02-0.11-0.07-0.2-0.15-0.25c-0.08-0.05-0.2-0.07-0.35-0.05l-0.14,0.02l0.09,0.72L238.14,114.72     z M242.03,113.16l-1.1,0.01l-0.22,0.6h0.28l-0.85,2.33l0.81-0.01l0.16-0.51l1.08-0.02l0.18,0.51l0.81-0.01L242.03,113.16z      M241.3,115l0.33-0.97l0.35,0.96L241.3,115z M246.49,114.76l-1.49-0.16l-0.06,0.57l0.62,0.07c-0.02,0.09-0.06,0.15-0.1,0.21     c-0.05,0.06-0.1,0.1-0.15,0.13c-0.06,0.03-0.13,0.05-0.19,0.06c-0.07,0.01-0.14,0.01-0.22,0c-0.12-0.01-0.23-0.05-0.32-0.1     c-0.09-0.05-0.16-0.12-0.22-0.2c-0.06-0.09-0.09-0.18-0.11-0.29c-0.02-0.11-0.02-0.22-0.01-0.35c0.02-0.14,0.04-0.26,0.1-0.36     c0.05-0.11,0.11-0.19,0.18-0.27c0.07-0.07,0.16-0.12,0.26-0.15c0.1-0.03,0.2-0.04,0.31-0.03c0.14,0.01,0.25,0.06,0.35,0.14     c0.1,0.08,0.17,0.2,0.22,0.37l0.74-0.22c-0.1-0.29-0.26-0.51-0.48-0.66c-0.21-0.15-0.47-0.24-0.77-0.28     c-0.23-0.02-0.45-0.01-0.65,0.05c-0.19,0.06-0.37,0.14-0.52,0.26c-0.15,0.12-0.27,0.27-0.36,0.45c-0.09,0.18-0.15,0.38-0.18,0.61     c-0.02,0.23-0.01,0.44,0.05,0.64c0.06,0.2,0.14,0.37,0.26,0.52c0.12,0.15,0.27,0.27,0.44,0.36c0.18,0.09,0.37,0.15,0.6,0.18     c0.17,0.02,0.32,0.01,0.48-0.01c0.15-0.03,0.29-0.07,0.43-0.14c0.14-0.06,0.25-0.15,0.36-0.26c0.1-0.11,0.19-0.23,0.26-0.38     c0.05-0.1,0.09-0.22,0.11-0.34C246.45,115.05,246.47,114.91,246.49,114.76z M248.53,115.19l1.46,0.35     c-0.04,0.15-0.07,0.28-0.11,0.4c-0.04,0.12-0.1,0.23-0.16,0.32c-0.09,0.14-0.19,0.25-0.31,0.34c-0.12,0.09-0.24,0.16-0.39,0.21     c-0.14,0.05-0.29,0.07-0.44,0.08c-0.15,0.01-0.31-0.01-0.47-0.05c-0.22-0.05-0.41-0.14-0.58-0.25c-0.16-0.11-0.29-0.26-0.4-0.42     c-0.1-0.16-0.16-0.35-0.19-0.55c-0.03-0.2-0.02-0.41,0.03-0.64c0.05-0.22,0.14-0.41,0.25-0.58c0.11-0.16,0.25-0.3,0.41-0.4     c0.17-0.1,0.35-0.16,0.54-0.19c0.21-0.03,0.42-0.02,0.65,0.04c0.29,0.07,0.54,0.19,0.73,0.37c0.19,0.18,0.32,0.42,0.39,0.72     l-0.77,0.12c-0.03-0.17-0.09-0.3-0.18-0.4c-0.08-0.09-0.2-0.15-0.33-0.19c-0.11-0.03-0.22-0.03-0.32-0.01     c-0.1,0.02-0.19,0.06-0.27,0.12c-0.08,0.06-0.15,0.14-0.22,0.24c-0.06,0.1-0.11,0.22-0.14,0.35c-0.03,0.12-0.04,0.23-0.03,0.35     c0,0.11,0.03,0.21,0.08,0.3c0.04,0.09,0.11,0.16,0.19,0.23c0.08,0.06,0.19,0.11,0.31,0.14c0.07,0.02,0.14,0.03,0.22,0.03     c0.07,0,0.14-0.01,0.2-0.03c0.06-0.02,0.12-0.06,0.17-0.11c0.05-0.05,0.09-0.11,0.12-0.19l-0.61-0.14L248.53,115.19z M250.79,115     c0.18,0,0.32-0.14,0.32-0.31c0-0.18-0.14-0.31-0.32-0.31c-0.18,0-0.32,0.14-0.32,0.31C250.47,114.87,250.62,115,250.79,115z      M250.8,114.94c-0.14,0-0.24-0.11-0.24-0.25c0-0.14,0.1-0.25,0.24-0.24c0.14,0,0.24,0.11,0.24,0.25     C251.03,114.83,250.93,114.94,250.8,114.94z M250.67,114.85h0.07v-0.12h0.03c0.04,0,0.06,0.02,0.06,0.05     c0.01,0.03,0.01,0.06,0.02,0.07h0.08c0-0.01-0.01-0.03-0.02-0.08c-0.01-0.04-0.03-0.06-0.06-0.07v-0.01     c0.03-0.01,0.06-0.04,0.06-0.07c0-0.03-0.01-0.06-0.03-0.07c-0.02-0.01-0.05-0.02-0.11-0.02c-0.05,0-0.09,0.01-0.12,0.01V114.85z      M250.78,114.67h-0.03v-0.09c0-0.01,0.02-0.01,0.04-0.01c0.04,0,0.07,0.02,0.07,0.05C250.85,114.66,250.82,114.67,250.78,114.67z     "></path>
		</g>
		
			<linearGradient id="SVGID_00000068673643778016226680000017394844197263045821_" gradientUnits="userSpaceOnUse" x1="248.4488" y1="-1279.5775" x2="248.5348" y2="-1279.5775" gradientTransform="matrix(1 0 0 -1 0 -1160.448)">
			<stop offset="0" style="stop-color:#ED1C24"></stop>
			<stop offset="0.2361" style="stop-color:#E91C24"></stop>
			<stop offset="0.4038" style="stop-color:#E11B22"></stop>
			<stop offset="0.5501" style="stop-color:#D41920"></stop>
			<stop offset="0.6844" style="stop-color:#C3161D"></stop>
			<stop offset="0.8103" style="stop-color:#AD1116"></stop>
			<stop offset="0.9285" style="stop-color:#92080B"></stop>
			<stop offset="1" style="stop-color:#810101"></stop>
		</linearGradient>
		<path style="fill:url(#SVGID_00000068673643778016226680000017394844197263045821_);" d="M248.45,119.12    c0.03,0.01,0.06,0.01,0.08,0.02v-0.01C248.51,119.12,248.48,119.12,248.45,119.12z"></path>
	</g>
	<path class="st1" d="M186.44,30.88l-1.59-1.43c-0.95-0.85-2.2-1.36-3.57-1.36c-2.96,0-5.36,2.4-5.36,5.36   c0,0.3,0.03,0.59,0.07,0.88l0.33,2l-1.92,0.65c-2.12,0.72-3.65,2.72-3.65,5.08c0,1.37,0.51,2.62,1.37,3.57l1.43,1.59l-1.43,1.59   c-0.85,0.95-1.37,2.2-1.37,3.57c0,2.96,2.4,5.36,5.36,5.36c0.3,0,0.6-0.02,0.88-0.07l2-0.33l0.65,1.92   c0.72,2.12,2.72,3.65,5.08,3.65c1.37,0,2.63-0.51,3.57-1.36l1.59-1.43l1.59,1.43c0.95,0.85,2.2,1.36,3.57,1.36   c2.96,0,5.36-2.4,5.36-5.36c0-0.3-0.03-0.59-0.07-0.88l-0.33-2l1.92-0.65c2.12-0.72,3.65-2.72,3.65-5.08   c0-1.37-0.51-2.62-1.37-3.57l-1.43-1.59l1.43-1.59c0.85-0.95,1.37-2.2,1.37-3.57c0-2.96-2.4-5.36-5.36-5.36   c-0.3,0-0.59,0.02-0.88,0.07l-2,0.33l-0.65-1.92c-0.72-2.12-2.72-3.65-5.08-3.65c-1.37,0-2.63,0.51-3.57,1.36L186.44,30.88z    M186.44,27.68c-1.37-1.23-3.18-1.97-5.17-1.97c-4.28,0-7.75,3.47-7.75,7.75c0,0.43,0.04,0.85,0.1,1.27   c-3.06,1.03-5.27,3.93-5.27,7.35c0,1.99,0.75,3.8,1.97,5.17c-1.23,1.37-1.97,3.18-1.97,5.17c0,4.28,3.47,7.75,7.75,7.75   c0.43,0,0.86-0.04,1.27-0.1c1.04,3.06,3.93,5.27,7.35,5.27c1.54,0,2.98-0.45,4.19-1.23c0.21,1.02,0.31,2.19,0.3,3.49   c-0.01,2.09-0.3,4.4-0.75,6.73c-0.85,4.41-2.26,8.78-3.37,11.62h-15.82l5.65,16.53l-11.48,54.76h46.82l-9.72-54.76l5.65-16.53   h-18.55c1.08-2.93,2.35-7.02,3.16-11.17c0.47-2.42,0.78-4.89,0.8-7.17c0.01-1.1-0.06-2.18-0.21-3.19c1.09,0.59,2.34,0.92,3.67,0.92   c4.28,0,7.75-3.47,7.75-7.75c0-0.43-0.04-0.85-0.1-1.27c3.06-1.03,5.27-3.93,5.27-7.35c0-1.99-0.75-3.8-1.97-5.17   c1.23-1.37,1.97-3.18,1.97-5.17c0-4.28-3.47-7.75-7.75-7.75c-0.43,0-0.86,0.04-1.27,0.1c-1.04-3.06-3.93-5.27-7.35-5.27   C189.62,25.7,187.81,26.45,186.44,27.68z M195.92,45.51c0,4.28-3.47,7.75-7.75,7.75c-4.28,0-7.75-3.47-7.75-7.75   s3.47-7.75,7.75-7.75C192.45,37.76,195.92,41.23,195.92,45.51z M172.61,88.32l4.49,13.11h21.27l4.49-13.11H172.61z M177.08,103.82   l-10.69,51.01h41.03l-9.05-51.01H177.08z"></path>
	<path class="st1" d="M137.88,107.86h2.31v-2.39h-7.01v2.39h2.31v1.43h-7.13c-1.69,0-3.07,1.37-3.07,3.07   c0,1.69,1.37,3.07,3.07,3.07h0.48c-0.57,0.56-0.92,1.33-0.92,2.19c0,1.69,1.37,3.07,3.07,3.07h0.44v8.01h-4.13l-2.58,22.46   c-0.41,3.55,2.37,6.65,5.93,6.65h12.16c3.53,0,6.29-3.04,5.94-6.56l-2.22-22.56h-3.71v-8.01h0.44c1.69,0,3.07-1.37,3.07-3.07   c0-0.87-0.36-1.65-0.94-2.21c1.52-0.18,2.7-1.48,2.7-3.05c0-1.69-1.37-3.07-3.07-3.07h-7.13V107.86z M133.82,122.2h6.61v5.74h-6.61   V122.2z"></path>
	<path class="st1" d="M313.08,157.51H59.81v-2.39h253.27V157.51z"></path>
	<path class="st1" d="M257.15,156.62l-45.9,45.9h3.38l45.9-45.9H257.15z"></path>
	<path class="st1" d="M232.73,156.62l-45.9,45.9h3.38l45.9-45.9H232.73z"></path>
	<path class="st1" d="M88.38,155.12l-0.1,0.1l47.28,47.28h3.38l-47.39-47.39H88.38z"></path>
	<path class="st1" d="M283.06,155.12l-47.39,47.39h3.38l47.28-47.28l-0.11-0.11H283.06z"></path>
	<path class="st1" d="M161.43,155.12l47.39,47.39h3.38l-47.39-47.39H161.43z"></path>
	<path class="st1" d="M160.96,155.12l-36.06,36.06l1.69,1.69l37.75-37.75H160.96z"></path>
	<path class="st1" d="M185.84,155.12l47.39,47.39h3.38l-47.39-47.39H185.84z"></path>
	<path class="st1" d="M185.38,155.12l-47.39,47.39h3.38l47.39-47.39H185.38z"></path>
	<path class="st1" d="M210.26,155.12l37.75,37.75l1.69-1.69l-36.06-36.06H210.26z"></path>
	<path class="st1" d="M209.8,155.12l-47.39,47.39h3.38l47.39-47.39H209.8z"></path>
	<path class="st1" d="M234.68,155.12l25.54,25.54l1.69-1.69l-23.85-23.85H234.68z"></path>
	<path class="st1" d="M259.1,155.12l13.33,13.33l1.69-1.69l-11.64-11.64H259.1z"></path>
	<path class="st1" d="M136.55,155.12l-23.85,23.85l1.69,1.69l25.54-25.54H136.55z"></path>
	<path class="st1" d="M137.01,155.12l47.39,47.39h3.38l-47.39-47.39H137.01z"></path>
	<path class="st1" d="M112.13,155.12l-11.64,11.64l1.69,1.69l13.33-13.33H112.13z"></path>
	<path class="st1" d="M112.59,155.12l47.39,47.39h3.38l-47.39-47.39H112.59z"></path>
	<path class="st1" d="M59.84,155.12v32.5h18.49v14.89h20.71v-14.89h24.25l-31.95-32.5H59.84z M283.12,155.12l-32.22,32.5h21.75   v14.89h20.71v-14.89h19.69v-32.73h-0.57v0.23H283.12z"></path>
</g>
<line class="st11" x1="2.04" y1="204.02" x2="370.63" y2="204.02"></line>
</svg>
