<?xml version="1.0" encoding="UTF-8"?>
<!-- Generator: Adobe Illustrator 27.0.0, SVG Export Plug-In . SVG Version: 6.00 Build 0)  -->
<svg xmlns="http://www.w3.org/2000/svg" xmlns:xlink="http://www.w3.org/1999/xlink" version="1.1" id="Layer_2" x="0px" y="0px" viewBox="0 0 372.45 300.74" style="enable-background:new 0 0 372.45 300.74;" xml:space="preserve">
<style type="text/css">
	.st0{clip-path:url(#SVGID_00000134213921195948109860000008693551415551558554_);}
	.st1{fill-rule:evenodd;clip-rule:evenodd;fill:#231F20;}
	.st2{fill:#231F20;}
	.st3{fill:none;stroke:#231F20;stroke-width:1.5;}
	.st4{fill:#FFFFFF;}
	.st5{fill:url(#SVGID_00000059300355230330206260000011483071585104771219_);}
	.st6{fill:#2E2A2B;}
	.st7{clip-path:url(#SVGID_00000030468643399528079750000016281865432393981337_);}
	.st8{clip-path:url(#SVGID_00000176758512451482085190000000796039893795069861_);}
	.st9{fill:url(#SVGID_00000048503403566822419170000003480033363203327891_);}
	.st10{fill:url(#SVGID_00000114786224529200122200000007761527087917391038_);}
	.st11{fill:none;stroke:#EC1D2B;stroke-width:3;stroke-miterlimit:10;}
	.st12{clip-path:url(#SVGID_00000054241024847304315080000002632273601826935684_);}
	.st13{fill:url(#SVGID_00000152253350777863361280000014863577049488156326_);}
	.st14{fill:#231F20;stroke:#231F20;stroke-width:1.5;}
	.st15{fill:url(#SVGID_00000119836775565493074130000015533049011226814115_);}
	.st16{clip-path:url(#SVGID_00000105388825402925935110000000960352104479569548_);}
	.st17{fill:url(#SVGID_00000134247021964860758940000004613237604652925323_);}
	.st18{fill:none;}
	.st19{font-family:'Helvetica';}
	.st20{font-size:22px;}
	.st21{clip-path:url(#SVGID_00000155860852187988580370000010203652026458157699_);}
	.st22{clip-path:url(#SVGID_00000140009038922950584330000014330105453472101021_);}
	.st23{fill:url(#SVGID_00000142170531694482518410000004619701425456769463_);}
	.st24{fill:url(#SVGID_00000121260758125380039970000003856412873179987610_);}
	.st25{fill-rule:evenodd;clip-rule:evenodd;}
	.st26{clip-path:url(#SVGID_00000000183505569047714590000010708001271719132093_);}
	.st27{fill:url(#SVGID_00000167377009757602341290000007637728974463596464_);}
	.st28{clip-path:url(#SVGID_00000107556456005540798930000014523858408677445519_);}
	.st29{clip-path:url(#SVGID_00000052064151906941755950000001174299548494118060_);}
	.st30{fill:url(#SVGID_00000183945598530510462020000015683469307774767496_);}
	.st31{fill:url(#SVGID_00000000914198340067953640000017129745328011402128_);}
	.st32{clip-path:url(#SVGID_00000008838897578509607790000012035015900942672831_);}
	.st33{fill:#272324;}
	.st34{fill:#2D292A;}
	.st35{fill:#2C2829;}
	.st36{clip-path:url(#SVGID_00000124873115209063829810000005774586276225376692_);}
	.st37{fill:none;stroke:#231F20;stroke-width:1.25;}
	.st38{clip-path:url(#SVGID_00000142164032559072622680000008179181469977973900_);}
</style>
<path class="st11" d="M319.19,298.82H53.7c-28.41,0-51.44-23.03-51.44-51.44V53.43c0-28.41,23.03-51.44,51.44-51.44h265.5  c28.41,0,51.44,23.03,51.44,51.44v193.95C370.63,275.79,347.6,298.82,319.19,298.82z"></path>
<rect x="21.52" y="229.36" class="st18" width="329.86" height="46.82"></rect>
<text transform="matrix(1 0 0 1 32.9837 245.1783)"><tspan x="0" y="0" class="st19 st20">Utiliza el vinagre como aderezo </tspan><tspan x="36.68" y="26.4" class="st19 st20">en tus recetas favoritas. </tspan></text>
<g>
	<g>
		<defs>
			<rect id="SVGID_00000139984041471355081990000001200505460804513449_" x="14.81" y="15.47" width="343.28" height="187.1"></rect>
		</defs>
		<clipPath id="SVGID_00000073681396530570216260000016698988522713900161_">
			<use xlink:href="#SVGID_00000139984041471355081990000001200505460804513449_" style="overflow:visible;"></use>
		</clipPath>
		<g style="clip-path:url(#SVGID_00000073681396530570216260000016698988522713900161_);">
			<path class="st1" d="M66.75,32.08c-2.42,0.81-4,2.78-4.69,4.37l-0.27,0.63l-0.68,0.06c-2.68,0.24-4.1,1.28-4.85,2.34     c-0.78,1.1-0.94,2.36-0.86,3.14l0.09,0.8l-0.72,0.36l0,0l0,0l0,0l0,0l-0.02,0.01c-0.02,0.01-0.04,0.02-0.08,0.04     c-0.07,0.04-0.18,0.09-0.31,0.17c-0.27,0.15-0.65,0.37-1.09,0.65c-0.89,0.57-2,1.36-2.93,2.29l-0.82-0.82l0.78,0.86     c-4.87,4.38-3.66,9.91-2.46,12.1l0.45,0.83l-0.72,0.61c-9.81,8.26-8.28,17.47-6.48,20.87l0.29,0.55l-0.29,0.55     c-6.93,12.88-6.4,22.81-2.74,31.52c2.8,6.66,7.41,12.59,12.15,18.62c-2.25-7.06-3.62-13.52-4.19-19.5     c-1.09-0.53-2.07-1.46-2.85-2.33c-1.03-1.16-1.89-2.44-2.37-3.29l2.01-1.15c0.42,0.73,1.18,1.88,2.09,2.9     c0.3,0.34,0.6,0.64,0.89,0.91c-0.48-9.1,0.95-17.05,3.98-24.29c0.08-0.18,0.16-0.37,0.23-0.55c-0.69-0.41-1.27-0.99-1.75-1.62     c-0.67-0.89-1.18-1.96-1.58-3.04c-0.79-2.16-1.18-4.53-1.3-6.07l2.31-0.18c0.11,1.39,0.46,3.54,1.17,5.45     c0.35,0.95,0.77,1.8,1.26,2.45c0.28,0.38,0.57,0.67,0.87,0.88C54.8,75.88,60,69.34,66.41,63.1c-1.24-1.98-1.91-4.34-2.26-6.47     c-0.38-2.36-0.38-4.55-0.26-5.88l2.31,0.21c-0.1,1.15-0.11,3.14,0.24,5.3c0.29,1.81,0.82,3.66,1.69,5.2     c4.17-3.9,8.79-7.7,13.78-11.52l1.41,1.84c-8.88,6.81-16.48,13.45-22.31,20.6c1.83,0.14,4.03-0.27,6.27-0.98     c2.92-0.93,5.68-2.31,7.31-3.29l1.19,1.99c-1.75,1.05-4.67,2.51-7.8,3.51c-2.8,0.89-5.96,1.48-8.62,0.87     c-2.95,3.9-5.37,7.97-7.19,12.31c-1.66,3.96-2.82,8.17-3.42,12.71c1.59-1.07,3.12-2.56,4.48-4.17c1.84-2.17,3.28-4.43,4.04-5.83     l2.04,1.1c-0.82,1.53-2.36,3.93-4.31,6.23c-1.82,2.14-4.07,4.29-6.54,5.53c-0.62,8,0.46,17.03,3.59,27.51     c-0.12-9.31,2.49-16.66,6.21-22.25c4.89-7.33,11.65-11.57,16.48-13.23c4.82-2.38,9.91-1.63,12.9-0.61     c-0.04-0.97-0.28-1.77-0.63-2.45c-0.53-1.01-1.36-1.82-2.39-2.44c-1.65-1.01-3.72-1.5-5.44-1.66c-0.46-0.01-0.92-0.03-1.37-0.07     l0.08-2.32c0.43,0,0.91,0.02,1.42,0.07c7.2,0.17,16.54-2.13,20.53-3.39c2.65-0.84,4.38-2.19,5.49-3.76     c1.11-1.58,1.64-3.47,1.74-5.44c0.2-3.99-1.38-8.1-3.01-10.13l-0.37-0.46l0.15-0.57c1.98-7.25-0.21-13.06-3.54-16.92     c-1.67-1.94-3.62-3.37-5.46-4.24c-1.87-0.88-3.48-1.11-4.53-0.86l-0.96,0.23l-0.38-0.91c-1.19-2.85-3.14-3.95-5.11-4.27     c-2.05-0.33-4.18,0.21-5.5,0.82l-0.62,0.28l-0.55-0.4C72.55,31.53,69.11,31.3,66.75,32.08z M74.95,96.77     c-4.36,1.64-10.37,5.53-14.77,12.13c-2.53,3.79-4.53,8.5-5.38,14.22c1.02-1.95,2.22-3.73,3.52-5.33     c3.63-4.5,7.98-7.64,10.93-9.17l1.07,2.06c-2.68,1.4-6.78,4.34-10.19,8.57c-2.66,3.3-4.87,7.34-5.72,12.01     c0.05,1.13,0.14,2.29,0.28,3.49c0.53-1.21,1.17-2.44,1.9-3.59c1.64-2.57,4.02-5.1,7.11-5.1c2.51,0,4.53,0.45,6.08,0.79l0,0     c0.42,0.09,0.8,0.18,1.15,0.24c0.85,0.16,1.47,0.21,1.98,0.12c0.47-0.08,0.94-0.3,1.46-0.82c0.86-0.86,0.9-1.5,0.83-1.89     c-0.09-0.47-0.42-0.88-0.71-1.1l-1.65-1.24l1.92-0.77c1.01-0.4,2.25-1.19,2.86-2.18c0.29-0.46,0.43-0.94,0.38-1.44     c-0.05-0.51-0.29-1.17-0.99-1.98l-0.78-0.91l0.94-0.75c1.01-0.81,2.15-2.18,2.46-3.66c0.15-0.71,0.12-1.44-0.2-2.18     c-0.33-0.75-0.98-1.59-2.2-2.44l-1.13-0.79l0.98-0.98c0.45-0.45,0.98-1.4,0.85-2.68C77.8,100.24,77.11,98.63,74.95,96.77z      M54.24,139.38l1.12,0.31c0.54-1.95,1.65-4.88,3.19-7.29c1.59-2.5,3.38-4.03,5.15-4.03c2.23,0,3.93,0.37,5.46,0.71l0,0l0,0l0,0     l0,0c0.45,0.1,0.89,0.2,1.33,0.28c0.92,0.18,1.87,0.29,2.81,0.13c0.99-0.17,1.87-0.63,2.7-1.46c1.3-1.31,1.71-2.69,1.47-3.96     c-0.09-0.45-0.25-0.86-0.45-1.22c0.94-0.57,1.91-1.37,2.56-2.39c0.51-0.81,0.83-1.79,0.73-2.89c-0.07-0.79-0.36-1.58-0.86-2.37     c1.03-1.04,2.08-2.52,2.45-4.24c0.24-1.13,0.19-2.36-0.34-3.59c-0.41-0.94-1.09-1.84-2.05-2.68c0.52-0.91,0.87-2.11,0.73-3.52     c-0.17-1.68-1.03-3.5-2.89-5.37c4.48-1.5,9.01-0.24,10.85,0.68l1.44,0.72l0.23-1.59c0.3-2.1-0.01-3.89-0.78-5.37     c-0.77-1.47-1.94-2.56-3.24-3.35l-0.05-0.03c5.93-0.69,11.82-2.21,14.77-3.14c3.08-0.97,5.26-2.61,6.69-4.64     c1.42-2.02,2.04-4.35,2.16-6.66c0.21-4.28-1.33-8.65-3.16-11.22c1.94-7.83-0.48-14.21-4.16-18.48c-1.88-2.18-4.08-3.81-6.23-4.82     c-1.74-0.82-3.53-1.27-5.1-1.16c-1.56-3.06-4.01-4.44-6.5-4.84c-2.3-0.37-4.59,0.11-6.21,0.74c-4.83-3.32-8.87-3.8-12.01-2.76     c-2.88,0.96-4.79,3.13-5.79,5.02c-2.88,0.41-4.76,1.66-5.87,3.23c-0.93,1.31-1.28,2.76-1.31,3.93c-0.28,0.16-0.64,0.37-1.04,0.63     c-0.96,0.61-2.21,1.5-3.3,2.59c-5.38,4.86-4.64,10.92-3.33,14.06c-9.57,8.52-8.66,18.12-6.63,22.58     c-6.96,13.23-6.44,23.75-2.55,32.99c3,7.12,8.01,13.5,12.9,19.72c1.44,1.83,2.86,3.64,4.22,5.45L54.24,139.38z M261.71,93.76     h-47.5l-10.27,19.15l0.35,0.18c8.55,4.4,13.01,14.6,10.79,25.03c-0.59,2.79-1.81,5.66-3.62,8.51l-7.79,12.29     c-6,9.46-17.37,13.21-26.43,8.82c-1.92-0.93-3.6-2.19-5.05-3.67l-0.1-0.1l-0.14-0.01c-2.06-0.22-4.09-0.77-6.01-1.7     c-9.06-4.4-13.14-15.65-9.41-26.22l4.84-13.72c1.13-3.19,2.63-5.92,4.45-8.11c6.82-8.2,17.6-11,26.34-7l0.33,0.15l7.29-13.6     h-91.82v13.95c0,42.45,34.41,76.87,76.87,76.87c42.45,0,76.87-34.41,76.87-76.87V93.76z M217.13,88.29l-1.69,3.15h48.58v16.27     c0,43.73-35.45,79.19-79.19,79.19c-43.73,0-79.19-35.45-79.19-79.19V91.44h95.38l4.67-8.7l-0.84-0.41     c-0.55-0.27-0.78-0.93-0.52-1.48l0,0l20.39-39.36l0-0.01c2.02-4.16,7.05-5.9,11.21-3.88c4.16,2.02,5.9,7.05,3.88,11.21l0,0     l-20.39,39.36l0,0.01c-0.27,0.55-0.93,0.78-1.49,0.51L217.13,88.29z M207.7,83.71l-4.14,7.73h9.37l2.21-4.12L207.7,83.71z      M211.69,93.76h-9.37l-7.86,14.67l0.3,0.19c1.06,0.69,2.04,1.48,2.94,2.35l0.09,0.09l0.13,0.02c1.24,0.17,2.47,0.46,3.67,0.86     l0.31,0.1L211.69,93.76z M296.36,150.39c-0.6-10.38-6.2-15.08-8.76-16.13l0.88-2.15c2.39,0.98,6.05,3.93,8.29,9.38     c0.48-1.9,1.46-3.88,3.02-5.54c2.37-2.53,6.01-4.26,11.06-3.87l0.95,0.07l0.11,0.94c0.32,2.63,0.38,6.35-1.63,9.12     c-2.03,2.81-5.86,4.24-12.27,3.26c0.27,1.2,0.47,2.49,0.59,3.87c3.88-1.86,9.22-3.59,14.78-3.91c6.99-0.41,14.49,1.41,19.76,8.18     c6.5,8.35,6.6,17.63,4.07,26.21c-2.51,8.54-7.65,16.51-11.79,22.43c-0.13,0.18-0.25,0.36-0.37,0.53h-2.85     c0.43-0.59,0.87-1.21,1.33-1.86c4.13-5.9,9.07-13.6,11.47-21.75c2.39-8.12,2.22-16.55-3.68-24.13     c-4.66-5.98-11.29-7.67-17.8-7.29c-5.66,0.33-11.11,2.23-14.79,4.13c0,0.13,0,0.25,0,0.38h-0.72c-0.3,0.17-0.58,0.33-0.86,0.49     l-0.52,0.31l-0.55-0.24c-9.23-4.08-14.23-5.04-18.14-5.04c-5.58,0-11.61,2.79-15.8,7.51c-4.17,4.69-6.49,11.25-4.78,18.82     c1.77,7.79,6.22,17.25,11.28,25.05c0.82,1.26,1.65,2.48,2.48,3.63h-2.84c-0.54-0.77-1.07-1.56-1.59-2.37     c-5.15-7.95-9.75-17.66-11.59-25.8c-1.9-8.36,0.69-15.67,5.3-20.87c4.59-5.17,11.23-8.29,17.54-8.29     C282.21,145.45,287.4,146.49,296.36,150.39z M308.4,140.86c-1.28,1.76-3.93,3.17-9.61,2.39c0.23-1.84,1.07-3.99,2.68-5.71     c1.73-1.85,4.38-3.25,8.22-3.18C309.88,136.65,309.67,139.11,308.4,140.86z M177.1,164.22l-0.03,0     c-0.18,0.03-0.37,0.05-0.55,0.08c0.16,0.11,0.33,0.22,0.49,0.32L177.1,164.22z M209.58,145.44c1.66-2.62,2.78-5.24,3.32-7.79     c2.03-9.54-2.04-18.93-9.99-22.79c-0.56-0.27-1.12-0.5-1.69-0.71l-1.07-0.39l0.61,0.96c3.18,4.98,4.4,11.4,3.01,17.9     c-0.6,2.79-1.81,5.66-3.62,8.51l-7.79,12.29c-3.79,5.99-9.75,9.68-15.9,10.48l-1.02,0.13l0.86,0.57c0.6,0.4,1.23,0.79,1.91,1.12     c8.1,3.93,18.22,0.44,23.58-8.01L209.58,145.44z M173.02,161.71l0.11,0.13l0.17,0.01c6.51,0.27,13.19-3.27,17.2-9.6l7.79-12.29     c1.66-2.62,2.78-5.24,3.32-7.79c1.52-7.13-0.37-14.17-4.74-18.89l-0.1-0.11l-0.15-0.01c-6.41-0.52-13.11,2.34-17.78,7.95     c-1.67,2-3.03,4.5-4.06,7.43l-4.84,13.72C167.43,149.33,168.78,156.77,173.02,161.71z M206.82,80.81l19.92-38.36l0,0     c1.49-3.06,5.18-4.33,8.24-2.85c3.06,1.49,4.34,5.18,2.85,8.24l0,0.01L217.91,86.2L206.82,80.81z M191.62,109.38     c-7.94-3.86-17.84-1.26-24.08,6.24c-1.67,2-3.03,4.5-4.06,7.43l-4.84,13.72c-3.33,9.43,0.19,19.55,8.29,23.48     c0.68,0.33,1.37,0.59,2.06,0.81l0.98,0.32l-0.53-0.88c-3.18-5.33-3.96-12.29-1.6-18.98l4.85-13.72c1.12-3.19,2.62-5.92,4.45-8.11     c4.25-5.11,10.05-8.12,15.93-8.7l1.13-0.11l-0.97-0.6C192.71,109.96,192.18,109.65,191.62,109.38z M283.48,56.23v1.16v1.16     c4.23,0,7.35,3.5,7.35,8.15h1.16h1.16c0-4.61,3.49-8.15,7.35-8.15v-1.16v-1.16c-3.89,0-7.35-3.71-7.35-8.09h-1.16h-1.16     C290.82,52.49,287.69,56.23,283.48,56.23z M59.26,169.11v1.16v1.16c4.23,0,7.35,3.5,7.35,8.15h1.16h1.16     c0-4.61,3.49-8.15,7.35-8.15v-1.16v-1.16c-3.89,0-7.35-3.71-7.35-8.09h-1.16h-1.16C66.61,165.37,63.47,169.11,59.26,169.11z"></path>
		</g>
	</g>
</g>
<line class="st11" x1="2.04" y1="204.02" x2="370.63" y2="204.02"></line>
</svg>
