<?xml version="1.0" encoding="UTF-8"?>
<!-- Generator: Adobe Illustrator 27.0.0, SVG Export Plug-In . SVG Version: 6.00 Build 0)  -->
<svg xmlns="http://www.w3.org/2000/svg" xmlns:xlink="http://www.w3.org/1999/xlink" version="1.1" id="Layer_2" x="0px" y="0px" viewBox="0 0 372.45 300.74" style="enable-background:new 0 0 372.45 300.74;" xml:space="preserve">
<style type="text/css">
	.st0{clip-path:url(#SVGID_00000031900128643716379750000010165374216313920958_);}
	.st1{fill-rule:evenodd;clip-rule:evenodd;fill:#231F20;}
	.st2{fill:#231F20;}
	.st3{fill:none;stroke:#231F20;stroke-width:1.5;}
	.st4{fill:#FFFFFF;}
	.st5{fill:url(#SVGID_00000008147645794978011150000012134706673850690724_);}
	.st6{fill:#2E2A2B;}
	.st7{clip-path:url(#SVGID_00000111878507837130557380000001661633719743815083_);}
	.st8{clip-path:url(#SVGID_00000070825681854107913580000000275889520920834998_);}
	.st9{fill:url(#SVGID_00000040548217728620620760000005290795073658753180_);}
	.st10{fill:url(#SVGID_00000100361989730144397600000003007724487346907278_);}
	.st11{fill:none;stroke:#EC1D2B;stroke-width:3;stroke-miterlimit:10;}
	.st12{clip-path:url(#SVGID_00000126318526324104691560000001334657341152896946_);}
	.st13{fill:url(#SVGID_00000006668222964702788420000002990998903862714020_);}
	.st14{fill:#231F20;stroke:#231F20;stroke-width:1.5;}
	.st15{fill:url(#SVGID_00000109738943347144315690000002279044484104691130_);}
	.st16{clip-path:url(#SVGID_00000039119146557807371080000013454570317969184153_);}
	.st17{fill:url(#SVGID_00000076569213197784485460000008925307249220729249_);}
	.st18{clip-path:url(#SVGID_00000078023356136663701080000015199175810709211044_);}
	.st19{fill:none;}
	.st20{font-family:'Helvetica';}
	.st21{font-size:22px;}
	.st22{clip-path:url(#SVGID_00000127766014025353958910000003119192314358902201_);}
	.st23{fill:url(#SVGID_00000178187806859676116460000004881878850331780235_);}
	.st24{fill:url(#SVGID_00000107562948322827741460000003418319389807507366_);}
	.st25{fill-rule:evenodd;clip-rule:evenodd;}
	.st26{clip-path:url(#SVGID_00000109726789169072459240000004129609511462095802_);}
	.st27{fill:url(#SVGID_00000162349062053069148160000002572152026116474555_);}
	.st28{clip-path:url(#SVGID_00000019650884746273000570000003653748457384559774_);}
	.st29{clip-path:url(#SVGID_00000117650376584793721000000017044686360110327956_);}
	.st30{fill:url(#SVGID_00000162351769741979565510000001417714327661532545_);}
	.st31{fill:url(#SVGID_00000084526774322856556690000002088219071544839846_);}
	.st32{clip-path:url(#SVGID_00000122681128129380854090000003887779949924344736_);}
	.st33{fill:#272324;}
	.st34{fill:#2D292A;}
	.st35{fill:#2C2829;}
	.st36{clip-path:url(#SVGID_00000111168414075801240270000003102220835427089558_);}
	.st37{fill:none;stroke:#231F20;stroke-width:1.25;}
	.st38{clip-path:url(#SVGID_00000091733636142019103420000009411301296604178306_);}
</style>
<path class="st11" d="M319.19,298.82H53.7c-28.41,0-51.44-23.03-51.44-51.44V53.43c0-28.41,23.03-51.44,51.44-51.44h265.5  c28.41,0,51.44,23.03,51.44,51.44v193.95C370.63,275.79,347.6,298.82,319.19,298.82z"></path>
<rect x="57.84" y="229.36" class="st19" width="256.77" height="46.82"></rect>
<text transform="matrix(1 0 0 1 59.0635 245.1793)"><tspan x="0" y="0" class="st20 st21">Utilízalo como tratamiento</tspan><tspan x="0.58" y="26.4" class="st20 st21">hidratante para el cabello.</tspan></text>
<line class="st11" x1="2.04" y1="204.02" x2="370.63" y2="204.02"></line>
<g>
	<g>
		<defs>
			<rect id="SVGID_00000119799587911712384940000009744638229921938589_" x="4.66" y="4.69" width="363.13" height="197.92"></rect>
		</defs>
		<clipPath id="SVGID_00000079488050188418007230000017485364793301907897_">
			<use xlink:href="#SVGID_00000119799587911712384940000009744638229921938589_" style="overflow:visible;"></use>
		</clipPath>
		<g style="clip-path:url(#SVGID_00000079488050188418007230000017485364793301907897_);">
			<path class="st1" d="M187.53,104.46c18.97,0,34.35-15.38,34.35-34.35s-15.38-34.35-34.35-34.35s-34.35,15.38-34.35,34.35     S168.56,104.46,187.53,104.46z M188.24,51.34c4.43,6.04,12.17,18.12,12.17,24.34c0,8.16-7.83,12.42-12.81,12.42     c-4.98,0-13.17-4.26-13.17-12.42c0-6.76,7.97-18.36,12.52-24.35C187.29,50.9,187.93,50.91,188.24,51.34z M187.08,83.89     c1.6,0,3.98-0.47,6-1.92c2.08-1.5,3.68-3.98,3.68-7.76h-2.62c0,2.92-1.19,4.62-2.59,5.64c-1.47,1.06-3.28,1.43-4.47,1.43V83.89z      M95.99,82.31c3.16,1.98,5.55,4.52,7.34,7.67l0.28-0.21c5.81,7.69,21,25.78,35.64,37.17l0.14,0.05l0.35,0.11     c4.38,1.43,8.74,2.84,12.86,3.79c1.31,0.3,2.53,0.56,3.67,0.79c-5.05-4.4-12.09-10.97-18.84-17.54     c-8.72-8.48-17.08-17.08-20.02-20.99c-5.64-7.51-10.6-10.63-14.38-11.62C99.84,80.7,97.42,81.38,95.99,82.31z M106.08,96.83     c0.43,1.59,0.78,3.28,1.07,5.09c1.56,1.85,3.8,4.92,5.78,8.52c1.97,3.59,3.74,7.79,4.25,11.86c2.95-0.28,6.31,0.19,9.81,1     c1.92,0.45,3.92,1.01,5.95,1.63C122.56,115.96,112.48,104.65,106.08,96.83z M114.76,122.73c-2.81,0.78-5.1,2.48-6.53,5.47     c-1.5,3.12-2.01,5.77-1.64,8.06c0.37,2.32,1.61,4.08,3.27,5.48c1.64,1.38,3.72,2.42,5.86,3.31c1.31,0.55,2.72,1.07,4.09,1.58h0     l0,0h0c0.84,0.31,1.68,0.62,2.46,0.93c2.25,0.88,4.14,1.82,5.96,2.72c4.83,2.4,9.13,4.54,18.38,4.54c4.64,0,9.66,2.1,14.14,4.84     c4.45,2.73,8.22,6.01,10.31,8.17l1.77-1.7c-2.22-2.3-6.14-5.71-10.79-8.56c-4.63-2.83-10.12-5.2-15.42-5.2     c-8.65,0-12.34-1.84-16.99-4.15l0,0l0,0c-1.87-0.93-3.89-1.94-6.45-2.93c-0.87-0.34-1.74-0.66-2.59-0.97l0,0l0,0l0,0     c-0.37-0.14-0.74-0.27-1.1-0.41c0.36,0.04,0.71,0.06,1.06,0.08c2.05,0.08,4.07-0.28,5.68-1.42c1.65-1.16,2.71-3.01,3.04-5.56     c0.33-2.55-0.19-4.69-1.32-6.46c-1.11-1.74-2.75-3.02-4.55-3.96c-1.66-0.87-3.51-1.48-5.31-1.88c2.4-0.13,5.22,0.27,8.36,1     c3.64,0.85,7.59,2.12,11.66,3.45l0.12,0.09l0.03-0.04l0.45,0.15l0.3,0.1c4.36,1.42,8.83,2.88,13.08,3.85     c3.05,0.7,5.63,1.21,7.97,1.56l0.14,0.11l0.07-0.08c7.31,1.08,12.42,0.66,22.99-0.22l0,0c4.68-0.39,10.44-0.87,17.93-1.34     c14.85-0.94,25.24,1.89,32.77,6.12c7.54,4.23,12.31,9.92,15.85,14.88c2.82,3.95,9.19,14.98,16.06,27.27     c4,7.15,8.15,14.7,11.82,21.45h2.79c-3.84-7.05-8.24-15.07-12.48-22.65c-6.83-12.23-13.28-23.41-16.2-27.5     c-3.63-5.08-8.66-11.1-16.65-15.59c-8-4.49-18.88-7.4-34.13-6.43c-7.66,0.49-13.49,0.97-18.18,1.36v0l0,0h0     c-2.87,0.24-5.33,0.44-7.52,0.59c-2.38-2.07-6.69-5.75-12.1-10.38l0,0c-3.32-2.84-7.06-6.04-11.02-9.43     c-6.68-5.73-11.61-9.93-15.28-12.76c-1.84-1.42-3.39-2.51-4.72-3.29c-1.31-0.77-2.49-1.28-3.56-1.43     c-2.25-0.32-4.62-0.24-6.1-0.11c-1.34-1.5-2.42-2.76-3.13-3.72c-5.83-7.78-11.22-11.35-15.73-12.52     c-4.52-1.17-8.05,0.1-9.97,1.83l0.15,0.17c-2.46-1.04-4.64-0.91-6.41-0.16c-2.01,0.85-3.37,2.44-4.03,3.67l-0.22,0.42l0.11,0.46     c1.91,7.8,6.31,25.62,8.61,34.43c1.46,5.61,3.9,11.21,6.58,15.78c2.65,4.52,5.65,8.21,8.31,9.81c1.07,0.64,2.75,2.05,4.81,3.96     c2.04,1.89,4.37,4.19,6.72,6.55c0.78,0.78,1.57,1.57,2.35,2.36l0.01,0.01l0,0c3.89,3.9,7.62,7.65,9.86,9.48     c2.1,1.72,3.97,4.17,5.87,6.67h0l0,0c0.35,0.46,0.7,0.91,1.05,1.37c1.11,1.44,2.25,2.84,3.43,3.99c1.18,1.14,2.48,2.09,3.94,2.53     c2.11,0.63,4.99,0.74,7.62,0.66c2.57-0.08,5.04-0.36,6.61-0.6c6.5,0.81,22.47,2.47,35.79,2.85c8.13,0.23,15.74,2.67,22.13,8.02     c3,2.51,5.75,5.68,8.16,9.61h2.86c-2.71-4.72-5.89-8.51-9.44-11.49c-6.87-5.76-15.04-8.34-23.63-8.59     c-13.33-0.38-29.37-2.06-35.73-2.86l-0.17-0.02l-0.17,0.03c-1.47,0.23-3.93,0.51-6.48,0.59c-2.59,0.08-5.13-0.04-6.84-0.56     c-0.93-0.28-1.89-0.93-2.94-1.95c-1.04-1.01-2.09-2.29-3.19-3.72c-0.33-0.42-0.66-0.86-0.99-1.3l0,0h0     c-1.89-2.49-3.96-5.22-6.31-7.14c-2.13-1.74-5.74-5.37-9.63-9.28l0,0l0,0l0,0c-0.79-0.79-1.59-1.6-2.39-2.4     c-2.36-2.36-4.72-4.69-6.79-6.61c-2.05-1.9-3.89-3.48-5.21-4.27c-2.11-1.27-4.85-4.5-7.46-8.95c-2.58-4.39-4.92-9.78-6.32-15.16     c-2.24-8.6-6.51-25.86-8.48-33.9c0.52-0.78,1.41-1.68,2.6-2.19c1.32-0.56,3.15-0.69,5.52,0.66c6.25,3.57,9.46,9.37,10.86,18.71     l0.05,0.35l0.23,0.27c1.46,1.69,3.73,4.75,5.72,8.37C112.71,115.13,114.33,119.06,114.76,122.73z M161.62,124.29     c4.17,3.57,7.68,6.57,10.16,8.7c-3.81,0.15-6.98,0.04-10.72-0.49c-4.81-3.93-13.55-12-21.9-20.13     c-5.43-5.28-10.64-10.53-14.49-14.65c1.11-0.02,2.38,0.02,3.6,0.19c0.6,0.09,1.45,0.41,2.67,1.12c1.2,0.7,2.66,1.73,4.46,3.12     c3.61,2.78,8.48,6.94,15.18,12.68C154.56,118.25,158.3,121.45,161.62,124.29z M110.43,129.26c0.57-1.18,1.29-2.1,2.17-2.79     c2.72,0.06,6.6,0.67,9.64,2.26c1.54,0.81,2.8,1.84,3.62,3.11c0.8,1.25,1.21,2.82,0.95,4.82c-0.26,2-1.04,3.18-2.02,3.87     c-1.02,0.72-2.44,1.04-4.18,0.97c-3.43-0.13-7.62-1.74-10.92-3.67c-0.34-0.6-0.58-1.25-0.69-1.97     C108.74,134.24,109.07,132.11,110.43,129.26z"></path>
		</g>
	</g>
</g>
</svg>
